<svg width="16" height="12" viewBox="0 0 16 12" fill="none" xmlns="http://www.w3.org/2000/svg">
<path d="M15.0396 0.00210957H15.0389C15.0396 0.00140643 15.0396 0.000703146 15.0396 0H0.95967C0.715918 0 0.482584 0.0949302 0.303418 0.267919C0.240918 0.328394 0.206195 0.412777 0.208278 0.499979C0.210362 0.587181 0.247862 0.670151 0.313139 0.727808L7.27228 6.91301C7.47993 7.09724 7.74034 7.18937 8.00076 7.18937C8.26119 7.18937 8.52091 7.09725 8.72925 6.91301L15.3855 0.996394V11.0275C15.3855 11.2202 15.2313 11.377 15.0403 11.377L0.960431 11.3763C0.770155 11.3763 0.615292 11.2202 0.615292 11.0268V2.61728C0.615292 2.445 0.477791 2.30576 0.307646 2.30576C0.137501 2.30576 0 2.445 0 2.61728V11.0275C0 11.5633 0.430562 12 0.960413 12H15.0396C15.5688 12 16 11.564 16 11.0275V0.974628C16 0.438088 15.5694 0.00210957 15.0396 0.00210957ZM8.32219 6.44402C8.13815 6.60716 7.86038 6.60645 7.67705 6.44402L1.13053 0.625148H14.8694L8.32219 6.44402Z" fill="#483EA8"/>
</svg>
