<svg width="38" height="38" viewBox="0 0 38 38" fill="none" xmlns="http://www.w3.org/2000/svg">
<path d="M31 0C27.1518 0 24 3.15178 24 7C24 7.58577 24.1985 8.10946 24.3359 8.6543L12.3457 14.6523C11.0591 13.0739 9.1815 12 7 12C3.15177 12 0 15.1518 0 19C0 22.8482 3.15177 26 7 26C9.1815 26 11.0591 24.9261 12.3457 23.3477L24.3359 29.3457C24.1985 29.8905 24 30.4142 24 31C24 34.8482 27.1518 38 31 38C34.8482 38 38 34.8482 38 31C38 27.1518 34.8482 24 31 24C28.8185 24 26.9409 25.0739 25.6543 26.6523L13.6641 20.6543C13.8015 20.1095 14 19.5858 14 19C14 18.4142 13.8015 17.8905 13.6641 17.3457L25.6543 11.3477C26.9409 12.9261 28.8185 14 31 14C34.8482 14 38 10.8482 38 7C38 3.15178 34.8482 0 31 0ZM31 3C33.2269 3 35 4.77309 35 7C35 9.22691 33.2269 11 31 11C28.7731 11 27 9.22691 27 7C27 4.77309 28.7731 3 31 3ZM7 15C9.22691 15 11 16.7731 11 19C11 21.2269 9.22691 23 7 23C4.77309 23 3 21.2269 3 19C3 16.7731 4.77309 15 7 15ZM31 27C33.2269 27 35 28.7731 35 31C35 33.2269 33.2269 35 31 35C28.7731 35 27 33.2269 27 31C27 28.7731 28.7731 27 31 27Z" fill="url(#paint0_linear_1595_1971)"/>
<defs>
<linearGradient id="paint0_linear_1595_1971" x1="19" y1="0" x2="19" y2="38" gradientUnits="userSpaceOnUse">
<stop stop-color="#042B87"/>
<stop offset="1" stop-color="#AD59B4"/>
</linearGradient>
</defs>
</svg>
