<svg width="19" height="17" viewBox="0 0 19 17" fill="none" xmlns="http://www.w3.org/2000/svg">
<path d="M14.0057 15.2267L13.7205 15.339L13.4573 15.447C13.3425 15.4942 13.0902 15.3651 13.3796 16.106C13.691 16.9075 13.7813 16.6114 13.896 16.5768C14.069 16.5253 14.2588 16.4561 14.4124 16.4021C14.5702 16.3481 14.7297 16.3009 14.8917 16.257C15.2157 16.1751 15.5481 16.1211 15.8856 16.1228C16.2206 16.1228 16.5556 16.1794 16.8661 16.3042C17.0213 16.3667 17.1681 16.4468 17.3048 16.5439C17.3757 16.5937 17.4297 16.6434 17.5056 16.7059C17.5816 16.7683 17.655 16.8333 17.7259 16.9025C17.86 17.0299 18.0625 17.2003 18.4582 16.1963C18.7822 15.3711 18.5249 15.3753 18.3781 15.3128C18.0735 15.1787 17.6221 15.026 17.2095 14.9694C17.0626 14.9458 16.9133 14.9306 16.7648 14.918C16.8298 14.7172 16.8104 14.4775 16.812 14.2826C16.8289 12.3622 16.7066 10.4419 16.7066 8.52138C16.6872 8.52138 16.6981 8.52138 16.7066 8.52138C16.7066 6.51491 16.7108 4.50589 16.7024 2.49943C16.7024 2.27498 16.7994 1.97461 16.6112 1.80163C16.7732 1.7932 16.9378 1.78223 17.1015 1.76704C17.3107 1.7451 17.5208 1.72569 17.7343 1.7046C17.8381 1.69363 17.957 1.67676 18.0541 1.67001C18.1511 1.66326 18.2507 1.65904 18.3502 1.65904C18.5359 1.65904 18.7991 1.64385 18.3933 0.641468C18.0608 -0.179517 17.8769 0.000197905 17.7284 0.0559051C17.3614 0.19597 17.1369 0.314936 16.8382 0.41028C16.553 0.505626 16.2509 0.569751 15.9438 0.572282C15.624 0.572282 15.3068 0.535155 14.9954 0.461749C14.8402 0.424622 14.6866 0.379903 14.5373 0.325902L14.0276 0.129305C13.9112 0.0837415 13.8184 -0.182042 13.5155 0.552866C13.1889 1.34769 13.4573 1.19666 13.5653 1.24814C13.7357 1.33251 13.8893 1.40592 14.0816 1.48354C14.2715 1.55947 14.4664 1.61769 14.6647 1.66494C14.9608 1.73582 15.2629 1.77717 15.5658 1.79657C15.3996 1.96701 15.4992 2.25474 15.4924 2.45724C15.3675 6.38245 15.6848 10.3135 15.095 14.232C15.0629 14.4522 15.0258 14.7222 15.1186 14.9408C14.9566 14.9644 14.7972 14.9922 14.6394 15.0293C14.4259 15.0791 14.2141 15.1441 14.0082 15.2192L14.0057 15.2267Z" fill="#483EA8"/>
<path d="M1.11897 9.16672C2.19646 8.98109 2.15596 7.37625 1.04978 7.30285C-0.455503 7.14929 -0.261424 9.59443 1.11897 9.16672Z" fill="#483EA8"/>
<path d="M6.09553 9.16672C7.17302 8.98109 7.13252 7.37625 6.02634 7.30285C4.52106 7.14929 4.71514 9.59443 6.09553 9.16672Z" fill="#483EA8"/>
<path d="M11.18 9.16672C12.2575 8.98109 12.217 7.37625 11.1108 7.30285C9.60553 7.14929 9.79961 9.59443 11.18 9.16672Z" fill="#483EA8"/>
</svg>
