<svg width="1449" height="121" viewBox="0 0 1449 121" fill="none" xmlns="http://www.w3.org/2000/svg">
<path opacity="0.76" d="M-170.439 185.245C-192.057 185.245 -209.351 180.09 -222.322 169.78C-235.292 159.47 -242.859 144.753 -245.02 125.63H-219.328C-217.832 138.102 -212.843 147.58 -204.362 154.065C-195.881 160.551 -184.407 163.793 -169.94 163.793C-157.801 163.793 -148.655 161.549 -142.502 157.059C-136.183 152.569 -133.024 146.167 -133.024 137.852C-133.024 130.369 -135.102 124.466 -139.259 120.142C-143.417 115.652 -149.985 111.994 -158.965 109.167L-190.144 99.1895C-206.108 94.0345 -217.832 87.5492 -225.315 79.7335C-232.798 71.9179 -236.539 62.0236 -236.539 50.0506C-236.539 39.9069 -234.045 31.1767 -229.056 23.8599C-223.901 16.5431 -216.751 10.8892 -207.605 6.89824C-198.293 2.74098 -187.484 0.662346 -175.178 0.662346C-156.221 0.662346 -141.089 5.48477 -129.781 15.1296C-118.307 24.6082 -111.738 37.8283 -110.075 54.7899H-135.767C-137.763 43.4822 -142.086 35.2508 -148.738 30.0958C-155.39 24.7745 -164.536 22.1138 -176.176 22.1138C-187.151 22.1138 -195.715 24.2756 -201.868 28.5992C-208.021 32.9227 -211.097 38.9923 -211.097 46.808C-211.097 53.127 -209.102 58.4483 -205.111 62.7719C-200.953 66.9292 -194.135 70.5044 -184.657 73.4976L-151.981 83.9739C-136.848 88.7964 -125.707 95.3648 -118.556 103.679C-111.24 111.994 -107.581 122.47 -107.581 135.108C-107.581 151.072 -113.069 163.461 -124.044 172.274C-135.019 180.921 -150.484 185.245 -170.439 185.245ZM-81.1351 183V55.7877H-55.1937V183H-81.1351ZM-82.3822 30.8441V1.66008H-53.6971V30.8441H-82.3822ZM-19.7738 183V55.7877H4.92033V85.72H6.16751V183H-19.7738ZM66.0321 183V99.9378C66.0321 91.2907 64.0366 84.9717 60.0457 80.9807C56.0547 76.9897 50.3177 74.9942 42.8346 74.9942C35.8504 74.9942 29.5313 76.6571 23.8775 79.983C18.3899 83.1425 14.0663 87.6323 10.9068 93.4525C7.74727 99.1064 6.16751 105.841 6.16751 113.657L2.92484 83.9739C7.08211 74.4954 13.318 67.0123 21.6325 61.5247C30.1134 56.0371 39.5919 53.2933 50.0682 53.2933C62.7063 53.2933 72.7669 56.9517 80.25 64.2685C87.8993 71.5853 91.724 81.2301 91.724 93.2031V183H66.0321ZM151.838 183V99.9378C151.838 91.2907 149.759 84.9717 145.602 80.9807C141.611 76.9897 135.874 74.9942 128.391 74.9942C121.573 74.9942 115.337 76.6571 109.683 79.983C104.196 83.1425 99.7891 87.6323 96.4633 93.4525C93.3038 99.1064 91.724 105.841 91.724 113.657L86.4859 83.9739C90.8094 74.4954 97.2948 67.0123 105.942 61.5247C114.755 56.0371 124.566 53.2933 135.375 53.2933C148.18 53.2933 158.407 57.0349 166.056 64.5179C173.705 71.8347 177.53 81.6459 177.53 93.9514V183H151.838ZM279.216 185.245C267.243 185.245 257.266 182.418 249.284 176.764C241.468 170.944 236.313 162.879 233.819 152.569L237.311 152.07V234.134H211.369V55.7877H236.064V84.9717L233.569 84.2234C236.23 74.5785 241.884 67.0123 250.531 61.5247C259.178 56.0371 269.322 53.2933 280.962 53.2933C292.436 53.2933 302.33 56.0371 310.645 61.5247C319.126 67.0123 325.611 74.6617 330.101 84.4728C334.757 94.284 337.085 105.758 337.085 118.895C337.085 132.198 334.674 143.839 329.852 153.816C325.029 163.793 318.294 171.526 309.647 177.014C301 182.501 290.856 185.245 279.216 185.245ZM273.728 163.793C285.036 163.793 294.016 159.802 300.668 151.821C307.319 143.839 310.645 132.863 310.645 118.895C310.645 105.093 307.319 94.3671 300.668 86.7177C294.016 78.9021 284.953 74.9942 273.479 74.9942C262.171 74.9942 253.108 78.9852 246.29 86.9672C239.639 94.7828 236.313 105.675 236.313 119.643C236.313 133.279 239.639 144.088 246.29 152.07C253.108 159.886 262.254 163.793 273.728 163.793ZM363.346 183V3.40614H389.287V183H363.346ZM479.583 185.494C466.779 185.494 455.471 182.667 445.66 177.014C436.015 171.36 428.449 163.544 422.961 153.567C417.474 143.589 414.73 132.115 414.73 119.144C414.73 106.007 417.391 94.5334 422.712 84.7222C428.199 74.7448 435.849 67.0123 445.66 61.5247C455.471 56.0371 466.696 53.2933 479.334 53.2933C491.639 53.2933 502.282 55.954 511.262 61.2753C520.408 66.4303 527.392 73.6639 532.214 82.9762C537.203 92.2885 539.697 103.347 539.697 116.151C539.697 118.147 539.614 120.059 539.448 121.888C539.448 123.551 539.282 125.297 538.949 127.126H432.19V107.67H520.74L514.255 115.403C514.255 101.767 511.178 91.3739 505.026 84.2234C498.873 77.0729 490.309 73.4976 479.334 73.4976C467.527 73.4976 458.132 77.5718 451.148 85.72C444.33 93.7019 440.921 104.843 440.921 119.144C440.921 133.612 444.33 144.919 451.148 153.068C458.132 161.216 467.777 165.29 480.082 165.29C487.565 165.29 494.05 163.793 499.538 160.8C505.026 157.641 509.1 153.068 511.76 147.081H536.205C532.048 159.054 524.981 168.45 515.003 175.267C505.192 182.085 493.385 185.494 479.583 185.494ZM554.506 183V152.07H585.186V183H554.506ZM733.579 185.245C711.961 185.245 694.667 180.09 681.696 169.78C668.726 159.47 661.16 144.753 658.998 125.63H684.69C686.186 138.102 691.175 147.58 699.656 154.065C708.137 160.551 719.611 163.793 734.078 163.793C746.217 163.793 755.363 161.549 761.516 157.059C767.835 152.569 770.994 146.167 770.994 137.852C770.994 130.369 768.916 124.466 764.759 120.142C760.601 115.652 754.033 111.994 745.053 109.167L713.874 99.1895C697.91 94.0345 686.186 87.5492 678.703 79.7335C671.22 71.9179 667.479 62.0236 667.479 50.0506C667.479 39.9069 669.973 31.1767 674.962 23.8599C680.117 16.5431 687.267 10.8892 696.413 6.89824C705.725 2.74098 716.534 0.662346 728.84 0.662346C747.797 0.662346 762.929 5.48477 774.237 15.1296C785.711 24.6082 792.28 37.8283 793.943 54.7899H768.251C766.255 43.4822 761.932 35.2508 755.28 30.0958C748.628 24.7745 739.482 22.1138 727.842 22.1138C716.867 22.1138 708.303 24.2756 702.15 28.5992C695.997 32.9227 692.921 38.9923 692.921 46.808C692.921 53.127 694.917 58.4483 698.908 62.7719C703.065 66.9292 709.883 70.5044 719.361 73.4976L752.037 83.9739C767.17 88.7964 778.311 95.3648 785.462 103.679C792.779 111.994 796.437 122.47 796.437 135.108C796.437 151.072 790.949 163.461 779.974 172.274C768.999 180.921 753.534 185.245 733.579 185.245ZM877.028 185.494C864.224 185.494 852.916 182.667 843.105 177.014C833.46 171.36 825.894 163.544 820.406 153.567C814.919 143.589 812.175 132.115 812.175 119.144C812.175 106.007 814.836 94.5334 820.157 84.7222C825.644 74.7448 833.294 67.0123 843.105 61.5247C852.916 56.0371 864.141 53.2933 876.779 53.2933C889.084 53.2933 899.727 55.954 908.707 61.2753C917.853 66.4303 924.837 73.6639 929.659 82.9762C934.648 92.2885 937.142 103.347 937.142 116.151C937.142 118.147 937.059 120.059 936.893 121.888C936.893 123.551 936.727 125.297 936.394 127.126H829.635V107.67H918.185L911.7 115.403C911.7 101.767 908.623 91.3739 902.471 84.2234C896.318 77.0729 887.754 73.4976 876.779 73.4976C864.972 73.4976 855.577 77.5718 848.593 85.72C841.775 93.7019 838.366 104.843 838.366 119.144C838.366 133.612 841.775 144.919 848.593 153.068C855.577 161.216 865.222 165.29 877.527 165.29C885.01 165.29 891.495 163.793 896.983 160.8C902.471 157.641 906.545 153.068 909.205 147.081H933.65C929.493 159.054 922.426 168.45 912.448 175.267C902.637 182.085 890.83 185.494 877.028 185.494ZM1016.29 185.494C1004.15 185.494 993.343 182.667 983.865 177.014C974.386 171.193 966.903 163.295 961.415 153.317C956.094 143.34 953.434 131.949 953.434 119.144C953.434 106.34 956.094 95.0323 961.415 85.2211C966.903 75.2437 974.386 67.428 983.865 61.7741C993.343 56.1203 1004.07 53.2933 1016.04 53.2933C1026.19 53.2933 1035.25 55.2057 1043.23 59.0303C1051.21 62.855 1057.78 68.1763 1062.94 74.9942C1068.09 81.8122 1071.42 89.8773 1072.91 99.1895H1048.47C1046.81 91.7065 1043.15 85.72 1037.49 81.2301C1032.01 76.7403 1025.02 74.4954 1016.54 74.4954C1009.22 74.4954 1002.82 76.3246 997.334 79.983C991.847 83.6414 987.606 88.7964 984.613 95.448C981.62 102.1 980.123 109.998 980.123 119.144C980.123 128.124 981.62 136.023 984.613 142.841C987.606 149.659 991.847 154.98 997.334 158.805C1002.82 162.463 1009.31 164.292 1016.79 164.292C1024.94 164.292 1031.84 162.131 1037.49 157.807C1043.31 153.317 1047.06 147.331 1048.72 139.848H1073.16C1071.5 148.994 1068.01 156.976 1062.69 163.793C1057.53 170.611 1050.96 175.933 1042.98 179.757C1035 183.582 1026.1 185.494 1016.29 185.494ZM1136.82 185.494C1128.34 185.494 1120.86 183.748 1114.37 180.256C1107.88 176.598 1102.81 171.609 1099.15 165.29C1095.66 158.971 1093.92 151.737 1093.92 143.589V55.7877H1119.86V137.603C1119.86 146.416 1122.02 152.985 1126.34 157.308C1130.67 161.632 1136.82 163.793 1144.8 163.793C1151.95 163.793 1158.27 162.131 1163.76 158.805C1169.41 155.479 1173.82 150.906 1176.98 145.086C1180.3 139.099 1181.97 132.198 1181.97 124.383L1185.21 154.814C1181.05 164.126 1174.65 171.609 1166 177.263C1157.52 182.751 1147.79 185.494 1136.82 185.494ZM1182.97 183V153.068H1181.97V55.7877H1207.66V183H1182.97ZM1243.01 183V55.7877H1267.7V87.466H1268.95V183H1243.01ZM1268.95 116.65L1265.7 86.4683C1268.7 75.6594 1273.85 67.428 1281.17 61.7741C1288.49 56.1203 1297.22 53.2933 1307.36 53.2933C1311.18 53.2933 1313.85 53.6259 1315.34 54.2911V78.7358C1314.51 78.4032 1313.35 78.2369 1311.85 78.2369C1310.35 78.0706 1308.52 77.9875 1306.36 77.9875C1293.89 77.9875 1284.49 81.2301 1278.18 87.7155C1272.02 94.2008 1268.95 103.846 1268.95 116.65ZM1388.72 185.494C1375.91 185.494 1364.6 182.667 1354.79 177.014C1345.15 171.36 1337.58 163.544 1332.09 153.567C1326.61 143.589 1323.86 132.115 1323.86 119.144C1323.86 106.007 1326.52 94.5334 1331.85 84.7222C1337.33 74.7448 1344.98 67.0123 1354.79 61.5247C1364.6 56.0371 1375.83 53.2933 1388.47 53.2933C1400.77 53.2933 1411.42 55.954 1420.4 61.2753C1429.54 66.4303 1436.53 73.6639 1441.35 82.9762C1446.34 92.2885 1448.83 103.347 1448.83 116.151C1448.83 118.147 1448.75 120.059 1448.58 121.888C1448.58 123.551 1448.42 125.297 1448.08 127.126H1341.32V107.67H1429.87L1423.39 115.403C1423.39 101.767 1420.31 91.3739 1414.16 84.2234C1408.01 77.0729 1399.44 73.4976 1388.47 73.4976C1376.66 73.4976 1367.27 77.5718 1360.28 85.72C1353.46 93.7019 1350.05 104.843 1350.05 119.144C1350.05 133.612 1353.46 144.919 1360.28 153.068C1367.27 161.216 1376.91 165.29 1389.22 165.29C1396.7 165.29 1403.18 163.793 1408.67 160.8C1414.16 157.641 1418.23 153.068 1420.89 147.081H1445.34C1441.18 159.054 1434.11 168.45 1424.14 175.267C1414.33 182.085 1402.52 185.494 1388.72 185.494Z" fill="#DDE2FB" fill-opacity="0.19"/>
</svg>
