<svg width="22" height="18" viewBox="0 0 22 18" fill="none" xmlns="http://www.w3.org/2000/svg">
<path d="M16.2819 15.6247L15.9893 15.7399L15.7191 15.8507C15.6014 15.8992 15.3425 15.7667 15.6395 16.5269C15.959 17.3494 16.0516 17.0455 16.1694 17.01C16.3469 16.9572 16.5417 16.8862 16.6992 16.8308C16.8611 16.7754 17.0248 16.7269 17.191 16.6819C17.5235 16.5979 17.8646 16.5425 18.211 16.5442C18.5547 16.5442 18.8984 16.6023 19.2171 16.7304C19.3764 16.7945 19.527 16.8767 19.6673 16.9763C19.74 17.0274 19.7954 17.0785 19.8733 17.1425C19.9513 17.2066 20.0266 17.2733 20.0993 17.3443C20.237 17.475 20.4448 17.6499 20.8508 16.6196C21.1833 15.7728 20.9192 15.7771 20.7686 15.7131C20.456 15.5754 19.9928 15.4187 19.5694 15.3607C19.4188 15.3365 19.2655 15.3209 19.1131 15.3079C19.1798 15.1018 19.1599 14.8559 19.1616 14.6559C19.1789 12.6853 19.0534 10.7148 19.0534 8.74411C19.0335 8.74411 19.0447 8.74411 19.0534 8.74411C19.0534 6.68519 19.0577 4.62366 19.0491 2.56476C19.0491 2.33445 19.1486 2.02622 18.9555 1.84872C19.1218 1.84007 19.2906 1.82881 19.4586 1.81323C19.6733 1.79071 19.8889 1.7708 20.1079 1.74916C20.2144 1.7379 20.3365 1.72058 20.4361 1.71366C20.5357 1.70673 20.6378 1.7024 20.74 1.7024C20.9305 1.7024 21.2006 1.68682 20.7842 0.658234C20.443 -0.184209 20.2543 0.000203078 20.1019 0.0573663C19.7253 0.201092 19.495 0.323168 19.1885 0.421004C18.8958 0.518842 18.5858 0.584643 18.2707 0.58724C17.9425 0.58724 17.617 0.549143 17.2975 0.473818C17.1382 0.435721 16.9806 0.389833 16.8274 0.334421L16.3044 0.132685C16.185 0.0859303 16.0897 -0.1868 15.7789 0.567316C15.4438 1.38292 15.7191 1.22794 15.83 1.28076C16.0049 1.36734 16.1624 1.44267 16.3598 1.52231C16.5546 1.60024 16.7546 1.65998 16.9581 1.70846C17.262 1.78119 17.572 1.82362 17.8828 1.84353C17.7122 2.01842 17.8144 2.31367 17.8075 2.52147C17.6793 6.54927 18.0049 10.5831 17.3997 14.604C17.3668 14.83 17.3287 15.107 17.4239 15.3313C17.2577 15.3555 17.0941 15.3841 16.9321 15.4222C16.7131 15.4733 16.4958 15.5399 16.2845 15.617L16.2819 15.6247Z" fill="#483EA8"/>
<path d="M1.40838 10.3302L1.46165 9.50559L0.771307 9.96795L0.485795 9.46511L1.2294 9.10289L0.485795 8.74068L0.771307 8.23784L1.46165 8.7002L1.40838 7.87562H1.98153L1.92614 8.7002L2.61648 8.23784L2.90199 8.74068L2.16051 9.10289L2.90199 9.46511L2.61648 9.96795L1.92614 9.50559L1.98153 10.3302H1.40838Z" fill="#483EA8"/>
<path d="M7.13861 10.3302L7.19187 9.50559L6.50153 9.96795L6.21602 9.46511L6.95963 9.10289L6.21602 8.74068L6.50153 8.23784L7.19187 8.7002L7.13861 7.87562H7.71176L7.65636 8.7002L8.3467 8.23784L8.63221 8.74068L7.89074 9.10289L8.63221 9.46511L8.3467 9.96795L7.65636 9.50559L7.71176 10.3302H7.13861Z" fill="#483EA8"/>
<path d="M12.8691 10.3302L12.9223 9.50559L12.232 9.96795L11.9465 9.46511L12.6901 9.10289L11.9465 8.74068L12.232 8.23784L12.9223 8.7002L12.8691 7.87562H13.4422L13.3868 8.7002L14.0772 8.23784L14.3627 8.74068L13.6212 9.10289L14.3627 9.46511L14.0772 9.96795L13.3868 9.50559L13.4422 10.3302H12.8691Z" fill="#483EA8"/>
</svg>
