<svg width="16" height="16" viewBox="0 0 16 16" fill="none" xmlns="http://www.w3.org/2000/svg">
<path d="M14.9761 4.08235L14.7418 3.66672L8.00866 9.95424L5.31746 7.26304L4.78746 7.79304L7.99114 10.9974L14.5449 4.87736C15.0074 5.84674 15.2499 6.91672 15.2499 7.99992C15.2499 11.9974 11.9974 15.2498 7.99997 15.2498C4.00253 15.2498 0.750048 11.9974 0.750048 7.99992C0.750048 4.00248 4.00253 0.75 7.99997 0.75C8.60934 0.75 9.2156 0.82625 9.80125 0.975632L9.98688 0.249376C9.34062 0.083744 8.67187 0 8 0C3.5888 0 0 3.5888 0 8C0 12.4112 3.5888 16 8 16C12.4112 16 16 12.4112 16 8C16 6.62688 15.6463 5.27184 14.9763 4.08256L14.9761 4.08235Z" fill="#483EA8"/>
</svg>
