<svg width="42" height="42" viewBox="0 0 42 42" fill="none" xmlns="http://www.w3.org/2000/svg">
<path d="M41.4739 5.19323C41.8108 5.53114 42 5.98881 42 6.46595C42 6.94308 41.8108 7.40075 41.4739 7.73866L37.713 11.5027L30.5012 4.29188L34.2621 0.52781C34.6002 0.189854 35.0587 0 35.5368 0C36.0149 0 36.4734 0.189854 36.8115 0.52781L41.4739 5.18963V5.19323ZM35.1636 14.0482L27.9518 6.83731L3.38491 31.4047C3.18645 31.6031 3.03704 31.845 2.94859 32.1113L0.0458518 40.8148C-0.00679139 40.9735 -0.0142659 41.1437 0.0242644 41.3064C0.0627947 41.469 0.145812 41.6178 0.264036 41.736C0.38226 41.8542 0.531033 41.9372 0.693727 41.9757C0.85642 42.0143 1.02662 42.0068 1.18531 41.9542L9.88993 39.0518C10.1559 38.9644 10.3979 38.8163 10.5967 38.6191L35.1636 14.0482Z" fill="black"/>
</svg>
