<svg width="89" height="67" viewBox="0 0 89 67" fill="none" xmlns="http://www.w3.org/2000/svg">
<path d="M85.1197 34.9757L54.0147 26.4913C50.6592 25.4522 47.2139 28.8819 48.2608 32.2452L56.7452 63.3502C57.2764 65.3814 59.1866 66.8229 61.2804 66.8072C62.6866 66.8072 64.0265 66.1744 64.9288 65.0455L69.1671 59.7486C69.4483 59.397 69.8507 59.19 70.2999 59.1666C70.7686 59.1431 71.1749 59.3033 71.4913 59.6236L74.503 62.6353C76.2725 64.4048 79.3624 64.4087 81.1319 62.6353L84.4053 59.3619C86.2334 57.5338 86.2334 54.5611 84.4053 52.733L81.3936 49.7213C80.7373 49.0963 80.7998 47.944 81.5225 47.3971L86.8194 43.1588C89.796 40.9361 88.7452 35.8307 85.1241 34.9752L85.1197 34.9757ZM84.8619 40.7218L79.5689 44.9601C78.5298 45.7921 77.8892 47.0304 77.815 48.3585C77.483 51.128 80.5845 53.1749 82.1939 54.9483C82.8033 55.5577 82.8033 56.5499 82.1939 57.1592L78.9205 60.4326C78.3267 61.0264 77.3033 61.0224 76.7096 60.4326L73.694 57.4209C71.8307 55.46 68.362 55.6514 66.7174 57.8076L62.4791 63.1045C61.7447 64.0967 60.0299 63.749 59.7525 62.5381L51.2681 31.4331C51.0532 30.644 51.479 30.1089 51.6704 29.9175C51.8501 29.6753 52.6509 29.2964 53.186 29.5152L84.288 37.9996C85.495 38.2808 85.8544 39.9879 84.8544 40.7262L84.8619 40.7218Z" fill="#6668a3c2"/>
<path d="M61.1306 15.5937L59.5994 21.6523C59.1111 23.6289 62.1111 24.4023 62.6306 22.4179L64.1618 16.3593C64.6306 14.3632 61.6696 13.6093 61.1306 15.5937Z" fill="#6668a3c2"/>
<path d="M51.0256 14.1206C50.1975 14.355 49.7131 15.2183 49.9514 16.0503L51.6584 22.062C51.8928 22.898 52.7795 23.3745 53.5881 23.1401C54.4162 22.9058 54.9006 22.0424 54.6623 21.2104L52.9553 15.1987C52.717 14.3667 51.8537 13.8862 51.0256 14.1206Z" fill="#6668a3c2"/>
<path d="M71.5417 19.8895L67.1862 24.3739C66.2136 25.3075 66.9831 27.0731 68.3073 27.0262C68.7136 27.0262 69.1237 26.8661 69.4284 26.5536L73.7839 22.0692C75.198 20.6004 72.9714 18.4325 71.5417 19.8934V19.8895Z" fill="#6668a3c2"/>
<path d="M21.7018 43.7496C21.9635 43.6871 47.8308 43.7926 47.7328 43.7496C49.7914 43.7066 49.7875 40.6637 47.7328 40.6246H21.7018C-3.07522 39.6012 -3.09522 4.1556 21.7018 3.1246H65.5768C79.3698 2.88241 88.7408 18.4916 82.1278 30.5856C81.7254 31.3512 82.0223 32.2926 82.784 32.695C86.0067 34.3512 87.5262 23.9684 87.3856 21.875C87.3856 9.813 77.6004 0 65.5736 0H21.6986C-7.22338 1.1953 -7.24237 42.547 21.6986 43.75L21.7018 43.7496Z" fill="#6668a3c2"/>
<path d="M12.8456 24.5427L17.5331 29.2302C18.1425 29.8396 19.1308 29.8396 19.744 29.2302L30.682 18.2922C32.1156 16.8469 29.9281 14.6399 28.4711 16.0813L18.6391 25.9133L15.0571 22.3313C13.6118 20.8938 11.4042 23.0896 12.8456 24.5427Z" fill="#6668a3c2"/>
<path d="M6.13867 21.8745C6.13867 30.4917 13.1504 37.4995 21.7637 37.4995C42.4937 36.6401 42.4867 7.10451 21.7637 6.24951C13.1504 6.24951 6.13867 13.2573 6.13867 21.8745ZM34.2637 21.8745C34.2637 28.7651 28.6543 34.3745 21.7637 34.3745C5.18167 33.687 5.18567 10.0585 21.7637 9.37451C28.6543 9.37451 34.2637 14.9839 34.2637 21.8745Z" fill="#6668a3c2"/>
</svg>
