<svg width="7" height="6" viewBox="0 0 7 6" fill="none" xmlns="http://www.w3.org/2000/svg">
<path d="M1.94444 5.25C1.63333 5.25 1.32222 4.9875 1.16667 4.875C0.388889 4.35 0.155556 4.1625 0 4.05V5.625C0 5.83207 0.174149 6 0.388889 6H3.5C3.71474 6 3.88889 5.83207 3.88889 5.625V4.05C3.73333 4.1625 3.5 4.35 2.72222 4.875C2.56667 4.9875 2.25556 5.25 1.94444 5.25ZM3.5 3H0.388889C0.174149 3 0 3.16793 0 3.375V3.5625C0.311111 3.7875 0.272222 3.7875 1.4 4.575C1.51667 4.65 1.75 4.875 1.94444 4.875C2.13889 4.875 2.37222 4.65 2.48889 4.6125C3.61667 3.825 3.57778 3.825 3.88889 3.6V3.375C3.88889 3.16793 3.71474 3 3.5 3ZM6.61111 1.875H2.72222C2.50748 1.875 2.33333 2.04293 2.33333 2.25V2.625H3.5C3.90359 2.625 4.23634 2.92289 4.27425 3.30258L4.27778 3.3V4.875H6.61111C6.82585 4.875 7 4.70707 7 4.5V2.25C7 2.04293 6.82585 1.875 6.61111 1.875ZM6.22222 3.375H5.44444V2.625H6.22222V3.375ZM1.94444 2.25C1.94444 1.83645 2.29335 1.5 2.72222 1.5H5.44444V0.375C5.44444 0.16793 5.2703 0 5.05556 0H1.16667C0.951927 0 0.777778 0.16793 0.777778 0.375V2.625H1.94444V2.25Z" fill="black" fill-opacity="0.44"/>
</svg>
