<svg width="9" height="9" viewBox="0 0 9 9" fill="none" xmlns="http://www.w3.org/2000/svg">
<path d="M7.66385 8.5H1.37814C0.904746 8.5 0.520996 8.11625 0.520996 7.64286V1.35714C0.520996 0.88375 0.904746 0.5 1.37814 0.5H7.66385C8.13725 0.5 8.521 0.88375 8.521 1.35714V7.64286C8.521 8.11625 8.13725 8.5 7.66385 8.5ZM4.00875 6.74895L7.29446 3.46323C7.40603 3.35166 7.40603 3.17075 7.29446 3.05918L6.89041 2.65513C6.77884 2.54355 6.59792 2.54354 6.48634 2.65513L3.80671 5.33473L2.55566 4.08368C2.44409 3.97211 2.26317 3.97211 2.15159 4.08368L1.74753 4.48773C1.63596 4.5993 1.63596 4.78021 1.74753 4.89179L3.60467 6.74893C3.71626 6.86054 3.89716 6.86054 4.00875 6.74895Z" fill="#483EA8" fill-opacity="0.71"/>
</svg>
