<svg width="48" height="49" viewBox="0 0 48 49" fill="none" xmlns="http://www.w3.org/2000/svg">
<path d="M41.69 39.38V3.3C41.69 1.75 40.43 0.5 38.89 0.5H2.8C1.26 0.5 0 1.76 0 3.3V39.38C0 40.93 1.26 42.18 2.8 42.18H38.88C40.43 42.19 41.69 40.93 41.69 39.38ZM2 39.38V3.3C2 2.86 2.36 2.5 2.8 2.5H38.88C39.32 2.5 39.68 2.86 39.68 3.3V39.38C39.68 39.82 39.32 40.18 38.88 40.18H2.8C2.36 40.19 2 39.83 2 39.38Z" fill="black" fill-opacity="0.78"/>
<path d="M47.0001 8.62C46.4501 8.62 46.0001 9.07 46.0001 9.62V45.7C46.0001 46.14 45.6401 46.5 45.2001 46.5H9.12012C8.57012 46.5 8.12012 46.95 8.12012 47.5C8.12012 48.05 8.57012 48.5 9.12012 48.5H45.2001C46.7501 48.5 48.0001 47.24 48.0001 45.7V9.62C48.0001 9.07 47.5501 8.62 47.0001 8.62Z" fill="black" fill-opacity="0.78"/>
</svg>
