<svg width="10" height="14" viewBox="0 0 10 14" fill="none" xmlns="http://www.w3.org/2000/svg">
<path d="M5 12.8882C4.80758 12.8882 4.61516 12.829 4.45086 12.7102L2 10.9398V13.4375C2 13.7482 2.25184 14 2.5625 14H7.4375C7.74816 14 8 13.7482 8 13.4375V10.9398L5.54914 12.7102C5.38484 12.8288 5.19242 12.8882 5 12.8882ZM7.78449 9.90959C7.68078 9.82827 7.58246 9.75174 7.4375 9.64229V9.12503C7.4375 8.81437 7.18566 8.56253 6.875 8.56253H5.96621C5.93059 8.53675 5.89742 8.51261 5.86027 8.48566C5.66328 8.34187 5.27187 7.99593 5 8.00004C4.72812 7.99593 4.33684 8.34187 4.13973 8.48566C4.10258 8.51261 4.06941 8.53675 4.03379 8.56253H3.125C2.81434 8.56253 2.5625 8.81437 2.5625 9.12503V9.64229C2.41754 9.75163 2.31922 9.82827 2.21551 9.90959C2.14838 9.9622 2.09409 10.0294 2.05676 10.1061C2.01942 10.1828 2.00001 10.2669 2 10.3522V10.477L3.125 11.2897V9.12503H6.875V11.2897L8 10.477V10.3522C8 10.1795 7.92055 10.0162 7.78449 9.90959Z" fill="#483EA8" fill-opacity="0.6"/>
<path d="M4.27228 9.642L4.36228 9.802L4.08828 9.904L4.36228 10.006L4.27028 10.17L4.04228 9.99L4.08428 10.28H3.90028L3.93828 9.99L3.71028 10.174L3.61428 10.004L3.88628 9.902L3.61428 9.804L3.70628 9.64L3.94028 9.82L3.90028 9.528H4.08628L4.04228 9.82L4.27228 9.642ZM5.28009 9.642L5.37009 9.802L5.09609 9.904L5.37009 10.006L5.27809 10.17L5.05009 9.99L5.09209 10.28H4.90809L4.94609 9.99L4.71809 10.174L4.62209 10.004L4.89409 9.902L4.62209 9.804L4.71409 9.64L4.94809 9.82L4.90809 9.528H5.09409L5.05009 9.82L5.28009 9.642ZM6.28791 9.642L6.37791 9.802L6.10391 9.904L6.37791 10.006L6.28591 10.17L6.05791 9.99L6.09991 10.28H5.91591L5.95391 9.99L5.72591 10.174L5.62991 10.004L5.90191 9.902L5.62991 9.804L5.72191 9.64L5.95591 9.82L5.91591 9.528H6.10191L6.05791 9.82L6.28791 9.642Z" fill="black" fill-opacity="0.83"/>
</svg>
