<svg width="68" height="71" viewBox="0 0 68 71" fill="none" xmlns="http://www.w3.org/2000/svg">
<rect width="68" height="71" rx="34" fill="#FAFAFA"/>
<path d="M36.0687 33.4314C37.8191 35.1836 37.7951 37.9928 36.0793 39.7182C36.0761 39.7217 36.0722 39.7255 36.0687 39.729L34.1 41.6978C32.3636 43.4342 29.5385 43.434 27.8023 41.6978C26.0659 39.9616 26.0659 37.1363 27.8023 35.4001L28.8894 34.313C29.1777 34.0248 29.6742 34.2164 29.689 34.6238C29.708 35.143 29.8011 35.6646 29.9729 36.1683C30.0311 36.3389 29.9895 36.5276 29.8621 36.655L29.4787 37.0384C28.6576 37.8595 28.6319 39.1964 29.4448 40.0255C30.2659 40.8628 31.6153 40.8678 32.4427 40.0405L34.4114 38.072C35.2373 37.2461 35.2339 35.9112 34.4114 35.0887C34.303 34.9805 34.1938 34.8964 34.1084 34.8377C34.0481 34.7962 33.9983 34.7412 33.9629 34.6771C33.9276 34.613 33.9077 34.5415 33.9049 34.4683C33.8933 34.1588 34.003 33.8397 34.2476 33.5951L34.8645 32.9783C35.0262 32.8165 35.2799 32.7967 35.4675 32.9276C35.6823 33.0775 35.8835 33.2461 36.0687 33.4314ZM40.1977 29.3022C38.4615 27.566 35.6365 27.5658 33.9 29.3022L31.9313 31.271C31.9278 31.2745 31.924 31.2783 31.9207 31.2818C30.2049 33.0072 30.1809 35.8164 31.9313 37.5686C32.1165 37.7539 32.3177 37.9224 32.5325 38.0724C32.72 38.2033 32.9738 38.1834 33.1355 38.0217L33.7523 37.4049C33.997 37.1602 34.1067 36.8412 34.0951 36.5316C34.0923 36.4585 34.0724 36.387 34.0371 36.3229C34.0017 36.2587 33.9519 36.2038 33.8915 36.1623C33.8062 36.1036 33.697 36.0195 33.5886 35.9113C32.7661 35.0888 32.7627 33.7539 33.5886 32.928L35.5573 30.9595C36.3846 30.1322 37.7341 30.1372 38.5551 30.9745C39.3681 31.8036 39.3424 33.1405 38.5213 33.9616L38.1379 34.345C38.0104 34.4724 37.9689 34.6611 38.027 34.8317C38.1988 35.3354 38.292 35.857 38.3109 36.3762C38.3258 36.7836 38.8223 36.9752 39.1106 36.6869L40.1977 35.5998C41.9341 33.8637 41.9341 31.0384 40.1977 29.3022Z" fill="#3D5A80"/>
<rect x="0.5" y="0.5" width="67" height="70" rx="33.5" stroke="#483EA8" stroke-opacity="0.56"/>
</svg>
