<svg width="90" height="55" viewBox="0 0 90 55" fill="none" xmlns="http://www.w3.org/2000/svg">
<path d="M37.4 1.79998C36.4 0.499976 34.5 0.199978 33.2 1.19998L1.2 25C0.4 25.6 0 26.5 0 27.5C0 28.4 0.4 29.4 1.2 30L33.2 53.8C33.7 54.2 34.4 54.4 35 54.4C35.9 54.4 36.8 54 37.4 53.2C38.4 51.9 38.1 50 36.8 49L7.9 27.5L36.8 5.99998C38.1 4.99998 38.4 3.19998 37.4 1.79998Z" fill="#483EA8"/>
<path d="M90.0001 27.5C90.0001 26.5 89.6001 25.6 88.8001 25L56.8001 1.19998C55.5001 0.199978 53.6001 0.499976 52.6001 1.79998C51.6001 3.09998 51.9001 4.99998 53.2001 5.99998L82.1001 27.5L53.2001 49C51.9001 50 51.6001 51.9 52.6001 53.2C53.2001 54 54.1001 54.4 55.0001 54.4C55.6001 54.4 56.2001 54.2 56.8001 53.8L88.8001 30C89.6001 29.4 90.0001 28.5 90.0001 27.5Z" fill="#483EA8"/>
</svg>
