<svg width="16" height="20" viewBox="0 0 16 20" fill="none" xmlns="http://www.w3.org/2000/svg">
<g id="PDF_file_icon 1" clip-path="url(#clip0_617_556)">
<g id="Group">
<path id="Vector" d="M2.03174 -0.000173214C0.911792 -0.000173214 0.00012207 0.927381 0.00012207 2.06599V17.9335C0.00012207 19.0721 0.911792 19.9997 2.03174 19.9997H13.9659C15.0859 19.9997 15.9975 19.0722 15.9975 17.9335V4.88599C15.9975 4.88599 16.0295 4.50394 15.8664 4.13216C15.7134 3.78366 15.4642 3.54111 15.4642 3.54111C15.4636 3.54025 15.463 3.5394 15.4624 3.53854L12.5015 0.585803C12.4998 0.584119 12.4982 0.582451 12.4965 0.580801C12.4965 0.580801 12.2437 0.336067 11.869 0.172577C11.4278 -0.0199244 10.973 0.000396645 10.973 0.000396645L10.9797 -0.000244141L2.03174 -0.000173214Z" fill="#FF2116"/>
<path id="Vector_2" d="M2.03167 0.678711H10.9797C10.9819 0.678734 10.9842 0.678734 10.9864 0.678711C10.9864 0.678711 11.3443 0.682236 11.606 0.79642C11.8579 0.906317 12.0365 1.07267 12.0377 1.07379C12.0377 1.07379 12.0389 1.07507 12.0389 1.07507L14.9924 4.02092C14.9924 4.02092 15.1704 4.21192 15.2566 4.40849C15.3262 4.56714 15.3305 4.85741 15.3305 4.85741C15.3302 4.8622 15.33 4.867 15.3299 4.8718V17.9337C15.3299 18.7082 14.7276 19.3212 13.9658 19.3212H2.03167C1.26992 19.3212 0.667603 18.7082 0.667603 17.9337V2.0662C0.667603 1.29169 1.26992 0.678711 2.03167 0.678711Z" fill="#F5F5F5"/>
<path id="Vector_3" d="M3.99457 11.9077C3.53527 11.4408 4.0322 10.7991 5.38081 10.1177L6.22937 9.68894L6.55995 8.95356C6.74177 8.5491 7.01313 7.88916 7.16298 7.48703L7.43544 6.75586L7.24768 6.21477C7.01683 5.54944 6.93451 4.54961 7.08098 4.1901C7.27938 3.70312 7.92924 3.75309 8.18652 4.2751C8.38745 4.68278 8.36691 5.42109 8.12873 6.35221L7.93346 7.11556L8.10546 7.41242C8.20006 7.57569 8.47638 7.96337 8.71951 8.27393L9.17646 8.85182L9.74508 8.77638C11.5515 8.53673 12.1702 8.94404 12.1702 9.52804C12.1702 10.2651 10.7518 10.3259 9.56067 9.47539C9.29268 9.28402 9.10863 9.09391 9.10863 9.09391C9.10863 9.09391 8.36245 9.24836 7.99507 9.34903C7.61585 9.45295 7.42666 9.51803 6.87116 9.70866C6.87116 9.70866 6.67626 9.99643 6.54926 10.2056C6.07675 10.9839 5.52504 11.6289 5.13104 11.8637C4.68989 12.1265 4.22742 12.1445 3.99457 11.9077ZM4.71538 11.6459C4.97356 11.4837 5.49612 10.8553 5.85786 10.2721L6.00431 10.036L5.33745 10.3769C4.30749 10.9034 3.83631 11.3996 4.08132 11.6998C4.21896 11.8684 4.38362 11.8544 4.71538 11.6459ZM11.4055 9.73669C11.6581 9.55686 11.6214 9.19447 11.3359 9.04836C11.1137 8.93466 10.9347 8.9113 10.3575 8.91996C10.0028 8.94455 9.43245 9.01722 9.33578 9.03932C9.33578 9.03932 9.64911 9.25949 9.78821 9.34041C9.9734 9.44794 10.4234 9.64755 10.7519 9.74979C11.076 9.85065 11.2635 9.84002 11.4055 9.73669ZM8.71551 8.59998C8.56269 8.43664 8.30281 8.09573 8.13803 7.84241C7.92251 7.55504 7.81443 7.3523 7.81443 7.3523C7.81443 7.3523 7.65691 7.86743 7.52767 8.17742L7.12447 9.19066L7.00757 9.42049C7.00757 9.42049 7.62905 9.21332 7.94525 9.12935C8.28016 9.04041 8.95986 8.90452 8.95986 8.90452L8.71551 8.59998ZM7.84862 5.06547C7.8876 4.73288 7.90415 4.40078 7.79904 4.23331C7.50751 3.90929 7.15564 4.1795 7.21524 4.94984C7.2353 5.20899 7.29862 5.65199 7.38328 5.92504L7.5372 6.42148L7.64553 6.04758C7.70511 5.84193 7.7965 5.39998 7.84862 5.06547Z" fill="#FF2116"/>
<path id="Vector_4" d="M4.77563 14.0701H5.52133C5.75959 14.0701 5.953 14.0932 6.10155 14.1396C6.2501 14.1845 6.37512 14.2854 6.47661 14.4424C6.57809 14.5979 6.62883 14.7856 6.62883 15.0054C6.62883 15.2073 6.58765 15.3807 6.50529 15.5258C6.42292 15.6708 6.31188 15.7755 6.17215 15.8398C6.0339 15.9041 5.82063 15.9363 5.53236 15.9363H5.27423V17.1318H4.77563V14.0701ZM5.27423 14.4626V15.5303H5.52133C5.74195 15.5303 5.89417 15.4884 5.97801 15.4047C6.06331 15.3209 6.10597 15.1848 6.10597 14.9964C6.10597 14.8559 6.07802 14.7422 6.02213 14.6555C5.96624 14.5673 5.90447 14.5134 5.83681 14.494C5.77063 14.4731 5.66546 14.4626 5.52133 14.4626L5.27423 14.4626ZM7.0105 14.0701H7.6878C8.01579 14.0701 8.27759 14.1291 8.47321 14.2473C8.67029 14.3654 8.81884 14.5411 8.91886 14.7744C9.02034 15.0076 9.07108 15.2663 9.07108 15.5505C9.07108 15.8495 9.02549 16.1165 8.9343 16.3512C8.84458 16.5845 8.70633 16.7729 8.51954 16.9165C8.33422 17.06 8.06947 17.1318 7.72531 17.1318H7.0105V14.0701ZM7.5091 14.4761V16.7258H7.71648C8.00623 16.7258 8.21655 16.6241 8.34745 16.4207C8.47836 16.2159 8.54381 15.943 8.54381 15.602C8.54381 14.8514 8.26803 14.4761 7.71648 14.4761H7.5091ZM9.54983 14.0701H11.2221V14.4761H10.0484V15.3912H10.9883V15.7972H10.0484V17.1318H9.54983V14.0701Z" fill="#2C2C2C"/>
</g>
</g>
<defs>
<clipPath id="clip0_617_556">
<rect width="16" height="20" fill="white"/>
</clipPath>
</defs>
</svg>
