<?xml version="1.0"?>
<svg xmlns="http://www.w3.org/2000/svg" id="Layer_1" data-name="Layer 1" viewBox="0 0 64 64"><title>Dusk Part 2</title><path d="M17.24,4.94H46a3,3,0,0,1,3,3v48a3,3,0,0,1-3,3H8a3,3,0,0,1-3-3V17.18a3,3,0,0,1,.88-2.12l9.24-9.24A3,3,0,0,1,17.24,4.94Z" style="fill:#faefde;"/><polygon points="5 59 4.85 49.54 48.34 6.06 49 29 19 59 5 59" style="fill:#fff7f0;"/><polygon points="4.85 39.15 39.06 4.94 44.81 5.19 5 45 4.85 39.15" style="fill:#fff7f0;"/><polygon points="4.85 33.15 33 5 36 5 4.85 36.15 4.85 33.15" style="fill:#fff7f0;"/><polygon points="39.5 13 40.74 15.26 43 16.5 40.74 17.74 39.5 20 38.26 17.74 36 16.5 38.26 15.26 39.5 13" style="fill:#fff;"/><polygon points="24.42 11 25.27 12.56 26.84 13.42 25.27 14.27 24.42 15.84 23.56 14.27 22 13.42 23.56 12.56 24.42 11" style="fill:#fff;"/><polygon points="10.65 42 11.23 43.06 12.3 43.65 11.23 44.23 10.65 45.3 10.06 44.23 9 43.65 10.06 43.06 10.65 42" style="fill:#fff;"/><polygon points="17 5 17 17 5 17 17 5" style="fill:#bbdef9;"/><rect x="15" y="23" width="44" height="22" style="fill:#85cbf8;"/><path d="M9,52a1,1,0,0,0-1,1v2a1,1,0,0,0,2,0V53A1,1,0,0,0,9,52Z" style="fill:#8d6c9f;"/><path d="M14,52a1,1,0,0,0-1,1v2a1,1,0,0,0,2,0V53A1,1,0,0,0,14,52Z" style="fill:#8d6c9f;"/><path d="M19,56a1,1,0,0,0,1-1V53a1,1,0,0,0-2,0v2A1,1,0,0,0,19,56Z" style="fill:#8d6c9f;"/><path d="M24,56a1,1,0,0,0,1-1V53a1,1,0,0,0-2,0v2A1,1,0,0,0,24,56Z" style="fill:#8d6c9f;"/><path d="M29,56a1,1,0,0,0,1-1V53a1,1,0,0,0-2,0v2A1,1,0,0,0,29,56Z" style="fill:#8d6c9f;"/><path d="M34,56a1,1,0,0,0,1-1V53a1,1,0,0,0-2,0v2A1,1,0,0,0,34,56Z" style="fill:#8d6c9f;"/><path d="M39,56a1,1,0,0,0,1-1V53a1,1,0,0,0-2,0v2A1,1,0,0,0,39,56Z" style="fill:#8d6c9f;"/><path d="M44,56a1,1,0,0,0,1-1V53a1,1,0,0,0-2,0v2A1,1,0,0,0,44,56Z" style="fill:#8d6c9f;"/><path d="M58,22H50V7a3,3,0,0,0-3-3H17.66a5,5,0,0,0-3.54,1.46L5.46,14.12A5,5,0,0,0,4,17.66V57a3,3,0,0,0,3,3H47a3,3,0,0,0,3-3V46h8a2,2,0,0,0,2-2V24A2,2,0,0,0,58,22ZM15.54,6.88A3,3,0,0,1,16,6.5V15a1,1,0,0,1-1,1H6.5a3,3,0,0,1,.38-.46ZM48,57a1,1,0,0,1-1,1H7a1,1,0,0,1-1-1V18h9a3,3,0,0,0,3-3V6H47a1,1,0,0,1,1,1V22H16a2,2,0,0,0-2,2V44a2,2,0,0,0,2,2H48ZM58,44H16V24H58Z" style="fill:#8d6c9f;"/><path d="M45,40a1,1,0,0,0,1-1V36h3a1,1,0,0,0,0-2H46V30h4a1,1,0,0,0,0-2H45a1,1,0,0,0-1,1V39A1,1,0,0,0,45,40Z" style="fill:#fff;"/><path d="M25,40a1,1,0,0,0,1-1V36h3a3,3,0,0,0,3-3V31a3,3,0,0,0-3-3H25a1,1,0,0,0-1,1V39A1,1,0,0,0,25,40Zm1-10h3a1,1,0,0,1,1,1v2a1,1,0,0,1-1,1H26Z" style="fill:#fff;"/><path d="M35,40h3a4,4,0,0,0,4-4V32a4,4,0,0,0-4-4H35a1,1,0,0,0-1,1V39A1,1,0,0,0,35,40Zm1-10h2a2,2,0,0,1,2,2v4a2,2,0,0,1-2,2H36Z" style="fill:#fff;"/></svg>
