<svg width="8" height="8" viewBox="0 0 8 8" fill="none" xmlns="http://www.w3.org/2000/svg">
<path d="M7.77185 5.65308L6.02182 4.90307C5.94706 4.87121 5.86398 4.8645 5.78507 4.88394C5.70617 4.90339 5.63571 4.94794 5.58432 5.01089L4.8093 5.95778C3.59299 5.3843 2.61414 4.40545 2.04066 3.18913L2.98755 2.41412C3.05063 2.36282 3.09527 2.29236 3.11473 2.21342C3.13418 2.13448 3.12738 2.05135 3.09537 1.97661L2.34535 0.226581C2.31021 0.146019 2.24807 0.0802419 2.16962 0.0405932C2.09118 0.000944572 2.00136 -0.0100909 1.91566 0.00938974L0.29063 0.384396C0.207999 0.403478 0.134275 0.450004 0.0814913 0.516381C0.0287076 0.582758 -1.90349e-05 0.665066 9.46299e-09 0.749872C9.46299e-09 4.75776 3.24849 8 7.25013 8C7.33496 8.00006 7.4173 7.97134 7.48371 7.91856C7.55012 7.86577 7.59667 7.79203 7.61576 7.70937L7.99076 6.08434C8.01012 5.99822 7.99885 5.90804 7.95889 5.82933C7.91894 5.75062 7.8528 5.68829 7.77185 5.65308Z" fill="#483EA8" fill-opacity="0.73"/>
</svg>
