<svg width="8" height="6" viewBox="0 0 8 6" fill="none" xmlns="http://www.w3.org/2000/svg">
<path d="M7.84844 1.98125C7.90937 1.93281 8 1.97812 8 2.05469V5.25C8 5.66406 7.66406 6 7.25 6H0.75C0.335938 6 0 5.66406 0 5.25V2.05625C0 1.97813 0.0890625 1.93437 0.151562 1.98281C0.501562 2.25469 0.965625 2.6 2.55938 3.75781C2.88906 3.99844 3.44531 4.50469 4 4.50156C4.55781 4.50625 5.125 3.98906 5.44219 3.75781C7.03594 2.6 7.49844 2.25312 7.84844 1.98125ZM4 4C4.3625 4.00625 4.88438 3.54375 5.14687 3.35313C7.22031 1.84844 7.37812 1.71719 7.85625 1.34219C7.94687 1.27187 8 1.1625 8 1.04688V0.75C8 0.335938 7.66406 0 7.25 0H0.75C0.335938 0 0 0.335938 0 0.75V1.04688C0 1.1625 0.053125 1.27031 0.14375 1.34219C0.621875 1.71562 0.779688 1.84844 2.85313 3.35313C3.11563 3.54375 3.6375 4.00625 4 4Z" fill="#483EA8" fill-opacity="0.73"/>
</svg>
