<svg width="64" height="64" viewBox="0 0 64 64" fill="none" xmlns="http://www.w3.org/2000/svg">
<path d="M60.7793 35.72C59.9526 34.0104 58.662 32.5676 57.0547 31.5562C55.4474 30.5448 53.5882 30.0056 51.6893 30H40.3093C38.4103 30.0056 36.5511 30.5448 34.9438 31.5562C33.3366 32.5676 32.046 34.0104 31.2193 35.72L29.0793 40.18C28.1339 42.158 27.8011 44.3733 28.1236 46.5417C28.4461 48.7102 29.4092 50.7328 30.8893 52.35L38.5693 60.73C39.5136 61.76 40.6617 62.5824 41.9408 63.145C43.2198 63.7076 44.6019 63.9981 45.9993 63.9981C47.3966 63.9981 48.7787 63.7076 50.0578 63.145C51.3368 62.5824 52.485 61.76 53.4293 60.73L61.1093 52.35C62.5893 50.7328 63.5524 48.7102 63.8749 46.5417C64.1974 44.3733 63.8646 42.158 62.9193 40.18L60.7793 35.72ZM55.2193 47L47.5393 55.37C47.3443 55.5847 47.1066 55.7563 46.8414 55.8738C46.5761 55.9912 46.2893 56.0519 45.9993 56.0519C45.7092 56.0519 45.4224 55.9912 45.1572 55.8738C44.8919 55.7563 44.6542 55.5847 44.4593 55.37L36.7793 47C36.3781 46.5593 36.1172 46.0092 36.0299 45.4197C35.9427 44.8301 36.0329 44.228 36.2893 43.69L38.4293 39.23C38.593 38.8673 38.8569 38.5588 39.1899 38.3409C39.523 38.123 39.9113 38.0047 40.3093 38H51.6893C52.0818 38.0003 52.4664 38.1111 52.7988 38.3198C53.1313 38.5285 53.3983 38.8266 53.5693 39.18L55.7093 43.64C55.9766 44.184 56.0728 44.7962 55.9854 45.396C55.8979 45.9958 55.6308 46.555 55.2193 47Z" fill="rgba(33, 37, 41, 0.51)"/>
<path d="M1.78001 44.23C0.603576 46.9233 -0.00247873 49.831 7.61931e-06 52.77V54C7.61931e-06 55.3132 0.258664 56.6136 0.761211 57.8268C1.26376 59.0401 2.00035 60.1425 2.92894 61.0711C3.85753 61.9997 4.95992 62.7362 6.17317 63.2388C7.38643 63.7413 8.68679 64 10 64H22C23.0609 64 24.0783 63.5786 24.8284 62.8284C25.5786 62.0783 26 61.0609 26 60C26 58.9391 25.5786 57.9217 24.8284 57.1716C24.0783 56.4214 23.0609 56 22 56H10C9.46957 56 8.96087 55.7893 8.58579 55.4142C8.21072 55.0391 8.00001 54.5304 8.00001 54V52.77C7.99634 50.9291 8.37429 49.1075 9.11001 47.42C10.0154 45.3515 11.4209 43.5405 13.2 42.15C15.9763 39.9559 19.059 38.1804 22.35 36.88C23.0231 36.6154 23.6118 36.1733 24.0536 35.6007C24.4954 35.0281 24.7737 34.3465 24.8588 33.6283C24.944 32.9101 24.8328 32.1823 24.5372 31.5222C24.2416 30.8622 23.7726 30.2946 23.18 29.88C21.072 28.4269 19.484 26.3375 18.6482 23.9175C17.8123 21.4974 17.7724 18.8734 18.5343 16.429C19.2962 13.9847 20.82 11.8481 22.8829 10.3315C24.9458 8.815 27.4397 7.99801 30 8H30.48C33.3121 8.13487 36.0069 9.26001 38.0941 11.1791C40.1813 13.0981 41.5283 15.6891 41.9 18.5C41.9448 19.0377 42.0978 19.5608 42.35 20.0378C42.6022 20.5148 42.9483 20.9359 43.3674 21.2757C43.7866 21.6154 44.2702 21.8669 44.789 22.0149C45.3079 22.1629 45.8514 22.2044 46.3867 22.1369C46.922 22.0694 47.4381 21.8942 47.904 21.6221C48.3699 21.3499 48.7759 20.9862 49.0976 20.5531C49.4193 20.1199 49.65 19.6261 49.7759 19.1014C49.9017 18.5767 49.9202 18.032 49.83 17.5C49.2056 12.8144 46.9569 8.49637 43.4757 5.29846C39.9946 2.10055 35.5017 0.225483 30.78 0H30C26.2858 0 22.6449 1.03429 19.4854 2.98698C16.3259 4.93968 13.7725 7.73361 12.1115 11.0557C10.4504 14.3778 9.74726 18.0969 10.0808 21.7961C10.4144 25.4953 11.7715 29.0286 14 32C11.9979 33.1331 10.0826 34.4133 8.27001 35.83C5.44012 38.0451 3.2091 40.9327 1.78001 44.23Z" fill="rgba(33, 37, 41, 0.51)"/>
</svg>
