<svg width="77" height="94" viewBox="0 0 77 94" fill="none" xmlns="http://www.w3.org/2000/svg">
<path d="M64.5977 53.2503V4.4883C64.5977 2.0117 62.586 0 60.1094 0H4.4844C2.0117 0 0 2.0117 0 4.4844V60.1094C0 62.5821 2.0117 64.5977 4.4844 64.5977H35.8904C34.906 67.043 34.3631 69.711 34.3631 72.5C34.3631 84.219 43.8943 93.75 55.6131 93.75C67.3281 93.75 76.8591 84.2188 76.8591 72.504C76.8591 63.9962 71.8363 56.6413 64.5977 53.2503ZM39.6917 2.0393V18.1483L32.7659 14.5936C32.6214 14.5194 32.4612 14.4803 32.3011 14.4803C32.1409 14.4803 31.9807 14.5194 31.8362 14.5936L24.9104 18.1483L24.9065 2.0393H39.6917ZM4.4847 62.5593C3.1331 62.5593 2.0355 61.4616 2.0355 60.1101V4.4891C2.0355 3.1375 3.1332 2.0399 4.4847 2.0399H22.8677V19.8169C22.8677 20.1724 23.0513 20.5005 23.356 20.688C23.6607 20.8716 24.0357 20.8872 24.3521 20.7271L32.2974 16.649L40.2427 20.7271C40.3911 20.8013 40.5474 20.8403 40.7075 20.8403C40.8911 20.8403 41.0747 20.7895 41.2388 20.6919C41.5434 20.5083 41.727 20.1763 41.727 19.8208L41.7309 2.0398H60.1139C61.4655 2.0398 62.5631 3.1375 62.5631 4.489V52.423C60.3834 51.6691 58.0475 51.255 55.6178 51.255C47.4928 51.255 40.4188 55.8409 36.8448 62.56L4.4847 62.5593ZM55.6137 91.7113C45.0197 91.7113 36.4027 83.0941 36.4027 72.5003C36.4027 61.9103 45.0199 53.2893 55.6137 53.2893C66.2037 53.2893 74.8247 61.9065 74.8247 72.5003C74.8208 83.0943 66.2036 91.7113 55.6137 91.7113ZM57.1567 56.2853C56.7465 55.8283 56.2153 55.59 55.6137 55.59C55.016 55.59 54.4809 55.8322 54.0707 56.2853L47.559 63.5275C47.0317 64.1134 46.7543 64.8517 46.7543 65.6603V84.9693C46.7543 86.0162 47.5707 86.8638 48.5785 86.8638H62.6485C63.6524 86.8638 64.4727 86.0122 64.4727 84.9693V65.6643C64.4727 64.8557 64.1954 64.1174 63.668 63.5315L57.1567 56.2853ZM62.434 84.8283H48.793V65.6643C48.793 65.3557 48.8828 65.1096 49.0742 64.8948L55.5859 57.6526C55.6016 57.633 55.6094 57.6291 55.6094 57.6291C55.6094 57.6291 55.6211 57.6369 55.6367 57.6526L62.1484 64.8948C62.3398 65.1096 62.4297 65.3557 62.4297 65.6643L62.434 84.8283ZM55.6137 60.1443C53.9926 60.1443 52.6723 61.4646 52.6723 63.0857C52.6723 64.7068 53.9926 66.0271 55.6137 66.0271C57.2348 66.0271 58.5551 64.7068 58.5551 63.0857C58.5551 61.4646 57.2348 60.1443 55.6137 60.1443ZM55.6137 63.992C55.1137 63.992 54.7074 63.5858 54.7074 63.0858C54.7074 62.5858 55.1137 62.1795 55.6137 62.1795C56.1137 62.1795 56.5199 62.5858 56.5199 63.0858C56.516 63.5858 56.1098 63.992 55.6137 63.992ZM55.266 73.5975C55.1723 73.7537 55.1684 73.9881 55.2582 74.1444C55.3012 74.2264 55.3793 74.3084 55.6059 74.3123C57.227 74.3358 58.0747 75.5701 58.0747 76.7771C58.0747 77.8123 57.5005 78.6716 56.6333 79.0505C56.5356 79.5115 56.1255 79.8591 55.6372 79.8591C55.1489 79.8591 54.7427 79.5154 54.6411 79.0584C54.1684 78.8552 53.7622 78.5076 53.4888 78.0545C53.1997 77.574 53.356 76.9451 53.8365 76.6561C54.3208 76.367 54.9459 76.5232 55.2349 77.0037C55.3169 77.1365 55.4536 77.2147 55.6099 77.2147H55.6177C55.9771 77.2068 56.0317 76.9334 56.0317 76.7693C56.0317 76.3475 55.6841 76.3436 55.5669 76.3397C54.6567 76.324 53.8911 75.8826 53.4692 75.1249C53.0278 74.3319 53.0434 73.3163 53.5122 72.539C53.7817 72.0897 54.1723 71.7616 54.6372 71.5741C54.7426 71.1249 55.1489 70.7929 55.6294 70.7929C56.1255 70.7929 56.5395 71.1483 56.6294 71.6171C57.102 71.8319 57.5083 72.1991 57.7661 72.6679C58.0395 73.1601 57.8637 73.7812 57.3715 74.0546C56.8793 74.328 56.2582 74.1522 55.9848 73.6601C55.9067 73.5233 55.77 73.4374 55.6098 73.4335H55.5942C55.3872 73.4413 55.3129 73.5194 55.266 73.5975ZM58.4808 68.7616C58.4808 69.3241 58.0238 69.7811 57.4613 69.7811H53.766C53.2035 69.7811 52.7465 69.3241 52.7465 68.7616C52.7465 68.1991 53.2036 67.7421 53.766 67.7421H57.4613C58.0238 67.7421 58.4808 68.1991 58.4808 68.7616ZM58.4808 81.9026C58.4808 82.4651 58.0238 82.9221 57.4613 82.9221H53.766C53.2035 82.9221 52.7465 82.4651 52.7465 81.9026C52.7465 81.3401 53.2036 80.8831 53.766 80.8831H57.4613C58.0238 80.8831 58.4808 81.3401 58.4808 81.9026Z" fill="#483ea8"/>
</svg>
