<svg width="130" height="163" viewBox="0 0 130 163" fill="none" xmlns="http://www.w3.org/2000/svg">
<path style="mix-blend-mode:screen" d="M82.1543 123.858L115.909 163L130 142.892L102.977 107.73C102.977 107.73 86.96 118.405 82.1543 123.858Z" fill="url(#paint0_linear_353_13159)"/>
<path fill-rule="evenodd" clip-rule="evenodd" d="M92.1431 77.9535L98.9317 70.2031C98.9317 70.2031 111.829 84.055 115.28 108.191L114.526 108.766L97.726 86.0372L96.0917 87.2379L92.1431 77.9535Z" fill="url(#paint1_linear_353_13159)"/>
<path fill-rule="evenodd" clip-rule="evenodd" d="M55.9025 106.68L46.5539 111.615C46.5539 111.615 56.9139 127.483 79.4225 136.544L80.1768 135.969L62.1711 114.195L63.7139 112.885L55.9025 106.68Z" fill="url(#paint2_linear_353_13159)"/>
<path fill-rule="evenodd" clip-rule="evenodd" d="M6.46902 6.02593C-3.81669 14.1555 -0.416687 51.8217 19.0405 73.9814C38.4976 96.141 75.7376 121.817 75.7376 121.817L88.9948 111.51L102.058 100.984C102.058 100.984 86.0176 58.5265 69.1833 34.3388C52.349 10.1511 16.6862 -2.05196 6.46902 6.02593Z" fill="url(#paint3_radial_353_13159)"/>
<path fill-rule="evenodd" clip-rule="evenodd" d="M75.7205 121.817C75.7205 121.817 89.669 108.637 102.058 100.984C102.058 100.984 88.4976 114.084 75.7205 121.817Z" fill="#31165F"/>
<path fill-rule="evenodd" clip-rule="evenodd" d="M0.863071 27.4489C0.863071 27.4489 11.8059 11.2816 30.2402 6.19126C30.2402 6.19126 13.9831 0.2104 6.46878 6.04188C-0.291216 11.2701 0.863071 27.4489 0.863071 27.4489Z" fill="url(#paint4_radial_353_13159)"/>
<path d="M30.3203 6.47458C13.1089 11.0708 1.22889 27.4622 1.10888 27.6288L0.61743 27.2726C0.737431 27.106 12.7374 10.525 30.166 5.88281L30.3203 6.47458Z" fill="#53345F"/>
<path fill-rule="evenodd" clip-rule="evenodd" d="M3.65137 9.58215L11.6514 3.88281C11.6514 3.88281 5.55994 4.16433 3.65137 9.58215Z" fill="#53345F"/>
<path fill-rule="evenodd" clip-rule="evenodd" d="M4.42812 8.36512C5.68158 7.00196 7.10925 5.81189 8.67383 4.82601C8.67383 4.82601 4.94811 1.80973 3.53097 2.72898C2.11383 3.64823 4.42812 8.36512 4.42812 8.36512Z" fill="url(#paint5_linear_353_13159)"/>
<path style="mix-blend-mode:multiply" opacity="0.5" fill-rule="evenodd" clip-rule="evenodd" d="M52.0119 104.121C52.0119 104.121 68.509 79.2151 89.3605 71.0625C94.749 82.4842 102.058 100.984 102.058 100.984C102.058 100.984 90.8748 107.522 75.7091 121.817C75.7205 121.817 62.8805 113.871 52.0119 104.121Z" fill="url(#paint6_radial_353_13159)"/>
<path style="mix-blend-mode:multiply" opacity="0.5" fill-rule="evenodd" clip-rule="evenodd" d="M18.7195 23.4699C10.011 31.5133 12.1024 47.8874 19.291 57.9417C26.4795 67.996 39.9138 66.9331 49.1138 59.2287C58.3138 51.5242 61.011 38.8558 51.6224 29.083C43.1138 20.2295 28.3938 14.5187 18.7195 23.4699Z" fill="url(#paint7_radial_353_13159)"/>
<path fill-rule="evenodd" clip-rule="evenodd" d="M17.4853 21.923C8.77104 29.9664 10.8682 46.3405 18.0568 56.3948C25.2453 66.4491 38.6796 65.392 47.8739 57.6875C57.0682 49.9831 59.7768 37.3089 50.3882 27.5362C41.9082 18.6826 27.1996 12.9718 17.4853 21.923Z" fill="#31165F"/>
<path fill-rule="evenodd" clip-rule="evenodd" d="M16.6739 20.8504C7.95963 28.8939 10.0511 45.2622 17.2168 55.3223C24.3825 65.3823 37.8396 64.3137 47.0396 56.6092C56.2396 48.9048 58.9367 36.2364 49.5482 26.4579C41.0625 17.6043 26.3425 11.8993 16.6739 20.8504Z" fill="url(#paint8_radial_353_13159)"/>
<path fill-rule="evenodd" clip-rule="evenodd" d="M19.9833 23.8082C12.069 30.8979 14.7375 42.9343 20.3261 50.7709C25.9147 58.6075 36.469 57.7572 43.6975 51.7074C50.9261 45.6576 53.0747 35.7297 45.7375 28.1057C39.109 21.2113 28.2518 16.4025 19.9833 23.8082Z" fill="#A6345F"/>
<path fill-rule="evenodd" clip-rule="evenodd" d="M49.3482 42.8381C48.3541 46.2798 46.3336 49.3319 43.5596 51.5825C36.7025 57.3278 25.651 58.2125 20.3253 50.7494C18.5034 48.2027 17.1701 45.3365 16.3939 42.298C14.8682 36.3114 15.8225 29.8365 20.9653 25.0621C28.6053 17.9552 39.1711 22.5859 45.4853 29.147C49.5539 33.3756 50.5653 38.3051 49.3482 42.8381Z" fill="url(#paint9_linear_353_13159)"/>
<path d="M47.9309 57.6214L69.0215 84.5586L68.7835 84.7469L47.6929 57.8097L47.9309 57.6214Z" fill="#53345F"/>
<path d="M89.4053 71.211C89.2281 71.2627 71.691 76.7839 52.1367 104.212L51.891 104.034C71.5367 76.5081 89.1424 70.9697 89.3196 70.918L89.4053 71.211Z" fill="#53345F"/>
<path d="M60.2861 73.6556C46.9833 85.399 43.1433 96.6828 43.1433 96.7919L42.8576 96.7C42.8976 96.5851 46.7432 85.2094 60.1147 73.4258L60.2861 73.6556Z" fill="#53345F"/>
<path fill-rule="evenodd" clip-rule="evenodd" d="M87.1196 101.633L77.651 90.2976L80.1825 86.9883L89.5996 99.6739L87.1196 101.633Z" fill="#31165F"/>
<path fill-rule="evenodd" clip-rule="evenodd" d="M78.0569 120.336C78.0569 120.336 88.6283 110.178 100.628 102.312L104.028 108.058L82.2283 124.369L78.0569 120.336Z" fill="url(#paint10_radial_353_13159)"/>
<path opacity="0.5" fill-rule="evenodd" clip-rule="evenodd" d="M80.194 122.369C81.923 118.785 84.4681 115.662 87.6225 113.252C92.8511 109.299 103.257 106.731 103.257 106.731L100.645 102.312C100.645 102.312 87.5025 110.781 78.074 120.336L80.194 122.369Z" fill="#31165F"/>
<path d="M28.5774 24.1795C31.2617 24.5177 33.8731 25.294 36.3088 26.4776L37.2803 24.0244C37.2803 24.0244 33.3088 21.7837 29.8517 22.634L28.5774 24.1795Z" fill="white"/>
<path d="M24.7603 51.0742L28.2803 52.5278L27.4917 54.5674L24.7203 53.223L24.7603 51.0742Z" fill="white"/>
<path style="mix-blend-mode:multiply" opacity="0.5" fill-rule="evenodd" clip-rule="evenodd" d="M1.56609 34.5233C1.56609 34.5233 10.2347 15.4317 35.0918 7.96854L30.2404 6.1875C30.2404 6.1875 15.2461 9.68639 0.863213 27.4451L1.56609 34.5233Z" fill="url(#paint11_radial_353_13159)"/>
<path fill-rule="evenodd" clip-rule="evenodd" d="M60.8741 75.8194C61.0029 75.9837 61.0803 76.1828 61.0964 76.3914C61.1126 76.5999 61.0668 76.8087 60.965 76.9911C60.8631 77.1735 60.7097 77.3214 60.5242 77.4161C60.3386 77.5108 60.1293 77.5481 59.9227 77.5231C59.7161 77.4982 59.5216 77.4121 59.3636 77.2759C59.2057 77.1397 59.0915 76.9595 59.0355 76.758C58.9795 76.5565 58.9842 76.3428 59.0491 76.144C59.114 75.9453 59.236 75.7703 59.3998 75.6413C59.508 75.5551 59.6322 75.4913 59.765 75.4536C59.8979 75.4159 60.0368 75.405 60.1739 75.4216C60.3109 75.4381 60.4434 75.4818 60.5636 75.5501C60.6838 75.6184 60.7893 75.7099 60.8741 75.8194Z" fill="url(#paint12_linear_353_13159)"/>
<path fill-rule="evenodd" clip-rule="evenodd" d="M60.6972 75.9583C60.7749 76.0427 60.8344 76.1423 60.872 76.2509C60.9096 76.3595 60.9244 76.4747 60.9155 76.5893C60.9066 76.704 60.8741 76.8155 60.8203 76.9169C60.7664 77.0183 60.6922 77.1074 60.6024 77.1786C60.5126 77.2498 60.4092 77.3016 60.2985 77.3306C60.1879 77.3596 60.0724 77.3653 59.9595 77.3472C59.8466 77.3292 59.7385 77.2879 59.6423 77.2258C59.546 77.1638 59.4635 77.0824 59.4001 76.9868C59.2845 76.8125 59.2384 76.6008 59.2711 76.3939C59.3037 76.187 59.4127 76 59.5763 75.8703C59.74 75.7406 59.9462 75.6776 60.1539 75.6939C60.3616 75.7102 60.5556 75.8047 60.6972 75.9583Z" fill="url(#paint13_radial_353_13159)"/>
<path fill-rule="evenodd" clip-rule="evenodd" d="M57.6746 71.73C57.8296 71.9514 57.8942 72.2242 57.855 72.492C57.8159 72.7599 57.676 73.0025 57.4642 73.1697C57.2525 73.337 56.9849 73.4161 56.7168 73.3909C56.4487 73.3657 56.2004 73.238 56.0232 73.0342C55.9292 72.9261 55.8582 72.8 55.8143 72.6634C55.7704 72.5269 55.7546 72.3828 55.7679 72.2399C55.7812 72.097 55.8233 71.9584 55.8916 71.8324C55.9599 71.7064 56.0531 71.5957 56.1653 71.507C56.2776 71.4184 56.4066 71.3537 56.5445 71.3168C56.6824 71.2799 56.8264 71.2716 56.9676 71.2925C57.1088 71.3133 57.2443 71.3629 57.3659 71.4381C57.4874 71.5133 57.5925 71.6126 57.6746 71.73Z" fill="url(#paint14_linear_353_13159)"/>
<path fill-rule="evenodd" clip-rule="evenodd" d="M57.4853 71.8685C57.563 71.9528 57.6225 72.0524 57.6601 72.161C57.6976 72.2696 57.7124 72.3849 57.7035 72.4995C57.6946 72.6141 57.6622 72.7257 57.6084 72.8271C57.5545 72.9285 57.4803 73.0176 57.3905 73.0888C57.3007 73.16 57.1972 73.2117 57.0866 73.2407C56.9759 73.2697 56.8605 73.2754 56.7476 73.2574C56.6347 73.2394 56.5266 73.198 56.4303 73.136C56.3341 73.074 56.2516 72.9925 56.1882 72.8969C56.0725 72.7226 56.0265 72.5109 56.0591 72.304C56.0918 72.0971 56.2008 71.9102 56.3644 71.7805C56.528 71.6508 56.7343 71.5878 56.942 71.6041C57.1497 71.6204 57.3437 71.7148 57.4853 71.8685Z" fill="url(#paint15_radial_353_13159)"/>
<path fill-rule="evenodd" clip-rule="evenodd" d="M22.2911 54.5928C22.4199 54.7572 22.4972 54.9562 22.5134 55.1648C22.5296 55.3734 22.4838 55.5821 22.382 55.7645C22.2801 55.9469 22.1267 56.0949 21.9412 56.1896C21.7556 56.2843 21.5463 56.3215 21.3397 56.2966C21.1331 56.2716 20.9386 56.1856 20.7806 56.0494C20.6227 55.9132 20.5085 55.7329 20.4525 55.5314C20.3965 55.3299 20.4013 55.1163 20.4661 54.9175C20.531 54.7187 20.653 54.5437 20.8169 54.4147C20.9251 54.3285 21.0492 54.2648 21.182 54.2271C21.3149 54.1893 21.4538 54.1785 21.5909 54.195C21.7279 54.2116 21.8604 54.2552 21.9806 54.3235C22.1008 54.3918 22.2063 54.4833 22.2911 54.5928Z" fill="#31165F"/>
<path fill-rule="evenodd" clip-rule="evenodd" d="M22.1138 54.7306C22.2449 54.9021 22.304 55.1185 22.2783 55.3333C22.2527 55.548 22.1444 55.7442 21.9767 55.8797C21.8033 55.9959 21.5928 56.0422 21.387 56.0094C21.1812 55.9765 20.9953 55.867 20.8663 55.7024C20.7373 55.5379 20.6746 55.3306 20.6908 55.1217C20.7071 54.9129 20.801 54.7178 20.9538 54.5755C21.0399 54.5085 21.1383 54.4593 21.2434 54.4309C21.3485 54.4024 21.4581 54.3951 21.566 54.4096C21.6739 54.424 21.7779 54.4598 21.8719 54.5149C21.9659 54.57 22.0481 54.6433 22.1138 54.7306Z" fill="url(#paint16_radial_353_13159)"/>
<path fill-rule="evenodd" clip-rule="evenodd" d="M14.5597 41.71C14.6885 41.8744 14.7658 42.0734 14.782 42.282C14.7981 42.4906 14.7524 42.6993 14.6506 42.8817C14.5487 43.0641 14.3953 43.212 14.2097 43.3068C14.0242 43.4015 13.8149 43.4387 13.6083 43.4137C13.4017 43.3888 13.2071 43.3028 13.0492 43.1666C12.8913 43.0303 12.7771 42.8501 12.7211 42.6486C12.6651 42.4471 12.6698 42.2334 12.7347 42.0347C12.7995 41.8359 12.9216 41.6609 13.0854 41.5319C13.1936 41.4457 13.3177 41.3819 13.4506 41.3442C13.5834 41.3065 13.7224 41.2956 13.8595 41.3122C13.9965 41.3288 14.129 41.3724 14.2492 41.4407C14.3693 41.509 14.4749 41.6005 14.5597 41.71Z" fill="#31165F"/>
<path fill-rule="evenodd" clip-rule="evenodd" d="M14.3832 41.85C14.4875 41.9787 14.5511 42.1358 14.566 42.3011C14.5808 42.4664 14.5462 42.6325 14.4666 42.7779C14.3869 42.9233 14.2659 43.0415 14.119 43.1173C13.972 43.193 13.806 43.223 13.642 43.2032C13.4781 43.1834 13.3238 43.1148 13.1989 43.0063C13.074 42.8977 12.9842 42.7541 12.941 42.5938C12.8978 42.4336 12.9033 42.264 12.9566 42.1069C13.0099 41.9498 13.1088 41.8123 13.2404 41.7121C13.4115 41.5817 13.6263 41.5232 13.8395 41.5489C14.0527 41.5746 14.2476 41.6826 14.3832 41.85Z" fill="url(#paint17_radial_353_13159)"/>
<path fill-rule="evenodd" clip-rule="evenodd" d="M37.2575 57.7568C37.3427 57.8654 37.4058 57.9899 37.4431 58.123C37.4805 58.2562 37.4913 58.3954 37.4751 58.5328C37.459 58.6702 37.416 58.803 37.3488 58.9237C37.2815 59.0444 37.1913 59.1506 37.0833 59.2362C36.9752 59.3218 36.8514 59.3852 36.719 59.4228C36.5866 59.4603 36.4481 59.4713 36.3115 59.455C36.1748 59.4387 36.0427 59.3956 35.9227 59.3279C35.8026 59.2603 35.697 59.1696 35.6118 59.061C35.4398 58.8416 35.3615 58.5624 35.3942 58.285C35.4269 58.0075 35.5679 57.7545 35.7861 57.5816C36.0044 57.4086 36.282 57.3299 36.5579 57.3628C36.8339 57.3956 37.0855 57.5374 37.2575 57.7568Z" fill="#31165F"/>
<path fill-rule="evenodd" clip-rule="evenodd" d="M37.0803 57.8948C37.1819 58.0235 37.2432 58.1797 37.2562 58.3435C37.2692 58.5074 37.2334 58.6714 37.1533 58.8146C37.0732 58.9579 36.9525 59.074 36.8066 59.148C36.6606 59.222 36.4961 59.2507 36.3339 59.2303C36.1717 59.2099 36.0192 59.1414 35.8959 59.0335C35.7725 58.9257 35.684 58.7833 35.6414 58.6246C35.5989 58.4659 35.6043 58.2981 35.6571 58.1425C35.7098 57.987 35.8074 57.8507 35.9374 57.7511C36.1087 57.62 36.3243 57.5616 36.538 57.5884C36.7516 57.6153 36.9463 57.7253 37.0803 57.8948Z" fill="url(#paint18_radial_353_13159)"/>
<path fill-rule="evenodd" clip-rule="evenodd" d="M50.8117 48.6569C50.9404 48.8212 51.0178 49.0203 51.0339 49.2289C51.0501 49.4374 51.0044 49.6462 50.9025 49.8286C50.8006 50.011 50.6472 50.1589 50.4617 50.2536C50.2762 50.3484 50.0669 50.3856 49.8603 50.3606C49.6537 50.3357 49.4591 50.2496 49.3012 50.1134C49.1432 49.9772 49.029 49.797 48.973 49.5955C48.917 49.394 48.9218 49.1803 48.9866 48.9816C49.0515 48.7828 49.1735 48.6078 49.3374 48.4788C49.5565 48.3062 49.8347 48.2281 50.1111 48.2615C50.3875 48.2948 50.6394 48.4371 50.8117 48.6569Z" fill="#31165F"/>
<path fill-rule="evenodd" clip-rule="evenodd" d="M50.6281 48.7939C50.6949 48.8795 50.7443 48.9775 50.7734 49.0824C50.8025 49.1872 50.8107 49.2967 50.7977 49.4048C50.7847 49.5128 50.7507 49.6172 50.6976 49.712C50.6444 49.8068 50.5733 49.8902 50.4881 49.9573C50.4029 50.0245 50.3054 50.0741 50.2012 50.1034C50.097 50.1326 49.988 50.141 49.8805 50.1279C49.7731 50.1148 49.6692 50.0806 49.5749 50.0272C49.4806 49.9738 49.3977 49.9022 49.3309 49.8166C49.2642 49.7309 49.2148 49.6329 49.1857 49.5281C49.1566 49.4233 49.1483 49.3137 49.1613 49.2057C49.1743 49.0977 49.2083 48.9933 49.2615 48.8985C49.3146 48.8036 49.3858 48.7203 49.4709 48.6531C49.5561 48.586 49.6536 48.5364 49.7579 48.5071C49.8621 48.4778 49.9711 48.4695 50.0785 48.4826C50.186 48.4956 50.2898 48.5299 50.3841 48.5833C50.4784 48.6367 50.5613 48.7083 50.6281 48.7939Z" fill="url(#paint19_radial_353_13159)"/>
<path fill-rule="evenodd" clip-rule="evenodd" d="M53.4001 34.0806C53.5277 34.2443 53.6043 34.4422 53.62 34.6495C53.6357 34.8569 53.59 35.0642 53.4885 35.2454C53.387 35.4266 53.2344 35.5734 53.0499 35.6674C52.8654 35.7614 52.6574 35.7982 52.4521 35.7733C52.2468 35.7484 52.0534 35.6629 51.8965 35.5275C51.7395 35.3921 51.626 35.213 51.5702 35.0128C51.5145 34.8125 51.5191 34.6002 51.5834 34.4026C51.6477 34.205 51.7689 34.0309 51.9316 33.9025C52.0393 33.8165 52.163 33.7529 52.2953 33.7152C52.4277 33.6776 52.5662 33.6667 52.7028 33.6833C52.8394 33.6999 52.9714 33.7435 53.0911 33.8117C53.2108 33.8799 53.3158 33.9713 53.4001 34.0806Z" fill="#31165F"/>
<path fill-rule="evenodd" clip-rule="evenodd" d="M53.2285 34.2201C53.3062 34.3044 53.3657 34.404 53.4032 34.5126C53.4408 34.6212 53.4556 34.7364 53.4467 34.8511C53.4378 34.9657 53.4054 35.0772 53.3515 35.1786C53.2977 35.28 53.2235 35.3692 53.1337 35.4403C53.0439 35.5115 52.9404 35.5633 52.8298 35.5923C52.7191 35.6213 52.6037 35.627 52.4908 35.609C52.3778 35.5909 52.2698 35.5496 52.1735 35.4876C52.0773 35.4255 51.9948 35.3441 51.9314 35.2485C51.8157 35.0742 51.7696 34.8625 51.8023 34.6556C51.835 34.4487 51.944 34.2618 52.1076 34.132C52.2712 34.0023 52.4774 33.9393 52.6852 33.9557C52.8929 33.972 53.0869 34.0664 53.2285 34.2201Z" fill="url(#paint20_radial_353_13159)"/>
<path fill-rule="evenodd" clip-rule="evenodd" d="M40.589 20.4342C40.7177 20.5986 40.7951 20.7977 40.8113 21.0062C40.8274 21.2148 40.7817 21.4235 40.6798 21.6059C40.578 21.7883 40.4245 21.9363 40.239 22.031C40.0535 22.1257 39.8442 22.1629 39.6376 22.138C39.431 22.113 39.2364 22.027 39.0785 21.8908C38.9205 21.7546 38.8063 21.5743 38.7503 21.3728C38.6944 21.1713 38.6991 20.9577 38.7639 20.7589C38.8288 20.5601 38.9509 20.3851 39.1147 20.2561C39.3338 20.0836 39.6121 20.0054 39.8885 20.0388C40.1648 20.0722 40.4167 20.2144 40.589 20.4342Z" fill="#31165F"/>
<path fill-rule="evenodd" clip-rule="evenodd" d="M40.4111 20.5716C40.4888 20.656 40.5483 20.7556 40.5859 20.8642C40.6234 20.9728 40.6382 21.088 40.6293 21.2026C40.6204 21.3172 40.588 21.4288 40.5341 21.5302C40.4803 21.6316 40.4061 21.7207 40.3163 21.7919C40.2265 21.8631 40.123 21.9148 40.0124 21.9439C39.9017 21.9729 39.7863 21.9786 39.6734 21.9605C39.5604 21.9425 39.4524 21.9012 39.3561 21.8391C39.2599 21.7771 39.1774 21.6957 39.1139 21.6C38.9983 21.4257 38.9523 21.2141 38.9849 21.0072C39.0176 20.8003 39.1266 20.6133 39.2902 20.4836C39.4538 20.3539 39.66 20.2909 39.8678 20.3072C40.0755 20.3235 40.2695 20.4179 40.4111 20.5716Z" fill="url(#paint21_radial_353_13159)"/>
<path fill-rule="evenodd" clip-rule="evenodd" d="M28.1658 17.9932C28.3208 18.2146 28.3854 18.4874 28.3463 18.7553C28.3071 19.0231 28.1672 19.2657 27.9555 19.433C27.7437 19.6002 27.4762 19.6794 27.208 19.6542C26.9399 19.6289 26.6916 19.5012 26.5144 19.2974C26.4288 19.1891 26.3655 19.0647 26.3281 18.9316C26.2907 18.7985 26.2799 18.6593 26.2963 18.5219C26.3128 18.3846 26.3562 18.2519 26.4241 18.1316C26.4919 18.0112 26.5828 17.9056 26.6915 17.8208C26.91 17.6476 27.1878 17.5685 27.4641 17.6008C27.7404 17.6331 27.9928 17.7742 28.1658 17.9932Z" fill="#31165F"/>
<path fill-rule="evenodd" clip-rule="evenodd" d="M27.9884 18.1376C28.1233 18.3106 28.1843 18.5303 28.1581 18.7485C28.1318 18.9667 28.0205 19.1655 27.8485 19.3011C27.6764 19.4367 27.4579 19.498 27.2409 19.4716C27.0239 19.4452 26.8262 19.3333 26.6913 19.1603C26.6245 19.0747 26.5752 18.9767 26.5461 18.8718C26.517 18.767 26.5087 18.6575 26.5217 18.5494C26.5347 18.4414 26.5687 18.337 26.6218 18.2422C26.675 18.1474 26.7461 18.064 26.8313 17.9969C26.9165 17.9297 27.014 17.8801 27.1182 17.8508C27.2225 17.8216 27.3314 17.8132 27.4389 17.8263C27.5463 17.8394 27.6502 17.8736 27.7444 17.927C27.8387 17.9804 27.9217 18.052 27.9884 18.1376Z" fill="url(#paint22_radial_353_13159)"/>
<path fill-rule="evenodd" clip-rule="evenodd" d="M16.2916 25.4638C16.4636 25.6855 16.541 25.9669 16.5067 26.2459C16.4724 26.525 16.3293 26.7789 16.1088 26.9519C15.8883 27.1248 15.6084 27.2026 15.3309 27.1681C15.0533 27.1336 14.8008 26.9897 14.6288 26.768C14.4567 26.5486 14.3785 26.2695 14.4112 25.992C14.4438 25.7146 14.5848 25.4615 14.803 25.2886C15.0213 25.1157 15.2989 25.037 15.5748 25.0698C15.8508 25.1027 16.1025 25.2444 16.2745 25.4638H16.2916Z" fill="#31165F"/>
<path fill-rule="evenodd" clip-rule="evenodd" d="M16.1138 25.6017C16.2449 25.7732 16.304 25.9896 16.2783 26.2043C16.2527 26.4191 16.1444 26.6153 15.9767 26.7508C15.8033 26.867 15.5928 26.9133 15.387 26.8805C15.1812 26.8476 14.9953 26.738 14.8663 26.5735C14.7373 26.409 14.6746 26.2017 14.6908 25.9928C14.7071 25.784 14.801 25.5889 14.9538 25.4466C15.0399 25.3796 15.1383 25.3304 15.2434 25.3019C15.3485 25.2735 15.4581 25.2662 15.566 25.2807C15.6739 25.2951 15.7779 25.3309 15.8719 25.386C15.9659 25.4411 16.0481 25.5144 16.1138 25.6017Z" fill="url(#paint23_radial_353_13159)"/>
<path fill-rule="evenodd" clip-rule="evenodd" d="M80.1775 135.945L80.7832 135.462L62.7546 113.676L62.1718 114.17L80.1775 135.945Z" fill="#6F2561"/>
<path fill-rule="evenodd" clip-rule="evenodd" d="M97.7254 86.0586L97.1025 86.5125L114.114 109.109L114.525 108.787L97.7254 86.0586Z" fill="#6F2561"/>
<path fill-rule="evenodd" clip-rule="evenodd" d="M75.8339 82.7999L78.0053 81.082L103.177 117.754L101.662 118.949L75.8339 82.7999Z" fill="url(#paint24_linear_353_13159)"/>
<path fill-rule="evenodd" clip-rule="evenodd" d="M75.8345 82.8008L80.3774 91.7347L101.663 118.95L75.8345 82.8008Z" fill="#FF4C61"/>
<path opacity="0.5" fill-rule="evenodd" clip-rule="evenodd" d="M78.7826 82.2148L102.068 100.985L96.5941 104.846L100.863 110.447L99.1141 111.832L78.7826 82.2148Z" fill="#31165F"/>
<path d="M5.13149 42.4956C5.13149 42.4956 3.04006 40.2606 3.4172 37.5776L4.70292 36.6641C5.15066 38.4254 5.50733 40.2088 5.77148 42.0072L5.13149 42.4956Z" fill="white"/>
<g style="mix-blend-mode:soft-light">
<path d="M84.7426 65.164L78.8855 52.9782L79.5198 52.4727L85.4912 64.5723L84.7426 65.164Z" fill="white"/>
</g>
<path fill-rule="evenodd" clip-rule="evenodd" d="M50.9881 16.5703C50.9881 16.5703 54.2052 12.7382 54.9424 19.4717L50.9881 16.5703Z" fill="url(#paint25_linear_353_13159)"/>
<path fill-rule="evenodd" clip-rule="evenodd" d="M5.9081 51.3789C5.9081 51.3789 3.17669 55.2455 7.67383 55.7626L5.9081 51.3789Z" fill="url(#paint26_linear_353_13159)"/>
<g style="mix-blend-mode:soft-light" opacity="0.5">
<path fill-rule="evenodd" clip-rule="evenodd" d="M79.1426 118.498C79.1426 118.498 45.1483 95.5169 23.2969 75.6094L22.7254 76.8561C22.7254 76.8561 54.9712 108.455 76.234 121.359L79.1426 118.498Z" fill="white"/>
</g>
<g style="mix-blend-mode:soft-light">
<path fill-rule="evenodd" clip-rule="evenodd" d="M77.3826 50.3414L73.514 43.0276L74.114 42.5508L77.9883 49.8646L77.3826 50.3414Z" fill="white"/>
</g>
<g style="mix-blend-mode:soft-light">
<path fill-rule="evenodd" clip-rule="evenodd" d="M45.5655 92.3374C45.5655 92.3374 49.8283 84.1963 55.6055 78.6406C55.6055 78.6406 50.474 84.972 45.5655 92.3374Z" fill="white"/>
</g>
<g style="mix-blend-mode:soft-light">
<path fill-rule="evenodd" clip-rule="evenodd" d="M50.0571 59.9922L68.6914 83.4905C68.6914 83.4905 62.4228 74.5967 50.0571 59.9922Z" fill="white"/>
</g>
<g style="mix-blend-mode:soft-light">
<path fill-rule="evenodd" clip-rule="evenodd" d="M55.9998 99.3891C55.9998 99.3891 67.9998 82.4002 85.3369 73.5352C85.3369 73.5122 72.0741 79.5563 55.9998 99.3891Z" fill="white"/>
</g>
<path fill-rule="evenodd" clip-rule="evenodd" d="M10.9776 34.6015C10.9776 34.6015 13.7833 33.7799 11.9033 28.793C11.3588 30.6836 11.0479 32.6344 10.9776 34.6015Z" fill="white"/>
<g style="mix-blend-mode:soft-light">
<path fill-rule="evenodd" clip-rule="evenodd" d="M48.7996 54.978C48.7996 54.978 53.7081 50.6633 55.3996 40.293C55.3996 40.27 55.7424 48.256 48.7996 54.978Z" fill="white"/>
</g>
<g style="mix-blend-mode:soft-light">
<path fill-rule="evenodd" clip-rule="evenodd" d="M43.3375 52.0002C43.3375 52.0002 49.6918 50.8799 49.2861 44.043C49.2861 44.043 48.5832 48.0474 43.3375 52.0002Z" fill="white"/>
</g>
<g style="mix-blend-mode:soft-light" opacity="0.36">
<path fill-rule="evenodd" clip-rule="evenodd" d="M50.3773 62.8006C50.2573 63.197 49.943 63.852 50.3773 64.1909C50.5776 64.3238 50.7856 64.4447 51.0001 64.5529C51.1761 64.6753 51.3389 64.8159 51.4858 64.9723C51.7277 65.2256 52.0373 65.4032 52.3773 65.4836C52.6001 65.5239 52.623 65.2826 52.6059 65.093C52.6055 64.8912 52.5523 64.693 52.4516 64.5184C52.2852 64.3001 52.1416 64.0653 52.023 63.8175C51.983 63.7198 51.9887 63.5992 51.9373 63.4958C51.8653 63.3658 51.7791 63.2444 51.6801 63.1338C51.5259 62.947 51.3167 62.8141 51.0826 62.7542C50.8485 62.6943 50.6016 62.7106 50.3773 62.8006Z" fill="white"/>
<path fill-rule="evenodd" clip-rule="evenodd" d="M51.9425 67.0362C51.8818 67.0053 51.8325 66.9558 51.8017 66.8949C51.7709 66.8339 51.7602 66.7647 51.7711 66.6972C52.1711 66.3927 52.914 67.0706 52.674 67.5188C52.434 67.9669 51.8682 67.4786 51.7997 67.1224L51.9425 67.0362Z" fill="white"/>
<path fill-rule="evenodd" clip-rule="evenodd" d="M48.5881 77.843C48.7195 77.5787 48.7824 77.303 49.0509 77.1766C49.2772 77.0758 49.5298 77.0516 49.7709 77.1076C50.066 77.1856 50.3408 77.3267 50.5766 77.5213C50.6966 77.6074 50.8338 77.6707 50.8966 77.8143C50.9814 78.1184 50.9946 78.4382 50.9351 78.7484C50.8755 79.0585 50.745 79.3505 50.5538 79.6011C50.3923 79.8765 50.2006 80.1328 49.9824 80.3652C49.8166 80.5203 49.6623 80.6869 49.5138 80.8478C49.3652 81.0087 49.3023 81.158 49.1195 81.2385C48.9633 81.2921 48.7988 81.3174 48.6338 81.3132C48.4149 81.3251 48.1965 81.2832 47.9973 81.1911C47.7982 81.099 47.6244 80.9595 47.4909 80.7846C47.0395 80.1526 47.3824 79.0955 47.6795 78.4578C47.9252 77.9292 48.3424 77.1708 48.5881 77.843Z" fill="white"/>
<path fill-rule="evenodd" clip-rule="evenodd" d="M49.8456 75.5103C49.9256 75.7286 49.9142 75.8206 50.1313 75.8091C50.2081 75.7975 50.2813 75.7687 50.3455 75.725C50.4098 75.6813 50.4635 75.6236 50.5027 75.5563C50.6627 75.3207 50.6742 74.7864 50.3427 74.6945C50.1315 74.6227 49.9026 74.6227 49.6913 74.6945C49.5582 74.8261 49.475 75.0004 49.4562 75.1871C49.4374 75.3739 49.4842 75.5614 49.5884 75.7171L49.8456 75.5103Z" fill="white"/>
<path fill-rule="evenodd" clip-rule="evenodd" d="M62.4397 75.2011C62.4826 75.3125 62.5445 75.4155 62.6225 75.5056L63.194 76.218C63.5425 76.6604 63.8283 77.1602 64.1768 77.6084C64.439 77.9255 64.7256 78.2214 65.034 78.4932C65.1883 78.6368 65.354 78.7862 65.5197 78.9126C65.5483 78.8723 65.5197 78.7862 65.4797 78.7345C65.4208 78.5713 65.3731 78.4043 65.3368 78.2346C65.2683 77.8554 65.1997 77.459 65.1083 77.0856C65.0813 77.0191 65.0621 76.9497 65.0511 76.8787C65.0455 76.7811 65.0455 76.6833 65.0511 76.5857C65.0605 76.42 65.0471 76.2537 65.0111 76.0916C64.8806 75.717 64.67 75.3757 64.394 75.0919C64.3083 74.9943 64.2054 74.9196 64.1254 74.8162C64.0381 74.7074 63.9446 74.6038 63.8454 74.5059C63.62 74.3071 63.3579 74.1548 63.074 74.0578C62.7483 73.9314 62.2683 73.6384 61.9311 73.8107C61.7597 73.8969 61.834 74.1037 61.9311 74.2416C62.0283 74.3795 62.1426 74.5749 62.2454 74.7472C62.3483 74.9196 62.4568 75.27 62.4397 75.2011Z" fill="white"/>
<path fill-rule="evenodd" clip-rule="evenodd" d="M61.1085 72.8443C61.1085 72.6835 61.017 72.4019 61.2113 72.3043C61.4056 72.2066 61.5999 72.4422 61.6799 72.5915C61.8799 72.9362 61.2285 72.9248 61.1085 72.7007V72.8443Z" fill="white"/>
<path fill-rule="evenodd" clip-rule="evenodd" d="M65.6453 72.4086C65.66 72.5713 65.7307 72.7237 65.8453 72.8395C65.925 72.9079 66.0263 72.9455 66.131 72.9455C66.2358 72.9455 66.3371 72.9079 66.4167 72.8395C66.7082 72.6269 66.8453 72.4029 66.6739 72.0697C66.5986 71.9582 66.5005 71.8642 66.3862 71.7938C66.2719 71.7235 66.144 71.6785 66.011 71.6617C65.9012 71.6526 65.7918 71.6832 65.7025 71.7479C65.5196 71.8743 65.5425 72.0754 65.5653 72.2765L65.6453 72.4086Z" fill="white"/>
<path fill-rule="evenodd" clip-rule="evenodd" d="M78.9429 76.2907C79.197 75.748 79.5134 75.237 79.8858 74.7682C80.2475 74.3973 80.629 74.0463 81.0286 73.7168C81.5267 73.178 81.9832 72.6018 82.3943 71.9933C82.759 71.4725 83.2457 71.0502 83.8115 70.7638C84.0452 70.6496 84.3001 70.5855 84.5598 70.5756C84.8195 70.5657 85.0784 70.6102 85.3201 70.7063C85.6047 70.8519 85.8619 71.0463 86.0801 71.2808C86.1886 71.3843 86.2801 71.4877 86.3829 71.5911C86.4543 71.6427 86.5195 71.7025 86.5772 71.7692C86.6572 71.8841 86.6229 71.9186 86.5143 71.999C86.3437 72.1521 86.1301 72.2485 85.9029 72.2748C85.5118 72.3481 85.1365 72.49 84.7943 72.6942C84.4572 72.8723 84.1143 73.0274 83.7829 73.2285C83.4515 73.4296 83.1429 73.6249 82.8172 73.803C82.4915 73.9811 82.2458 74.1248 81.9715 74.2856C81.6972 74.4465 81.4401 74.6533 81.1715 74.8314C80.9029 75.0095 80.7601 75.1647 80.5372 75.314C80.3944 75.3992 80.257 75.4932 80.1258 75.5956C80.0264 75.6769 79.9192 75.7481 79.8058 75.8081C79.6915 75.8713 79.6058 75.969 79.5029 76.0379C79.3261 76.1428 79.1383 76.2276 78.9429 76.2907Z" fill="white"/>
<path fill-rule="evenodd" clip-rule="evenodd" d="M80.194 72.3097C80.16 72.4123 80.16 72.5232 80.194 72.6257C80.2253 72.6718 80.2617 72.7142 80.3025 72.7521C80.4968 72.9072 80.8168 72.6659 80.9711 72.5453C81.4277 72.2079 81.7401 71.709 81.8454 71.1492C81.8759 70.9552 81.8625 70.7568 81.8061 70.5688C81.7497 70.3808 81.6518 70.208 81.5197 70.0633C81.3052 69.9325 81.0591 69.8633 80.8082 69.8633C80.5574 69.8633 80.3113 69.9325 80.0968 70.0633C79.6968 70.2529 79.2054 70.6379 79.154 71.0975C79.1216 71.269 79.1521 71.4465 79.2397 71.5973C79.314 71.7122 79.4339 71.7812 79.5139 71.8846C79.594 71.988 79.6511 72.2006 79.8282 72.2867C79.9454 72.3298 80.0724 72.3377 80.194 72.3097Z" fill="white"/>
<path fill-rule="evenodd" clip-rule="evenodd" d="M82.7541 70.3346C82.6398 70.2369 82.6398 70.2139 82.6341 70.0703C82.6272 70.0131 82.6391 69.9552 82.668 69.9054C82.6969 69.8556 82.7411 69.8167 82.7941 69.7945C82.8411 69.7746 82.8918 69.7648 82.9428 69.7657C82.9939 69.7666 83.0442 69.7783 83.0904 69.7999C83.1367 69.8216 83.178 69.8527 83.2116 69.8914C83.2452 69.93 83.2704 69.9753 83.2855 70.0243C83.2914 70.0948 83.2811 70.1656 83.2553 70.2314C83.2295 70.2972 83.189 70.3561 83.1369 70.4035C83.0763 70.4479 83.0033 70.4718 82.9284 70.4718C82.8534 70.4718 82.7804 70.4479 82.7198 70.4035L82.7541 70.3346Z" fill="white"/>
<path fill-rule="evenodd" clip-rule="evenodd" d="M78.7883 58.5028C78.6832 58.6552 78.6402 58.8423 78.6683 59.0256C78.6665 59.0754 78.679 59.1247 78.7043 59.1675C78.7297 59.2103 78.7668 59.2448 78.8112 59.2669C79.1202 59.4013 79.467 59.4196 79.7883 59.3186C79.8939 59.2813 79.9909 59.2229 80.0734 59.1468C80.1559 59.0708 80.2222 58.9788 80.2683 58.8763C80.3185 58.6891 80.3397 58.4953 80.3312 58.3017C80.3312 58.1294 80.3312 57.957 80.3312 57.7847C80.3312 57.4859 80.2569 57.2101 79.9426 57.0722C79.7937 57.0224 79.6349 57.0105 79.4803 57.0376C79.3257 57.0647 79.1803 57.1299 79.0569 57.2274C78.9023 57.3758 78.7848 57.5589 78.714 57.7617C78.6485 57.8777 78.6204 58.0114 78.6337 58.1441C78.647 58.2769 78.701 58.4023 78.7883 58.5028Z" fill="white"/>
<path fill-rule="evenodd" clip-rule="evenodd" d="M78.6793 60.137C78.8161 60.0501 78.967 59.9878 79.125 59.9531C79.165 60.0106 79.2622 59.9876 79.2908 60.0738C79.3193 60.16 79.1479 60.2921 79.0736 60.3496C78.9739 60.42 78.8517 60.4508 78.7308 60.4357C78.685 60.4357 78.4965 60.4357 78.5708 60.3266L78.6793 60.137Z" fill="white"/>
<path fill-rule="evenodd" clip-rule="evenodd" d="M73.0684 76.6545C73.1026 76.8671 73.1426 77.0969 73.4055 77.1428C73.6683 77.1888 73.8741 76.959 73.9769 76.7637C74.0283 76.6602 74.0912 76.5396 74.0284 76.4362C73.9532 76.3275 73.8711 76.2239 73.7826 76.1259C73.6055 75.8846 73.7084 75.5514 73.3141 75.4652C73.2197 75.4542 73.124 75.4645 73.0341 75.4953C72.9441 75.5261 72.8621 75.5767 72.7941 75.6433C72.7169 75.7711 72.6719 75.9158 72.663 76.0649C72.654 76.2141 72.6814 76.3632 72.7426 76.4994L73.0684 76.6545Z" fill="white"/>
<path fill-rule="evenodd" clip-rule="evenodd" d="M60.7602 100.688C60.538 100.959 60.3972 101.287 60.3545 101.636L60.4459 101.739C60.4793 101.857 60.5367 101.966 60.6144 102.06C60.6921 102.154 60.7885 102.231 60.8973 102.285C61.6059 102.601 62.1202 102.09 62.6116 101.682C63.103 101.274 63.9031 100.757 63.0573 100.194C62.6368 99.8316 62.1206 99.6 61.5716 99.5273C61.3088 99.5273 61.263 99.6652 61.1488 99.8606C60.961 100.107 60.8232 100.388 60.7431 100.688H60.7602Z" fill="white"/>
<path fill-rule="evenodd" clip-rule="evenodd" d="M67.7139 96.5745C67.6796 96.362 67.5767 95.9713 67.771 95.7759C67.9653 95.5806 68.0739 95.6783 68.2682 95.6668C68.7025 95.6668 69.171 95.7013 69.1768 96.2758C69.1642 96.4224 69.1173 96.5639 69.0398 96.6888C68.9623 96.8136 68.8565 96.9182 68.731 96.9939C68.5253 97.1089 68.0453 97.1261 67.9367 96.8618L67.7139 96.5745Z" fill="white"/>
<path fill-rule="evenodd" clip-rule="evenodd" d="M56.257 27.6307C56.3827 28.2053 56.3827 28.2512 56.8284 28.5787C57.1414 28.8742 57.5223 29.0873 57.937 29.1992C58.5084 29.2796 58.8799 28.8602 59.3427 28.6247C59.7027 28.4466 59.9141 28.3259 60.0056 27.9065C60.1036 27.4612 60.1192 27.0015 60.0513 26.5506C59.8991 25.8408 59.5961 25.1725 59.1632 24.5914C58.7302 24.0103 58.1774 23.5302 57.5427 23.1839C56.7656 22.7702 55.7713 22.3738 54.897 22.7357C54.5262 22.8816 54.2018 23.1259 53.9583 23.4426C53.7147 23.7593 53.5612 24.1365 53.5141 24.534C53.4982 24.9347 53.5775 25.3334 53.7454 25.6971C53.9134 26.0608 54.1651 26.379 54.4798 26.6253L54.937 26.9643C55.1105 27.1378 55.2639 27.3305 55.3942 27.5388C55.5713 27.6824 55.8227 27.7744 56.257 27.6307Z" fill="white"/>
<path fill-rule="evenodd" clip-rule="evenodd" d="M56.388 30.1289C57.0337 30.1289 56.9594 30.1289 57.3137 30.4851C57.4794 30.6402 57.5766 30.623 57.6737 30.8241C57.7169 30.9721 57.7155 31.1297 57.6697 31.2769C57.6239 31.4241 57.5359 31.5544 57.4166 31.6514C57.1294 31.7266 56.8254 31.7023 56.5537 31.5825C56.2966 31.4676 56.2508 31.3297 56.1937 31.0596L56.388 30.1289Z" fill="white"/>
<path fill-rule="evenodd" clip-rule="evenodd" d="M16.2567 61.7094C16.4453 62.1231 16.6567 62.6229 17.2225 62.5597C17.611 62.5138 17.8796 62.0311 17.971 61.6749C18.078 61.036 17.9778 60.3794 17.6853 59.802C17.4842 59.5785 17.2137 59.4301 16.9179 59.381C16.6222 59.332 16.3186 59.3852 16.0568 59.5319C15.1539 60.0777 15.7425 61.7324 16.1768 62.4046L16.2567 61.7094Z" fill="white"/>
<path fill-rule="evenodd" clip-rule="evenodd" d="M18.6798 65.9858C18.5598 65.9283 18.1084 65.802 18.0741 65.6526C18.0398 65.5032 18.1084 65.5147 18.0741 65.4515C18.0462 65.3362 18.0441 65.2162 18.0678 65.0999C18.0915 64.9837 18.1405 64.8742 18.2112 64.7793C18.3607 64.5946 18.5669 64.465 18.7975 64.4109C19.0282 64.3568 19.2702 64.3813 19.4855 64.4805C19.6365 64.5234 19.7671 64.6197 19.8532 64.7516C19.9393 64.8836 19.9751 65.0423 19.9541 65.1987C19.9026 65.5779 19.5198 66.0433 19.0912 65.9513L18.6798 65.9858Z" fill="white"/>
<path fill-rule="evenodd" clip-rule="evenodd" d="M89.8402 81.5605C90.0718 82.3469 90.5485 83.0378 91.2002 83.5311C91.5945 83.8758 92.0745 84.3642 92.6459 84.2033C93.9945 83.8241 93.0631 81.0147 92.7031 80.1816C92.3982 79.4373 91.9384 78.7673 91.3545 78.2167C91.0059 77.9007 90.1488 77.3951 89.6402 77.4928C89.3465 77.5841 89.0934 77.7747 88.9236 78.0323C88.7538 78.2899 88.6779 78.5987 88.7088 78.9061C88.7088 80.2563 89.7316 81.2043 90.1831 82.3993L89.8402 81.5605Z" fill="white"/>
<path fill-rule="evenodd" clip-rule="evenodd" d="M89.2059 81.8311C88.9695 82.0439 88.7672 82.2919 88.6059 82.5665C88.5205 82.7452 88.4964 82.9472 88.5373 83.1411C88.6033 83.2406 88.6924 83.3224 88.797 83.3795C88.9015 83.4366 89.0184 83.4671 89.1373 83.4685C89.2206 83.4796 89.3052 83.4691 89.3832 83.4379C89.4613 83.4067 89.5301 83.3559 89.583 83.2904C89.6288 83.1556 89.6405 83.0115 89.6173 82.871C89.5983 82.6465 89.5542 82.4249 89.4859 82.2103C89.468 82.1023 89.4393 81.9965 89.4002 81.8943C89.3202 81.745 89.1945 81.7679 89.0745 81.6875L89.2059 81.8311Z" fill="white"/>
<path fill-rule="evenodd" clip-rule="evenodd" d="M92.8226 87.6383L93.2969 87.5234C93.3769 87.6786 93.5483 87.7935 93.4855 87.9888C93.3955 88.1527 93.2523 88.2805 93.0797 88.3508C92.9935 88.3871 92.8976 88.3933 92.8074 88.3683C92.7173 88.3433 92.6381 88.2886 92.5826 88.2129C92.4455 88.029 92.554 87.8279 92.6912 87.6671L92.8226 87.6383Z" fill="white"/>
<path fill-rule="evenodd" clip-rule="evenodd" d="M82.6799 107.351C82.7599 107.558 82.8399 107.702 83.0799 107.731C83.2422 107.761 83.4099 107.729 83.5497 107.64C83.6895 107.552 83.791 107.414 83.8342 107.254C83.9054 106.978 83.9093 106.69 83.8456 106.413C83.7819 106.136 83.6525 105.878 83.4685 105.662C83.217 105.45 82.657 105.409 82.5199 105.766C82.4332 105.961 82.3736 106.168 82.3428 106.38C82.3398 106.712 82.4463 107.035 82.6456 107.3L82.6799 107.351Z" fill="white"/>
<path fill-rule="evenodd" clip-rule="evenodd" d="M29.217 12.9106C29.1827 13.1174 29.1484 13.2036 29.2456 13.376C29.2849 13.4788 29.344 13.5728 29.4195 13.6527C29.495 13.7325 29.5854 13.7966 29.6855 13.8414C30.1984 13.9442 30.7309 13.8672 31.1941 13.623C31.3683 13.551 31.5234 13.4393 31.6474 13.2967C31.7713 13.1542 31.8607 12.9846 31.9084 12.8015C31.9734 12.5936 31.9948 12.3745 31.9712 12.1579C31.9475 11.9413 31.8795 11.732 31.7713 11.5432C31.6833 11.3417 31.5342 11.1732 31.3455 11.0618C31.1567 10.9504 30.9377 10.9017 30.7198 10.9227C30.271 10.9261 29.8283 11.0281 29.4227 11.2215C29.2704 11.2998 29.1389 11.4137 29.0395 11.5537C28.9401 11.6936 28.8755 11.8556 28.8513 12.0258C28.8056 12.3418 28.7827 12.8646 29.217 12.9106Z" fill="white"/>
<path fill-rule="evenodd" clip-rule="evenodd" d="M32.8108 12.0009C32.7422 11.8917 32.6279 11.7941 32.7194 11.6792C32.8072 11.6066 32.9085 11.5524 33.0175 11.5199C33.1264 11.4873 33.2407 11.477 33.3537 11.4896C33.527 11.5216 33.682 11.618 33.788 11.7596C33.8311 11.8724 33.8311 11.9973 33.788 12.1101C33.7705 12.1966 33.7263 12.2755 33.6616 12.3353C33.597 12.3952 33.5152 12.4329 33.428 12.4433C33.3022 12.4433 33.0051 12.5122 32.9422 12.3628L32.8108 12.0009Z" fill="white"/>
<path fill-rule="evenodd" clip-rule="evenodd" d="M14.7651 5.757C14.8636 5.92121 15.0147 6.04683 15.1936 6.11321C15.5198 6.22798 15.8671 6.26917 16.2108 6.23386C16.6646 6.208 17.0978 6.03459 17.4451 5.73976C17.5511 5.60845 17.6172 5.44916 17.6355 5.28102C17.6537 5.11287 17.6233 4.943 17.5479 4.79178C17.3252 4.44196 16.9875 4.18173 16.5937 4.05639C16.2412 3.95325 15.8691 3.93699 15.5091 4.00899C15.149 4.081 14.8115 4.23914 14.5251 4.47005C13.9194 5.03883 14.6279 6.03277 14.7651 5.757Z" fill="white"/>
<path fill-rule="evenodd" clip-rule="evenodd" d="M19.3654 5.83231C19.245 5.82821 19.1291 5.78599 19.034 5.71166C19.0969 5.59675 19.034 5.46461 19.114 5.34396C19.1967 5.2323 19.3199 5.15798 19.4568 5.13713C19.5456 5.11734 19.638 5.12183 19.7244 5.15012C19.8108 5.17841 19.8881 5.22948 19.9483 5.298C20.0911 5.45886 20.0511 5.54505 19.9483 5.72315C19.8454 5.90126 19.8854 5.88976 19.7368 5.91849C19.6304 5.92718 19.5233 5.92718 19.4168 5.91849L19.3654 5.83231Z" fill="white"/>
</g>
<path fill-rule="evenodd" clip-rule="evenodd" d="M56.8689 97.6395C56.9284 97.8005 56.9423 97.975 56.9092 98.1435C56.8762 98.3121 56.7973 98.4681 56.6815 98.5944C56.5657 98.7206 56.4173 98.8122 56.2529 98.8589C56.0885 98.9057 55.9144 98.9058 55.75 98.8592C55.5855 98.8126 55.4371 98.7212 55.3212 98.595C55.2052 98.4688 55.1262 98.3129 55.093 98.1444C55.0598 97.9759 55.0736 97.8014 55.1328 97.6403C55.1921 97.4792 55.2946 97.3378 55.4289 97.2316C55.6752 97.101 55.962 97.0705 56.23 97.1464C56.498 97.2223 56.7267 97.3988 56.8689 97.6395Z" fill="url(#paint27_linear_353_13159)"/>
<path fill-rule="evenodd" clip-rule="evenodd" d="M56.7197 97.7622C56.7632 97.8883 56.7715 98.0241 56.7436 98.1546C56.7157 98.2851 56.6527 98.4055 56.5614 98.5025C56.4702 98.5996 56.3543 98.6696 56.2262 98.7049C56.0981 98.7403 55.9629 98.7396 55.8352 98.703C55.7074 98.6664 55.5922 98.5953 55.5019 98.4974C55.4116 98.3995 55.3497 98.2785 55.3231 98.1477C55.2964 98.0169 55.306 97.8812 55.3508 97.7555C55.3955 97.6298 55.4737 97.5188 55.5768 97.4347C55.7722 97.3287 56.001 97.3036 56.2145 97.3648C56.428 97.426 56.6092 97.5686 56.7197 97.7622Z" fill="white"/>
<path fill-rule="evenodd" clip-rule="evenodd" d="M82.8288 73.89C82.909 74.06 82.9399 74.2493 82.9179 74.4361C82.8959 74.623 82.8219 74.7998 82.7044 74.9462C82.5869 75.0927 82.4307 75.2028 82.2537 75.2639C82.0768 75.3251 81.8862 75.3348 81.704 75.292C81.5218 75.2491 81.3553 75.1554 81.2237 75.0217C81.0921 74.8879 81.0007 74.7195 80.96 74.5359C80.9193 74.3523 80.931 74.1608 80.9937 73.9835C81.0564 73.8063 81.1676 73.6504 81.3145 73.5338C81.5651 73.3901 81.8604 73.347 82.1412 73.413C82.4221 73.4791 82.6677 73.6495 82.8288 73.89Z" fill="url(#paint28_linear_353_13159)"/>
<path fill-rule="evenodd" clip-rule="evenodd" d="M82.663 74.0207C82.7265 74.1546 82.7511 74.3038 82.7339 74.4512C82.7167 74.5985 82.6584 74.738 82.5658 74.8535C82.4732 74.969 82.35 75.0558 82.2104 75.104C82.0708 75.1521 81.9205 75.1596 81.7769 75.1256C81.6333 75.0915 81.5021 75.0174 81.3986 74.9117C81.295 74.806 81.2233 74.673 81.1917 74.528C81.1601 74.3831 81.1699 74.2322 81.2199 74.0926C81.2699 73.953 81.3582 73.8305 81.4745 73.7391C81.6699 73.6209 81.9037 73.5841 82.1257 73.6367C82.3478 73.6893 82.5406 73.8271 82.663 74.0207Z" fill="white"/>
<path fill-rule="evenodd" clip-rule="evenodd" d="M69.8456 83.9316C69.9917 84.1215 70.0786 84.3506 70.0956 84.5901C70.1125 84.8296 70.0587 85.0688 69.9409 85.2776C69.8231 85.4864 69.6465 85.6556 69.4333 85.7638C69.2202 85.872 68.98 85.9145 68.7429 85.8859C68.5058 85.8573 68.2824 85.7589 68.1008 85.603C67.9191 85.4472 67.7874 85.2408 67.722 85.0099C67.6567 84.779 67.6607 84.5338 67.7335 84.3051C67.8063 84.0765 67.9447 83.8746 68.1313 83.7248C68.2572 83.6247 68.4015 83.5506 68.556 83.5069C68.7104 83.4631 68.8719 83.4504 69.0313 83.4697C69.1906 83.4889 69.3446 83.5396 69.4843 83.6189C69.6241 83.6981 69.7469 83.8044 69.8456 83.9316Z" fill="url(#paint29_linear_353_13159)"/>
<path fill-rule="evenodd" clip-rule="evenodd" d="M69.6396 84.0746C69.7559 84.2239 69.8256 84.4044 69.84 84.5934C69.8544 84.7825 69.8127 84.9716 69.7202 85.1368C69.6278 85.3021 69.4887 85.4361 69.3206 85.522C69.1525 85.6078 68.9628 85.6417 68.7756 85.6192C68.5883 85.5968 68.4119 85.5191 68.2685 85.3959C68.1252 85.2728 68.0213 85.1096 67.9701 84.9272C67.9189 84.7447 67.9226 84.5511 67.9807 84.3707C68.0388 84.1904 68.1488 84.0314 68.2967 83.9138C68.3953 83.8354 68.5083 83.7774 68.6292 83.7431C68.7502 83.7088 68.8766 83.6988 69.0014 83.7138C69.1261 83.7287 69.2468 83.7683 69.3563 83.8302C69.4658 83.8921 69.5621 83.9752 69.6396 84.0746Z" fill="white"/>
<path style="mix-blend-mode:screen" d="M72.7886 78.3304C73.9882 79.0451 74.9502 80.1015 75.5528 81.3659C76.1554 82.6303 76.3715 84.046 76.174 85.4339C75.9764 86.8218 75.374 88.1197 74.4429 89.1634C73.5118 90.2072 72.2937 90.9499 70.9428 91.2977C69.5919 91.6455 68.1688 91.5827 66.8533 91.1174C65.5379 90.652 64.3892 89.805 63.5525 88.6833C62.7158 87.5617 62.2287 86.2158 62.1527 84.8158C62.0768 83.4158 62.4153 82.0246 63.1257 80.8181C63.5975 80.0166 64.2218 79.3165 64.9628 78.7578C65.7039 78.199 66.5472 77.7925 67.4445 77.5614C68.3418 77.3304 69.2757 77.2794 70.1926 77.4113C71.1096 77.5433 71.9917 77.8556 72.7886 78.3304Z" fill="url(#paint30_radial_353_13159)"/>
<path style="mix-blend-mode:screen" d="M55.7145 12.2867C56.672 12.8572 57.4398 13.7003 57.9208 14.7095C58.4018 15.7186 58.5745 16.8485 58.417 17.9563C58.2594 19.0641 57.7787 20.1 57.0357 20.9332C56.2926 21.7664 55.3206 22.3593 54.2425 22.6372C53.1643 22.915 52.0284 22.8652 50.9784 22.4941C49.9284 22.123 49.0113 21.4472 48.3433 20.5521C47.6752 19.6571 47.286 18.583 47.225 17.4657C47.1639 16.3483 47.4337 15.2378 48.0002 14.2746C48.3767 13.6345 48.8749 13.0754 49.4664 12.629C50.058 12.1827 50.7312 11.8579 51.4476 11.6733C52.164 11.4887 52.9096 11.4478 53.6418 11.5531C54.3739 11.6583 55.0783 11.9076 55.7145 12.2867Z" fill="url(#paint31_radial_353_13159)"/>
<path style="mix-blend-mode:screen" d="M8.50318 0.792128C9.46047 1.36317 10.2278 2.20676 10.7083 3.21626C11.1888 4.22575 11.3608 5.35582 11.2026 6.46359C11.0444 7.57136 10.563 8.60709 9.81937 9.43983C9.07575 10.2726 8.10324 10.8649 7.0248 11.142C5.94637 11.4191 4.81043 11.3685 3.76061 10.9966C2.71078 10.6247 1.79423 9.94812 1.12678 9.0525C0.459338 8.15688 0.0709925 7.0824 0.01085 5.9649C-0.0492935 4.8474 0.221466 3.73706 0.788891 2.77426C1.16583 2.13468 1.6644 1.57604 2.25614 1.13025C2.84788 0.68447 3.52116 0.360282 4.23755 0.17621C4.95395 -0.00786177 5.69939 -0.0482109 6.43129 0.0574706C7.1632 0.163152 7.86726 0.412793 8.50318 0.792128Z" fill="url(#paint32_radial_353_13159)"/>
<path style="mix-blend-mode:screen" d="M6.07385 56.5206C4.46749 56.5206 3.16527 55.2113 3.16527 53.5962C3.16527 51.9812 4.46749 50.6719 6.07385 50.6719C7.68021 50.6719 8.98242 51.9812 8.98242 53.5962C8.98242 55.2113 7.68021 56.5206 6.07385 56.5206Z" fill="url(#paint33_radial_353_13159)"/>
<path style="mix-blend-mode:screen" d="M83.0054 72.4947C83.4684 72.7702 83.8397 73.1776 84.0723 73.6654C84.305 74.1531 84.3886 74.6992 84.3125 75.2347C84.2364 75.7702 84.0041 76.271 83.645 76.6737C83.2858 77.0765 82.8159 77.3631 82.2947 77.4973C81.7736 77.6315 81.2245 77.6073 80.717 77.4278C80.2095 77.2482 79.7663 76.9214 79.4436 76.4886C79.1209 76.0558 78.933 75.5365 78.9038 74.9964C78.8747 74.4562 79.0055 73.9195 79.2797 73.4542C79.6473 72.8303 80.2463 72.3787 80.9449 72.1988C81.6436 72.0189 82.3847 72.1253 83.0054 72.4947Z" fill="url(#paint34_radial_353_13159)"/>
<path style="mix-blend-mode:screen" d="M57.1196 96.1861C57.5826 96.4616 57.9539 96.869 58.1866 97.3568C58.4193 97.8445 58.5028 98.3906 58.4268 98.9261C58.3507 99.4616 58.1184 99.9624 57.7592 100.365C57.4001 100.768 56.9302 101.054 56.409 101.189C55.8878 101.323 55.3387 101.299 54.8312 101.119C54.3237 100.94 53.8806 100.613 53.5579 100.18C53.2351 99.7472 53.0473 99.2279 53.0181 98.6878C52.9889 98.1476 53.1197 97.611 53.394 97.1456C53.7616 96.5217 54.3605 96.0701 55.0592 95.8902C55.7579 95.7103 56.499 95.8167 57.1196 96.1861Z" fill="url(#paint35_radial_353_13159)"/>
<defs>
<linearGradient id="paint0_linear_353_13159" x1="124.058" y1="156.406" x2="91.7636" y2="115.453" gradientUnits="userSpaceOnUse">
<stop/>
<stop offset="0.15" stop-color="#000304"/>
<stop offset="0.32" stop-color="#020D12"/>
<stop offset="0.5" stop-color="#041E27"/>
<stop offset="0.68" stop-color="#083546"/>
<stop offset="0.86" stop-color="#0C526D"/>
<stop offset="1" stop-color="#106D90"/>
</linearGradient>
<linearGradient id="paint1_linear_353_13159" x1="119.515" y1="105.822" x2="94.6738" y2="74.3404" gradientUnits="userSpaceOnUse">
<stop stop-color="#A43440"/>
<stop offset="1" stop-color="#C73634"/>
</linearGradient>
<linearGradient id="paint2_linear_353_13159" x1="76.8682" y1="139.473" x2="52.0231" y2="107.987" gradientUnits="userSpaceOnUse">
<stop stop-color="#A43440"/>
<stop offset="1" stop-color="#C73634"/>
</linearGradient>
<radialGradient id="paint3_radial_353_13159" cx="0" cy="0" r="1" gradientUnits="userSpaceOnUse" gradientTransform="translate(30.291 37.5262) rotate(-38.3847) scale(44.9261 81.8263)">
<stop stop-color="#F4BAB3"/>
<stop offset="0.77" stop-color="#8D6FC7"/>
<stop offset="0.96" stop-color="#B695E5"/>
</radialGradient>
<radialGradient id="paint4_radial_353_13159" cx="0" cy="0" r="1" gradientUnits="userSpaceOnUse" gradientTransform="translate(6.81273 4.40028) rotate(-38.2759) scale(12.0759 10.8875)">
<stop offset="0.02" stop-color="#AB5E75"/>
<stop offset="0.25" stop-color="#9F577B"/>
<stop offset="0.67" stop-color="#7F458C"/>
<stop offset="0.99" stop-color="#61349C"/>
</radialGradient>
<linearGradient id="paint5_linear_353_13159" x1="7.1704" y1="6.34249" x2="4.071" y2="2.41458" gradientUnits="userSpaceOnUse">
<stop stop-color="#FFFF18"/>
<stop offset="1" stop-color="#FF7400"/>
</linearGradient>
<radialGradient id="paint6_radial_353_13159" cx="0" cy="0" r="1" gradientUnits="userSpaceOnUse" gradientTransform="translate(65.6238 80.1939) rotate(-38.2759) scale(21.334 39.2339)">
<stop offset="0.02" stop-color="#8881BC"/>
<stop offset="0.29" stop-color="#8375B7"/>
<stop offset="0.77" stop-color="#7555AA"/>
<stop offset="0.99" stop-color="#6D43A3"/>
</radialGradient>
<radialGradient id="paint7_radial_353_13159" cx="0" cy="0" r="1" gradientUnits="userSpaceOnUse" gradientTransform="translate(34.4975 41.2397) rotate(-38.2759) scale(22.6796 22.7085)">
<stop offset="0.02" stop-color="#8881BC"/>
<stop offset="0.29" stop-color="#8375B7"/>
<stop offset="0.77" stop-color="#7555AA"/>
<stop offset="0.99" stop-color="#6D43A3"/>
</radialGradient>
<radialGradient id="paint8_radial_353_13159" cx="0" cy="0" r="1" gradientUnits="userSpaceOnUse" gradientTransform="translate(13.8677 15.6732) rotate(-38.4844) scale(28.0564 47.2593)">
<stop offset="0.02" stop-color="#725EB0"/>
<stop offset="0.38" stop-color="#6D52AA"/>
<stop offset="0.99" stop-color="#61349C"/>
</radialGradient>
<linearGradient id="paint9_linear_353_13159" x1="43.3281" y1="52.2637" x2="21.6252" y2="24.7593" gradientUnits="userSpaceOnUse">
<stop stop-color="#FFFF29"/>
<stop offset="1" stop-color="#FF7E59"/>
</linearGradient>
<radialGradient id="paint10_radial_353_13159" cx="0" cy="0" r="1" gradientUnits="userSpaceOnUse" gradientTransform="translate(86.1564 105.847) rotate(-38.2759) scale(8.37835 15.408)">
<stop offset="0.02" stop-color="#725EB0"/>
<stop offset="0.38" stop-color="#6D52AA"/>
<stop offset="0.99" stop-color="#61349C"/>
</radialGradient>
<radialGradient id="paint11_radial_353_13159" cx="0" cy="0" r="1" gradientUnits="userSpaceOnUse" gradientTransform="translate(16.522 17.9012) rotate(-38.2759) scale(15.4399 15.4595)">
<stop offset="0.02" stop-color="#8881BC"/>
<stop offset="0.29" stop-color="#8375B7"/>
<stop offset="0.77" stop-color="#7555AA"/>
<stop offset="0.99" stop-color="#6D43A3"/>
</radialGradient>
<linearGradient id="paint12_linear_353_13159" x1="61.4291" y1="77.3567" x2="60.1201" y2="75.6978" gradientUnits="userSpaceOnUse">
<stop stop-color="#8DC7FF"/>
<stop offset="0.32" stop-color="#5C4D86"/>
</linearGradient>
<radialGradient id="paint13_radial_353_13159" cx="0" cy="0" r="1" gradientUnits="userSpaceOnUse" gradientTransform="translate(60.6432 76.1077) rotate(-38.2757) scale(0.833813 0.834873)">
<stop offset="0.02" stop-color="#8881BC"/>
<stop offset="0.29" stop-color="#8375B7"/>
<stop offset="0.77" stop-color="#7555AA"/>
<stop offset="1" stop-color="#6D43A3"/>
</radialGradient>
<linearGradient id="paint14_linear_353_13159" x1="58.2197" y1="73.2458" x2="56.9108" y2="71.5869" gradientUnits="userSpaceOnUse">
<stop stop-color="#8DC7FF"/>
<stop offset="0.32" stop-color="#5C4D86"/>
</linearGradient>
<radialGradient id="paint15_radial_353_13159" cx="0" cy="0" r="1" gradientUnits="userSpaceOnUse" gradientTransform="translate(57.4329 71.9964) rotate(-38.2757) scale(0.833813 0.834873)">
<stop offset="0.02" stop-color="#8881BC"/>
<stop offset="0.29" stop-color="#8375B7"/>
<stop offset="0.77" stop-color="#7555AA"/>
<stop offset="1" stop-color="#6D43A3"/>
</radialGradient>
<radialGradient id="paint16_radial_353_13159" cx="0" cy="0" r="1" gradientUnits="userSpaceOnUse" gradientTransform="translate(21.9206 54.7434) rotate(-38.2763) scale(0.833804 0.834869)">
<stop stop-color="#F4BAB3"/>
<stop offset="1" stop-color="#8D6FC7"/>
</radialGradient>
<radialGradient id="paint17_radial_353_13159" cx="0" cy="0" r="1" gradientUnits="userSpaceOnUse" gradientTransform="translate(14.1672 41.8004) rotate(-38.2759) scale(0.833812 0.834874)">
<stop stop-color="#F4BAB3"/>
<stop offset="1" stop-color="#8D6FC7"/>
</radialGradient>
<radialGradient id="paint18_radial_353_13159" cx="0" cy="0" r="1" gradientUnits="userSpaceOnUse" gradientTransform="translate(36.9468 57.9359) rotate(-38.2762) scale(0.833804 0.834868)">
<stop stop-color="#F4BAB3"/>
<stop offset="1" stop-color="#8D6FC7"/>
</radialGradient>
<radialGradient id="paint19_radial_353_13159" cx="0" cy="0" r="1" gradientUnits="userSpaceOnUse" gradientTransform="translate(50.5632 48.8116) rotate(-38.276) scale(0.833808 0.834871)">
<stop stop-color="#F4BAB3"/>
<stop offset="1" stop-color="#8D6FC7"/>
</radialGradient>
<radialGradient id="paint20_radial_353_13159" cx="0" cy="0" r="1" gradientUnits="userSpaceOnUse" gradientTransform="translate(53.1847 34.1816) rotate(-38.2758) scale(0.833811 0.834873)">
<stop stop-color="#F4BAB3"/>
<stop offset="1" stop-color="#8D6FC7"/>
</radialGradient>
<radialGradient id="paint21_radial_353_13159" cx="0" cy="0" r="1" gradientUnits="userSpaceOnUse" gradientTransform="translate(40.3288 20.4563) rotate(-38.2757) scale(0.833813 0.834874)">
<stop stop-color="#F4BAB3"/>
<stop offset="1" stop-color="#8D6FC7"/>
</radialGradient>
<radialGradient id="paint22_radial_353_13159" cx="0" cy="0" r="1" gradientUnits="userSpaceOnUse" gradientTransform="translate(27.8554 18.0011) rotate(-38.2761) scale(0.833807 0.834871)">
<stop stop-color="#F4BAB3"/>
<stop offset="1" stop-color="#8D6FC7"/>
</radialGradient>
<radialGradient id="paint23_radial_353_13159" cx="0" cy="0" r="1" gradientUnits="userSpaceOnUse" gradientTransform="translate(15.9265 25.4856) rotate(-38.2763) scale(0.833805 0.834869)">
<stop stop-color="#F4BAB3"/>
<stop offset="1" stop-color="#8D6FC7"/>
</radialGradient>
<linearGradient id="paint24_linear_353_13159" x1="104.378" y1="117.763" x2="76.7726" y2="82.7784" gradientUnits="userSpaceOnUse">
<stop stop-color="#A43411"/>
<stop offset="1" stop-color="#C73634"/>
</linearGradient>
<linearGradient id="paint25_linear_353_13159" x1="53.1838" y1="18.2002" x2="55.2644" y2="16.5762" gradientUnits="userSpaceOnUse">
<stop stop-color="#FFFF18"/>
<stop offset="1" stop-color="#FF7400"/>
</linearGradient>
<linearGradient id="paint26_linear_353_13159" x1="5.88817" y1="54.5935" x2="7.84184" y2="53.0685" gradientUnits="userSpaceOnUse">
<stop stop-color="#FFFF18"/>
<stop offset="1" stop-color="#FF7400"/>
</linearGradient>
<linearGradient id="paint27_linear_353_13159" x1="57.6187" y1="99.2858" x2="56.1064" y2="97.3693" gradientUnits="userSpaceOnUse">
<stop stop-color="#8DC7FF"/>
<stop offset="0.32" stop-color="#5C4D86"/>
</linearGradient>
<linearGradient id="paint28_linear_353_13159" x1="83.6465" y1="75.5224" x2="82.1307" y2="73.6014" gradientUnits="userSpaceOnUse">
<stop stop-color="#8DC7FF"/>
<stop offset="0.32" stop-color="#5C4D86"/>
</linearGradient>
<linearGradient id="paint29_linear_353_13159" x1="70.3981" y1="85.7254" x2="68.8859" y2="83.8089" gradientUnits="userSpaceOnUse">
<stop stop-color="#8DC7FF"/>
<stop offset="0.32" stop-color="#5C4D86"/>
</linearGradient>
<radialGradient id="paint30_radial_353_13159" cx="0" cy="0" r="1" gradientUnits="userSpaceOnUse" gradientTransform="translate(68.7798 83.0052) rotate(-59.5716) scale(7.09969 7.08107)">
<stop stop-color="#003CEE"/>
<stop offset="0.06" stop-color="#0036D6"/>
<stop offset="0.2" stop-color="#00289E"/>
<stop offset="0.34" stop-color="#001C6D"/>
<stop offset="0.48" stop-color="#001246"/>
<stop offset="0.62" stop-color="#000A27"/>
<stop offset="0.75" stop-color="#000412"/>
<stop offset="0.88" stop-color="#000104"/>
<stop offset="1"/>
</radialGradient>
<radialGradient id="paint31_radial_353_13159" cx="0" cy="0" r="1" gradientUnits="userSpaceOnUse" gradientTransform="translate(52.3023 15.5703) rotate(-59.5716) scale(5.66959 5.65473)">
<stop stop-color="#FF9A00"/>
<stop offset="0.09" stop-color="#D68100"/>
<stop offset="0.23" stop-color="#9E5F00"/>
<stop offset="0.36" stop-color="#6E4200"/>
<stop offset="0.5" stop-color="#462A00"/>
<stop offset="0.63" stop-color="#271800"/>
<stop offset="0.76" stop-color="#120B00"/>
<stop offset="0.89" stop-color="#040300"/>
<stop offset="1"/>
</radialGradient>
<radialGradient id="paint32_radial_353_13159" cx="0" cy="0" r="1" gradientUnits="userSpaceOnUse" gradientTransform="translate(4.94071 4.10205) rotate(-59.5716) scale(5.66959 5.65473)">
<stop stop-color="#FF9A00"/>
<stop offset="0.09" stop-color="#D68100"/>
<stop offset="0.23" stop-color="#9E5F00"/>
<stop offset="0.36" stop-color="#6E4200"/>
<stop offset="0.5" stop-color="#462A00"/>
<stop offset="0.63" stop-color="#271800"/>
<stop offset="0.76" stop-color="#120B00"/>
<stop offset="0.89" stop-color="#040300"/>
<stop offset="1"/>
</radialGradient>
<radialGradient id="paint33_radial_353_13159" cx="0" cy="0" r="1" gradientUnits="userSpaceOnUse" gradientTransform="translate(5.44408 52.1696) rotate(-59.5716) scale(2.92788 2.9202)">
<stop stop-color="#FF9A00"/>
<stop offset="0.09" stop-color="#D68100"/>
<stop offset="0.23" stop-color="#9E5F00"/>
<stop offset="0.36" stop-color="#6E4200"/>
<stop offset="0.5" stop-color="#462A00"/>
<stop offset="0.63" stop-color="#271800"/>
<stop offset="0.76" stop-color="#120B00"/>
<stop offset="0.89" stop-color="#040300"/>
<stop offset="1"/>
</radialGradient>
<radialGradient id="paint34_radial_353_13159" cx="0" cy="0" r="1" gradientUnits="userSpaceOnUse" gradientTransform="translate(81.2332 73.3858) rotate(-59.5716) scale(2.73325 2.72609)">
<stop stop-color="#003CEE"/>
<stop offset="0.06" stop-color="#0036D6"/>
<stop offset="0.2" stop-color="#00289E"/>
<stop offset="0.34" stop-color="#001C6D"/>
<stop offset="0.48" stop-color="#001246"/>
<stop offset="0.62" stop-color="#000A27"/>
<stop offset="0.75" stop-color="#000412"/>
<stop offset="0.88" stop-color="#000104"/>
<stop offset="1"/>
</radialGradient>
<radialGradient id="paint35_radial_353_13159" cx="0" cy="0" r="1" gradientUnits="userSpaceOnUse" gradientTransform="translate(55.2992 97.1728) rotate(-59.5716) scale(2.73325 2.72608)">
<stop stop-color="#003CEE"/>
<stop offset="0.06" stop-color="#0036D6"/>
<stop offset="0.2" stop-color="#00289E"/>
<stop offset="0.34" stop-color="#001C6D"/>
<stop offset="0.48" stop-color="#001246"/>
<stop offset="0.62" stop-color="#000A27"/>
<stop offset="0.75" stop-color="#000412"/>
<stop offset="0.88" stop-color="#000104"/>
<stop offset="1"/>
</radialGradient>
</defs>
</svg>
