<svg width="30" height="27" viewBox="0 0 30 27" fill="none" xmlns="http://www.w3.org/2000/svg">
<rect x="0.25" y="0.25" width="29.5" height="26.1667" rx="1.75" stroke="black" stroke-opacity="0.24" stroke-width="0.5"/>
<path d="M20.0057 20.2267L19.7205 20.339L19.4573 20.447C19.3425 20.4942 19.0902 20.3651 19.3796 21.106C19.691 21.9075 19.7813 21.6114 19.896 21.5768C20.069 21.5253 20.2588 21.4561 20.4124 21.4021C20.5702 21.3481 20.7297 21.3009 20.8917 21.257C21.2157 21.1751 21.5481 21.1211 21.8856 21.1228C22.2206 21.1228 22.5556 21.1794 22.8661 21.3042C23.0213 21.3667 23.1681 21.4468 23.3048 21.5439C23.3757 21.5937 23.4297 21.6434 23.5056 21.7059C23.5816 21.7683 23.655 21.8333 23.7259 21.9025C23.86 22.0299 24.0625 22.2003 24.4582 21.1963C24.7822 20.3711 24.5249 20.3753 24.3781 20.3128C24.0735 20.1787 23.6221 20.026 23.2095 19.9694C23.0626 19.9458 22.9133 19.9306 22.7648 19.918C22.8298 19.7172 22.8104 19.4775 22.812 19.2826C22.8289 17.3622 22.7066 15.4419 22.7066 13.5214C22.6872 13.5214 22.6981 13.5214 22.7066 13.5214C22.7066 11.5149 22.7108 9.50589 22.7024 7.49943C22.7024 7.27498 22.7994 6.97461 22.6112 6.80163C22.7732 6.7932 22.9378 6.78223 23.1015 6.76704C23.3107 6.7451 23.5208 6.72569 23.7343 6.7046C23.8381 6.69363 23.957 6.67676 24.0541 6.67001C24.1511 6.66326 24.2507 6.65904 24.3502 6.65904C24.5359 6.65904 24.7991 6.64385 24.3933 5.64147C24.0608 4.82048 23.8769 5.0002 23.7284 5.05591C23.3614 5.19597 23.1369 5.31494 22.8382 5.41028C22.553 5.50563 22.2509 5.56975 21.9438 5.57228C21.624 5.57228 21.3068 5.53516 20.9954 5.46175C20.8402 5.42462 20.6866 5.3799 20.5373 5.3259L20.0276 5.12931C19.9112 5.08374 19.8184 4.81796 19.5155 5.55287C19.1889 6.34769 19.4573 6.19666 19.5653 6.24814C19.7357 6.33251 19.8893 6.40592 20.0816 6.48354C20.2715 6.55947 20.4664 6.61769 20.6647 6.66494C20.9608 6.73582 21.2629 6.77717 21.5658 6.79657C21.3996 6.96701 21.4992 7.25474 21.4924 7.45724C21.3675 11.3824 21.6848 15.3135 21.095 19.232C21.0629 19.4522 21.0258 19.7222 21.1186 19.9408C20.9566 19.9644 20.7972 19.9922 20.6394 20.0293C20.4259 20.0791 20.2141 20.1441 20.0082 20.2192L20.0057 20.2267Z" fill="#483EA8"/>
<path d="M7.11897 14.1667C8.19646 13.9811 8.15596 12.3763 7.04978 12.3029C5.5445 12.1493 5.73858 14.5944 7.11897 14.1667Z" fill="#483EA8"/>
<path d="M12.0955 14.1667C13.173 13.9811 13.1325 12.3763 12.0263 12.3029C10.5211 12.1493 10.7151 14.5944 12.0955 14.1667Z" fill="#483EA8"/>
<path d="M17.18 14.1667C18.2575 13.9811 18.217 12.3763 17.1108 12.3029C15.6055 12.1493 15.7996 14.5944 17.18 14.1667Z" fill="#483EA8"/>
</svg>
