<svg width="33" height="30" viewBox="0 0 33 30" fill="none" xmlns="http://www.w3.org/2000/svg">
<path d="M16.2573 24.2576C15.2402 24.2576 14.2231 23.9666 13.3547 23.384L0.400146 14.6943V26.9535C0.400146 28.4783 1.73128 29.7143 3.37336 29.7143H29.1412C30.7833 29.7143 32.1144 28.4783 32.1144 26.9535V14.6943L19.1599 23.384C18.2915 23.966 17.2744 24.2576 16.2573 24.2576ZM30.9753 9.63792C30.4271 9.23875 29.9074 8.86317 29.1412 8.32596V5.78715C29.1412 4.26237 27.8101 3.02632 26.168 3.02632H21.3644C21.1761 2.89978 21.0008 2.7813 20.8044 2.64901C19.7632 1.94327 17.6943 0.245366 16.2573 0.265497C14.8202 0.245366 12.752 1.94327 11.7101 2.64901C11.5138 2.7813 11.3385 2.89978 11.1502 3.02632H6.34657C4.70449 3.02632 3.37336 4.26237 3.37336 5.78715V8.32596C2.60714 8.86259 2.08745 9.23875 1.53926 9.63792C1.18443 9.89613 0.897488 10.2259 0.70014 10.6023C0.502792 10.9786 0.400208 11.3917 0.400146 11.8103L0.400146 12.4229L6.34657 16.4117V5.78715H26.168V16.4117L32.1144 12.4229V11.8103C32.1144 10.9625 31.6945 10.1613 30.9753 9.63792Z" fill="#483EA8" fill-opacity="0.6"/>
</svg>
