<svg width="24" height="18" viewBox="0 0 24 18" fill="none" xmlns="http://www.w3.org/2000/svg">
<rect x="0.5" y="0.5" width="23" height="17" rx="3.5" fill="white"/>
<rect x="0.5" y="0.5" width="23" height="17" rx="3.5" stroke="#F9F7F6"/>
<path fill-rule="evenodd" clip-rule="evenodd" d="M7.58836 11.8936H6.13443L5.04415 7.34423C4.9924 7.13496 4.88253 6.94995 4.7209 6.86275C4.31754 6.64362 3.87306 6.46923 3.38818 6.38127V6.20612H5.73036C6.05361 6.20612 6.29605 6.46923 6.33646 6.7748L6.90215 10.0564L8.35538 6.20612H9.76891L7.58836 11.8936ZM10.577 11.8936H9.20393L10.3346 6.20612H11.7077L10.577 11.8936ZM13.4842 7.78174C13.5246 7.47541 13.7671 7.30026 14.0499 7.30026C14.4944 7.25628 14.9785 7.34424 15.3826 7.56261L15.6251 6.33806C15.221 6.16291 14.7765 6.07495 14.3732 6.07495C13.0404 6.07495 12.0707 6.86276 12.0707 7.95613C12.0707 8.78791 12.7576 9.22466 13.2425 9.48776C13.7671 9.75011 13.9691 9.92526 13.9287 10.1876C13.9287 10.5811 13.5246 10.7563 13.1213 10.7563C12.6364 10.7563 12.1515 10.6251 11.7077 10.406L11.4653 11.6313C11.9502 11.8497 12.4747 11.9376 12.9596 11.9376C14.454 11.9808 15.3826 11.1938 15.3826 10.0125C15.3826 8.52481 13.4842 8.43761 13.4842 7.78174ZM20.1882 11.8936L19.0979 6.20612H17.9268C17.6844 6.20612 17.4419 6.38127 17.3611 6.64362L15.3422 11.8936H16.7557L17.0379 11.0626H18.7747L18.9363 11.8936H20.1882ZM18.1289 7.73776L18.5322 9.88129H17.4015L18.1289 7.73776Z" fill="#172B85"/>
</svg>
