<svg width="28" height="22" viewBox="0 0 28 22" fill="none" xmlns="http://www.w3.org/2000/svg">
<path d="M1.6142 0.00440141C1.47253 0.0184435 1.33647 0.0641667 1.21733 0.137767C1.09819 0.211368 0.999417 0.310717 0.929233 0.427552C0.859049 0.544386 0.81948 0.675327 0.813817 0.809482C0.808155 0.943636 0.836564 1.07713 0.896679 1.19885L5.49999 10.6841L0.896679 20.1694C0.823872 20.3232 0.801575 20.494 0.83266 20.6598C0.863744 20.8256 0.946787 20.9788 1.07109 21.0998C1.1954 21.2207 1.35527 21.3038 1.53012 21.3384C1.70497 21.3729 1.88679 21.3573 2.05217 21.2936L26.9324 11.5185C26.9512 11.5132 26.9699 11.5074 26.9883 11.5009L27.0163 11.4921C27.1941 11.4426 27.3513 11.3422 27.4659 11.2049C27.5806 11.0675 27.6472 10.8999 27.6564 10.7253C27.6656 10.5508 27.617 10.3778 27.5173 10.2304C27.4177 10.083 27.2719 9.96838 27.1001 9.90248L2.05217 0.0658801C1.91395 0.0111228 1.76335 -0.0100176 1.6142 0.00440141ZM3.45925 2.44599L22.2918 9.841H7.04685L3.45925 2.44599ZM7.04685 11.5273H22.2732L3.46857 18.9135L7.04685 11.5273Z" fill="black" fill-opacity="0.68"/>
</svg>
