<svg width="1016" height="222" viewBox="0 0 1016 222" fill="none" xmlns="http://www.w3.org/2000/svg">
<rect width="1016" height="222" rx="8" fill="#D9D9D9" fill-opacity="0.26"/>
<rect x="0.25" y="0.25" width="1015.5" height="221.5" rx="7.75" stroke="black" stroke-opacity="0.2" stroke-width="0.5"/>
<mask id="path-3-inside-1_2942_2325" fill="white">
<path d="M16 32C16 27.5817 19.5817 24 24 24H990C994.418 24 998 27.5817 998 32V220H16V32Z"/>
</mask>
<path d="M16 32C16 27.5817 19.5817 24 24 24H990C994.418 24 998 27.5817 998 32V220H16V32Z" fill="white"/>
<path d="M15 32C15 27.0294 19.0294 23 24 23H990C994.971 23 999 27.0294 999 32H997C997 28.134 993.866 25 990 25H24C20.134 25 17 28.134 17 32H15ZM998 220H16H998ZM15 220V32C15 27.0294 19.0294 23 24 23V25C20.134 25 17 28.134 17 32V220H15ZM990 23C994.971 23 999 27.0294 999 32V220H997V32C997 28.134 993.866 25 990 25V23Z" fill="black" fill-opacity="0.25" mask="url(#path-3-inside-1_2942_2325)"/>
<path d="M64.208 85V83.592H67.232C68.1493 83.592 68.9333 83.4053 69.584 83.032C70.2453 82.6587 70.752 82.1413 71.104 81.48C71.456 80.8187 71.632 80.0507 71.632 79.176C71.632 78.312 71.456 77.56 71.104 76.92C70.7627 76.28 70.2613 75.784 69.6 75.432C68.9493 75.0693 68.16 74.888 67.232 74.888H64.224V73.48H67.232C68.4693 73.48 69.5467 73.7147 70.464 74.184C71.3813 74.6533 72.0907 75.32 72.592 76.184C73.104 77.0373 73.36 78.0453 73.36 79.208C73.36 80.3707 73.104 81.3893 72.592 82.264C72.08 83.128 71.3653 83.8 70.448 84.28C69.5413 84.76 68.4747 85 67.248 85H64.208ZM63.184 85V73.48H64.88V85H63.184ZM75.2149 85V76.84H76.7989V78.872H76.8789V85H75.2149ZM76.8789 80.744L76.6709 78.808C76.8629 78.1147 77.1935 77.5867 77.6629 77.224C78.1322 76.8613 78.6922 76.68 79.3429 76.68C79.5882 76.68 79.7589 76.7013 79.8549 76.744V78.312C79.8015 78.2907 79.7269 78.28 79.6309 78.28C79.5349 78.2693 79.4175 78.264 79.2789 78.264C78.4789 78.264 77.8762 78.472 77.4709 78.888C77.0762 79.304 76.8789 79.9227 76.8789 80.744ZM86.1459 85C86.0925 84.7973 86.0552 84.5733 86.0339 84.328C86.0232 84.0827 86.0179 83.784 86.0179 83.432H85.9379V79.544C85.9379 79.0213 85.8045 78.632 85.5379 78.376C85.2819 78.1093 84.8712 77.976 84.3059 77.976C83.7619 77.976 83.3245 78.0827 82.9939 78.296C82.6739 78.5093 82.4872 78.8133 82.4339 79.208H80.8499C80.9245 78.44 81.2712 77.8267 81.8899 77.368C82.5085 76.9093 83.3352 76.68 84.3699 76.68C85.4365 76.68 86.2365 76.9307 86.7699 77.432C87.3032 77.9227 87.5699 78.648 87.5699 79.608V83.432C87.5699 83.6773 87.5859 83.928 87.6179 84.184C87.6499 84.44 87.6979 84.712 87.7619 85H86.1459ZM83.3299 85.16C82.4979 85.16 81.8365 84.9573 81.3459 84.552C80.8552 84.136 80.6099 83.576 80.6099 82.872C80.6099 82.1467 80.8659 81.576 81.3779 81.16C81.9005 80.7333 82.6472 80.4453 83.6179 80.296L86.3059 79.864V81.032L83.8739 81.416C83.3299 81.5013 82.9192 81.6453 82.6419 81.848C82.3752 82.0507 82.2419 82.344 82.2419 82.728C82.2419 83.1013 82.3645 83.384 82.6099 83.576C82.8659 83.7573 83.2339 83.848 83.7139 83.848C84.3539 83.848 84.8819 83.6933 85.2979 83.384C85.7245 83.0747 85.9379 82.6853 85.9379 82.216L86.1459 83.4C85.9539 83.9653 85.6125 84.4027 85.1219 84.712C84.6312 85.0107 84.0339 85.16 83.3299 85.16ZM93.1858 88.44C92.1618 88.44 91.3138 88.2053 90.6418 87.736C89.9804 87.2773 89.5804 86.664 89.4418 85.896H91.0098C91.1164 86.248 91.3511 86.5253 91.7138 86.728C92.0871 86.9307 92.5831 87.032 93.2018 87.032C94.0018 87.032 94.5991 86.8347 94.9938 86.44C95.3884 86.0453 95.5858 85.4587 95.5858 84.68V82.92L95.7298 82.952C95.5698 83.5707 95.2231 84.0613 94.6898 84.424C94.1564 84.776 93.5164 84.952 92.7698 84.952C92.0551 84.952 91.4258 84.7813 90.8818 84.44C90.3378 84.0987 89.9164 83.624 89.6178 83.016C89.3191 82.3973 89.1698 81.6773 89.1698 80.856C89.1698 80.024 89.3244 79.2933 89.6338 78.664C89.9431 78.0347 90.3751 77.5493 90.9298 77.208C91.4951 76.8667 92.1511 76.696 92.8978 76.696C93.6658 76.696 94.3004 76.8827 94.8018 77.256C95.3138 77.6187 95.6391 78.136 95.7778 78.808L95.6498 78.824V76.84H97.2338V84.664C97.2338 85.8373 96.8711 86.76 96.1458 87.432C95.4311 88.104 94.4444 88.44 93.1858 88.44ZM93.2658 83.608C93.9804 83.608 94.5511 83.3573 94.9778 82.856C95.4151 82.3547 95.6338 81.6667 95.6338 80.792C95.6338 79.9387 95.4151 79.2667 94.9778 78.776C94.5511 78.2853 93.9751 78.04 93.2498 78.04C92.5244 78.04 91.9484 78.2907 91.5218 78.792C91.0951 79.2827 90.8818 79.9653 90.8818 80.84C90.8818 81.6933 91.0951 82.3707 91.5218 82.872C91.9591 83.3627 92.5404 83.608 93.2658 83.608ZM107.787 85C107.733 84.7973 107.696 84.5733 107.675 84.328C107.664 84.0827 107.659 83.784 107.659 83.432H107.579V79.544C107.579 79.0213 107.445 78.632 107.179 78.376C106.923 78.1093 106.512 77.976 105.947 77.976C105.403 77.976 104.965 78.0827 104.635 78.296C104.315 78.5093 104.128 78.8133 104.075 79.208H102.491C102.565 78.44 102.912 77.8267 103.531 77.368C104.149 76.9093 104.976 76.68 106.011 76.68C107.077 76.68 107.877 76.9307 108.411 77.432C108.944 77.9227 109.211 78.648 109.211 79.608V83.432C109.211 83.6773 109.227 83.928 109.259 84.184C109.291 84.44 109.339 84.712 109.403 85H107.787ZM104.971 85.16C104.139 85.16 103.477 84.9573 102.987 84.552C102.496 84.136 102.251 83.576 102.251 82.872C102.251 82.1467 102.507 81.576 103.019 81.16C103.541 80.7333 104.288 80.4453 105.259 80.296L107.947 79.864V81.032L105.515 81.416C104.971 81.5013 104.56 81.6453 104.283 81.848C104.016 82.0507 103.883 82.344 103.883 82.728C103.883 83.1013 104.005 83.384 104.251 83.576C104.507 83.7573 104.875 83.848 105.355 83.848C105.995 83.848 106.523 83.6933 106.939 83.384C107.365 83.0747 107.579 82.6853 107.579 82.216L107.787 83.4C107.595 83.9653 107.253 84.4027 106.763 84.712C106.272 85.0107 105.675 85.16 104.971 85.16ZM111.465 85V76.84H113.049V78.76H113.129V85H111.465ZM117.257 85V79.752C117.257 79.1867 117.113 78.7653 116.825 78.488C116.548 78.2107 116.132 78.072 115.577 78.072C115.097 78.072 114.67 78.1787 114.297 78.392C113.934 78.6053 113.646 78.8987 113.433 79.272C113.23 79.6453 113.129 80.088 113.129 80.6L112.921 78.648C113.188 78.04 113.598 77.56 114.153 77.208C114.708 76.856 115.353 76.68 116.089 76.68C116.964 76.68 117.652 76.9253 118.153 77.416C118.654 77.9067 118.905 78.5573 118.905 79.368V85H117.257ZM127.056 85V83.128L127.216 83.176C127.045 83.784 126.693 84.2693 126.16 84.632C125.627 84.984 124.987 85.16 124.24 85.16C123.504 85.16 122.859 84.984 122.304 84.632C121.76 84.28 121.333 83.7893 121.024 83.16C120.725 82.5307 120.576 81.7947 120.576 80.952C120.576 80.0987 120.731 79.352 121.04 78.712C121.349 78.072 121.781 77.576 122.336 77.224C122.891 76.872 123.541 76.696 124.288 76.696C125.067 76.696 125.707 76.8827 126.208 77.256C126.72 77.6187 127.056 78.1307 127.216 78.792L126.992 78.824V73.48H128.64V85H127.056ZM124.656 83.768C125.392 83.768 125.973 83.5173 126.4 83.016C126.827 82.504 127.04 81.8 127.04 80.904C127.04 80.0293 126.821 79.3413 126.384 78.84C125.957 78.328 125.376 78.072 124.64 78.072C123.915 78.072 123.339 78.328 122.912 78.84C122.496 79.3413 122.288 80.0453 122.288 80.952C122.288 81.8373 122.496 82.5307 122.912 83.032C123.339 83.5227 123.92 83.768 124.656 83.768ZM135.177 85V83.592H138.201C139.118 83.592 139.902 83.4053 140.553 83.032C141.214 82.6587 141.721 82.1413 142.073 81.48C142.425 80.8187 142.601 80.0507 142.601 79.176C142.601 78.312 142.425 77.56 142.073 76.92C141.731 76.28 141.23 75.784 140.569 75.432C139.918 75.0693 139.129 74.888 138.201 74.888H135.193V73.48H138.201C139.438 73.48 140.515 73.7147 141.433 74.184C142.35 74.6533 143.059 75.32 143.561 76.184C144.073 77.0373 144.329 78.0453 144.329 79.208C144.329 80.3707 144.073 81.3893 143.561 82.264C143.049 83.128 142.334 83.8 141.417 84.28C140.51 84.76 139.443 85 138.217 85H135.177ZM134.153 85V73.48H135.849V85H134.153ZM146.184 85V76.84H147.768V78.872H147.848V85H146.184ZM147.848 80.744L147.64 78.808C147.832 78.1147 148.162 77.5867 148.632 77.224C149.101 76.8613 149.661 76.68 150.312 76.68C150.557 76.68 150.728 76.7013 150.824 76.744V78.312C150.77 78.2907 150.696 78.28 150.6 78.28C150.504 78.2693 150.386 78.264 150.248 78.264C149.448 78.264 148.845 78.472 148.44 78.888C148.045 79.304 147.848 79.9227 147.848 80.744ZM155.814 85.16C154.982 85.16 154.251 84.9787 153.622 84.616C152.992 84.2427 152.502 83.736 152.15 83.096C151.798 82.4453 151.622 81.7093 151.622 80.888C151.622 80.056 151.798 79.3253 152.15 78.696C152.512 78.0667 153.003 77.576 153.622 77.224C154.251 76.8613 154.982 76.68 155.814 76.68C156.656 76.68 157.392 76.8613 158.022 77.224C158.651 77.576 159.136 78.0667 159.478 78.696C159.83 79.3253 160.006 80.056 160.006 80.888C160.006 81.7093 159.83 82.4453 159.478 83.096C159.136 83.736 158.651 84.2427 158.022 84.616C157.392 84.9787 156.656 85.16 155.814 85.16ZM155.814 83.8C156.315 83.8 156.747 83.6773 157.11 83.432C157.483 83.1867 157.776 82.8453 157.99 82.408C158.203 81.9707 158.31 81.4587 158.31 80.872C158.31 79.9973 158.075 79.3093 157.606 78.808C157.147 78.296 156.55 78.04 155.814 78.04C155.088 78.04 154.491 78.296 154.022 78.808C153.563 79.32 153.334 80.008 153.334 80.872C153.334 81.4587 153.435 81.9707 153.638 82.408C153.851 82.8453 154.144 83.1867 154.518 83.432C154.902 83.6773 155.334 83.8 155.814 83.8ZM166.067 85.144C165.299 85.144 164.659 84.9627 164.147 84.6C163.646 84.2267 163.315 83.7093 163.155 83.048L163.379 83.016V88.28H161.715V76.84H163.299V78.712L163.139 78.664C163.31 78.0453 163.672 77.56 164.227 77.208C164.782 76.856 165.432 76.68 166.179 76.68C166.915 76.68 167.55 76.856 168.083 77.208C168.627 77.56 169.043 78.0507 169.331 78.68C169.63 79.3093 169.779 80.0453 169.779 80.888C169.779 81.7413 169.624 82.488 169.315 83.128C169.006 83.768 168.574 84.264 168.019 84.616C167.464 84.968 166.814 85.144 166.067 85.144ZM165.715 83.768C166.44 83.768 167.016 83.512 167.443 83C167.87 82.488 168.083 81.784 168.083 80.888C168.083 80.0027 167.87 79.3147 167.443 78.824C167.016 78.3227 166.435 78.072 165.699 78.072C164.974 78.072 164.392 78.328 163.955 78.84C163.528 79.3413 163.315 80.04 163.315 80.936C163.315 81.8107 163.528 82.504 163.955 83.016C164.392 83.5173 164.979 83.768 165.715 83.768ZM179.772 85.16C178.972 85.16 178.23 85.016 177.548 84.728C176.865 84.4293 176.273 84.0187 175.772 83.496C175.281 82.9627 174.897 82.3333 174.62 81.608C174.342 80.8827 174.204 80.088 174.204 79.224C174.204 78.36 174.337 77.5707 174.604 76.856C174.881 76.1307 175.265 75.5067 175.756 74.984C176.257 74.4507 176.849 74.04 177.532 73.752C178.214 73.464 178.956 73.32 179.756 73.32C180.652 73.32 181.457 73.5013 182.172 73.864C182.886 74.216 183.468 74.7173 183.916 75.368C184.374 76.0187 184.657 76.776 184.764 77.64H183.1C182.961 76.7333 182.593 76.0293 181.996 75.528C181.409 75.016 180.668 74.76 179.772 74.76C179.014 74.76 178.342 74.9467 177.756 75.32C177.18 75.6827 176.732 76.2 176.412 76.872C176.092 77.5333 175.932 78.3173 175.932 79.224C175.932 80.12 176.092 80.9093 176.412 81.592C176.742 82.264 177.196 82.7867 177.772 83.16C178.348 83.5333 179.014 83.72 179.772 83.72C180.668 83.72 181.414 83.4693 182.012 82.968C182.62 82.456 182.988 81.7467 183.116 80.84H184.796C184.678 81.7147 184.39 82.4773 183.932 83.128C183.473 83.768 182.886 84.2693 182.172 84.632C181.468 84.984 180.668 85.16 179.772 85.16ZM190.095 85.16C189.263 85.16 188.532 84.9787 187.903 84.616C187.274 84.2427 186.783 83.736 186.431 83.096C186.079 82.4453 185.903 81.7093 185.903 80.888C185.903 80.056 186.079 79.3253 186.431 78.696C186.794 78.0667 187.284 77.576 187.903 77.224C188.532 76.8613 189.263 76.68 190.095 76.68C190.938 76.68 191.674 76.8613 192.303 77.224C192.932 77.576 193.418 78.0667 193.759 78.696C194.111 79.3253 194.287 80.056 194.287 80.888C194.287 81.7093 194.111 82.4453 193.759 83.096C193.418 83.736 192.932 84.2427 192.303 84.616C191.674 84.9787 190.938 85.16 190.095 85.16ZM190.095 83.8C190.596 83.8 191.028 83.6773 191.391 83.432C191.764 83.1867 192.058 82.8453 192.271 82.408C192.484 81.9707 192.591 81.4587 192.591 80.872C192.591 79.9973 192.356 79.3093 191.887 78.808C191.428 78.296 190.831 78.04 190.095 78.04C189.37 78.04 188.772 78.296 188.303 78.808C187.844 79.32 187.615 80.008 187.615 80.872C187.615 81.4587 187.716 81.9707 187.919 82.408C188.132 82.8453 188.426 83.1867 188.799 83.432C189.183 83.6773 189.615 83.8 190.095 83.8ZM195.996 85V76.84H197.58V78.76H197.66V85H195.996ZM201.5 85V79.672C201.5 79.1173 201.372 78.712 201.116 78.456C200.86 78.2 200.492 78.072 200.012 78.072C199.564 78.072 199.159 78.1787 198.796 78.392C198.444 78.5947 198.167 78.8827 197.964 79.256C197.761 79.6187 197.66 80.0507 197.66 80.552L197.452 78.648C197.719 78.04 198.119 77.56 198.652 77.208C199.196 76.856 199.804 76.68 200.476 76.68C201.287 76.68 201.932 76.9147 202.412 77.384C202.903 77.8533 203.148 78.472 203.148 79.24V85H201.5ZM207.004 85V79.672C207.004 79.1173 206.871 78.712 206.604 78.456C206.348 78.2 205.98 78.072 205.5 78.072C205.063 78.072 204.663 78.1787 204.3 78.392C203.948 78.5947 203.665 78.8827 203.452 79.256C203.249 79.6187 203.148 80.0507 203.148 80.552L202.812 78.648C203.089 78.04 203.505 77.56 204.06 77.208C204.625 76.856 205.255 76.68 205.948 76.68C206.769 76.68 207.425 76.92 207.916 77.4C208.407 77.8693 208.652 78.4987 208.652 79.288V85H207.004ZM215.239 85.144C214.471 85.144 213.831 84.9627 213.319 84.6C212.817 84.2267 212.487 83.7093 212.327 83.048L212.551 83.016V88.28H210.887V76.84H212.471V78.712L212.311 78.664C212.481 78.0453 212.844 77.56 213.399 77.208C213.953 76.856 214.604 76.68 215.351 76.68C216.087 76.68 216.721 76.856 217.255 77.208C217.799 77.56 218.215 78.0507 218.503 78.68C218.801 79.3093 218.951 80.0453 218.951 80.888C218.951 81.7413 218.796 82.488 218.487 83.128C218.177 83.768 217.745 84.264 217.191 84.616C216.636 84.968 215.985 85.144 215.239 85.144ZM214.887 83.768C215.612 83.768 216.188 83.512 216.615 83C217.041 82.488 217.255 81.784 217.255 80.888C217.255 80.0027 217.041 79.3147 216.615 78.824C216.188 78.3227 215.607 78.072 214.871 78.072C214.145 78.072 213.564 78.328 213.127 78.84C212.7 79.3413 212.487 80.04 212.487 80.936C212.487 81.8107 212.7 82.504 213.127 83.016C213.564 83.5173 214.151 83.768 214.887 83.768ZM224.298 85.16C223.466 85.16 222.735 84.9787 222.106 84.616C221.477 84.2427 220.986 83.736 220.634 83.096C220.282 82.4453 220.106 81.7093 220.106 80.888C220.106 80.056 220.282 79.3253 220.634 78.696C220.997 78.0667 221.487 77.576 222.106 77.224C222.735 76.8613 223.466 76.68 224.298 76.68C225.141 76.68 225.877 76.8613 226.506 77.224C227.135 77.576 227.621 78.0667 227.962 78.696C228.314 79.3253 228.49 80.056 228.49 80.888C228.49 81.7093 228.314 82.4453 227.962 83.096C227.621 83.736 227.135 84.2427 226.506 84.616C225.877 84.9787 225.141 85.16 224.298 85.16ZM224.298 83.8C224.799 83.8 225.231 83.6773 225.594 83.432C225.967 83.1867 226.261 82.8453 226.474 82.408C226.687 81.9707 226.794 81.4587 226.794 80.872C226.794 79.9973 226.559 79.3093 226.09 78.808C225.631 78.296 225.034 78.04 224.298 78.04C223.573 78.04 222.975 78.296 222.506 78.808C222.047 79.32 221.818 80.008 221.818 80.872C221.818 81.4587 221.919 81.9707 222.122 82.408C222.335 82.8453 222.629 83.1867 223.002 83.432C223.386 83.6773 223.818 83.8 224.298 83.8ZM230.199 85V76.84H231.783V78.76H231.863V85H230.199ZM235.991 85V79.752C235.991 79.1867 235.847 78.7653 235.559 78.488C235.282 78.2107 234.866 78.072 234.311 78.072C233.831 78.072 233.405 78.1787 233.031 78.392C232.669 78.6053 232.381 78.8987 232.167 79.272C231.965 79.6453 231.863 80.088 231.863 80.6L231.655 78.648C231.922 78.04 232.333 77.56 232.887 77.208C233.442 76.856 234.087 76.68 234.823 76.68C235.698 76.68 236.386 76.9253 236.887 77.416C237.389 77.9067 237.639 78.5573 237.639 79.368V85H235.991ZM243.422 85.16C242.601 85.16 241.876 84.9787 241.246 84.616C240.628 84.2533 240.142 83.752 239.79 83.112C239.438 82.472 239.262 81.736 239.262 80.904C239.262 80.0613 239.433 79.3253 239.774 78.696C240.126 78.056 240.617 77.56 241.246 77.208C241.876 76.856 242.596 76.68 243.406 76.68C244.196 76.68 244.878 76.8507 245.454 77.192C246.041 77.5227 246.489 77.9867 246.798 78.584C247.118 79.1813 247.278 79.8907 247.278 80.712C247.278 80.84 247.273 80.9627 247.262 81.08C247.262 81.1867 247.252 81.2987 247.23 81.416H240.382V80.168H246.062L245.646 80.664C245.646 79.7893 245.449 79.1227 245.054 78.664C244.66 78.2053 244.11 77.976 243.406 77.976C242.649 77.976 242.046 78.2373 241.598 78.76C241.161 79.272 240.942 79.9867 240.942 80.904C240.942 81.832 241.161 82.5573 241.598 83.08C242.046 83.6027 242.665 83.864 243.454 83.864C243.934 83.864 244.35 83.768 244.702 83.576C245.054 83.3733 245.316 83.08 245.486 82.696H247.054C246.788 83.464 246.334 84.0667 245.694 84.504C245.065 84.9413 244.308 85.16 243.422 85.16ZM248.981 85V76.84H250.565V78.76H250.645V85H248.981ZM254.773 85V79.752C254.773 79.1867 254.629 78.7653 254.341 78.488C254.063 78.2107 253.647 78.072 253.093 78.072C252.613 78.072 252.186 78.1787 251.812 78.392C251.45 78.6053 251.162 78.8987 250.949 79.272C250.746 79.6453 250.645 80.088 250.645 80.6L250.437 78.648C250.703 78.04 251.114 77.56 251.669 77.208C252.223 76.856 252.869 76.68 253.605 76.68C254.479 76.68 255.167 76.9253 255.669 77.416C256.17 77.9067 256.421 78.5573 256.421 79.368V85H254.773ZM261.89 85.16C260.941 85.16 260.242 84.9413 259.794 84.504C259.357 84.056 259.138 83.4 259.138 82.536V74.968L260.786 74.344V82.552C260.786 82.9787 260.898 83.2933 261.122 83.496C261.346 83.6987 261.709 83.8 262.21 83.8C262.402 83.8 262.573 83.784 262.722 83.752C262.871 83.72 262.999 83.6827 263.106 83.64V84.984C262.989 85.0373 262.823 85.08 262.61 85.112C262.397 85.144 262.157 85.16 261.89 85.16ZM257.506 78.168V76.84H263.106V78.168H257.506Z" fill="#483EA8" fill-opacity="0.78"/>
<rect x="310" y="56" width="50" height="48" rx="5" fill="#F9F9FA"/>
<rect x="310.5" y="56.5" width="49" height="47" rx="4.5" stroke="#483EA8" stroke-opacity="0.23"/>
<rect x="485" y="56" width="50" height="48" rx="5" fill="#F9F9FA"/>
<rect x="485.5" y="56.5" width="49" height="47" rx="4.5" stroke="#483EA8" stroke-opacity="0.23"/>
<rect x="660" y="56" width="50" height="48" rx="5" fill="#F9F9FA"/>
<rect x="660.5" y="56.5" width="49" height="47" rx="4.5" stroke="#483EA8" stroke-opacity="0.23"/>
<rect x="369" y="56" width="51" height="48" rx="5" fill="#F9F9FA"/>
<rect x="369.5" y="56.5" width="50" height="47" rx="4.5" stroke="#483EA8" stroke-opacity="0.23"/>
<rect x="543" y="56" width="51" height="48" rx="5" fill="#F9F9FA"/>
<rect x="543.5" y="56.5" width="50" height="47" rx="4.5" stroke="#483EA8" stroke-opacity="0.23"/>
<rect x="718" y="56" width="51" height="48" rx="5" fill="#F9F9FA"/>
<rect x="718.5" y="56.5" width="50" height="47" rx="4.5" stroke="#483EA8" stroke-opacity="0.23"/>
<rect x="428" y="56" width="50" height="48" rx="5" fill="#F9F9FA"/>
<rect x="428.5" y="56.5" width="49" height="47" rx="4.5" stroke="#483EA8" stroke-opacity="0.23"/>
<rect x="602" y="56" width="50" height="48" rx="5" fill="#F9F9FA"/>
<rect x="602.5" y="56.5" width="49" height="47" rx="4.5" stroke="#483EA8" stroke-opacity="0.23"/>
<rect x="777" y="56" width="51" height="48" rx="5" fill="#F9F9FA"/>
<rect x="777.5" y="56.5" width="50" height="47" rx="4.5" stroke="#483EA8" stroke-opacity="0.23"/>
<rect x="836" y="56" width="51" height="48" rx="5" fill="#F9F9FA"/>
<rect x="836.5" y="56.5" width="50" height="47" rx="4.5" stroke="#483EA8" stroke-opacity="0.23"/>
<rect x="895" y="56" width="51" height="48" rx="5" fill="#F9F9FA"/>
<rect x="895.5" y="56.5" width="50" height="47" rx="4.5" stroke="#483EA8" stroke-opacity="0.23"/>
<path d="M339.7 75.4669V84.4809H340.567C340.682 84.4809 340.792 84.5284 340.873 84.6129C340.954 84.6974 341 84.8121 341 84.9316V85.833C341 85.9525 340.954 86.0672 340.873 86.1517C340.792 86.2362 340.682 86.2837 340.567 86.2837H336.233C336.118 86.2837 336.008 86.2362 335.927 86.1517C335.846 86.0672 335.8 85.9525 335.8 85.833V84.9316C335.8 84.8121 335.846 84.6974 335.927 84.6129C336.008 84.5284 336.118 84.4809 336.233 84.4809H337.1V80.8753H331.9V84.4809H332.767C332.882 84.4809 332.992 84.5284 333.073 84.6129C333.154 84.6974 333.2 84.8121 333.2 84.9316V85.833C333.2 85.9525 333.154 86.0672 333.073 86.1517C332.992 86.2362 332.882 86.2837 332.767 86.2837H328.433C328.318 86.2837 328.208 86.2362 328.127 86.1517C328.046 86.0672 328 85.9525 328 85.833V84.9316C328 84.8121 328.046 84.6974 328.127 84.6129C328.208 84.5284 328.318 84.4809 328.433 84.4809H329.3V75.4669H328.433C328.318 75.4669 328.208 75.4194 328.127 75.3349C328.046 75.2503 328 75.1357 328 75.0162V74.1148C328 73.9952 328.046 73.8806 328.127 73.7961C328.208 73.7115 328.318 73.6641 328.433 73.6641H332.767C332.882 73.6641 332.992 73.7115 333.073 73.7961C333.154 73.8806 333.2 73.9952 333.2 74.1148V75.0162C333.2 75.1357 333.154 75.2503 333.073 75.3349C332.992 75.4194 332.882 75.4669 332.767 75.4669H331.9V79.0725H337.1V75.4669H336.233C336.118 75.4669 336.008 75.4194 335.927 75.3349C335.846 75.2503 335.8 75.1357 335.8 75.0162V74.1148C335.8 73.9952 335.846 73.8806 335.927 73.7961C336.008 73.7115 336.118 73.6641 336.233 73.6641H340.567C340.682 73.6641 340.792 73.7115 340.873 73.7961C340.954 73.8806 341 73.9952 341 74.1148V75.0162C341 75.1357 340.954 75.2503 340.873 75.3349C340.792 75.4194 340.682 75.4669 340.567 75.4669H339.7Z" fill="#483EA8" fill-opacity="0.5"/>
<path d="M398.667 84.6195V85.0356C398.667 85.7249 398.144 86.2837 397.5 86.2837H388.167C387.522 86.2837 387 85.7249 387 85.0356V78.3791C387 77.6897 387.522 77.131 388.167 77.131H388.556V82.5394C388.556 83.6864 389.428 84.6195 390.5 84.6195H398.667ZM401 82.5394V75.8829C401 75.1935 400.478 74.6348 399.833 74.6348H390.5C389.856 74.6348 389.333 75.1935 389.333 75.8829V82.5394C389.333 83.2287 389.856 83.7875 390.5 83.7875H399.833C400.478 83.7875 401 83.2287 401 82.5394ZM393.222 77.131C393.222 77.8203 392.7 78.3791 392.056 78.3791C391.411 78.3791 390.889 77.8203 390.889 77.131C390.889 76.4416 391.411 75.8829 392.056 75.8829C392.7 75.8829 393.222 76.4416 393.222 77.131ZM390.889 80.8752L392.238 79.4317C392.352 79.3099 392.537 79.3099 392.651 79.4317L393.611 80.4592L396.905 76.9356C397.019 76.8137 397.203 76.8137 397.317 76.9356L399.444 79.2111V82.1233H390.889V80.8752Z" fill="#483EA8" fill-opacity="0.5"/>
<path d="M459 77.1364V83.7821L453 87.2545V73.6641L459 77.1364ZM453.5 72.8234C453.348 72.7382 453.176 72.6934 453 72.6934C452.824 72.6934 452.652 72.7382 452.5 72.8234L446.5 76.2958C446.348 76.381 446.222 76.5035 446.134 76.6511C446.046 76.7986 446 76.966 446 77.1364V83.7821C446 83.9525 446.046 84.1199 446.134 84.2675C446.222 84.4151 446.348 84.5376 446.5 84.6228L452.5 88.0952C452.652 88.1804 452.824 88.2252 453 88.2252C453.176 88.2252 453.348 88.1804 453.5 88.0952L459.5 84.6228C459.652 84.5376 459.778 84.4151 459.866 84.2675C459.954 84.1199 460 83.9525 460 83.7821V77.1364C460 76.966 459.954 76.7986 459.866 76.6511C459.778 76.5035 459.652 76.381 459.5 76.2958L453.5 72.8234Z" fill="#483EA8" fill-opacity="0.5"/>
<path d="M503.502 75.1202C503.502 74.734 503.66 74.3636 503.941 74.0905C504.223 73.8175 504.604 73.6641 505.002 73.6641H515.002C515.4 73.6641 515.781 73.8175 516.063 74.0905C516.344 74.3636 516.502 74.734 516.502 75.1202V78.5789C516.932 78.6862 517.313 78.9291 517.584 79.2696C517.856 79.61 518.004 80.0285 518.004 80.4592C518.004 80.89 517.856 81.3085 517.584 81.6489C517.313 81.9893 516.932 82.2323 516.502 82.3396V85.7983C516.502 86.1845 516.344 86.5549 516.063 86.8279C515.781 87.101 515.4 87.2544 515.002 87.2544H505.002C504.604 87.2544 504.223 87.101 503.941 86.8279C503.66 86.5549 503.502 86.1845 503.502 85.7983V82.3396C503.072 82.2323 502.691 81.9893 502.419 81.6489C502.148 81.3085 502 80.89 502 80.4592C502 80.0285 502.148 79.61 502.419 79.2696C502.691 78.9291 503.072 78.6862 503.502 78.5789V75.1202ZM504.502 78.5789C504.932 78.6862 505.313 78.9291 505.584 79.2696C505.856 79.61 506.004 80.0285 506.004 80.4592C506.004 80.89 505.856 81.3085 505.584 81.6489C505.313 81.9893 504.932 82.2323 504.502 82.3396V85.7983C504.502 85.927 504.555 86.0505 504.648 86.1415C504.742 86.2326 504.869 86.2837 505.002 86.2837H515.002C515.135 86.2837 515.262 86.2326 515.356 86.1415C515.449 86.0505 515.502 85.927 515.502 85.7983V82.3396C515.072 82.2323 514.691 81.9893 514.419 81.6489C514.148 81.3085 514 80.89 514 80.4592C514 80.0285 514.148 79.61 514.419 79.2696C514.691 78.9291 515.072 78.6862 515.502 78.5789V75.1202C515.502 74.9914 515.449 74.868 515.356 74.777C515.262 74.6859 515.135 74.6348 515.002 74.6348H505.002C504.869 74.6348 504.742 74.6859 504.648 74.777C504.555 74.868 504.502 74.9914 504.502 75.1202V78.5789ZM504.002 79.4885C503.737 79.4885 503.482 79.5908 503.295 79.7728C503.107 79.9549 503.002 80.2018 503.002 80.4592C503.002 80.7167 503.107 80.9636 503.295 81.1457C503.482 81.3277 503.737 81.43 504.002 81.43C504.267 81.43 504.522 81.3277 504.709 81.1457C504.897 80.9636 505.002 80.7167 505.002 80.4592C505.002 80.2018 504.897 79.9549 504.709 79.7728C504.522 79.5908 504.267 79.4885 504.002 79.4885ZM516.002 79.4885C515.737 79.4885 515.482 79.5908 515.295 79.7728C515.107 79.9549 515.002 80.2018 515.002 80.4592C515.002 80.7167 515.107 80.9636 515.295 81.1457C515.482 81.3277 515.737 81.43 516.002 81.43C516.267 81.43 516.522 81.3277 516.709 81.1457C516.897 80.9636 517.002 80.7167 517.002 80.4592C517.002 80.2018 516.897 79.9549 516.709 79.7728C516.522 79.5908 516.267 79.4885 516.002 79.4885Z" fill="#483EA8" fill-opacity="0.5"/>
<path d="M513.436 76.5762H506.568L506.502 78.5118H506.888C507.098 77.2965 507.5 77.1081 509.061 77.0606L509.404 77.0499V83.2073C509.404 83.7286 509.288 83.8528 508.355 83.9334V84.3421H511.649V83.9334C510.711 83.8528 510.595 83.7296 510.595 83.2073V77.0499L510.943 77.0596C512.503 77.1081 512.906 77.2965 513.116 78.5118H513.502L513.436 76.5762Z" fill="#483EA8" fill-opacity="0.5"/>
<path d="M560.05 76.1443C560.151 75.7154 560.399 75.3325 560.753 75.0583C561.107 74.7841 561.547 74.6347 562 74.6348H574C574.453 74.6347 574.893 74.7841 575.247 75.0583C575.601 75.3325 575.849 75.7154 575.95 76.1443L568 80.8611L560.05 76.1443ZM560 77.2529V84.149L565.803 80.6951L560 77.2529ZM566.761 81.2649L560.191 85.1741C560.353 85.5064 560.61 85.787 560.93 85.9835C561.25 86.1799 561.621 86.284 562 86.2837H574C574.379 86.2837 574.75 86.1794 575.07 85.9828C575.39 85.7862 575.646 85.5054 575.808 85.1731L569.238 81.264L568 81.9988L566.761 81.2649ZM570.197 80.6961L576 84.149V77.2529L570.197 80.6951V80.6961Z" fill="#483EA8" fill-opacity="0.5"/>
<path d="M632.658 82.8663L630.033 81.7742C629.921 81.7278 629.796 81.718 629.678 81.7463C629.559 81.7746 629.454 81.8395 629.376 81.9312L628.214 83.3099C626.389 82.4749 624.921 81.0496 624.061 79.2785L625.481 78.15C625.576 78.0753 625.643 77.9727 625.672 77.8578C625.701 77.7428 625.691 77.6218 625.643 77.5129L624.518 74.9647C624.465 74.8474 624.372 74.7516 624.254 74.6939C624.137 74.6361 624.002 74.6201 623.873 74.6484L621.436 75.1945C621.312 75.2223 621.201 75.29 621.122 75.3867C621.043 75.4833 621 75.6032 621 75.7267C621 81.5626 625.873 86.2837 631.875 86.2837C632.002 86.2837 632.126 86.2419 632.226 86.1651C632.325 86.0882 632.395 85.9808 632.424 85.8605L632.986 83.4942C633.015 83.3688 632.998 83.2375 632.938 83.1229C632.878 83.0083 632.779 82.9176 632.658 82.8663Z" fill="#483EA8" fill-opacity="0.5"/>
<path d="M689.418 74.7148L679.673 79.0808C678.549 79.5902 678.924 81.191 680.123 81.191H684.246V85.1932C684.246 86.3574 685.895 86.7214 686.42 85.6298L690.918 76.1702C691.292 75.2968 690.318 74.3508 689.418 74.7148Z" fill="#483EA8" fill-opacity="0.5"/>
<path d="M746 75.6055H740C736.688 75.6055 734 77.7795 734 80.4592C734 83.1388 736.688 85.3129 740 85.3129H746C749.312 85.3129 752 83.1388 752 80.4592C752 77.7795 749.312 75.6055 746 75.6055ZM746 83.695C743.788 83.695 742 82.2464 742 80.4592C742 78.6694 743.791 77.2234 746 77.2234C748.212 77.2234 750 78.6719 750 80.4592C750 82.249 748.209 83.695 746 83.695Z" fill="#483EA8" fill-opacity="0.5"/>
<path d="M808.5 85.3129H795.5C795.367 85.3129 795.24 85.3641 795.146 85.4551C795.053 85.5461 795 85.6696 795 85.7983V86.7691C795 86.8978 795.053 87.0212 795.146 87.1123C795.24 87.2033 795.367 87.2544 795.5 87.2544H808.5C808.633 87.2544 808.76 87.2033 808.854 87.1123C808.947 87.0212 809 86.8978 809 86.7691V85.7983C809 85.6696 808.947 85.5461 808.854 85.4551C808.76 85.3641 808.633 85.3129 808.5 85.3129ZM808.5 81.43H795.5C795.367 81.43 795.24 81.4811 795.146 81.5721C795.053 81.6632 795 81.7866 795 81.9154V82.8861C795 83.0148 795.053 83.1383 795.146 83.2293C795.24 83.3203 795.367 83.3715 795.5 83.3715H808.5C808.633 83.3715 808.76 83.3203 808.854 83.2293C808.947 83.1383 809 83.0148 809 82.8861V81.9154C809 81.7866 808.947 81.6632 808.854 81.5721C808.76 81.4811 808.633 81.43 808.5 81.43ZM808.5 77.547H795.5C795.367 77.547 795.24 77.5982 795.146 77.6892C795.053 77.7802 795 77.9037 795 78.0324V79.0031C795 79.1319 795.053 79.2553 795.146 79.3463C795.24 79.4374 795.367 79.4885 795.5 79.4885H808.5C808.633 79.4885 808.76 79.4374 808.854 79.3463C808.947 79.2553 809 79.1319 809 79.0031V78.0324C809 77.9037 808.947 77.7802 808.854 77.6892C808.76 77.5982 808.633 77.547 808.5 77.547ZM808.5 73.6641H795.5C795.367 73.6641 795.24 73.7152 795.146 73.8062C795.053 73.8972 795 74.0207 795 74.1494V75.1202C795 75.2489 795.053 75.3724 795.146 75.4634C795.24 75.5544 795.367 75.6055 795.5 75.6055H808.5C808.633 75.6055 808.76 75.5544 808.854 75.4634C808.947 75.3724 809 75.2489 809 75.1202V74.1494C809 74.0207 808.947 73.8972 808.854 73.8062C808.76 73.7152 808.633 73.6641 808.5 73.6641Z" fill="#483EA8" fill-opacity="0.5"/>
<rect x="853.5" y="71.5" width="11.4444" height="7.1" rx="0.5" stroke="#483EA8" stroke-opacity="0.32"/>
<rect x="853.5" y="81.4004" width="15" height="7.1" rx="0.5" stroke="#483EA8" stroke-opacity="0.32"/>
<rect x="912.5" y="72.5" width="15" height="6.2" rx="0.5" stroke="#483EA8" stroke-opacity="0.32"/>
<rect x="912.5" y="81.3008" width="15" height="6.2" rx="0.5" stroke="#483EA8" stroke-opacity="0.32"/>
<g opacity="0.5">
<mask id="path-42-inside-2_2942_2325" fill="white">
<path d="M49 155C49 150.582 52.5817 147 57 147H294C298.418 147 302 150.582 302 155V220H49V155Z"/>
</mask>
<path d="M49 155C49 150.582 52.5817 147 57 147H294C298.418 147 302 150.582 302 155V220H49V155Z" fill="#A19CD3" fill-opacity="0.31"/>
<path fill-rule="evenodd" clip-rule="evenodd" d="M48.5 214.583H49.5H50V220H49.5H49H48.5H48V214.583H48.5ZM48 203.75H48.5H49.5H50V192.917H49.5H48.5H48V203.75ZM48 182.083H48.5H49.5H50V171.25H49.5H48.5H48V182.083ZM48 160.417H48.5H49.5H50V155C50 154.049 50.1891 153.145 50.5308 152.321L50.0689 152.129L49.1452 151.746L48.6833 151.555C48.2427 152.617 48 153.782 48 155V160.417ZM57 146C55.7815 146 54.6172 146.243 53.5546 146.683L53.7462 147.145L54.1292 148.069L54.3208 148.531C55.1447 148.189 56.049 148 57 148H61.9375V147.5V146.5V146H57ZM71.8125 146V146.5V147.5V148H81.6875V147.5V146.5V146H71.8125ZM91.5625 146V146.5V147.5V148H101.438V147.5V146.5V146H91.5625ZM111.312 146V146.5V147.5V148H121.188V147.5V146.5V146H111.312ZM131.062 146V146.5V147.5V148H140.938V147.5V146.5V146H131.062ZM150.812 146V146.5V147.5V148H160.688V147.5V146.5V146H150.812ZM170.562 146V146.5V147.5V148H180.438V147.5V146.5V146H170.562ZM190.312 146V146.5V147.5V148H200.188V147.5V146.5V146H190.312ZM210.062 146V146.5V147.5V148H219.938V147.5V146.5V146H210.062ZM229.812 146V146.5V147.5V148H239.688V147.5V146.5V146H229.812ZM249.562 146V146.5V147.5V148H259.438V147.5V146.5V146H249.562ZM269.312 146V146.5V147.5V148H279.188V147.5V146.5V146H269.312ZM289.062 146V146.5V147.5V148H294C294.119 148 294.237 148.003 294.354 148.009C295.176 148.05 295.958 148.232 296.679 148.531L296.871 148.069L297.254 147.145L297.445 146.683C296.492 146.288 295.456 146.052 294.373 146.008C294.249 146.003 294.125 146 294 146H289.062ZM300.931 152.129L301.855 151.746L302.317 151.555C302.647 152.352 302.866 153.206 302.955 154.097C302.985 154.394 303 154.695 303 155V160.417H302.5H301.5H301V155C301 154.683 300.979 154.371 300.938 154.065C300.857 153.454 300.697 152.87 300.469 152.321L300.931 152.129ZM301 171.25V182.083H301.5H302.5H303V171.25H302.5H301.5H301ZM303 192.917H302.5H301.5H301V203.75H301.5H302.5H303V192.917ZM303 214.583H302.5H301.5H301V220H301.5H302H302.5H303V214.583Z" fill="#483EA8" fill-opacity="0.48" mask="url(#path-42-inside-2_2942_2325)"/>
</g>
<rect x="58" y="145" width="253.89" height="64" rx="8" fill="white"/>
<rect x="58.5" y="145.5" width="252.89" height="63" rx="7.5" stroke="#483EA8" stroke-opacity="0.56"/>
<ellipse cx="286.092" cy="165.562" rx="3.14144" ry="3.04627" fill="#FFF3F3"/>
<path d="M287.457 164.49H287.064C287.059 164.488 287.053 164.487 287.048 164.486H286.63V164.16C286.63 164.136 286.62 164.112 286.601 164.095C286.583 164.077 286.558 164.067 286.532 164.066H285.544C285.518 164.066 285.492 164.076 285.474 164.094C285.455 164.111 285.445 164.135 285.445 164.16V164.486H285.029C285.023 164.487 285.018 164.488 285.013 164.49H284.62C284.584 164.49 284.552 164.508 284.534 164.537C284.516 164.566 284.516 164.601 284.534 164.63C284.552 164.659 284.584 164.677 284.62 164.677H284.94L285.198 166.94C285.201 166.963 285.213 166.984 285.231 167C285.249 167.015 285.273 167.024 285.298 167.024H286.78C286.805 167.023 286.828 167.015 286.846 166.999C286.864 166.984 286.876 166.963 286.878 166.94L287.137 164.68H287.457C287.492 164.68 287.525 164.663 287.543 164.634C287.56 164.605 287.561 164.569 287.543 164.54C287.525 164.511 287.492 164.493 287.457 164.493L287.457 164.49ZM285.646 164.254H286.431V164.486H285.646V164.254ZM286.69 166.835H285.387L285.14 164.68H286.937L286.69 166.835Z" fill="#E41D1D"/>
<path d="M286.039 166.612C286.065 166.612 286.091 166.602 286.109 166.585C286.128 166.567 286.139 166.543 286.139 166.519V164.99C286.139 164.957 286.12 164.926 286.089 164.909C286.058 164.892 286.02 164.892 285.989 164.909C285.958 164.926 285.939 164.957 285.939 164.99V166.519C285.939 166.543 285.95 166.567 285.969 166.585C285.987 166.602 286.013 166.612 286.039 166.612H286.039Z" fill="#E41D1D"/>
<path d="M285.646 166.612H285.65C285.676 166.611 285.701 166.6 285.719 166.582C285.737 166.564 285.746 166.54 285.745 166.515L285.685 164.986L285.685 164.986C285.685 164.961 285.674 164.938 285.654 164.921C285.634 164.904 285.608 164.895 285.582 164.897C285.555 164.898 285.531 164.909 285.513 164.927C285.495 164.945 285.485 164.969 285.486 164.994L285.546 166.522C285.548 166.546 285.559 166.569 285.577 166.586C285.596 166.602 285.62 166.612 285.646 166.612L285.646 166.612Z" fill="#E41D1D"/>
<path d="M286.427 166.613H286.431C286.457 166.613 286.482 166.604 286.502 166.587C286.521 166.57 286.532 166.547 286.533 166.522L286.593 164.994H286.593C286.594 164.969 286.585 164.945 286.567 164.927C286.549 164.909 286.524 164.898 286.498 164.897C286.471 164.894 286.444 164.903 286.424 164.919C286.404 164.936 286.392 164.961 286.392 164.986L286.331 166.514H286.331C286.33 166.54 286.339 166.564 286.357 166.583C286.375 166.601 286.401 166.612 286.427 166.613L286.427 166.613Z" fill="#E41D1D"/>
<line x1="68.79" y1="174.68" x2="294.021" y2="174.68" stroke="black" stroke-opacity="0.15"/>
<path d="M94.199 160.095L94.1681 167.065L93.2581 167.055L93.2721 163.895L89.7223 163.858L89.7083 167.018L88.7984 167.008L88.8293 160.038L89.7392 160.048L89.7257 163.108L93.2755 163.145L93.289 160.085L94.199 160.095ZM100.735 164.184C100.734 164.357 100.723 164.54 100.702 164.733L96.3224 164.687C96.3534 165.228 96.5348 165.653 96.8668 165.963C97.2054 166.267 97.6147 166.421 98.0947 166.426C98.488 166.43 98.8151 166.344 99.0758 166.166C99.3433 165.983 99.5311 165.738 99.6391 165.432L100.619 165.443C100.47 165.968 100.175 166.395 99.7334 166.723C99.292 167.045 98.7446 167.203 98.0913 167.196C97.5713 167.191 97.1052 167.069 96.6929 166.831C96.2873 166.594 95.9688 166.26 95.7374 165.831C95.506 165.395 95.3915 164.894 95.394 164.327C95.3965 163.761 95.5121 163.265 95.7406 162.841C95.9692 162.417 96.2872 162.093 96.6949 161.871C97.1092 161.642 97.5831 161.53 98.1164 161.536C98.6363 161.542 99.0958 161.66 99.4948 161.891C99.8938 162.122 100.199 162.438 100.411 162.84C100.629 163.236 100.737 163.684 100.735 164.184ZM99.7955 163.984C99.797 163.637 99.7217 163.34 99.5695 163.091C99.4173 162.837 99.2081 162.644 98.942 162.515C98.6826 162.379 98.3929 162.309 98.073 162.306C97.613 162.301 97.219 162.443 96.8911 162.733C96.5698 163.023 96.3847 163.428 96.3357 163.947L99.7955 163.984ZM101.595 164.383C101.597 163.823 101.713 163.334 101.941 162.916C102.17 162.492 102.481 162.165 102.876 161.936C103.277 161.707 103.721 161.595 104.207 161.6C104.687 161.605 105.103 161.713 105.456 161.924C105.808 162.134 106.07 162.397 106.242 162.712L106.247 161.712L107.167 161.722L107.142 167.202L106.222 167.192L106.227 166.172C106.046 166.49 105.774 166.754 105.413 166.963C105.059 167.166 104.645 167.265 104.172 167.26C103.685 167.255 103.246 167.13 102.854 166.886C102.462 166.642 102.153 166.302 101.928 165.866C101.704 165.431 101.592 164.936 101.595 164.383ZM106.235 164.442C106.236 164.029 106.155 163.668 105.989 163.359C105.824 163.051 105.598 162.815 105.313 162.652C105.033 162.482 104.724 162.396 104.384 162.392C104.044 162.389 103.733 162.465 103.453 162.622C103.172 162.779 102.948 163.01 102.78 163.315C102.612 163.62 102.527 163.979 102.525 164.393C102.523 164.813 102.605 165.18 102.77 165.495C102.935 165.804 103.158 166.043 103.437 166.212C103.716 166.375 104.026 166.459 104.366 166.462C104.706 166.466 105.016 166.389 105.297 166.232C105.584 166.068 105.812 165.834 105.98 165.529C106.148 165.218 106.233 164.855 106.235 164.442ZM108.352 164.454C108.355 163.894 108.47 163.405 108.699 162.988C108.927 162.563 109.239 162.237 109.633 162.008C110.034 161.778 110.481 161.667 110.975 161.672C111.401 161.676 111.797 161.78 112.163 161.984C112.529 162.181 112.808 162.441 113 162.763L113.013 159.863L113.933 159.873L113.9 167.273L112.98 167.263L112.984 166.233C112.803 166.558 112.535 166.825 112.181 167.035C111.827 167.238 111.413 167.337 110.94 167.332C110.453 167.326 110.01 167.202 109.611 166.958C109.219 166.713 108.91 166.373 108.686 165.938C108.461 165.502 108.35 165.007 108.352 164.454ZM112.992 164.513C112.994 164.1 112.912 163.739 112.747 163.43C112.582 163.122 112.356 162.886 112.07 162.723C111.791 162.554 111.481 162.467 111.141 162.464C110.801 162.46 110.491 162.537 110.21 162.694C109.929 162.851 109.705 163.082 109.537 163.387C109.369 163.692 109.284 164.051 109.282 164.464C109.28 164.884 109.362 165.252 109.527 165.567C109.693 165.875 109.915 166.114 110.194 166.284C110.473 166.447 110.783 166.53 111.123 166.533C111.463 166.537 111.773 166.46 112.054 166.303C112.342 166.14 112.569 165.905 112.737 165.6C112.905 165.289 112.99 164.926 112.992 164.513ZM115.936 160.924C115.762 160.922 115.616 160.861 115.497 160.739C115.377 160.618 115.318 160.471 115.318 160.297C115.319 160.124 115.38 159.978 115.5 159.859C115.621 159.741 115.768 159.682 115.941 159.684C116.108 159.686 116.248 159.747 116.36 159.868C116.48 159.99 116.539 160.137 116.538 160.31C116.538 160.484 116.477 160.63 116.356 160.748C116.243 160.867 116.102 160.926 115.936 160.924ZM116.372 161.819L116.347 167.299L115.438 167.289L115.462 161.809L116.372 161.819ZM120.593 161.763C121.26 161.77 121.799 161.979 122.21 162.39C122.622 162.795 122.826 163.377 122.822 164.137L122.808 167.367L121.908 167.357L121.922 164.257C121.924 163.711 121.789 163.293 121.517 163.003C121.245 162.707 120.873 162.556 120.399 162.551C119.919 162.546 119.535 162.692 119.247 162.989C118.966 163.286 118.824 163.721 118.822 164.295L118.808 167.325L117.898 167.315L117.923 161.835L118.833 161.845L118.829 162.625C119.01 162.347 119.255 162.132 119.562 161.982C119.876 161.832 120.22 161.759 120.593 161.763ZM126.579 161.836C127.052 161.841 127.465 161.949 127.818 162.159C128.177 162.37 128.442 162.633 128.614 162.948L128.618 161.948L129.538 161.958L129.514 167.557C129.511 168.057 129.403 168.5 129.188 168.884C128.973 169.275 128.665 169.579 128.264 169.794C127.869 170.01 127.409 170.115 126.882 170.11C126.162 170.102 125.563 169.926 125.085 169.581C124.606 169.236 124.325 168.769 124.241 168.182L125.141 168.191C125.239 168.526 125.445 168.795 125.757 168.998C126.07 169.208 126.446 169.315 126.886 169.32C127.386 169.325 127.793 169.173 128.108 168.863C128.429 168.553 128.591 168.114 128.594 167.548L128.599 166.398C128.417 166.716 128.15 166.98 127.795 167.189C127.441 167.399 127.027 167.501 126.554 167.496C126.067 167.491 125.625 167.366 125.226 167.122C124.833 166.878 124.525 166.538 124.3 166.102C124.075 165.667 123.964 165.172 123.967 164.619C123.969 164.059 124.085 163.57 124.313 163.152C124.542 162.728 124.853 162.401 125.248 162.172C125.649 161.943 126.092 161.831 126.579 161.836ZM128.606 164.678C128.608 164.264 128.526 163.904 128.361 163.595C128.196 163.287 127.97 163.051 127.684 162.888C127.405 162.718 127.095 162.632 126.755 162.628C126.416 162.625 126.105 162.701 125.824 162.858C125.544 163.015 125.319 163.246 125.151 163.551C124.983 163.856 124.898 164.215 124.897 164.629C124.895 165.049 124.976 165.416 125.142 165.731C125.307 166.04 125.529 166.279 125.809 166.448C126.088 166.611 126.397 166.695 126.737 166.698C127.077 166.702 127.388 166.625 127.668 166.468C127.956 166.304 128.184 166.07 128.352 165.765C128.52 165.454 128.605 165.091 128.606 164.678Z" fill="#483EA8"/>
<path d="M78.6986 160.162V166.499H79.3078C79.3886 166.499 79.4661 166.532 79.5232 166.591C79.5803 166.651 79.6124 166.731 79.6124 166.815V167.449C79.6124 167.533 79.5803 167.614 79.5232 167.673C79.4661 167.733 79.3886 167.766 79.3078 167.766H76.2615C76.1807 167.766 76.1033 167.733 76.0461 167.673C75.989 167.614 75.9569 167.533 75.9569 167.449V166.815C75.9569 166.731 75.989 166.651 76.0461 166.591C76.1033 166.532 76.1807 166.499 76.2615 166.499H76.8708V163.964H73.2153V166.499H73.8245C73.9053 166.499 73.9828 166.532 74.0399 166.591C74.0971 166.651 74.1292 166.731 74.1292 166.815V167.449C74.1292 167.533 74.0971 167.614 74.0399 167.673C73.9828 167.733 73.9053 167.766 73.8245 167.766H70.7783C70.6975 167.766 70.62 167.733 70.5629 167.673C70.5057 167.614 70.4736 167.533 70.4736 167.449V166.815C70.4736 166.731 70.5057 166.651 70.5629 166.591C70.62 166.532 70.6975 166.499 70.7783 166.499H71.3875V160.162H70.7783C70.6975 160.162 70.62 160.128 70.5629 160.069C70.5057 160.01 70.4736 159.929 70.4736 159.845V159.211C70.4736 159.127 70.5057 159.047 70.5629 158.987C70.62 158.928 70.6975 158.895 70.7783 158.895H73.8245C73.9053 158.895 73.9828 158.928 74.0399 158.987C74.0971 159.047 74.1292 159.127 74.1292 159.211V159.845C74.1292 159.929 74.0971 160.01 74.0399 160.069C73.9828 160.128 73.9053 160.162 73.8245 160.162H73.2153V162.697H76.8708V160.162H76.2615C76.1807 160.162 76.1033 160.128 76.0461 160.069C75.989 160.01 75.9569 159.929 75.9569 159.845V159.211C75.9569 159.127 75.989 159.047 76.0461 158.987C76.1033 158.928 76.1807 158.895 76.2615 158.895H79.3078C79.3886 158.895 79.4661 158.928 79.5232 158.987C79.5803 159.047 79.6124 159.127 79.6124 159.211V159.845C79.6124 159.929 79.5803 160.01 79.5232 160.069C79.4661 160.128 79.3886 160.162 79.3078 160.162H78.6986Z" fill="#483EA8" fill-opacity="0.32"/>
<mask id="path-54-inside-3_2942_2325" fill="white">
<path d="M355 160C355 151.716 361.716 145 370 145H936C944.284 145 951 151.716 951 160V220H355V160Z"/>
</mask>
<path d="M355 160C355 151.716 361.716 145 370 145H936C944.284 145 951 151.716 951 160V220H355V160Z" fill="white"/>
<path d="M354 160C354 151.163 361.163 144 370 144H936C944.837 144 952 151.163 952 160H950C950 152.268 943.732 146 936 146H370C362.268 146 356 152.268 356 160H354ZM951 220H355H951ZM354 220V160C354 151.163 361.163 144 370 144V146C362.268 146 356 152.268 356 160V220H354ZM936 144C944.837 144 952 151.163 952 160V220H950V160C950 152.268 943.732 146 936 146V144Z" fill="black" fill-opacity="0.09" mask="url(#path-54-inside-3_2942_2325)"/>
<line x1="369" y1="184.5" x2="935" y2="184.5" stroke="black" stroke-opacity="0.15"/>
<path opacity="0.73" d="M399.52 205L397.79 202.08H396.5V205H395.8V198.01H397.9C398.68 198.01 399.27 198.197 399.67 198.57C400.077 198.943 400.28 199.433 400.28 200.04C400.28 200.547 400.133 200.98 399.84 201.34C399.553 201.693 399.127 201.923 398.56 202.03L400.36 205H399.52ZM396.5 201.51H397.91C398.457 201.51 398.867 201.377 399.14 201.11C399.42 200.843 399.56 200.487 399.56 200.04C399.56 199.58 399.427 199.227 399.16 198.98C398.893 198.727 398.473 198.6 397.9 198.6H396.5V201.51ZM407.409 201.99C407.409 202.23 407.402 202.413 407.389 202.54H402.859C402.879 202.953 402.979 203.307 403.159 203.6C403.339 203.893 403.576 204.117 403.869 204.27C404.162 204.417 404.482 204.49 404.829 204.49C405.282 204.49 405.662 204.38 405.969 204.16C406.282 203.94 406.489 203.643 406.589 203.27H407.329C407.196 203.803 406.909 204.24 406.469 204.58C406.036 204.913 405.489 205.08 404.829 205.08C404.316 205.08 403.856 204.967 403.449 204.74C403.042 204.507 402.722 204.18 402.489 203.76C402.262 203.333 402.149 202.837 402.149 202.27C402.149 201.703 402.262 201.207 402.489 200.78C402.716 200.353 403.032 200.027 403.439 199.8C403.846 199.573 404.309 199.46 404.829 199.46C405.349 199.46 405.802 199.573 406.189 199.8C406.582 200.027 406.882 200.333 407.089 200.72C407.302 201.1 407.409 201.523 407.409 201.99ZM406.699 201.97C406.706 201.563 406.622 201.217 406.449 200.93C406.282 200.643 406.052 200.427 405.759 200.28C405.466 200.133 405.146 200.06 404.799 200.06C404.279 200.06 403.836 200.227 403.469 200.56C403.102 200.893 402.899 201.363 402.859 201.97H406.699ZM409.17 202.26C409.17 201.7 409.28 201.21 409.5 200.79C409.727 200.363 410.037 200.037 410.43 199.81C410.83 199.577 411.28 199.46 411.78 199.46C412.3 199.46 412.747 199.58 413.12 199.82C413.5 200.06 413.773 200.367 413.94 200.74V199.54H414.64V205H413.94V203.79C413.767 204.163 413.49 204.473 413.11 204.72C412.737 204.96 412.29 205.08 411.77 205.08C411.277 205.08 410.83 204.963 410.43 204.73C410.037 204.497 409.727 204.167 409.5 203.74C409.28 203.313 409.17 202.82 409.17 202.26ZM413.94 202.27C413.94 201.83 413.85 201.443 413.67 201.11C413.49 200.777 413.243 200.52 412.93 200.34C412.623 200.16 412.283 200.07 411.91 200.07C411.523 200.07 411.177 200.157 410.87 200.33C410.563 200.503 410.32 200.757 410.14 201.09C409.967 201.417 409.88 201.807 409.88 202.26C409.88 202.707 409.967 203.1 410.14 203.44C410.32 203.773 410.563 204.03 410.87 204.21C411.177 204.383 411.523 204.47 411.91 204.47C412.283 204.47 412.623 204.38 412.93 204.2C413.243 204.02 413.49 203.763 413.67 203.43C413.85 203.097 413.94 202.71 413.94 202.27ZM418.918 205.08C418.291 205.08 417.778 204.937 417.378 204.65C416.985 204.357 416.765 203.96 416.718 203.46H417.438C417.471 203.767 417.615 204.017 417.868 204.21C418.128 204.397 418.475 204.49 418.908 204.49C419.288 204.49 419.585 204.4 419.798 204.22C420.018 204.04 420.128 203.817 420.128 203.55C420.128 203.363 420.068 203.21 419.948 203.09C419.828 202.97 419.675 202.877 419.488 202.81C419.308 202.737 419.061 202.66 418.748 202.58C418.341 202.473 418.011 202.367 417.758 202.26C417.505 202.153 417.288 201.997 417.108 201.79C416.935 201.577 416.848 201.293 416.848 200.94C416.848 200.673 416.928 200.427 417.088 200.2C417.248 199.973 417.475 199.793 417.768 199.66C418.061 199.527 418.395 199.46 418.768 199.46C419.355 199.46 419.828 199.61 420.188 199.91C420.548 200.203 420.741 200.61 420.768 201.13H420.068C420.048 200.81 419.921 200.553 419.688 200.36C419.461 200.16 419.148 200.06 418.748 200.06C418.395 200.06 418.108 200.143 417.888 200.31C417.668 200.477 417.558 200.683 417.558 200.93C417.558 201.143 417.621 201.32 417.748 201.46C417.881 201.593 418.045 201.7 418.238 201.78C418.431 201.853 418.691 201.937 419.018 202.03C419.411 202.137 419.725 202.24 419.958 202.34C420.191 202.44 420.391 202.587 420.558 202.78C420.725 202.973 420.811 203.23 420.818 203.55C420.818 203.843 420.738 204.107 420.578 204.34C420.418 204.567 420.195 204.747 419.908 204.88C419.621 205.013 419.291 205.08 418.918 205.08ZM425.326 205.08C424.812 205.08 424.349 204.967 423.936 204.74C423.529 204.507 423.206 204.18 422.966 203.76C422.732 203.333 422.616 202.837 422.616 202.27C422.616 201.703 422.736 201.21 422.976 200.79C423.216 200.363 423.542 200.037 423.956 199.81C424.369 199.577 424.832 199.46 425.346 199.46C425.859 199.46 426.322 199.577 426.736 199.81C427.156 200.037 427.482 200.363 427.716 200.79C427.956 201.21 428.076 201.703 428.076 202.27C428.076 202.83 427.956 203.323 427.716 203.75C427.476 204.177 427.146 204.507 426.726 204.74C426.306 204.967 425.839 205.08 425.326 205.08ZM425.326 204.47C425.686 204.47 426.019 204.39 426.326 204.23C426.632 204.063 426.879 203.817 427.066 203.49C427.259 203.157 427.356 202.75 427.356 202.27C427.356 201.79 427.262 201.387 427.076 201.06C426.889 200.727 426.642 200.48 426.336 200.32C426.029 200.153 425.696 200.07 425.336 200.07C424.976 200.07 424.642 200.153 424.336 200.32C424.029 200.48 423.782 200.727 423.596 201.06C423.416 201.387 423.326 201.79 423.326 202.27C423.326 202.75 423.416 203.157 423.596 203.49C423.782 203.817 424.026 204.063 424.326 204.23C424.632 204.39 424.966 204.47 425.326 204.47ZM432.712 199.44C433.365 199.44 433.898 199.643 434.312 200.05C434.725 200.45 434.932 201.033 434.932 201.8V205H434.242V201.88C434.242 201.287 434.092 200.833 433.792 200.52C433.498 200.207 433.095 200.05 432.582 200.05C432.055 200.05 431.635 200.217 431.322 200.55C431.008 200.883 430.852 201.373 430.852 202.02V205H430.152V199.54H430.852V200.47C431.025 200.137 431.275 199.883 431.602 199.71C431.928 199.53 432.298 199.44 432.712 199.44ZM441.734 200.13V203.52C441.734 203.853 441.797 204.083 441.924 204.21C442.05 204.337 442.274 204.4 442.594 204.4H443.234V205H442.484C441.99 205 441.624 204.887 441.384 204.66C441.144 204.427 441.024 204.047 441.024 203.52V200.13H440.264V199.54H441.024V198.17H441.734V199.54H443.234V200.13H441.734ZM447.578 205.08C447.065 205.08 446.602 204.967 446.188 204.74C445.782 204.507 445.458 204.18 445.218 203.76C444.985 203.333 444.868 202.837 444.868 202.27C444.868 201.703 444.988 201.21 445.228 200.79C445.468 200.363 445.795 200.037 446.208 199.81C446.622 199.577 447.085 199.46 447.598 199.46C448.112 199.46 448.575 199.577 448.988 199.81C449.408 200.037 449.735 200.363 449.968 200.79C450.208 201.21 450.328 201.703 450.328 202.27C450.328 202.83 450.208 203.323 449.968 203.75C449.728 204.177 449.398 204.507 448.978 204.74C448.558 204.967 448.092 205.08 447.578 205.08ZM447.578 204.47C447.938 204.47 448.272 204.39 448.578 204.23C448.885 204.063 449.132 203.817 449.318 203.49C449.512 203.157 449.608 202.75 449.608 202.27C449.608 201.79 449.515 201.387 449.328 201.06C449.142 200.727 448.895 200.48 448.588 200.32C448.282 200.153 447.948 200.07 447.588 200.07C447.228 200.07 446.895 200.153 446.588 200.32C446.282 200.48 446.035 200.727 445.848 201.06C445.668 201.387 445.578 201.79 445.578 202.27C445.578 202.75 445.668 203.157 445.848 203.49C446.035 203.817 446.278 204.063 446.578 204.23C446.885 204.39 447.218 204.47 447.578 204.47ZM455.628 202.26C455.628 201.7 455.742 201.21 455.968 200.79C456.195 200.363 456.505 200.037 456.898 199.81C457.298 199.577 457.748 199.46 458.248 199.46C458.728 199.46 459.162 199.577 459.548 199.81C459.935 200.043 460.218 200.347 460.398 200.72V197.6H461.098V205H460.398V203.78C460.232 204.16 459.958 204.473 459.578 204.72C459.198 204.96 458.752 205.08 458.238 205.08C457.738 205.08 457.288 204.963 456.888 204.73C456.495 204.497 456.185 204.167 455.958 203.74C455.738 203.313 455.628 202.82 455.628 202.26ZM460.398 202.27C460.398 201.83 460.308 201.443 460.128 201.11C459.948 200.777 459.702 200.52 459.388 200.34C459.082 200.16 458.742 200.07 458.368 200.07C457.982 200.07 457.635 200.157 457.328 200.33C457.022 200.503 456.778 200.757 456.598 201.09C456.425 201.417 456.338 201.807 456.338 202.26C456.338 202.707 456.425 203.1 456.598 203.44C456.778 203.773 457.022 204.03 457.328 204.21C457.635 204.383 457.982 204.47 458.368 204.47C458.742 204.47 459.082 204.38 459.388 204.2C459.702 204.02 459.948 203.763 460.128 203.43C460.308 203.097 460.398 202.71 460.398 202.27ZM465.886 205.08C465.373 205.08 464.91 204.967 464.496 204.74C464.09 204.507 463.766 204.18 463.526 203.76C463.293 203.333 463.176 202.837 463.176 202.27C463.176 201.703 463.296 201.21 463.536 200.79C463.776 200.363 464.103 200.037 464.516 199.81C464.93 199.577 465.393 199.46 465.906 199.46C466.42 199.46 466.883 199.577 467.296 199.81C467.716 200.037 468.043 200.363 468.276 200.79C468.516 201.21 468.636 201.703 468.636 202.27C468.636 202.83 468.516 203.323 468.276 203.75C468.036 204.177 467.706 204.507 467.286 204.74C466.866 204.967 466.4 205.08 465.886 205.08ZM465.886 204.47C466.246 204.47 466.58 204.39 466.886 204.23C467.193 204.063 467.44 203.817 467.626 203.49C467.82 203.157 467.916 202.75 467.916 202.27C467.916 201.79 467.823 201.387 467.636 201.06C467.45 200.727 467.203 200.48 466.896 200.32C466.59 200.153 466.256 200.07 465.896 200.07C465.536 200.07 465.203 200.153 464.896 200.32C464.59 200.48 464.343 200.727 464.156 201.06C463.976 201.387 463.886 201.79 463.886 202.27C463.886 202.75 463.976 203.157 464.156 203.49C464.343 203.817 464.586 204.063 464.886 204.23C465.193 204.39 465.526 204.47 465.886 204.47ZM477.912 199.54L476.202 205H475.502L473.992 200.42L472.482 205H471.772L470.062 199.54H470.772L472.132 204.29L473.662 199.54H474.362L475.872 204.3L477.222 199.54H477.912ZM482.227 199.44C482.88 199.44 483.413 199.643 483.827 200.05C484.24 200.45 484.447 201.033 484.447 201.8V205H483.757V201.88C483.757 201.287 483.607 200.833 483.307 200.52C483.013 200.207 482.61 200.05 482.097 200.05C481.57 200.05 481.15 200.217 480.837 200.55C480.523 200.883 480.367 201.373 480.367 202.02V205H479.667V199.54H480.367V200.47C480.54 200.137 480.79 199.883 481.117 199.71C481.443 199.53 481.813 199.44 482.227 199.44ZM487.495 197.6V205H486.795V197.6H487.495ZM492.27 205.08C491.757 205.08 491.293 204.967 490.88 204.74C490.473 204.507 490.15 204.18 489.91 203.76C489.677 203.333 489.56 202.837 489.56 202.27C489.56 201.703 489.68 201.21 489.92 200.79C490.16 200.363 490.487 200.037 490.9 199.81C491.313 199.577 491.777 199.46 492.29 199.46C492.803 199.46 493.267 199.577 493.68 199.81C494.1 200.037 494.427 200.363 494.66 200.79C494.9 201.21 495.02 201.703 495.02 202.27C495.02 202.83 494.9 203.323 494.66 203.75C494.42 204.177 494.09 204.507 493.67 204.74C493.25 204.967 492.783 205.08 492.27 205.08ZM492.27 204.47C492.63 204.47 492.963 204.39 493.27 204.23C493.577 204.063 493.823 203.817 494.01 203.49C494.203 203.157 494.3 202.75 494.3 202.27C494.3 201.79 494.207 201.387 494.02 201.06C493.833 200.727 493.587 200.48 493.28 200.32C492.973 200.153 492.64 200.07 492.28 200.07C491.92 200.07 491.587 200.153 491.28 200.32C490.973 200.48 490.727 200.727 490.54 201.06C490.36 201.387 490.27 201.79 490.27 202.27C490.27 202.75 490.36 203.157 490.54 203.49C490.727 203.817 490.97 204.063 491.27 204.23C491.577 204.39 491.91 204.47 492.27 204.47ZM496.776 202.26C496.776 201.7 496.886 201.21 497.106 200.79C497.333 200.363 497.643 200.037 498.036 199.81C498.436 199.577 498.886 199.46 499.386 199.46C499.906 199.46 500.353 199.58 500.726 199.82C501.106 200.06 501.379 200.367 501.546 200.74V199.54H502.246V205H501.546V203.79C501.373 204.163 501.096 204.473 500.716 204.72C500.343 204.96 499.896 205.08 499.376 205.08C498.883 205.08 498.436 204.963 498.036 204.73C497.643 204.497 497.333 204.167 497.106 203.74C496.886 203.313 496.776 202.82 496.776 202.26ZM501.546 202.27C501.546 201.83 501.456 201.443 501.276 201.11C501.096 200.777 500.849 200.52 500.536 200.34C500.229 200.16 499.889 200.07 499.516 200.07C499.129 200.07 498.783 200.157 498.476 200.33C498.169 200.503 497.926 200.757 497.746 201.09C497.573 201.417 497.486 201.807 497.486 202.26C497.486 202.707 497.573 203.1 497.746 203.44C497.926 203.773 498.169 204.03 498.476 204.21C498.783 204.383 499.129 204.47 499.516 204.47C499.889 204.47 500.229 204.38 500.536 204.2C500.849 204.02 501.096 203.763 501.276 203.43C501.456 203.097 501.546 202.71 501.546 202.27ZM504.324 202.26C504.324 201.7 504.437 201.21 504.664 200.79C504.891 200.363 505.201 200.037 505.594 199.81C505.994 199.577 506.444 199.46 506.944 199.46C507.424 199.46 507.857 199.577 508.244 199.81C508.631 200.043 508.914 200.347 509.094 200.72V197.6H509.794V205H509.094V203.78C508.927 204.16 508.654 204.473 508.274 204.72C507.894 204.96 507.447 205.08 506.934 205.08C506.434 205.08 505.984 204.963 505.584 204.73C505.191 204.497 504.881 204.167 504.654 203.74C504.434 203.313 504.324 202.82 504.324 202.26ZM509.094 202.27C509.094 201.83 509.004 201.443 508.824 201.11C508.644 200.777 508.397 200.52 508.084 200.34C507.777 200.16 507.437 200.07 507.064 200.07C506.677 200.07 506.331 200.157 506.024 200.33C505.717 200.503 505.474 200.757 505.294 201.09C505.121 201.417 505.034 201.807 505.034 202.26C505.034 202.707 505.121 203.1 505.294 203.44C505.474 203.773 505.717 204.03 506.024 204.21C506.331 204.383 506.677 204.47 507.064 204.47C507.437 204.47 507.777 204.38 508.084 204.2C508.397 204.02 508.644 203.763 508.824 203.43C509.004 203.097 509.094 202.71 509.094 202.27ZM516.646 200.13V203.52C516.646 203.853 516.71 204.083 516.836 204.21C516.963 204.337 517.186 204.4 517.506 204.4H518.146V205H517.396C516.903 205 516.536 204.887 516.296 204.66C516.056 204.427 515.936 204.047 515.936 203.52V200.13H515.176V199.54H515.936V198.17H516.646V199.54H518.146V200.13H516.646ZM522.701 199.44C523.114 199.44 523.484 199.527 523.811 199.7C524.144 199.873 524.404 200.14 524.591 200.5C524.784 200.853 524.881 201.287 524.881 201.8V205H524.191V201.88C524.191 201.287 524.041 200.833 523.741 200.52C523.447 200.207 523.044 200.05 522.531 200.05C522.004 200.05 521.584 200.217 521.271 200.55C520.957 200.883 520.801 201.373 520.801 202.02V205H520.101V197.6H520.801V200.47C520.974 200.143 521.227 199.89 521.561 199.71C521.901 199.53 522.281 199.44 522.701 199.44ZM532.169 201.99C532.169 202.23 532.162 202.413 532.149 202.54H527.619C527.639 202.953 527.739 203.307 527.919 203.6C528.099 203.893 528.336 204.117 528.629 204.27C528.922 204.417 529.242 204.49 529.589 204.49C530.042 204.49 530.422 204.38 530.729 204.16C531.042 203.94 531.249 203.643 531.349 203.27H532.089C531.956 203.803 531.669 204.24 531.229 204.58C530.796 204.913 530.249 205.08 529.589 205.08C529.076 205.08 528.616 204.967 528.209 204.74C527.802 204.507 527.482 204.18 527.249 203.76C527.022 203.333 526.909 202.837 526.909 202.27C526.909 201.703 527.022 201.207 527.249 200.78C527.476 200.353 527.792 200.027 528.199 199.8C528.606 199.573 529.069 199.46 529.589 199.46C530.109 199.46 530.562 199.573 530.949 199.8C531.342 200.027 531.642 200.333 531.849 200.72C532.062 201.1 532.169 201.523 532.169 201.99ZM531.459 201.97C531.466 201.563 531.382 201.217 531.209 200.93C531.042 200.643 530.812 200.427 530.519 200.28C530.226 200.133 529.906 200.06 529.559 200.06C529.039 200.06 528.596 200.227 528.229 200.56C527.862 200.893 527.659 201.363 527.619 201.97H531.459ZM538.484 200.74C538.657 200.373 538.93 200.07 539.304 199.83C539.684 199.583 540.134 199.46 540.654 199.46C541.147 199.46 541.59 199.577 541.984 199.81C542.384 200.037 542.694 200.363 542.914 200.79C543.14 201.21 543.254 201.7 543.254 202.26C543.254 202.82 543.14 203.313 542.914 203.74C542.694 204.167 542.384 204.497 541.984 204.73C541.59 204.963 541.147 205.08 540.654 205.08C540.14 205.08 539.694 204.96 539.314 204.72C538.934 204.473 538.657 204.167 538.484 203.8V207.58H537.794V199.54H538.484V200.74ZM542.544 202.26C542.544 201.807 542.454 201.417 542.274 201.09C542.1 200.757 541.86 200.503 541.554 200.33C541.247 200.157 540.9 200.07 540.514 200.07C540.14 200.07 539.797 200.16 539.484 200.34C539.177 200.52 538.934 200.777 538.754 201.11C538.574 201.443 538.484 201.83 538.484 202.27C538.484 202.71 538.574 203.097 538.754 203.43C538.934 203.763 539.177 204.02 539.484 204.2C539.797 204.38 540.14 204.47 540.514 204.47C540.9 204.47 541.247 204.383 541.554 204.21C541.86 204.03 542.1 203.773 542.274 203.44C542.454 203.1 542.544 202.707 542.544 202.26ZM545.022 202.26C545.022 201.7 545.135 201.21 545.362 200.79C545.588 200.363 545.898 200.037 546.292 199.81C546.692 199.577 547.142 199.46 547.642 199.46C548.122 199.46 548.555 199.577 548.942 199.81C549.328 200.043 549.612 200.347 549.792 200.72V197.6H550.492V205H549.792V203.78C549.625 204.16 549.352 204.473 548.972 204.72C548.592 204.96 548.145 205.08 547.632 205.08C547.132 205.08 546.682 204.963 546.282 204.73C545.888 204.497 545.578 204.167 545.352 203.74C545.132 203.313 545.022 202.82 545.022 202.26ZM549.792 202.27C549.792 201.83 549.702 201.443 549.522 201.11C549.342 200.777 549.095 200.52 548.782 200.34C548.475 200.16 548.135 200.07 547.762 200.07C547.375 200.07 547.028 200.157 546.722 200.33C546.415 200.503 546.172 200.757 545.992 201.09C545.818 201.417 545.732 201.807 545.732 202.26C545.732 202.707 545.818 203.1 545.992 203.44C546.172 203.773 546.415 204.03 546.722 204.21C547.028 204.383 547.375 204.47 547.762 204.47C548.135 204.47 548.475 204.38 548.782 204.2C549.095 204.02 549.342 203.763 549.522 203.43C549.702 203.097 549.792 202.71 549.792 202.27ZM555.04 200.13H553.77V205H553.07V200.13H552.31V199.54H553.07V199.16C553.07 198.567 553.22 198.13 553.52 197.85C553.827 197.57 554.32 197.43 555 197.43V198.03C554.547 198.03 554.227 198.117 554.04 198.29C553.86 198.463 553.77 198.753 553.77 199.16V199.54H555.04V200.13ZM562.176 197.92C562.603 197.92 562.979 198.003 563.306 198.17C563.639 198.337 563.896 198.577 564.076 198.89C564.263 199.197 564.356 199.553 564.356 199.96C564.356 200.68 564.133 201.21 563.686 201.55C563.246 201.883 562.643 202.05 561.876 202.05L561.846 203.15H561.246L561.206 201.55H561.466C562.153 201.55 562.693 201.443 563.086 201.23C563.486 201.01 563.686 200.587 563.686 199.96C563.686 199.52 563.546 199.17 563.266 198.91C562.993 198.65 562.629 198.52 562.176 198.52C561.723 198.52 561.363 198.643 561.096 198.89C560.829 199.137 560.696 199.473 560.696 199.9H560.026C560.026 199.5 560.116 199.153 560.296 198.86C560.483 198.56 560.736 198.33 561.056 198.17C561.383 198.003 561.756 197.92 562.176 197.92ZM561.546 205.05C561.399 205.05 561.276 205 561.176 204.9C561.083 204.8 561.036 204.677 561.036 204.53C561.036 204.383 561.083 204.263 561.176 204.17C561.276 204.07 561.399 204.02 561.546 204.02C561.686 204.02 561.803 204.07 561.896 204.17C561.996 204.263 562.046 204.383 562.046 204.53C562.046 204.677 561.996 204.8 561.896 204.9C561.803 205 561.686 205.05 561.546 205.05Z" fill="black" fill-opacity="0.35"/>
<rect x="373.5" y="163.5" width="7.4" height="4.4" rx="0.5" stroke="#483EA8" stroke-opacity="0.46"/>
<rect x="373.5" y="170.1" width="9.8" height="4.4" rx="0.5" stroke="#483EA8" stroke-opacity="0.46"/>
<path d="M397.958 171.111C397.311 171.105 396.722 170.948 396.19 170.643C395.658 170.33 395.237 169.903 394.926 169.359C394.621 168.809 394.471 168.194 394.474 167.514C394.477 166.834 394.633 166.226 394.942 165.689C395.258 165.146 395.683 164.727 396.217 164.433C396.752 164.132 397.343 163.985 397.989 163.991C398.643 163.998 399.235 164.158 399.767 164.47C400.299 164.776 400.717 165.2 401.022 165.743C401.326 166.287 401.477 166.902 401.473 167.588C401.47 168.275 401.314 168.887 401.005 169.423C400.696 169.96 400.274 170.379 399.74 170.68C399.205 170.974 398.611 171.118 397.958 171.111ZM397.961 170.321C398.448 170.326 398.885 170.218 399.273 169.995C399.667 169.773 399.975 169.453 400.197 169.035C400.426 168.617 400.541 168.132 400.544 167.578C400.546 167.018 400.435 166.531 400.21 166.115C399.992 165.693 399.69 165.366 399.304 165.135C398.919 164.905 398.479 164.787 397.986 164.781C397.493 164.776 397.052 164.885 396.665 165.107C396.277 165.33 395.969 165.65 395.74 166.068C395.518 166.479 395.406 166.964 395.404 167.524C395.401 168.078 395.509 168.565 395.727 168.988C395.952 169.41 396.257 169.737 396.643 169.967C397.035 170.198 397.475 170.316 397.961 170.321ZM403.589 166.631C403.77 166.319 404.038 166.062 404.392 165.859C404.753 165.649 405.17 165.547 405.644 165.552C406.13 165.557 406.57 165.679 406.962 165.916C407.361 166.154 407.673 166.487 407.898 166.916C408.123 167.338 408.234 167.83 408.231 168.39C408.229 168.943 408.113 169.435 407.885 169.866C407.656 170.297 407.341 170.63 406.94 170.866C406.546 171.102 406.105 171.217 405.619 171.212C405.152 171.207 404.739 171.1 404.38 170.889C404.028 170.672 403.759 170.406 403.574 170.091L403.558 173.701L402.648 173.691L402.684 165.611L403.593 165.621L403.589 166.631ZM407.301 168.38C407.303 167.966 407.221 167.606 407.056 167.297C406.891 166.989 406.665 166.753 406.379 166.59C406.1 166.427 405.79 166.344 405.45 166.34C405.117 166.337 404.807 166.417 404.519 166.58C404.239 166.737 404.011 166.972 403.836 167.283C403.668 167.588 403.583 167.944 403.581 168.351C403.58 168.764 403.661 169.128 403.827 169.443C403.999 169.752 404.224 169.991 404.503 170.16C404.789 170.323 405.099 170.407 405.432 170.41C405.772 170.414 406.083 170.337 406.363 170.18C406.651 170.016 406.878 169.782 407.046 169.477C407.214 169.166 407.299 168.8 407.301 168.38ZM414.43 168.265C414.429 168.438 414.418 168.622 414.397 168.815L410.017 168.768C410.048 169.309 410.23 169.734 410.562 170.044C410.9 170.348 411.31 170.502 411.79 170.507C412.183 170.511 412.51 170.425 412.771 170.248C413.038 170.064 413.226 169.819 413.334 169.513L414.314 169.524C414.165 170.049 413.87 170.476 413.428 170.805C412.987 171.127 412.439 171.284 411.786 171.277C411.266 171.272 410.8 171.15 410.388 170.912C409.982 170.675 409.664 170.341 409.432 169.912C409.201 169.477 409.086 168.975 409.089 168.409C409.091 167.842 409.207 167.347 409.435 166.922C409.664 166.498 409.982 166.175 410.39 165.952C410.804 165.723 411.278 165.612 411.811 165.617C412.331 165.623 412.791 165.741 413.19 165.972C413.589 166.203 413.894 166.519 414.105 166.922C414.324 167.317 414.432 167.765 414.43 168.265ZM413.49 168.065C413.492 167.718 413.417 167.421 413.264 167.173C413.112 166.918 412.903 166.725 412.637 166.596C412.378 166.46 412.088 166.39 411.768 166.387C411.308 166.382 410.914 166.524 410.586 166.814C410.265 167.104 410.08 167.509 410.031 168.029L413.49 168.065ZM418.312 165.676C418.979 165.683 419.518 165.892 419.929 166.303C420.341 166.707 420.545 167.289 420.542 168.049L420.527 171.279L419.627 171.27L419.641 168.17C419.643 167.623 419.509 167.205 419.237 166.916C418.965 166.619 418.592 166.469 418.119 166.464C417.639 166.459 417.255 166.605 416.967 166.902C416.685 167.199 416.543 167.634 416.541 168.207L416.527 171.237L415.618 171.228L415.642 165.748L416.552 165.757L416.548 166.537C416.73 166.259 416.974 166.045 417.281 165.895C417.595 165.745 417.939 165.672 418.312 165.676ZM430.263 172.702L428.88 171.298C428.539 171.387 428.192 171.43 427.839 171.427C427.192 171.42 426.603 171.263 426.071 170.958C425.539 170.646 425.118 170.218 424.807 169.674C424.503 169.125 424.352 168.51 424.355 167.83C424.358 167.15 424.514 166.541 424.823 166.005C425.139 165.461 425.564 165.042 426.099 164.748C426.633 164.447 427.224 164.3 427.871 164.307C428.524 164.313 429.117 164.473 429.648 164.785C430.18 165.091 430.599 165.515 430.903 166.059C431.207 166.602 431.358 167.217 431.355 167.903C431.352 168.57 431.202 169.169 430.907 169.699C430.611 170.229 430.206 170.645 429.691 170.946L431.443 172.715L430.263 172.702ZM425.285 167.839C425.283 168.393 425.39 168.881 425.608 169.303C425.833 169.725 426.138 170.052 426.524 170.283C426.916 170.513 427.356 170.631 427.843 170.637C428.329 170.642 428.766 170.533 429.154 170.31C429.548 170.088 429.856 169.768 430.078 169.35C430.307 168.932 430.422 168.447 430.425 167.894C430.427 167.334 430.316 166.846 430.091 166.43C429.873 166.008 429.571 165.681 429.186 165.451C428.8 165.22 428.36 165.102 427.867 165.097C427.374 165.091 426.933 165.2 426.546 165.423C426.158 165.645 425.85 165.965 425.621 166.383C425.4 166.794 425.287 167.279 425.285 167.839ZM437.444 165.978L437.42 171.458L436.51 171.448L436.513 170.638C436.339 170.916 436.094 171.134 435.78 171.29C435.473 171.44 435.133 171.513 434.759 171.51C434.333 171.505 433.95 171.414 433.611 171.237C433.272 171.054 433.003 170.784 432.804 170.429C432.613 170.074 432.518 169.642 432.52 169.136L432.534 165.926L433.434 165.935L433.42 169.025C433.418 169.565 433.553 169.983 433.825 170.28C434.097 170.569 434.47 170.716 434.943 170.721C435.43 170.727 435.814 170.581 436.095 170.284C436.376 169.987 436.518 169.551 436.521 168.978L436.534 165.968L437.444 165.978ZM443.969 168.577C443.968 168.75 443.957 168.933 443.936 169.126L439.557 169.08C439.588 169.62 439.769 170.046 440.101 170.356C440.44 170.659 440.849 170.814 441.329 170.819C441.722 170.823 442.049 170.736 442.31 170.559C442.578 170.375 442.765 170.131 442.873 169.825L443.853 169.835C443.704 170.361 443.409 170.787 442.968 171.116C442.526 171.438 441.979 171.596 441.326 171.589C440.806 171.583 440.339 171.462 439.927 171.224C439.522 170.986 439.203 170.653 438.972 170.224C438.74 169.788 438.626 169.287 438.628 168.72C438.631 168.154 438.746 167.658 438.975 167.234C439.203 166.81 439.522 166.486 439.929 166.264C440.343 166.035 440.817 165.923 441.351 165.929C441.871 165.934 442.33 166.053 442.729 166.283C443.128 166.514 443.433 166.831 443.645 167.233C443.863 167.629 443.971 168.077 443.969 168.577ZM443.03 168.377C443.031 168.03 442.956 167.733 442.804 167.484C442.652 167.229 442.442 167.037 442.176 166.908C441.917 166.772 441.627 166.702 441.307 166.698C440.847 166.694 440.453 166.836 440.125 167.126C439.804 167.416 439.619 167.821 439.57 168.34L443.03 168.377ZM447.096 171.65C446.676 171.645 446.3 171.571 445.967 171.428C445.635 171.278 445.372 171.075 445.18 170.819C444.988 170.557 444.883 170.26 444.864 169.926L445.804 169.936C445.829 170.21 445.955 170.434 446.181 170.61C446.414 170.786 446.717 170.876 447.09 170.88C447.436 170.883 447.71 170.809 447.911 170.658C448.111 170.507 448.212 170.315 448.213 170.081C448.214 169.841 448.109 169.664 447.896 169.548C447.683 169.426 447.353 169.306 446.907 169.188C446.501 169.077 446.168 168.966 445.909 168.857C445.656 168.741 445.437 168.575 445.251 168.36C445.072 168.138 444.983 167.851 444.985 167.497C444.986 167.217 445.071 166.961 445.238 166.73C445.406 166.498 445.643 166.317 445.951 166.187C446.258 166.051 446.608 165.984 447.001 165.988C447.608 165.995 448.097 166.153 448.469 166.464C448.841 166.775 449.039 167.197 449.064 167.73L448.154 167.721C448.135 167.434 448.019 167.203 447.807 167.027C447.601 166.851 447.321 166.762 446.968 166.758C446.641 166.755 446.381 166.822 446.187 166.96C445.993 167.098 445.896 167.28 445.895 167.507C445.894 167.687 445.95 167.837 446.063 167.959C446.182 168.073 446.328 168.168 446.501 168.243C446.681 168.312 446.928 168.391 447.24 168.481C447.633 168.592 447.953 168.702 448.199 168.811C448.445 168.914 448.654 169.069 448.827 169.278C449.006 169.486 449.098 169.757 449.103 170.091C449.102 170.391 449.017 170.66 448.85 170.898C448.682 171.136 448.445 171.324 448.137 171.461C447.837 171.591 447.49 171.654 447.096 171.65ZM451.512 166.876L451.498 170.106C451.497 170.373 451.552 170.563 451.665 170.678C451.778 170.786 451.975 170.841 452.255 170.844L452.925 170.851L452.921 171.621L452.101 171.612C451.594 171.607 451.215 171.486 450.963 171.25C450.71 171.014 450.586 170.63 450.588 170.096L450.602 166.866L449.892 166.859L449.896 166.109L450.605 166.116L450.612 164.736L451.522 164.746L451.515 166.126L452.945 166.141L452.942 166.891L451.512 166.876ZM454.522 165.268C454.348 165.266 454.202 165.204 454.083 165.083C453.963 164.962 453.904 164.815 453.905 164.641C453.905 164.468 453.966 164.322 454.087 164.203C454.207 164.084 454.354 164.026 454.527 164.028C454.694 164.03 454.834 164.091 454.946 164.212C455.066 164.333 455.125 164.481 455.125 164.654C455.124 164.827 455.063 164.973 454.943 165.092C454.829 165.211 454.688 165.27 454.522 165.268ZM454.958 166.162L454.934 171.642L454.024 171.633L454.048 166.153L454.958 166.162ZM458.874 171.774C458.361 171.768 457.894 171.647 457.476 171.409C457.063 171.171 456.738 170.838 456.5 170.409C456.269 169.973 456.154 169.472 456.157 168.905C456.159 168.345 456.281 167.853 456.523 167.429C456.772 166.998 457.106 166.672 457.527 166.45C457.948 166.221 458.419 166.109 458.939 166.114C459.459 166.12 459.928 166.241 460.347 166.479C460.766 166.71 461.095 167.04 461.333 167.47C461.578 167.899 461.699 168.397 461.696 168.964C461.694 169.53 461.565 170.029 461.31 170.46C461.061 170.884 460.723 171.21 460.295 171.439C459.868 171.668 459.394 171.779 458.874 171.774ZM458.877 170.974C459.204 170.977 459.511 170.904 459.798 170.754C460.086 170.603 460.317 170.376 460.491 170.071C460.673 169.766 460.764 169.394 460.766 168.954C460.768 168.514 460.683 168.14 460.511 167.831C460.339 167.523 460.114 167.293 459.834 167.144C459.555 166.988 459.252 166.908 458.925 166.904C458.592 166.901 458.285 166.974 458.004 167.125C457.731 167.268 457.51 167.493 457.342 167.798C457.173 168.102 457.089 168.475 457.087 168.915C457.085 169.362 457.163 169.739 457.322 170.047C457.487 170.356 457.706 170.588 457.978 170.744C458.251 170.894 458.551 170.97 458.877 170.974ZM465.575 166.174C466.242 166.181 466.781 166.39 467.192 166.801C467.604 167.206 467.808 167.788 467.805 168.548L467.79 171.778L466.89 171.768L466.904 168.668C466.906 168.122 466.772 167.704 466.5 167.414C466.228 167.118 465.855 166.967 465.382 166.962C464.902 166.957 464.518 167.103 464.23 167.4C463.948 167.697 463.806 168.132 463.804 168.706L463.79 171.736L462.881 171.726L462.905 166.246L463.815 166.256L463.811 167.036C463.993 166.758 464.237 166.544 464.544 166.394C464.858 166.243 465.202 166.17 465.575 166.174Z" fill="#483EA8"/>
<circle cx="928" cy="170" r="4" fill="#FFF3F3"/>
<path d="M929.971 168.573H929.441C929.433 168.57 929.426 168.569 929.419 168.568H928.853V168.127C928.853 168.094 928.839 168.062 928.815 168.038C928.79 168.014 928.757 168.001 928.722 168H927.385C927.349 168 927.315 168.013 927.289 168.037C927.264 168.061 927.25 168.093 927.25 168.127V168.568H926.688C926.68 168.569 926.673 168.57 926.666 168.573H926.135C926.087 168.573 926.042 168.597 926.018 168.636C925.994 168.675 925.994 168.723 926.018 168.763C926.042 168.802 926.087 168.826 926.135 168.826H926.567L926.917 171.887C926.92 171.918 926.936 171.947 926.961 171.968C926.986 171.988 927.018 172 927.051 172H929.057C929.09 172 929.121 171.988 929.146 171.967C929.17 171.946 929.186 171.918 929.189 171.887L929.539 168.831H929.971C930.02 168.831 930.064 168.806 930.088 168.767C930.112 168.728 930.112 168.68 930.088 168.64C930.064 168.601 930.02 168.577 929.971 168.577L929.971 168.573ZM927.522 168.253H928.584V168.568H927.522V168.253ZM928.934 171.745H927.172L926.837 168.831H929.269L928.934 171.745Z" fill="#E41D1D"/>
<path d="M928.054 171.444C928.089 171.444 928.124 171.431 928.149 171.407C928.174 171.383 928.188 171.351 928.188 171.317V169.25C928.188 169.205 928.163 169.163 928.121 169.14C928.079 169.117 928.028 169.117 927.986 169.14C927.945 169.163 927.919 169.205 927.919 169.25V171.317C927.919 171.351 927.933 171.383 927.958 171.407C927.984 171.431 928.018 171.444 928.054 171.444H928.054Z" fill="#E41D1D"/>
<path d="M927.523 171.443H927.528C927.564 171.442 927.597 171.427 927.621 171.403C927.646 171.378 927.658 171.346 927.657 171.312L927.576 169.245L927.576 169.245C927.575 169.211 927.56 169.179 927.533 169.156C927.507 169.133 927.472 169.121 927.436 169.123C927.4 169.125 927.367 169.139 927.342 169.164C927.318 169.188 927.305 169.221 927.307 169.255L927.388 171.322C927.39 171.355 927.404 171.385 927.43 171.408C927.455 171.43 927.488 171.443 927.523 171.443L927.523 171.443Z" fill="#E41D1D"/>
<path d="M928.579 171.445H928.584C928.62 171.445 928.654 171.433 928.68 171.41C928.706 171.387 928.721 171.356 928.722 171.322L928.804 169.255H928.804C928.805 169.221 928.792 169.189 928.768 169.164C928.744 169.14 928.71 169.125 928.675 169.124C928.638 169.12 928.602 169.131 928.575 169.154C928.548 169.177 928.532 169.21 928.531 169.244L928.449 171.312H928.449C928.448 171.345 928.46 171.379 928.485 171.404C928.509 171.429 928.543 171.443 928.579 171.445L928.579 171.445Z" fill="#E41D1D"/>
</svg>
