<svg width="20" height="20" viewBox="0 0 20 20" fill="none" xmlns="http://www.w3.org/2000/svg">
<path d="M4.63545 20H15.3645C17.9222 20 20 17.9271 20 15.383L19.9989 4.61702C19.9989 2.06954 17.9177 0 15.3634 0H4.63547C2.07782 0 0 2.0729 0 4.61702V15.3841C0 17.9283 2.08116 20 4.63545 20ZM1.68244 4.61702C1.68244 2.99471 3.00564 1.67577 4.63545 1.67577H15.3645C16.9933 1.67577 18.3175 2.9937 18.3175 4.61702V15.3841C18.3175 17.0064 16.9943 18.3254 15.3645 18.3254L4.63545 18.3243C3.00665 18.3243 1.68244 17.0063 1.68244 15.383V4.61702Z" fill="black" fill-opacity="0.64"/>
<path d="M10 15C12.7573 15 15 12.7561 15 10C15 7.24274 12.7572 5 10 5C7.24277 5 5 7.24277 5 10C5 12.7572 7.24277 15 10 15ZM10 6.71047C11.8129 6.71047 13.2895 8.1871 13.2895 10C13.2895 11.8129 11.8129 13.2895 10 13.2895C8.1871 13.2895 6.71047 11.8129 6.71047 10C6.71047 8.1871 8.1871 6.71047 10 6.71047Z" fill="black" fill-opacity="0.64"/>
<path d="M16.3796 3.08723C17.6018 3.59161 16.8423 5.41657 15.62 4.913C14.3986 4.40862 15.1574 2.58283 16.3796 3.08723Z" fill="black" fill-opacity="0.64"/>
</svg>
