<svg width="37" height="36" viewBox="0 0 37 36" fill="none" xmlns="http://www.w3.org/2000/svg">
<path d="M27.2657 16.1164C26.8076 15.6311 26.0289 15.6013 25.5303 16.046L15.523 24.9879C15.5169 24.9938 15.5144 25.0022 15.5083 25.0081C15.4186 25.0916 15.3536 25.1941 15.2934 25.3002C15.275 25.3336 15.2442 25.3586 15.2283 25.3932C15.1632 25.5387 15.1263 25.6972 15.1263 25.8653C15.1263 26.0334 15.1632 26.192 15.2283 26.3375C15.2442 26.372 15.2737 26.3971 15.2934 26.4305C15.3536 26.5366 15.4186 26.6391 15.5083 26.7226C15.5144 26.7285 15.5169 26.7369 15.523 26.7428L25.5315 35.6847C25.7661 35.8957 26.0657 35.9994 26.363 35.9994C26.6946 35.9994 27.025 35.8707 27.2657 35.6143C27.725 35.1303 27.6943 34.3756 27.1932 33.9297L19.5023 27.0564H29.1595C29.8387 27.0564 30.3877 26.5223 30.3877 25.8642C30.3877 25.206 29.8387 24.6719 29.1595 24.6719H19.5023L27.1944 17.7986C27.6931 17.3527 27.725 16.598 27.2657 16.114V16.1164Z" fill="#483EA8"/>
<path d="M35.725 24.6758H33.8827C33.2035 24.6758 32.6545 25.2099 32.6545 25.868C32.6545 26.5261 33.2035 27.0603 33.8827 27.0603H35.725C36.4042 27.0603 36.9532 26.5261 36.9532 25.868C36.9532 25.2099 36.4042 24.6758 35.725 24.6758Z" fill="#483EA8"/>
<path d="M3.07045 11.3269C3.74964 11.3269 4.29863 10.7927 4.29863 10.1346C4.29863 9.47651 3.74964 8.94238 3.07045 8.94238H1.22818C0.548997 8.94238 0 9.47651 0 10.1346C0 10.7927 0.548997 11.3269 1.22818 11.3269H3.07045Z" fill="#483EA8"/>
<path d="M6.5636 10.1343C6.5636 10.7924 7.1126 11.3266 7.79178 11.3266H17.449L9.75687 18.1999C9.25823 18.6458 9.22629 19.4004 9.68563 19.8845C9.92636 20.1396 10.258 20.2696 10.5883 20.2696C10.8856 20.2696 11.184 20.1659 11.4211 19.9548L21.4283 11.013C21.4344 11.007 21.4369 10.9987 21.443 10.9927C21.5327 10.9093 21.5978 10.8056 21.6579 10.6994C21.6764 10.6673 21.7058 10.6422 21.7218 10.6076C21.7869 10.4622 21.8237 10.3036 21.8237 10.1355C21.8237 9.9674 21.7869 9.80884 21.7218 9.66338C21.7071 9.62881 21.6764 9.60377 21.6579 9.57158C21.5978 9.46428 21.5327 9.36174 21.443 9.27829C21.4369 9.27233 21.4344 9.26398 21.4283 9.25802L11.4198 0.314993C10.9249 -0.129714 10.145 -0.1011 9.68563 0.385335C9.22629 0.869387 9.257 1.62408 9.7581 2.06998L17.449 8.94327H7.79178C7.1126 8.94327 6.5636 9.4762 6.5636 10.1343Z" fill="#483EA8"/>
</svg>
