<svg width="24" height="24" viewBox="0 0 24 24" fill="none" xmlns="http://www.w3.org/2000/svg">
<path d="M22.8782 7C22.5807 7 22.2954 6.88181 22.085 6.67143C21.8746 6.46106 21.7564 6.17572 21.7564 5.8782V2.24359H18.1218C17.8243 2.24359 17.5389 2.1254 17.3286 1.91502C17.1182 1.70465 17 1.41931 17 1.12179C17 0.824276 17.1182 0.538944 17.3286 0.328567C17.5389 0.118189 17.8243 0 18.1218 0H22.8782C23.1757 0 23.4611 0.118189 23.6714 0.328567C23.8818 0.538944 24 0.824276 24 1.12179V5.8782C24 6.17572 23.8818 6.46106 23.6714 6.67143C23.4611 6.88181 23.1757 7 22.8782 7Z" fill="#483EA8"/>
<path d="M1.15385 18C0.847827 18 0.554342 17.8839 0.337954 17.6772C0.121565 17.4705 0 17.1902 0 16.898V3.30612C0 2.42928 0.364697 1.58836 1.01386 0.968341C1.66303 0.348323 2.54348 0 3.46154 0H13.8462C14.1522 0 14.4457 0.116107 14.662 0.32278C14.8784 0.529453 15 0.809761 15 1.10204C15 1.39432 14.8784 1.67463 14.662 1.8813C14.4457 2.08797 14.1522 2.20408 13.8462 2.20408H3.46154C3.15552 2.20408 2.86203 2.32019 2.64565 2.52686C2.42926 2.73353 2.30769 3.01384 2.30769 3.30612V16.898C2.30769 17.1902 2.18613 17.4705 1.96974 17.6772C1.75335 17.8839 1.45987 18 1.15385 18Z" fill="#483EA8"/>
<path d="M20.6249 24H1.12406C0.901688 23.9998 0.684364 23.9354 0.499533 23.8149C0.314702 23.6944 0.170655 23.5232 0.0855841 23.323C0.000513519 23.1227 -0.0217645 22.9024 0.0215639 22.6898C0.0648923 22.4772 0.171883 22.2819 0.329024 22.1286L21.7049 1.2943C21.9182 1.10061 22.2003 0.995159 22.4917 1.00017C22.7832 1.00518 23.0613 1.12026 23.2674 1.32117C23.4735 1.52207 23.5916 1.79312 23.5967 2.0772C23.6019 2.36128 23.4937 2.63621 23.295 2.84408L3.83917 21.8069H20.6249C20.9232 21.8069 21.2094 21.6914 21.4204 21.4858C21.6314 21.2801 21.7499 21.0012 21.7499 20.7104V10.8415C21.7499 10.5507 21.8684 10.2718 22.0794 10.0661C22.2904 9.8605 22.5766 9.74497 22.875 9.74497C23.1733 9.74497 23.4595 9.8605 23.6705 10.0661C23.8815 10.2718 24 10.5507 24 10.8415V20.7104C24 21.5828 23.6444 22.4196 23.0114 23.0365C22.3785 23.6534 21.52 24 20.6249 24Z" fill="#483EA8"/>
</svg>
