<svg width="521" height="213" viewBox="0 0 521 213" fill="none" xmlns="http://www.w3.org/2000/svg">
<rect width="493" height="213" rx="8" fill="#D9D9D9" fill-opacity="0.26"/>
<rect x="0.25" y="0.25" width="492.5" height="212.5" rx="7.75" stroke="black" stroke-opacity="0.2" stroke-width="0.5"/>
<mask id="path-3-inside-1_2942_2324" fill="white">
<path d="M20 30C20 25.5817 23.5817 22 28 22H468C472.418 22 476 25.5817 476 30V212H20V30Z"/>
</mask>
<path d="M20 30C20 25.5817 23.5817 22 28 22H468C472.418 22 476 25.5817 476 30V212H20V30Z" fill="white"/>
<path d="M19 30C19 25.0294 23.0294 21 28 21H468C472.971 21 477 25.0294 477 30H475C475 26.134 471.866 23 468 23H28C24.134 23 21 26.134 21 30H19ZM476 212H20H476ZM19 212V30C19 25.0294 23.0294 21 28 21V23C24.134 23 21 26.134 21 30V212H19ZM468 21C472.971 21 477 25.0294 477 30V212H475V30C475 26.134 471.866 23 468 23V21Z" fill="black" fill-opacity="0.25" mask="url(#path-3-inside-1_2942_2324)"/>
<path d="M49.36 62.144C47.9733 62.144 46.864 61.8133 46.032 61.152C45.2 60.4907 44.7147 59.5467 44.576 58.32H46.224C46.32 59.12 46.64 59.728 47.184 60.144C47.728 60.56 48.464 60.768 49.392 60.768C50.1707 60.768 50.7573 60.624 51.152 60.336C51.5573 60.048 51.76 59.6373 51.76 59.104C51.76 58.624 51.6267 58.2453 51.36 57.968C51.0933 57.68 50.672 57.4453 50.096 57.264L48.096 56.624C47.072 56.2933 46.32 55.8773 45.84 55.376C45.36 54.8747 45.12 54.24 45.12 53.472C45.12 52.8213 45.28 52.2613 45.6 51.792C45.9307 51.3227 46.3893 50.96 46.976 50.704C47.5733 50.4373 48.2667 50.304 49.056 50.304C50.272 50.304 51.2427 50.6133 51.968 51.232C52.704 51.84 53.1253 52.688 53.232 53.776H51.584C51.456 53.0507 51.1787 52.5227 50.752 52.192C50.3253 51.8507 49.7387 51.68 48.992 51.68C48.288 51.68 47.7387 51.8187 47.344 52.096C46.9493 52.3733 46.752 52.7627 46.752 53.264C46.752 53.6693 46.88 54.0107 47.136 54.288C47.4027 54.5547 47.84 54.784 48.448 54.976L50.544 55.648C51.5147 55.9573 52.2293 56.3787 52.688 56.912C53.1573 57.4453 53.392 58.1173 53.392 58.928C53.392 59.952 53.04 60.7467 52.336 61.312C51.632 61.8667 50.64 62.144 49.36 62.144ZM58.6255 62.16C57.8042 62.16 57.0788 61.9787 56.4495 61.616C55.8308 61.2533 55.3455 60.752 54.9935 60.112C54.6415 59.472 54.4655 58.736 54.4655 57.904C54.4655 57.0613 54.6362 56.3253 54.9775 55.696C55.3295 55.056 55.8202 54.56 56.4495 54.208C57.0788 53.856 57.7988 53.68 58.6095 53.68C59.3988 53.68 60.0815 53.8507 60.6575 54.192C61.2442 54.5227 61.6922 54.9867 62.0015 55.584C62.3215 56.1813 62.4815 56.8907 62.4815 57.712C62.4815 57.84 62.4762 57.9627 62.4655 58.08C62.4655 58.1867 62.4548 58.2987 62.4335 58.416H55.5855V57.168H61.2655L60.8495 57.664C60.8495 56.7893 60.6522 56.1227 60.2575 55.664C59.8628 55.2053 59.3135 54.976 58.6095 54.976C57.8522 54.976 57.2495 55.2373 56.8015 55.76C56.3642 56.272 56.1455 56.9867 56.1455 57.904C56.1455 58.832 56.3642 59.5573 56.8015 60.08C57.2495 60.6027 57.8682 60.864 58.6575 60.864C59.1375 60.864 59.5535 60.768 59.9055 60.576C60.2575 60.3733 60.5188 60.08 60.6895 59.696H62.2575C61.9908 60.464 61.5375 61.0667 60.8975 61.504C60.2682 61.9413 59.5108 62.16 58.6255 62.16ZM67.515 62.16C66.5657 62.16 65.867 61.9413 65.419 61.504C64.9817 61.056 64.763 60.4 64.763 59.536V51.968L66.411 51.344V59.552C66.411 59.9787 66.523 60.2933 66.747 60.496C66.971 60.6987 67.3337 60.8 67.835 60.8C68.027 60.8 68.1977 60.784 68.347 60.752C68.4963 60.72 68.6243 60.6827 68.731 60.64V61.984C68.6137 62.0373 68.4483 62.08 68.235 62.112C68.0217 62.144 67.7817 62.16 67.515 62.16ZM63.131 55.168V53.84H68.731V55.168H63.131ZM73.4809 62V50.48H78.3609C79.1929 50.48 79.9022 50.6187 80.4889 50.896C81.0755 51.1733 81.5235 51.568 81.8329 52.08C82.1529 52.592 82.3129 53.2 82.3129 53.904C82.3129 54.6187 82.1529 55.2373 81.8329 55.76C81.5235 56.272 81.0702 56.672 80.4729 56.96C79.8862 57.248 79.1822 57.392 78.3609 57.392H74.7769V55.984H78.2809C79.0382 55.984 79.6142 55.8027 80.0089 55.44C80.4142 55.0773 80.6169 54.5707 80.6169 53.92C80.6169 53.2587 80.4195 52.752 80.0249 52.4C79.6302 52.048 79.0489 51.872 78.2809 51.872H75.1769V62H73.4809ZM88.6146 62C88.5613 61.7973 88.524 61.5733 88.5026 61.328C88.492 61.0827 88.4866 60.784 88.4866 60.432H88.4066V56.544C88.4066 56.0213 88.2733 55.632 88.0066 55.376C87.7506 55.1093 87.34 54.976 86.7746 54.976C86.2306 54.976 85.7933 55.0827 85.4626 55.296C85.1426 55.5093 84.956 55.8133 84.9026 56.208H83.3186C83.3933 55.44 83.74 54.8267 84.3586 54.368C84.9773 53.9093 85.804 53.68 86.8386 53.68C87.9053 53.68 88.7053 53.9307 89.2386 54.432C89.772 54.9227 90.0386 55.648 90.0386 56.608V60.432C90.0386 60.6773 90.0546 60.928 90.0866 61.184C90.1186 61.44 90.1666 61.712 90.2306 62H88.6146ZM85.7986 62.16C84.9666 62.16 84.3053 61.9573 83.8146 61.552C83.324 61.136 83.0786 60.576 83.0786 59.872C83.0786 59.1467 83.3346 58.576 83.8466 58.16C84.3693 57.7333 85.116 57.4453 86.0866 57.296L88.7746 56.864V58.032L86.3426 58.416C85.7986 58.5013 85.388 58.6453 85.1106 58.848C84.844 59.0507 84.7106 59.344 84.7106 59.728C84.7106 60.1013 84.8333 60.384 85.0786 60.576C85.3346 60.7573 85.7026 60.848 86.1826 60.848C86.8226 60.848 87.3506 60.6933 87.7666 60.384C88.1933 60.0747 88.4066 59.6853 88.4066 59.216L88.6146 60.4C88.4226 60.9653 88.0813 61.4027 87.5906 61.712C87.1 62.0107 86.5026 62.16 85.7986 62.16ZM95.1432 62.16C94.0766 62.16 93.2286 61.9253 92.5993 61.456C91.9699 60.9867 91.6126 60.3253 91.5273 59.472H93.0633C93.1379 59.9413 93.3513 60.304 93.7033 60.56C94.0659 60.8053 94.5566 60.928 95.1753 60.928C95.7193 60.928 96.1353 60.832 96.4233 60.64C96.7113 60.448 96.8553 60.176 96.8553 59.824C96.8553 59.568 96.7699 59.3547 96.5993 59.184C96.4393 59.0027 96.1193 58.8533 95.6393 58.736L94.3273 58.432C93.5059 58.2293 92.8926 57.9307 92.4873 57.536C92.0926 57.1307 91.8953 56.6347 91.8953 56.048C91.8953 55.312 92.1673 54.736 92.7113 54.32C93.2659 53.8933 94.0233 53.68 94.9833 53.68C95.9326 53.68 96.6953 53.8933 97.2713 54.32C97.8579 54.7467 98.1886 55.344 98.2633 56.112H96.7273C96.6633 55.728 96.4766 55.4347 96.1673 55.232C95.8686 55.0187 95.4579 54.912 94.9353 54.912C94.4446 54.912 94.0659 55.0027 93.7993 55.184C93.5433 55.3547 93.4153 55.5947 93.4153 55.904C93.4153 56.16 93.5113 56.3733 93.7033 56.544C93.9059 56.7147 94.2366 56.8587 94.6953 56.976L96.0393 57.312C96.8179 57.504 97.4046 57.8187 97.7993 58.256C98.1939 58.6827 98.3913 59.2 98.3913 59.808C98.3913 60.544 98.1033 61.12 97.5273 61.536C96.9619 61.952 96.1673 62.16 95.1432 62.16ZM103.018 62.16C101.952 62.16 101.104 61.9253 100.474 61.456C99.8449 60.9867 99.4876 60.3253 99.4023 59.472H100.938C101.013 59.9413 101.226 60.304 101.578 60.56C101.941 60.8053 102.432 60.928 103.05 60.928C103.594 60.928 104.01 60.832 104.298 60.64C104.586 60.448 104.73 60.176 104.73 59.824C104.73 59.568 104.645 59.3547 104.474 59.184C104.314 59.0027 103.994 58.8533 103.514 58.736L102.202 58.432C101.381 58.2293 100.768 57.9307 100.362 57.536C99.9676 57.1307 99.7703 56.6347 99.7703 56.048C99.7703 55.312 100.042 54.736 100.586 54.32C101.141 53.8933 101.898 53.68 102.858 53.68C103.808 53.68 104.57 53.8933 105.146 54.32C105.733 54.7467 106.064 55.344 106.138 56.112H104.602C104.538 55.728 104.352 55.4347 104.042 55.232C103.744 55.0187 103.333 54.912 102.81 54.912C102.32 54.912 101.941 55.0027 101.674 55.184C101.418 55.3547 101.29 55.5947 101.29 55.904C101.29 56.16 101.386 56.3733 101.578 56.544C101.781 56.7147 102.112 56.8587 102.57 56.976L103.914 57.312C104.693 57.504 105.28 57.8187 105.674 58.256C106.069 58.6827 106.266 59.2 106.266 59.808C106.266 60.544 105.978 61.12 105.402 61.536C104.837 61.952 104.042 62.16 103.018 62.16ZM109.442 62L106.946 53.84H108.658L110.354 60.4H110.114L112.178 53.84H113.618L115.682 60.4H115.458L117.138 53.84H118.77L116.274 62H114.818L112.754 55.552H112.994L110.898 62H109.442ZM123.673 62.16C122.841 62.16 122.11 61.9787 121.481 61.616C120.852 61.2427 120.361 60.736 120.009 60.096C119.657 59.4453 119.481 58.7093 119.481 57.888C119.481 57.056 119.657 56.3253 120.009 55.696C120.372 55.0667 120.862 54.576 121.481 54.224C122.11 53.8613 122.841 53.68 123.673 53.68C124.516 53.68 125.252 53.8613 125.881 54.224C126.51 54.576 126.996 55.0667 127.337 55.696C127.689 56.3253 127.865 57.056 127.865 57.888C127.865 58.7093 127.689 59.4453 127.337 60.096C126.996 60.736 126.51 61.2427 125.881 61.616C125.252 61.9787 124.516 62.16 123.673 62.16ZM123.673 60.8C124.174 60.8 124.606 60.6773 124.969 60.432C125.342 60.1867 125.636 59.8453 125.849 59.408C126.062 58.9707 126.169 58.4587 126.169 57.872C126.169 56.9973 125.934 56.3093 125.465 55.808C125.006 55.296 124.409 55.04 123.673 55.04C122.948 55.04 122.35 55.296 121.881 55.808C121.422 56.32 121.193 57.008 121.193 57.872C121.193 58.4587 121.294 58.9707 121.497 59.408C121.71 59.8453 122.004 60.1867 122.377 60.432C122.761 60.6773 123.193 60.8 123.673 60.8ZM129.574 62V53.84H131.158V55.872H131.238V62H129.574ZM131.238 57.744L131.03 55.808C131.222 55.1147 131.553 54.5867 132.022 54.224C132.492 53.8613 133.052 53.68 133.702 53.68C133.948 53.68 134.118 53.7013 134.214 53.744V55.312C134.161 55.2907 134.086 55.28 133.99 55.28C133.894 55.2693 133.777 55.264 133.638 55.264C132.838 55.264 132.236 55.472 131.83 55.888C131.436 56.304 131.238 56.9227 131.238 57.744ZM141.369 62V60.128L141.529 60.176C141.358 60.784 141.006 61.2693 140.473 61.632C139.939 61.984 139.299 62.16 138.553 62.16C137.817 62.16 137.171 61.984 136.617 61.632C136.073 61.28 135.646 60.7893 135.337 60.16C135.038 59.5307 134.889 58.7947 134.889 57.952C134.889 57.0987 135.043 56.352 135.353 55.712C135.662 55.072 136.094 54.576 136.649 54.224C137.203 53.872 137.854 53.696 138.601 53.696C139.379 53.696 140.019 53.8827 140.521 54.256C141.033 54.6187 141.369 55.1307 141.529 55.792L141.305 55.824V50.48H142.953V62H141.369ZM138.969 60.768C139.705 60.768 140.286 60.5173 140.713 60.016C141.139 59.504 141.353 58.8 141.353 57.904C141.353 57.0293 141.134 56.3413 140.697 55.84C140.27 55.328 139.689 55.072 138.953 55.072C138.227 55.072 137.651 55.328 137.225 55.84C136.809 56.3413 136.601 57.0453 136.601 57.952C136.601 58.8373 136.809 59.5307 137.225 60.032C137.651 60.5227 138.233 60.768 138.969 60.768Z" fill="#483EA8" fill-opacity="0.78"/>
<rect x="44" y="92" width="409" height="30" rx="2" fill="white"/>
<rect x="44.5" y="92.5" width="408" height="29" rx="1.5" stroke="black" stroke-opacity="0.1"/>
<rect x="44" y="140" width="409" height="30" rx="2" fill="white"/>
<rect x="44.5" y="140.5" width="408" height="29" rx="1.5" stroke="black" stroke-opacity="0.1"/>
<g opacity="0.42">
<mask id="path-10-inside-2_2942_2324" fill="white">
<path d="M44 190C44 188.895 44.8954 188 46 188H129C130.105 188 131 188.895 131 190V208H44V190Z"/>
</mask>
<path d="M44 190C44 188.895 44.8954 188 46 188H129C130.105 188 131 188.895 131 190V208H44V190Z" fill="white"/>
<path d="M43 190C43 188.343 44.3431 187 46 187H129C130.657 187 132 188.343 132 190H130C130 189.448 129.552 189 129 189H46C45.4477 189 45 189.448 45 190H43ZM131 208H44H131ZM43 208V190C43 188.343 44.3431 187 46 187V189C45.4477 189 45 189.448 45 190V208H43ZM129 187C130.657 187 132 188.343 132 190V208H130V190C130 189.448 129.552 189 129 189V187Z" fill="black" fill-opacity="0.1" mask="url(#path-10-inside-2_2942_2324)"/>
<path d="M74.92 206.07C74.46 206.07 74.0533 205.99 73.7 205.83C73.3533 205.67 73.08 205.447 72.88 205.16C72.68 204.873 72.5733 204.553 72.56 204.2H73.3C73.3333 204.54 73.4833 204.84 73.75 205.1C74.0167 205.353 74.4067 205.48 74.92 205.48C75.3933 205.48 75.7667 205.36 76.04 205.12C76.32 204.873 76.46 204.563 76.46 204.19C76.46 203.89 76.3833 203.65 76.23 203.47C76.0767 203.283 75.8867 203.147 75.66 203.06C75.4333 202.967 75.12 202.867 74.72 202.76C74.2533 202.633 73.8833 202.51 73.61 202.39C73.3367 202.27 73.1033 202.083 72.91 201.83C72.7167 201.577 72.62 201.233 72.62 200.8C72.62 200.44 72.7133 200.12 72.9 199.84C73.0867 199.553 73.35 199.33 73.69 199.17C74.03 199.01 74.42 198.93 74.86 198.93C75.5067 198.93 76.0267 199.09 76.42 199.41C76.82 199.723 77.05 200.13 77.11 200.63H76.35C76.3033 200.343 76.1467 200.09 75.88 199.87C75.6133 199.643 75.2533 199.53 74.8 199.53C74.38 199.53 74.03 199.643 73.75 199.87C73.47 200.09 73.33 200.393 73.33 200.78C73.33 201.073 73.4067 201.31 73.56 201.49C73.7133 201.67 73.9033 201.807 74.13 201.9C74.3633 201.993 74.6767 202.093 75.07 202.2C75.5233 202.327 75.89 202.453 76.17 202.58C76.45 202.7 76.6867 202.887 76.88 203.14C77.0733 203.393 77.17 203.733 77.17 204.16C77.17 204.487 77.0833 204.797 76.91 205.09C76.7367 205.383 76.48 205.62 76.14 205.8C75.8 205.98 75.3933 206.07 74.92 206.07ZM78.2027 203.26C78.2027 202.7 78.3127 202.21 78.5327 201.79C78.7593 201.363 79.0693 201.037 79.4627 200.81C79.8627 200.577 80.3127 200.46 80.8127 200.46C81.3327 200.46 81.7793 200.58 82.1527 200.82C82.5327 201.06 82.806 201.367 82.9727 201.74V200.54H83.6727V206H82.9727V204.79C82.7993 205.163 82.5227 205.473 82.1427 205.72C81.7693 205.96 81.3227 206.08 80.8027 206.08C80.3093 206.08 79.8627 205.963 79.4627 205.73C79.0693 205.497 78.7593 205.167 78.5327 204.74C78.3127 204.313 78.2027 203.82 78.2027 203.26ZM82.9727 203.27C82.9727 202.83 82.8827 202.443 82.7027 202.11C82.5227 201.777 82.276 201.52 81.9627 201.34C81.656 201.16 81.316 201.07 80.9427 201.07C80.556 201.07 80.2093 201.157 79.9027 201.33C79.596 201.503 79.3527 201.757 79.1727 202.09C78.9993 202.417 78.9127 202.807 78.9127 203.26C78.9127 203.707 78.9993 204.1 79.1727 204.44C79.3527 204.773 79.596 205.03 79.9027 205.21C80.2093 205.383 80.556 205.47 80.9427 205.47C81.316 205.47 81.656 205.38 81.9627 205.2C82.276 205.02 82.5227 204.763 82.7027 204.43C82.8827 204.097 82.9727 203.71 82.9727 203.27ZM87.2107 205.32L89.0507 200.54H89.7907L87.6007 206H86.8107L84.6207 200.54H85.3707L87.2107 205.32ZM95.6795 202.99C95.6795 203.23 95.6728 203.413 95.6595 203.54H91.1295C91.1495 203.953 91.2495 204.307 91.4295 204.6C91.6095 204.893 91.8461 205.117 92.1395 205.27C92.4328 205.417 92.7528 205.49 93.0995 205.49C93.5528 205.49 93.9328 205.38 94.2395 205.16C94.5528 204.94 94.7595 204.643 94.8595 204.27H95.5995C95.4661 204.803 95.1795 205.24 94.7395 205.58C94.3061 205.913 93.7595 206.08 93.0995 206.08C92.5861 206.08 92.1261 205.967 91.7195 205.74C91.3128 205.507 90.9928 205.18 90.7595 204.76C90.5328 204.333 90.4195 203.837 90.4195 203.27C90.4195 202.703 90.5328 202.207 90.7595 201.78C90.9861 201.353 91.3028 201.027 91.7095 200.8C92.1161 200.573 92.5795 200.46 93.0995 200.46C93.6195 200.46 94.0728 200.573 94.4595 200.8C94.8528 201.027 95.1528 201.333 95.3595 201.72C95.5728 202.1 95.6795 202.523 95.6795 202.99ZM94.9695 202.97C94.9761 202.563 94.8928 202.217 94.7195 201.93C94.5528 201.643 94.3228 201.427 94.0295 201.28C93.7361 201.133 93.4161 201.06 93.0695 201.06C92.5495 201.06 92.1061 201.227 91.7395 201.56C91.3728 201.893 91.1695 202.363 91.1295 202.97H94.9695Z" fill="#483EA8"/>
</g>
<path d="M332.85 58.34H329.67L329.06 60H328.32L330.87 53.1H331.66L334.2 60H333.46L332.85 58.34ZM332.64 57.76L331.26 53.98L329.88 57.76H332.64ZM340.053 54.54V60H339.353V59.04C339.193 59.38 338.947 59.64 338.613 59.82C338.28 60 337.907 60.09 337.493 60.09C336.84 60.09 336.307 59.89 335.893 59.49C335.48 59.0833 335.273 58.4967 335.273 57.73V54.54H335.963V57.65C335.963 58.2433 336.11 58.6967 336.403 59.01C336.703 59.3233 337.11 59.48 337.623 59.48C338.15 59.48 338.57 59.3133 338.883 58.98C339.197 58.6467 339.353 58.1567 339.353 57.51V54.54H340.053ZM342.562 55.13V58.52C342.562 58.8533 342.625 59.0833 342.752 59.21C342.878 59.3367 343.102 59.4 343.422 59.4H344.062V60H343.312C342.818 60 342.452 59.8867 342.212 59.66C341.972 59.4267 341.852 59.0467 341.852 58.52V55.13H341.092V54.54H341.852V53.17H342.562V54.54H344.062V55.13H342.562ZM347.606 60.08C347.093 60.08 346.629 59.9667 346.216 59.74C345.809 59.5067 345.486 59.18 345.246 58.76C345.013 58.3333 344.896 57.8367 344.896 57.27C344.896 56.7033 345.016 56.21 345.256 55.79C345.496 55.3633 345.823 55.0367 346.236 54.81C346.649 54.5767 347.113 54.46 347.626 54.46C348.139 54.46 348.603 54.5767 349.016 54.81C349.436 55.0367 349.763 55.3633 349.996 55.79C350.236 56.21 350.356 56.7033 350.356 57.27C350.356 57.83 350.236 58.3233 349.996 58.75C349.756 59.1767 349.426 59.5067 349.006 59.74C348.586 59.9667 348.119 60.08 347.606 60.08ZM347.606 59.47C347.966 59.47 348.299 59.39 348.606 59.23C348.913 59.0633 349.159 58.8167 349.346 58.49C349.539 58.1567 349.636 57.75 349.636 57.27C349.636 56.79 349.543 56.3867 349.356 56.06C349.169 55.7267 348.923 55.48 348.616 55.32C348.309 55.1533 347.976 55.07 347.616 55.07C347.256 55.07 346.923 55.1533 346.616 55.32C346.309 55.48 346.063 55.7267 345.876 56.06C345.696 56.3867 345.606 56.79 345.606 57.27C345.606 57.75 345.696 58.1567 345.876 58.49C346.063 58.8167 346.306 59.0633 346.606 59.23C346.913 59.39 347.246 59.47 347.606 59.47ZM355.022 56V56.59H351.132V56H355.022ZM359.108 54.46C359.621 54.46 360.068 54.58 360.448 54.82C360.828 55.06 361.101 55.3633 361.268 55.73V54.54H361.968V60.14C361.968 60.64 361.858 61.0833 361.638 61.47C361.424 61.8567 361.124 62.1533 360.738 62.36C360.351 62.5733 359.911 62.68 359.418 62.68C358.718 62.68 358.134 62.5133 357.668 62.18C357.208 61.8467 356.921 61.3933 356.808 60.82H357.498C357.618 61.2 357.844 61.5033 358.178 61.73C358.518 61.9567 358.931 62.07 359.418 62.07C359.771 62.07 360.088 61.9933 360.368 61.84C360.648 61.6933 360.868 61.4733 361.028 61.18C361.188 60.8867 361.268 60.54 361.268 60.14V58.79C361.094 59.1633 360.818 59.4733 360.438 59.72C360.064 59.96 359.621 60.08 359.108 60.08C358.608 60.08 358.158 59.9633 357.758 59.73C357.364 59.4967 357.054 59.1667 356.828 58.74C356.608 58.3133 356.498 57.82 356.498 57.26C356.498 56.7 356.608 56.21 356.828 55.79C357.054 55.3633 357.364 55.0367 357.758 54.81C358.158 54.5767 358.608 54.46 359.108 54.46ZM361.268 57.27C361.268 56.83 361.178 56.4433 360.998 56.11C360.818 55.7767 360.571 55.52 360.258 55.34C359.951 55.16 359.611 55.07 359.238 55.07C358.851 55.07 358.504 55.1567 358.198 55.33C357.891 55.5033 357.648 55.7567 357.468 56.09C357.294 56.4167 357.208 56.8067 357.208 57.26C357.208 57.7067 357.294 58.1 357.468 58.44C357.648 58.7733 357.891 59.03 358.198 59.21C358.504 59.3833 358.851 59.47 359.238 59.47C359.611 59.47 359.951 59.38 360.258 59.2C360.571 59.02 360.818 58.7633 360.998 58.43C361.178 58.0967 361.268 57.71 361.268 57.27ZM368.506 56.99C368.506 57.23 368.499 57.4133 368.486 57.54H363.956C363.976 57.9533 364.076 58.3067 364.256 58.6C364.436 58.8933 364.672 59.1167 364.966 59.27C365.259 59.4167 365.579 59.49 365.926 59.49C366.379 59.49 366.759 59.38 367.066 59.16C367.379 58.94 367.586 58.6433 367.686 58.27H368.426C368.292 58.8033 368.006 59.24 367.566 59.58C367.132 59.9133 366.586 60.08 365.926 60.08C365.412 60.08 364.952 59.9667 364.546 59.74C364.139 59.5067 363.819 59.18 363.586 58.76C363.359 58.3333 363.246 57.8367 363.246 57.27C363.246 56.7033 363.359 56.2067 363.586 55.78C363.812 55.3533 364.129 55.0267 364.536 54.8C364.942 54.5733 365.406 54.46 365.926 54.46C366.446 54.46 366.899 54.5733 367.286 54.8C367.679 55.0267 367.979 55.3333 368.186 55.72C368.399 56.1 368.506 56.5233 368.506 56.99ZM367.796 56.97C367.802 56.5633 367.719 56.2167 367.546 55.93C367.379 55.6433 367.149 55.4267 366.856 55.28C366.562 55.1333 366.242 55.06 365.896 55.06C365.376 55.06 364.932 55.2267 364.566 55.56C364.199 55.8933 363.996 56.3633 363.956 56.97H367.796ZM372.346 54.44C373 54.44 373.533 54.6433 373.946 55.05C374.36 55.45 374.566 56.0333 374.566 56.8V60H373.876V56.88C373.876 56.2867 373.726 55.8333 373.426 55.52C373.133 55.2067 372.73 55.05 372.216 55.05C371.69 55.05 371.27 55.2167 370.956 55.55C370.643 55.8833 370.486 56.3733 370.486 57.02V60H369.786V54.54H370.486V55.47C370.66 55.1367 370.91 54.8833 371.236 54.71C371.563 54.53 371.933 54.44 372.346 54.44ZM381.054 56.99C381.054 57.23 381.048 57.4133 381.034 57.54H376.504C376.524 57.9533 376.624 58.3067 376.804 58.6C376.984 58.8933 377.221 59.1167 377.514 59.27C377.808 59.4167 378.128 59.49 378.474 59.49C378.928 59.49 379.308 59.38 379.614 59.16C379.928 58.94 380.134 58.6433 380.234 58.27H380.974C380.841 58.8033 380.554 59.24 380.114 59.58C379.681 59.9133 379.134 60.08 378.474 60.08C377.961 60.08 377.501 59.9667 377.094 59.74C376.688 59.5067 376.368 59.18 376.134 58.76C375.908 58.3333 375.794 57.8367 375.794 57.27C375.794 56.7033 375.908 56.2067 376.134 55.78C376.361 55.3533 376.678 55.0267 377.084 54.8C377.491 54.5733 377.954 54.46 378.474 54.46C378.994 54.46 379.448 54.5733 379.834 54.8C380.228 55.0267 380.528 55.3333 380.734 55.72C380.948 56.1 381.054 56.5233 381.054 56.99ZM380.344 56.97C380.351 56.5633 380.268 56.2167 380.094 55.93C379.928 55.6433 379.698 55.4267 379.404 55.28C379.111 55.1333 378.791 55.06 378.444 55.06C377.924 55.06 377.481 55.2267 377.114 55.56C376.748 55.8933 376.544 56.3633 376.504 56.97H380.344ZM383.035 55.51C383.188 55.17 383.422 54.9067 383.735 54.72C384.055 54.5333 384.445 54.44 384.905 54.44V55.17H384.715C384.208 55.17 383.802 55.3067 383.495 55.58C383.188 55.8533 383.035 56.31 383.035 56.95V60H382.335V54.54H383.035V55.51ZM385.638 57.26C385.638 56.7 385.748 56.21 385.968 55.79C386.195 55.3633 386.505 55.0367 386.898 54.81C387.298 54.5767 387.748 54.46 388.248 54.46C388.768 54.46 389.215 54.58 389.588 54.82C389.968 55.06 390.242 55.3667 390.408 55.74V54.54H391.108V60H390.408V58.79C390.235 59.1633 389.958 59.4733 389.578 59.72C389.205 59.96 388.758 60.08 388.238 60.08C387.745 60.08 387.298 59.9633 386.898 59.73C386.505 59.4967 386.195 59.1667 385.968 58.74C385.748 58.3133 385.638 57.82 385.638 57.26ZM390.408 57.27C390.408 56.83 390.318 56.4433 390.138 56.11C389.958 55.7767 389.712 55.52 389.398 55.34C389.092 55.16 388.752 55.07 388.378 55.07C387.992 55.07 387.645 55.1567 387.338 55.33C387.032 55.5033 386.788 55.7567 386.608 56.09C386.435 56.4167 386.348 56.8067 386.348 57.26C386.348 57.7067 386.435 58.1 386.608 58.44C386.788 58.7733 387.032 59.03 387.338 59.21C387.645 59.3833 387.992 59.47 388.378 59.47C388.752 59.47 389.092 59.38 389.398 59.2C389.712 59.02 389.958 58.7633 390.138 58.43C390.318 58.0967 390.408 57.71 390.408 57.27ZM393.616 55.13V58.52C393.616 58.8533 393.68 59.0833 393.806 59.21C393.933 59.3367 394.156 59.4 394.476 59.4H395.116V60H394.366C393.873 60 393.506 59.8867 393.266 59.66C393.026 59.4267 392.906 59.0467 392.906 58.52V55.13H392.146V54.54H392.906V53.17H393.616V54.54H395.116V55.13H393.616ZM401.211 56.99C401.211 57.23 401.204 57.4133 401.191 57.54H396.661C396.681 57.9533 396.781 58.3067 396.961 58.6C397.141 58.8933 397.377 59.1167 397.671 59.27C397.964 59.4167 398.284 59.49 398.631 59.49C399.084 59.49 399.464 59.38 399.771 59.16C400.084 58.94 400.291 58.6433 400.391 58.27H401.131C400.997 58.8033 400.711 59.24 400.271 59.58C399.837 59.9133 399.291 60.08 398.631 60.08C398.117 60.08 397.657 59.9667 397.251 59.74C396.844 59.5067 396.524 59.18 396.291 58.76C396.064 58.3333 395.951 57.8367 395.951 57.27C395.951 56.7033 396.064 56.2067 396.291 55.78C396.517 55.3533 396.834 55.0267 397.241 54.8C397.647 54.5733 398.111 54.46 398.631 54.46C399.151 54.46 399.604 54.5733 399.991 54.8C400.384 55.0267 400.684 55.3333 400.891 55.72C401.104 56.1 401.211 56.5233 401.211 56.99ZM400.501 56.97C400.507 56.5633 400.424 56.2167 400.251 55.93C400.084 55.6433 399.854 55.4267 399.561 55.28C399.267 55.1333 398.947 55.06 398.601 55.06C398.081 55.06 397.637 55.2267 397.271 55.56C396.904 55.8933 396.701 56.3633 396.661 56.97H400.501ZM405.926 55.74C406.099 55.3733 406.372 55.07 406.746 54.83C407.126 54.5833 407.576 54.46 408.096 54.46C408.589 54.46 409.032 54.5767 409.426 54.81C409.826 55.0367 410.136 55.3633 410.356 55.79C410.582 56.21 410.696 56.7 410.696 57.26C410.696 57.82 410.582 58.3133 410.356 58.74C410.136 59.1667 409.826 59.4967 409.426 59.73C409.032 59.9633 408.589 60.08 408.096 60.08C407.582 60.08 407.136 59.96 406.756 59.72C406.376 59.4733 406.099 59.1667 405.926 58.8V62.58H405.236V54.54H405.926V55.74ZM409.986 57.26C409.986 56.8067 409.896 56.4167 409.716 56.09C409.542 55.7567 409.302 55.5033 408.996 55.33C408.689 55.1567 408.342 55.07 407.956 55.07C407.582 55.07 407.239 55.16 406.926 55.34C406.619 55.52 406.376 55.7767 406.196 56.11C406.016 56.4433 405.926 56.83 405.926 57.27C405.926 57.71 406.016 58.0967 406.196 58.43C406.376 58.7633 406.619 59.02 406.926 59.2C407.239 59.38 407.582 59.47 407.956 59.47C408.342 59.47 408.689 59.3833 408.996 59.21C409.302 59.03 409.542 58.7733 409.716 58.44C409.896 58.1 409.986 57.7067 409.986 57.26ZM411.664 57.26C411.664 56.7 411.774 56.21 411.994 55.79C412.22 55.3633 412.53 55.0367 412.924 54.81C413.324 54.5767 413.774 54.46 414.274 54.46C414.794 54.46 415.24 54.58 415.614 54.82C415.994 55.06 416.267 55.3667 416.434 55.74V54.54H417.134V60H416.434V58.79C416.26 59.1633 415.984 59.4733 415.604 59.72C415.23 59.96 414.784 60.08 414.264 60.08C413.77 60.08 413.324 59.9633 412.924 59.73C412.53 59.4967 412.22 59.1667 411.994 58.74C411.774 58.3133 411.664 57.82 411.664 57.26ZM416.434 57.27C416.434 56.83 416.344 56.4433 416.164 56.11C415.984 55.7767 415.737 55.52 415.424 55.34C415.117 55.16 414.777 55.07 414.404 55.07C414.017 55.07 413.67 55.1567 413.364 55.33C413.057 55.5033 412.814 55.7567 412.634 56.09C412.46 56.4167 412.374 56.8067 412.374 57.26C412.374 57.7067 412.46 58.1 412.634 58.44C412.814 58.7733 413.057 59.03 413.364 59.21C413.67 59.3833 414.017 59.47 414.404 59.47C414.777 59.47 415.117 59.38 415.424 59.2C415.737 59.02 415.984 58.7633 416.164 58.43C416.344 58.0967 416.434 57.71 416.434 57.27ZM420.612 60.08C419.985 60.08 419.472 59.9367 419.072 59.65C418.678 59.3567 418.458 58.96 418.412 58.46H419.132C419.165 58.7667 419.308 59.0167 419.562 59.21C419.822 59.3967 420.168 59.49 420.602 59.49C420.982 59.49 421.278 59.4 421.492 59.22C421.712 59.04 421.822 58.8167 421.822 58.55C421.822 58.3633 421.762 58.21 421.642 58.09C421.522 57.97 421.368 57.8767 421.182 57.81C421.002 57.7367 420.755 57.66 420.442 57.58C420.035 57.4733 419.705 57.3667 419.452 57.26C419.198 57.1533 418.982 56.9967 418.802 56.79C418.628 56.5767 418.542 56.2933 418.542 55.94C418.542 55.6733 418.622 55.4267 418.782 55.2C418.942 54.9733 419.168 54.7933 419.462 54.66C419.755 54.5267 420.088 54.46 420.462 54.46C421.048 54.46 421.522 54.61 421.882 54.91C422.242 55.2033 422.435 55.61 422.462 56.13H421.762C421.742 55.81 421.615 55.5533 421.382 55.36C421.155 55.16 420.842 55.06 420.442 55.06C420.088 55.06 419.802 55.1433 419.582 55.31C419.362 55.4767 419.252 55.6833 419.252 55.93C419.252 56.1433 419.315 56.32 419.442 56.46C419.575 56.5933 419.738 56.7 419.932 56.78C420.125 56.8533 420.385 56.9367 420.712 57.03C421.105 57.1367 421.418 57.24 421.652 57.34C421.885 57.44 422.085 57.5867 422.252 57.78C422.418 57.9733 422.505 58.23 422.512 58.55C422.512 58.8433 422.432 59.1067 422.272 59.34C422.112 59.5667 421.888 59.7467 421.602 59.88C421.315 60.0133 420.985 60.08 420.612 60.08ZM425.709 60.08C425.083 60.08 424.569 59.9367 424.169 59.65C423.776 59.3567 423.556 58.96 423.509 58.46H424.229C424.263 58.7667 424.406 59.0167 424.659 59.21C424.919 59.3967 425.266 59.49 425.699 59.49C426.079 59.49 426.376 59.4 426.589 59.22C426.809 59.04 426.919 58.8167 426.919 58.55C426.919 58.3633 426.859 58.21 426.739 58.09C426.619 57.97 426.466 57.8767 426.279 57.81C426.099 57.7367 425.853 57.66 425.539 57.58C425.133 57.4733 424.803 57.3667 424.549 57.26C424.296 57.1533 424.079 56.9967 423.899 56.79C423.726 56.5767 423.639 56.2933 423.639 55.94C423.639 55.6733 423.719 55.4267 423.879 55.2C424.039 54.9733 424.266 54.7933 424.559 54.66C424.853 54.5267 425.186 54.46 425.559 54.46C426.146 54.46 426.619 54.61 426.979 54.91C427.339 55.2033 427.533 55.61 427.559 56.13H426.859C426.839 55.81 426.713 55.5533 426.479 55.36C426.253 55.16 425.939 55.06 425.539 55.06C425.186 55.06 424.899 55.1433 424.679 55.31C424.459 55.4767 424.349 55.6833 424.349 55.93C424.349 56.1433 424.413 56.32 424.539 56.46C424.673 56.5933 424.836 56.7 425.029 56.78C425.223 56.8533 425.483 56.9367 425.809 57.03C426.203 57.1367 426.516 57.24 426.749 57.34C426.983 57.44 427.183 57.5867 427.349 57.78C427.516 57.9733 427.603 58.23 427.609 58.55C427.609 58.8433 427.529 59.1067 427.369 59.34C427.209 59.5667 426.986 59.7467 426.699 59.88C426.413 60.0133 426.083 60.08 425.709 60.08ZM436.127 54.54L434.417 60H433.717L432.207 55.42L430.697 60H429.987L428.277 54.54H428.987L430.347 59.29L431.877 54.54H432.577L434.087 59.3L435.437 54.54H436.127ZM439.471 60.08C438.958 60.08 438.495 59.9667 438.081 59.74C437.675 59.5067 437.351 59.18 437.111 58.76C436.878 58.3333 436.761 57.8367 436.761 57.27C436.761 56.7033 436.881 56.21 437.121 55.79C437.361 55.3633 437.688 55.0367 438.101 54.81C438.515 54.5767 438.978 54.46 439.491 54.46C440.005 54.46 440.468 54.5767 440.881 54.81C441.301 55.0367 441.628 55.3633 441.861 55.79C442.101 56.21 442.221 56.7033 442.221 57.27C442.221 57.83 442.101 58.3233 441.861 58.75C441.621 59.1767 441.291 59.5067 440.871 59.74C440.451 59.9667 439.985 60.08 439.471 60.08ZM439.471 59.47C439.831 59.47 440.165 59.39 440.471 59.23C440.778 59.0633 441.025 58.8167 441.211 58.49C441.405 58.1567 441.501 57.75 441.501 57.27C441.501 56.79 441.408 56.3867 441.221 56.06C441.035 55.7267 440.788 55.48 440.481 55.32C440.175 55.1533 439.841 55.07 439.481 55.07C439.121 55.07 438.788 55.1533 438.481 55.32C438.175 55.48 437.928 55.7267 437.741 56.06C437.561 56.3867 437.471 56.79 437.471 57.27C437.471 57.75 437.561 58.1567 437.741 58.49C437.928 58.8167 438.171 59.0633 438.471 59.23C438.778 59.39 439.111 59.47 439.471 59.47ZM444.197 55.51C444.351 55.17 444.584 54.9067 444.897 54.72C445.217 54.5333 445.607 54.44 446.067 54.44V55.17H445.877C445.371 55.17 444.964 55.3067 444.657 55.58C444.351 55.8533 444.197 56.31 444.197 56.95V60H443.497V54.54H444.197V55.51ZM446.8 57.26C446.8 56.7 446.914 56.21 447.14 55.79C447.367 55.3633 447.677 55.0367 448.07 54.81C448.47 54.5767 448.92 54.46 449.42 54.46C449.9 54.46 450.334 54.5767 450.72 54.81C451.107 55.0433 451.39 55.3467 451.57 55.72V52.6H452.27V60H451.57V58.78C451.404 59.16 451.13 59.4733 450.75 59.72C450.37 59.96 449.924 60.08 449.41 60.08C448.91 60.08 448.46 59.9633 448.06 59.73C447.667 59.4967 447.357 59.1667 447.13 58.74C446.91 58.3133 446.8 57.82 446.8 57.26ZM451.57 57.27C451.57 56.83 451.48 56.4433 451.3 56.11C451.12 55.7767 450.874 55.52 450.56 55.34C450.254 55.16 449.914 55.07 449.54 55.07C449.154 55.07 448.807 55.1567 448.5 55.33C448.194 55.5033 447.95 55.7567 447.77 56.09C447.597 56.4167 447.51 56.8067 447.51 57.26C447.51 57.7067 447.597 58.1 447.77 58.44C447.95 58.7733 448.194 59.03 448.5 59.21C448.807 59.3833 449.154 59.47 449.54 59.47C449.914 59.47 450.254 59.38 450.56 59.2C450.874 59.02 451.12 58.7633 451.3 58.43C451.48 58.0967 451.57 57.71 451.57 57.27Z" fill="black" fill-opacity="0.43"/>
<path d="M328 61H340.853V61.5H328V61ZM340.852 61H350.836V61.5H340.852V61ZM350.832 61H356.022V61.5H350.832V61ZM356.018 61H362.768V61.5H356.018V61ZM362.766 61H375.316V61.5H362.766V61ZM375.314 61H391.908V61.5H375.314V61ZM391.906 61H411.186V61.5H391.906V61ZM411.184 61H417.934V61.5H411.184V61ZM417.932 61H423.032V61.5H417.932V61ZM423.029 61H428.129V61.5H423.029V61ZM428.127 61H442.701V61.5H428.127V61ZM442.697 61H453.07V61.5H442.697V61Z" fill="black" fill-opacity="0.43"/>
<path d="M58.27 103.36V106.29H61.07V106.67H58.27V109.62H61.37V110H57.82V102.98H61.37V103.36H58.27ZM65.1821 104.46C65.8288 104.46 66.3554 104.66 66.7621 105.06C67.1688 105.453 67.3721 106.04 67.3721 106.82V110H66.9321V106.85C66.9321 106.203 66.7688 105.71 66.4421 105.37C66.1154 105.023 65.6721 104.85 65.1121 104.85C64.5254 104.85 64.0554 105.037 63.7021 105.41C63.3554 105.783 63.1821 106.337 63.1821 107.07V110H62.7321V104.57H63.1821V105.72C63.3354 105.313 63.5888 105.003 63.9421 104.79C64.3021 104.57 64.7154 104.46 65.1821 104.46ZM69.6326 104.96V108.55C69.6326 108.95 69.7059 109.227 69.8526 109.38C69.9992 109.527 70.2592 109.6 70.6326 109.6H71.2426V110H70.5626C70.0892 110 69.7392 109.89 69.5126 109.67C69.2926 109.443 69.1826 109.07 69.1826 108.55V104.96H68.3626V104.57H69.1826V103.19H69.6326V104.57H71.2426V104.96H69.6326ZM77.3194 106.92C77.3194 107.16 77.3127 107.34 77.2994 107.46H72.6094C72.6227 107.947 72.7294 108.357 72.9294 108.69C73.1294 109.023 73.3927 109.273 73.7194 109.44C74.046 109.607 74.4027 109.69 74.7894 109.69C75.3227 109.69 75.7694 109.56 76.1294 109.3C76.4894 109.033 76.716 108.673 76.8094 108.22H77.2794C77.1727 108.773 76.8994 109.223 76.4594 109.57C76.0194 109.91 75.4627 110.08 74.7894 110.08C74.2827 110.08 73.8294 109.967 73.4294 109.74C73.0294 109.513 72.716 109.19 72.4894 108.77C72.2627 108.343 72.1494 107.847 72.1494 107.28C72.1494 106.713 72.2594 106.22 72.4794 105.8C72.706 105.38 73.0194 105.06 73.4194 104.84C73.8194 104.613 74.276 104.5 74.7894 104.5C75.3094 104.5 75.7594 104.613 76.1394 104.84C76.526 105.06 76.8194 105.357 77.0194 105.73C77.2194 106.097 77.3194 106.493 77.3194 106.92ZM76.8694 107.09C76.8894 106.61 76.8027 106.203 76.6094 105.87C76.4227 105.537 76.166 105.29 75.8394 105.13C75.5127 104.963 75.1594 104.88 74.7794 104.88C74.3994 104.88 74.046 104.963 73.7194 105.13C73.3994 105.29 73.136 105.537 72.9294 105.87C72.7294 106.203 72.6227 106.61 72.6094 107.09H76.8694ZM79.1294 105.69C79.2627 105.29 79.4994 104.987 79.8394 104.78C80.1794 104.567 80.6127 104.46 81.1394 104.46V104.93H80.9894C80.456 104.93 80.0127 105.083 79.6594 105.39C79.306 105.69 79.1294 106.183 79.1294 106.87V110H78.6794V104.57H79.1294V105.69ZM87.4477 104.46C88.0944 104.46 88.6211 104.66 89.0277 105.06C89.4344 105.453 89.6377 106.04 89.6377 106.82V110H89.1977V106.85C89.1977 106.203 89.0344 105.71 88.7077 105.37C88.3811 105.023 87.9377 104.85 87.3777 104.85C86.7911 104.85 86.3211 105.037 85.9677 105.41C85.6211 105.783 85.4477 106.337 85.4477 107.07V110H84.9977V104.57H85.4477V105.72C85.6011 105.313 85.8544 105.003 86.2077 104.79C86.5677 104.57 86.9811 104.46 87.4477 104.46ZM96.1182 106.92C96.1182 107.16 96.1115 107.34 96.0982 107.46H91.4082C91.4215 107.947 91.5282 108.357 91.7282 108.69C91.9282 109.023 92.1915 109.273 92.5182 109.44C92.8449 109.607 93.2015 109.69 93.5882 109.69C94.1215 109.69 94.5682 109.56 94.9282 109.3C95.2882 109.033 95.5149 108.673 95.6082 108.22H96.0782C95.9715 108.773 95.6982 109.223 95.2582 109.57C94.8182 109.91 94.2615 110.08 93.5882 110.08C93.0815 110.08 92.6282 109.967 92.2282 109.74C91.8282 109.513 91.5149 109.19 91.2882 108.77C91.0615 108.343 90.9482 107.847 90.9482 107.28C90.9482 106.713 91.0582 106.22 91.2782 105.8C91.5049 105.38 91.8182 105.06 92.2182 104.84C92.6182 104.613 93.0749 104.5 93.5882 104.5C94.1082 104.5 94.5582 104.613 94.9382 104.84C95.3249 105.06 95.6182 105.357 95.8182 105.73C96.0182 106.097 96.1182 106.493 96.1182 106.92ZM95.6682 107.09C95.6882 106.61 95.6015 106.203 95.4082 105.87C95.2215 105.537 94.9649 105.29 94.6382 105.13C94.3115 104.963 93.9582 104.88 93.5782 104.88C93.1982 104.88 92.8449 104.963 92.5182 105.13C92.1982 105.29 91.9349 105.537 91.7282 105.87C91.5282 106.203 91.4215 106.61 91.4082 107.09H95.6682ZM104.578 104.57L102.868 110H102.438L100.708 105.19L98.9682 110H98.5382L96.8282 104.57H97.2982L98.7582 109.49L100.498 104.57H100.928L102.658 109.47L104.118 104.57H104.578ZM108.836 106C108.99 105.56 109.266 105.2 109.666 104.92C110.073 104.64 110.563 104.5 111.136 104.5C111.643 104.5 112.093 104.613 112.486 104.84C112.886 105.067 113.196 105.39 113.416 105.81C113.643 106.23 113.756 106.72 113.756 107.28C113.756 107.84 113.643 108.333 113.416 108.76C113.196 109.18 112.886 109.507 112.486 109.74C112.093 109.967 111.643 110.08 111.136 110.08C110.57 110.08 110.083 109.94 109.676 109.66C109.276 109.373 108.996 109.013 108.836 108.58V112.56H108.386V104.57H108.836V106ZM113.296 107.28C113.296 106.787 113.203 106.36 113.016 106C112.83 105.64 112.566 105.367 112.226 105.18C111.893 104.987 111.506 104.89 111.066 104.89C110.646 104.89 110.266 104.99 109.926 105.19C109.586 105.383 109.32 105.663 109.126 106.03C108.933 106.39 108.836 106.807 108.836 107.28C108.836 107.76 108.933 108.183 109.126 108.55C109.32 108.91 109.586 109.19 109.926 109.39C110.266 109.583 110.646 109.68 111.066 109.68C111.506 109.68 111.893 109.583 112.226 109.39C112.566 109.197 112.83 108.92 113.016 108.56C113.203 108.2 113.296 107.773 113.296 107.28ZM114.835 107.28C114.835 106.72 114.945 106.23 115.165 105.81C115.392 105.39 115.702 105.067 116.095 104.84C116.495 104.613 116.948 104.5 117.455 104.5C118.028 104.5 118.515 104.64 118.915 104.92C119.315 105.2 119.595 105.557 119.755 105.99V104.57H120.205V110H119.755V108.57C119.595 109.01 119.312 109.373 118.905 109.66C118.505 109.94 118.022 110.08 117.455 110.08C116.948 110.08 116.495 109.967 116.095 109.74C115.702 109.507 115.392 109.18 115.165 108.76C114.945 108.333 114.835 107.84 114.835 107.28ZM119.755 107.28C119.755 106.807 119.655 106.39 119.455 106.03C119.262 105.663 118.995 105.383 118.655 105.19C118.315 104.99 117.935 104.89 117.515 104.89C117.075 104.89 116.688 104.987 116.355 105.18C116.022 105.367 115.762 105.64 115.575 106C115.388 106.36 115.295 106.787 115.295 107.28C115.295 107.773 115.388 108.2 115.575 108.56C115.762 108.92 116.022 109.197 116.355 109.39C116.695 109.583 117.082 109.68 117.515 109.68C117.935 109.68 118.315 109.583 118.655 109.39C119.002 109.19 119.272 108.91 119.465 108.55C119.658 108.183 119.755 107.76 119.755 107.28ZM123.653 110.08C123.047 110.08 122.55 109.947 122.163 109.68C121.783 109.413 121.57 109.033 121.523 108.54H121.983C122.017 108.893 122.177 109.173 122.463 109.38C122.757 109.587 123.153 109.69 123.653 109.69C124.067 109.69 124.393 109.587 124.633 109.38C124.88 109.167 125.003 108.907 125.003 108.6C125.003 108.387 124.937 108.213 124.803 108.08C124.677 107.94 124.517 107.833 124.323 107.76C124.13 107.687 123.867 107.607 123.533 107.52C123.133 107.413 122.81 107.31 122.563 107.21C122.317 107.103 122.107 106.947 121.933 106.74C121.76 106.533 121.673 106.257 121.673 105.91C121.673 105.657 121.75 105.423 121.903 105.21C122.057 104.99 122.27 104.817 122.543 104.69C122.817 104.563 123.127 104.5 123.473 104.5C124.04 104.5 124.497 104.643 124.843 104.93C125.197 105.21 125.387 105.6 125.413 106.1H124.963C124.943 105.74 124.803 105.447 124.543 105.22C124.283 104.993 123.923 104.88 123.463 104.88C123.077 104.88 122.757 104.98 122.503 105.18C122.25 105.38 122.123 105.623 122.123 105.91C122.123 106.163 122.193 106.37 122.333 106.53C122.48 106.683 122.657 106.803 122.863 106.89C123.077 106.97 123.357 107.057 123.703 107.15C124.083 107.25 124.387 107.35 124.613 107.45C124.847 107.543 125.043 107.683 125.203 107.87C125.363 108.05 125.443 108.293 125.443 108.6C125.443 108.88 125.367 109.133 125.213 109.36C125.06 109.587 124.847 109.763 124.573 109.89C124.3 110.017 123.993 110.08 123.653 110.08ZM128.624 110.08C128.017 110.08 127.521 109.947 127.134 109.68C126.754 109.413 126.541 109.033 126.494 108.54H126.954C126.987 108.893 127.147 109.173 127.434 109.38C127.727 109.587 128.124 109.69 128.624 109.69C129.037 109.69 129.364 109.587 129.604 109.38C129.851 109.167 129.974 108.907 129.974 108.6C129.974 108.387 129.907 108.213 129.774 108.08C129.647 107.94 129.487 107.833 129.294 107.76C129.101 107.687 128.837 107.607 128.504 107.52C128.104 107.413 127.781 107.31 127.534 107.21C127.287 107.103 127.077 106.947 126.904 106.74C126.731 106.533 126.644 106.257 126.644 105.91C126.644 105.657 126.721 105.423 126.874 105.21C127.027 104.99 127.241 104.817 127.514 104.69C127.787 104.563 128.097 104.5 128.444 104.5C129.011 104.5 129.467 104.643 129.814 104.93C130.167 105.21 130.357 105.6 130.384 106.1H129.934C129.914 105.74 129.774 105.447 129.514 105.22C129.254 104.993 128.894 104.88 128.434 104.88C128.047 104.88 127.727 104.98 127.474 105.18C127.221 105.38 127.094 105.623 127.094 105.91C127.094 106.163 127.164 106.37 127.304 106.53C127.451 106.683 127.627 106.803 127.834 106.89C128.047 106.97 128.327 107.057 128.674 107.15C129.054 107.25 129.357 107.35 129.584 107.45C129.817 107.543 130.014 107.683 130.174 107.87C130.334 108.05 130.414 108.293 130.414 108.6C130.414 108.88 130.337 109.133 130.184 109.36C130.031 109.587 129.817 109.763 129.544 109.89C129.271 110.017 128.964 110.08 128.624 110.08ZM138.885 104.57L137.175 110H136.745L135.015 105.19L133.275 110H132.845L131.135 104.57H131.605L133.065 109.49L134.805 104.57H135.235L136.965 109.47L138.425 104.57H138.885ZM142.261 110.08C141.754 110.08 141.297 109.967 140.891 109.74C140.484 109.513 140.164 109.19 139.931 108.77C139.704 108.343 139.591 107.847 139.591 107.28C139.591 106.72 139.707 106.23 139.941 105.81C140.174 105.383 140.494 105.06 140.901 104.84C141.314 104.613 141.774 104.5 142.281 104.5C142.787 104.5 143.244 104.613 143.651 104.84C144.057 105.06 144.374 105.38 144.601 105.8C144.834 106.22 144.951 106.713 144.951 107.28C144.951 107.847 144.834 108.343 144.601 108.77C144.367 109.19 144.044 109.513 143.631 109.74C143.224 109.967 142.767 110.08 142.261 110.08ZM142.261 109.68C142.654 109.68 143.021 109.593 143.361 109.42C143.707 109.24 143.984 108.97 144.191 108.61C144.397 108.25 144.501 107.807 144.501 107.28C144.501 106.76 144.397 106.32 144.191 105.96C143.984 105.6 143.711 105.333 143.371 105.16C143.031 104.98 142.664 104.89 142.271 104.89C141.877 104.89 141.511 104.98 141.171 105.16C140.837 105.333 140.567 105.6 140.361 105.96C140.154 106.32 140.051 106.76 140.051 107.28C140.051 107.807 140.151 108.25 140.351 108.61C140.557 108.97 140.827 109.24 141.161 109.42C141.501 109.593 141.867 109.68 142.261 109.68ZM146.766 105.69C146.899 105.29 147.136 104.987 147.476 104.78C147.816 104.567 148.249 104.46 148.776 104.46V104.93H148.626C148.093 104.93 147.649 105.083 147.296 105.39C146.943 105.69 146.766 106.183 146.766 106.87V110H146.316V104.57H146.766V105.69ZM149.532 107.28C149.532 106.72 149.642 106.23 149.862 105.81C150.089 105.39 150.399 105.067 150.792 104.84C151.192 104.613 151.646 104.5 152.152 104.5C152.706 104.5 153.186 104.64 153.592 104.92C153.999 105.193 154.286 105.55 154.452 105.99V102.6H154.902V110H154.452V108.56C154.292 109.007 154.012 109.373 153.612 109.66C153.212 109.94 152.726 110.08 152.152 110.08C151.646 110.08 151.192 109.967 150.792 109.74C150.399 109.507 150.089 109.18 149.862 108.76C149.642 108.333 149.532 107.84 149.532 107.28ZM154.452 107.28C154.452 106.807 154.352 106.39 154.152 106.03C153.959 105.663 153.692 105.383 153.352 105.19C153.012 104.99 152.632 104.89 152.212 104.89C151.772 104.89 151.386 104.987 151.052 105.18C150.719 105.367 150.459 105.64 150.272 106C150.086 106.36 149.992 106.787 149.992 107.28C149.992 107.773 150.086 108.2 150.272 108.56C150.459 108.92 150.719 109.197 151.052 109.39C151.392 109.583 151.779 109.68 152.212 109.68C152.632 109.68 153.012 109.583 153.352 109.39C153.699 109.19 153.969 108.91 154.162 108.55C154.356 108.183 154.452 107.76 154.452 107.28Z" fill="black" fill-opacity="0.59"/>
<path d="M57.54 155.5C57.54 154.807 57.6833 154.19 57.97 153.65C58.2633 153.103 58.6633 152.677 59.17 152.37C59.6833 152.063 60.2567 151.91 60.89 151.91C61.69 151.91 62.3633 152.097 62.91 152.47C63.4567 152.843 63.8567 153.367 64.11 154.04H63.59C63.39 153.507 63.0567 153.087 62.59 152.78C62.13 152.467 61.5633 152.31 60.89 152.31C60.35 152.31 59.86 152.44 59.42 152.7C58.98 152.953 58.6333 153.323 58.38 153.81C58.1267 154.29 58 154.853 58 155.5C58 156.14 58.1267 156.7 58.38 157.18C58.6333 157.653 58.98 158.02 59.42 158.28C59.86 158.54 60.35 158.67 60.89 158.67C61.5633 158.67 62.13 158.517 62.59 158.21C63.0567 157.897 63.39 157.473 63.59 156.94H64.11C63.8567 157.613 63.4567 158.137 62.91 158.51C62.3633 158.883 61.69 159.07 60.89 159.07C60.2567 159.07 59.6833 158.92 59.17 158.62C58.6633 158.313 58.2633 157.89 57.97 157.35C57.6833 156.803 57.54 156.187 57.54 155.5ZM67.9053 159.08C67.3986 159.08 66.942 158.967 66.5353 158.74C66.1286 158.513 65.8086 158.19 65.5753 157.77C65.3486 157.343 65.2353 156.847 65.2353 156.28C65.2353 155.72 65.352 155.23 65.5853 154.81C65.8186 154.383 66.1386 154.06 66.5453 153.84C66.9586 153.613 67.4186 153.5 67.9253 153.5C68.432 153.5 68.8886 153.613 69.2953 153.84C69.702 154.06 70.0186 154.38 70.2453 154.8C70.4786 155.22 70.5953 155.713 70.5953 156.28C70.5953 156.847 70.4786 157.343 70.2453 157.77C70.012 158.19 69.6886 158.513 69.2753 158.74C68.8686 158.967 68.412 159.08 67.9053 159.08ZM67.9053 158.68C68.2986 158.68 68.6653 158.593 69.0053 158.42C69.352 158.24 69.6286 157.97 69.8353 157.61C70.042 157.25 70.1453 156.807 70.1453 156.28C70.1453 155.76 70.042 155.32 69.8353 154.96C69.6286 154.6 69.3553 154.333 69.0153 154.16C68.6753 153.98 68.3086 153.89 67.9153 153.89C67.522 153.89 67.1553 153.98 66.8153 154.16C66.482 154.333 66.212 154.6 66.0053 154.96C65.7986 155.32 65.6953 155.76 65.6953 156.28C65.6953 156.807 65.7953 157.25 65.9953 157.61C66.202 157.97 66.472 158.24 66.8053 158.42C67.1453 158.593 67.512 158.68 67.9053 158.68ZM74.4106 153.46C75.0573 153.46 75.584 153.66 75.9906 154.06C76.3973 154.453 76.6006 155.04 76.6006 155.82V159H76.1606V155.85C76.1606 155.203 75.9973 154.71 75.6706 154.37C75.344 154.023 74.9006 153.85 74.3406 153.85C73.754 153.85 73.284 154.037 72.9306 154.41C72.584 154.783 72.4106 155.337 72.4106 156.07V159H71.9606V153.57H72.4106V154.72C72.564 154.313 72.8173 154.003 73.1706 153.79C73.5306 153.57 73.944 153.46 74.4106 153.46ZM80.2611 153.97H78.8511V159H78.4011V153.97H77.5811V153.57H78.4011V153.19C78.4011 152.623 78.5444 152.203 78.8311 151.93C79.1178 151.65 79.5878 151.51 80.2411 151.51V151.91C79.7211 151.91 79.3578 152.01 79.1511 152.21C78.9511 152.41 78.8511 152.737 78.8511 153.19V153.57H80.2611V153.97ZM81.6438 152.36C81.5371 152.36 81.4471 152.327 81.3738 152.26C81.3004 152.187 81.2638 152.09 81.2638 151.97C81.2638 151.857 81.3004 151.763 81.3738 151.69C81.4471 151.617 81.5371 151.58 81.6438 151.58C81.7504 151.58 81.8404 151.617 81.9137 151.69C81.9871 151.763 82.0238 151.857 82.0238 151.97C82.0238 152.09 81.9871 152.187 81.9137 152.26C81.8404 152.327 81.7504 152.36 81.6438 152.36ZM81.8638 153.57V159H81.4138V153.57H81.8638ZM83.9634 154.69C84.0967 154.29 84.3334 153.987 84.6734 153.78C85.0134 153.567 85.4467 153.46 85.9734 153.46V153.93H85.8234C85.29 153.93 84.8467 154.083 84.4934 154.39C84.14 154.69 83.9634 155.183 83.9634 155.87V159H83.5134V153.57H83.9634V154.69ZM93.4295 153.46C94.0495 153.46 94.5561 153.66 94.9495 154.06C95.3428 154.453 95.5395 155.04 95.5395 155.82V159H95.0995V155.85C95.0995 155.203 94.9428 154.71 94.6295 154.37C94.3228 154.023 93.8995 153.85 93.3595 153.85C92.7995 153.85 92.3495 154.043 92.0095 154.43C91.6695 154.817 91.4995 155.377 91.4995 156.11V159H91.0595V155.85C91.0595 155.203 90.9028 154.71 90.5895 154.37C90.2828 154.023 89.8595 153.85 89.3195 153.85C88.7595 153.85 88.3095 154.043 87.9695 154.43C87.6295 154.817 87.4595 155.377 87.4595 156.11V159H87.0095V153.57H87.4595V154.75C87.6128 154.323 87.8595 154.003 88.1995 153.79C88.5461 153.57 88.9428 153.46 89.3895 153.46C89.8828 153.46 90.3061 153.59 90.6595 153.85C91.0195 154.103 91.2661 154.48 91.3995 154.98C91.5261 154.48 91.7728 154.103 92.1395 153.85C92.5061 153.59 92.9361 153.46 93.4295 153.46ZM100.409 155C100.562 154.56 100.839 154.2 101.239 153.92C101.645 153.64 102.135 153.5 102.709 153.5C103.215 153.5 103.665 153.613 104.059 153.84C104.459 154.067 104.769 154.39 104.989 154.81C105.215 155.23 105.329 155.72 105.329 156.28C105.329 156.84 105.215 157.333 104.989 157.76C104.769 158.18 104.459 158.507 104.059 158.74C103.665 158.967 103.215 159.08 102.709 159.08C102.142 159.08 101.655 158.94 101.249 158.66C100.849 158.373 100.569 158.013 100.409 157.58V161.56H99.9587V153.57H100.409V155ZM104.869 156.28C104.869 155.787 104.775 155.36 104.589 155C104.402 154.64 104.139 154.367 103.799 154.18C103.465 153.987 103.079 153.89 102.639 153.89C102.219 153.89 101.839 153.99 101.499 154.19C101.159 154.383 100.892 154.663 100.699 155.03C100.505 155.39 100.409 155.807 100.409 156.28C100.409 156.76 100.505 157.183 100.699 157.55C100.892 157.91 101.159 158.19 101.499 158.39C101.839 158.583 102.219 158.68 102.639 158.68C103.079 158.68 103.465 158.583 103.799 158.39C104.139 158.197 104.402 157.92 104.589 157.56C104.775 157.2 104.869 156.773 104.869 156.28ZM106.407 156.28C106.407 155.72 106.517 155.23 106.737 154.81C106.964 154.39 107.274 154.067 107.667 153.84C108.067 153.613 108.521 153.5 109.027 153.5C109.601 153.5 110.087 153.64 110.487 153.92C110.887 154.2 111.167 154.557 111.327 154.99V153.57H111.777V159H111.327V157.57C111.167 158.01 110.884 158.373 110.477 158.66C110.077 158.94 109.594 159.08 109.027 159.08C108.521 159.08 108.067 158.967 107.667 158.74C107.274 158.507 106.964 158.18 106.737 157.76C106.517 157.333 106.407 156.84 106.407 156.28ZM111.327 156.28C111.327 155.807 111.227 155.39 111.027 155.03C110.834 154.663 110.567 154.383 110.227 154.19C109.887 153.99 109.507 153.89 109.087 153.89C108.647 153.89 108.261 153.987 107.927 154.18C107.594 154.367 107.334 154.64 107.147 155C106.961 155.36 106.867 155.787 106.867 156.28C106.867 156.773 106.961 157.2 107.147 157.56C107.334 157.92 107.594 158.197 107.927 158.39C108.267 158.583 108.654 158.68 109.087 158.68C109.507 158.68 109.887 158.583 110.227 158.39C110.574 158.19 110.844 157.91 111.037 157.55C111.231 157.183 111.327 156.76 111.327 156.28ZM115.226 159.08C114.619 159.08 114.122 158.947 113.736 158.68C113.356 158.413 113.142 158.033 113.096 157.54H113.556C113.589 157.893 113.749 158.173 114.036 158.38C114.329 158.587 114.726 158.69 115.226 158.69C115.639 158.69 115.966 158.587 116.206 158.38C116.452 158.167 116.576 157.907 116.576 157.6C116.576 157.387 116.509 157.213 116.376 157.08C116.249 156.94 116.089 156.833 115.896 156.76C115.702 156.687 115.439 156.607 115.106 156.52C114.706 156.413 114.382 156.31 114.136 156.21C113.889 156.103 113.679 155.947 113.506 155.74C113.332 155.533 113.246 155.257 113.246 154.91C113.246 154.657 113.322 154.423 113.476 154.21C113.629 153.99 113.842 153.817 114.116 153.69C114.389 153.563 114.699 153.5 115.046 153.5C115.612 153.5 116.069 153.643 116.416 153.93C116.769 154.21 116.959 154.6 116.986 155.1H116.536C116.516 154.74 116.376 154.447 116.116 154.22C115.856 153.993 115.496 153.88 115.036 153.88C114.649 153.88 114.329 153.98 114.076 154.18C113.822 154.38 113.696 154.623 113.696 154.91C113.696 155.163 113.766 155.37 113.906 155.53C114.052 155.683 114.229 155.803 114.436 155.89C114.649 155.97 114.929 156.057 115.276 156.15C115.656 156.25 115.959 156.35 116.186 156.45C116.419 156.543 116.616 156.683 116.776 156.87C116.936 157.05 117.016 157.293 117.016 157.6C117.016 157.88 116.939 158.133 116.786 158.36C116.632 158.587 116.419 158.763 116.146 158.89C115.872 159.017 115.566 159.08 115.226 159.08ZM120.196 159.08C119.59 159.08 119.093 158.947 118.706 158.68C118.326 158.413 118.113 158.033 118.066 157.54H118.526C118.56 157.893 118.72 158.173 119.006 158.38C119.3 158.587 119.696 158.69 120.196 158.69C120.61 158.69 120.936 158.587 121.176 158.38C121.423 158.167 121.546 157.907 121.546 157.6C121.546 157.387 121.48 157.213 121.346 157.08C121.22 156.94 121.06 156.833 120.866 156.76C120.673 156.687 120.41 156.607 120.076 156.52C119.676 156.413 119.353 156.31 119.106 156.21C118.86 156.103 118.65 155.947 118.476 155.74C118.303 155.533 118.216 155.257 118.216 154.91C118.216 154.657 118.293 154.423 118.446 154.21C118.6 153.99 118.813 153.817 119.086 153.69C119.36 153.563 119.67 153.5 120.016 153.5C120.583 153.5 121.04 153.643 121.386 153.93C121.74 154.21 121.93 154.6 121.956 155.1H121.506C121.486 154.74 121.346 154.447 121.086 154.22C120.826 153.993 120.466 153.88 120.006 153.88C119.62 153.88 119.3 153.98 119.046 154.18C118.793 154.38 118.666 154.623 118.666 154.91C118.666 155.163 118.736 155.37 118.876 155.53C119.023 155.683 119.2 155.803 119.406 155.89C119.62 155.97 119.9 156.057 120.246 156.15C120.626 156.25 120.93 156.35 121.156 156.45C121.39 156.543 121.586 156.683 121.746 156.87C121.906 157.05 121.986 157.293 121.986 157.6C121.986 157.88 121.91 158.133 121.756 158.36C121.603 158.587 121.39 158.763 121.116 158.89C120.843 159.017 120.536 159.08 120.196 159.08ZM130.457 153.57L128.747 159H128.317L126.587 154.19L124.847 159H124.417L122.707 153.57H123.177L124.637 158.49L126.377 153.57H126.807L128.537 158.47L129.997 153.57H130.457ZM133.833 159.08C133.326 159.08 132.87 158.967 132.463 158.74C132.056 158.513 131.736 158.19 131.503 157.77C131.276 157.343 131.163 156.847 131.163 156.28C131.163 155.72 131.28 155.23 131.513 154.81C131.746 154.383 132.066 154.06 132.473 153.84C132.886 153.613 133.346 153.5 133.853 153.5C134.36 153.5 134.816 153.613 135.223 153.84C135.63 154.06 135.946 154.38 136.173 154.8C136.406 155.22 136.523 155.713 136.523 156.28C136.523 156.847 136.406 157.343 136.173 157.77C135.94 158.19 135.616 158.513 135.203 158.74C134.796 158.967 134.34 159.08 133.833 159.08ZM133.833 158.68C134.226 158.68 134.593 158.593 134.933 158.42C135.28 158.24 135.556 157.97 135.763 157.61C135.97 157.25 136.073 156.807 136.073 156.28C136.073 155.76 135.97 155.32 135.763 154.96C135.556 154.6 135.283 154.333 134.943 154.16C134.603 153.98 134.236 153.89 133.843 153.89C133.45 153.89 133.083 153.98 132.743 154.16C132.41 154.333 132.14 154.6 131.933 154.96C131.726 155.32 131.623 155.76 131.623 156.28C131.623 156.807 131.723 157.25 131.923 157.61C132.13 157.97 132.4 158.24 132.733 158.42C133.073 158.593 133.44 158.68 133.833 158.68ZM138.338 154.69C138.472 154.29 138.708 153.987 139.048 153.78C139.388 153.567 139.822 153.46 140.348 153.46V153.93H140.198C139.665 153.93 139.222 154.083 138.868 154.39C138.515 154.69 138.338 155.183 138.338 155.87V159H137.888V153.57H138.338V154.69ZM141.104 156.28C141.104 155.72 141.214 155.23 141.434 154.81C141.661 154.39 141.971 154.067 142.364 153.84C142.764 153.613 143.218 153.5 143.724 153.5C144.278 153.5 144.758 153.64 145.164 153.92C145.571 154.193 145.858 154.55 146.024 154.99V151.6H146.474V159H146.024V157.56C145.864 158.007 145.584 158.373 145.184 158.66C144.784 158.94 144.298 159.08 143.724 159.08C143.218 159.08 142.764 158.967 142.364 158.74C141.971 158.507 141.661 158.18 141.434 157.76C141.214 157.333 141.104 156.84 141.104 156.28ZM146.024 156.28C146.024 155.807 145.924 155.39 145.724 155.03C145.531 154.663 145.264 154.383 144.924 154.19C144.584 153.99 144.204 153.89 143.784 153.89C143.344 153.89 142.958 153.987 142.624 154.18C142.291 154.367 142.031 154.64 141.844 155C141.658 155.36 141.564 155.787 141.564 156.28C141.564 156.773 141.658 157.2 141.844 157.56C142.031 157.92 142.291 158.197 142.624 158.39C142.964 158.583 143.351 158.68 143.784 158.68C144.204 158.68 144.584 158.583 144.924 158.39C145.271 158.19 145.541 157.91 145.734 157.55C145.928 157.183 146.024 156.76 146.024 156.28Z" fill="black" fill-opacity="0.59"/>
</svg>
