<svg width="1931" height="231" viewBox="0 0 1931 231" fill="none" xmlns="http://www.w3.org/2000/svg">
<path d="M70.7344 230.901C70.3384 230.962 69.9423 231 69.584 231C69.2069 231 68.8486 230.962 68.4904 230.901H-804.948L9.63629 0.49469H1922.1L1923.21 0.813812L2736.68 230.901H70.7344ZM2197.42 154.119L2316.33 195.086H2592.42L2560.89 186.151H2345.98L2223.91 146.165H2155.23L2153.82 145.671L1835.54 35.4211H1902.11L1903.36 35.8314L2096.91 98.9831L2094.08 103.055L1901.51 40.0861H1863.3L2155.4 141.036H2270.09L2200.42 119.292H2325.04L2306.13 113.935H2144.62L2192.74 129.617L2190.06 133.803L2113.96 108.951H2167.25L1925.93 33.6509H1836.3L1817.29 27.1093H1555.55L1628.7 64.0263H1820.99L1757.55 39.5619L1761.51 35.9378L1834.51 64.0263H1869.54L1786.33 33.6509H1610.07L1658.23 56.3831H1748.99L1709.84 40.2836H1672.65L1695.62 50.3733L1691.04 53.8454L1649.67 35.6187H1711.35L1773.52 61.124H1656.21L1588.34 29.0087H1787.38L2283.88 209.803L2282.84 211.269H2649.51L2611.36 200.457H2316.5L2194.44 158.321L2197.42 154.119ZM2374.47 172.27L2314.56 153.633H2446.17L2377.79 134.251H2331.65L2377.49 147.821L2375.53 152.197L2297.91 129.176H2359.87L2342.77 124.329H2232.47L2302.62 146.172H2239.47L2345.58 180.848H2542.15L2464.46 158.822H2347.47L2373.9 167.028H2456.09L2459.5 172.278H2374.47V172.27ZM2250.8 98.2462L1941.56 10.592H1867.21L1926.38 29.0163H1961.72L1916.82 15.7204L1919.48 11.8456L1978.75 29.3658L2177.88 88.2248L2175.62 92.3808L1977.35 33.6585H1941.24L2182.39 108.739L2182.26 108.959H2288.54L2268.19 103.192H2213.33L2210.58 98.2538H2250.8V98.2462ZM2005.13 216.724L2023.59 225.385H2699.31L2668.76 216.724H2005.13ZM1878.12 200.936L1878.05 200.731L1837.37 179.944H2059.31L2061.81 185.247H1860.02L1880.24 195.549H2164.34L1950.65 113.29H1893.23L1945.56 134.935H1699.94L1757.23 166.587H1947.03L1926.89 157.713L1931.28 153.907L1960.14 166.587H2014.88L1968 147.266H1785.52L1800.28 154.796H1869.13L1871.18 159.985H1798.34L1763.4 142.13H1969.02L2041.26 171.822H1766.73L1863.64 225.363H1926.29L1878.44 200.913H1878.12V200.936ZM1621.44 214.695L1635.86 225.385H1776.88L1645.91 146.165H1590L1671.96 200.936H1524.58L1553.49 225.385H1625L1603.31 209.256H1686.76L1688.44 214.695H1621.44ZM1476.72 170.925L1462.98 159.217H1209.01H1203.24H733.214L770.854 88.9846H821.618L834.271 56.8541H896.935L878.134 141.044H1053.6L1048.53 118.312H1125.47L1135.48 143.126L1126.9 144.09L1118.6 123.341H1058.45L1063.63 146.18H868.12L875.588 113.32H812.039L817.3 99.9784L825.748 100.883L822.844 108.336H876.738L887.355 61.6178H841.041L828.463 93.8927H777.133L745.132 154.043H796.01L809.134 120.705L817.639 121.624L805.005 154.043H1196.94L1174.46 113.639H942.193L941.023 129.89H994.616L993.805 119.937L1002.52 119.74L1003.82 134.966H931.878L938.025 53.5947H838.722L841.249 47.0228H746.622L722.937 80.4525H772.023L788.297 50.6392L796.387 51.8245L778.246 85.3149H719.505L666.874 159.628H468.305L427.234 194.63H927.182L927.125 198.087L928.332 182.079L937.29 182.261L934.197 225.385H999.972L995.88 171.845H520.578L511.847 180.392H862.162L861.916 185.703H496.441L516.034 166.602H1211.02L1243.69 225.385H1306.65L1265.88 167.02H1415.51L1416.55 172.263H1278.97L1316.29 225.385H1388.7L1349.4 179.951H1559.57L1529.75 157.622L1530.15 159.21H1473.18L1483.95 168.357L1476.72 170.925ZM627.745 214.695H481.524L470.7 225.385H620.315L627.745 214.695ZM476.961 209.256H641.058L629.951 225.385H690.503L698.818 210.274L707.436 211.649L699.931 225.385H925.051L925.786 215.706H781.904L782.338 210.258H926.201L926.974 199.979H420.936L391.122 225.385H460.574L476.961 209.256ZM1077.02 195.116L1084.04 225.385H1156.96L1140.76 184.366H1071.71L1071.46 179.062H1147.78L1166.24 225.385H1234.2L1204.67 171.845H1004.78L1009.08 225.385H1074.87L1068.1 195.694L1077.02 195.116ZM1363.67 185.255L1398.56 225.385H1463.47L1422.66 185.255H1363.67ZM-499.797 186.295L-398.25 154.674H-181.389L-226.704 171.282H-376.677L-373.622 166.04H-227.024L-210.147 159.863H-398.74L-466.419 180.977H14.2564C22.2708 177.748 51.8958 163.358 70.7532 154.028L75.7693 157.599C71.8281 159.552 44.07 173.303 27.4755 180.977H149.992L167.511 171.275H98.4171L145.07 147.517H-99.699L-146.711 165.751H-28.6066L-9.16449 157.227H-66.2082L-63.8699 152.053H15.6896L-27.3997 171.001H-174.356L-113.672 147.525H-426.668L-688.899 225.385H-111.221L-66.642 204.864L-62.0596 208.762L-98.115 225.385H-7.80682L41.1282 200.457H-525.745L-558.708 210.767H-155.385L-158.006 216.215H-592.707L-524.972 195.078H64.0212L4.67682 225.385H69.7349L140.356 186.295H-499.797ZM-706.191 225.385L-426.083 142.396H167.209L120.895 166.048H188.706L180.918 170.378C180.032 170.849 106.922 211.436 81.7848 225.385H148.088L246.071 165.934L252.067 169.163L159.704 225.385H228.062L326.441 159.21H192.12L235.793 134.95H-398.287L-275.658 98.5501H-28.814L-99.1899 124.329H-300.738L-251.35 108.951H-127.533L-129.965 113.935H-251.464L-268.643 119.292H-99.7556L-56.4966 103.481H-275.922L-364.627 129.868H564.309L563.403 134.943H247.353L213.089 154.021H344.978L239.225 225.385H305.566L411.394 145.792H286.312L287.84 140.664H610.811L697.423 39.8734H604.814L605.588 35.216H898.802L896.595 44.7055L888.241 44.1812L889.26 39.8734H706.531L615.959 145.792H421.841L316.371 225.385H380.656L464.251 154.416H661.198L741.059 42.3122H851.62L849.131 48.8538H938.383L939.496 34.0459H568.457L513.356 75.476L506.68 72.8928L558.519 34.0459H334.21L302.04 49.3021H340.018L366.947 35.5427L372.227 38.7185L342.357 54.0202H280.108L370.737 11.1542H720.806L720.278 15.7128H372.868L343.997 29.4114H1031.6L1027.24 10.7591H863.595L861.162 17.1716H984.056L983.924 15.5457H898.292L898.443 10.9871H991.882L992.749 21.7529H850.941L856.9 6.22333H1034.5L1041.1 34.0459H947.869L942.532 108.64H1180.66L1206.1 154.028H1524.94L1512.87 144.979L1519.64 142.221L1577.29 185.255H1432.66L1473.63 225.385H1543.07L1507.92 195.557H1652.87L1571.54 141.036H1648.67L1788.51 225.385H1851.59L1688.36 134.95H1444.57L1459.09 147.289H1257.3L1256.64 142.153H1442.97L1434.52 134.95H1247.42L1225.13 103.481H987.016L982.491 35.6187H1080.57L1069.05 6.05618H1121.83L1132.45 25.1567L1124.45 26.3343L1115.78 10.592H1079.25L1112.15 94.1586H1046.66L1038.46 59.0195L1046.87 58.4876L1054.17 89.2657H1101.46L1082.36 40.2836H991.184L991.825 49.3021H1037.74L1036.65 44.7055L1045 44.1736L1047.4 54.0202H992.165L995.314 98.5425H1221.62L1175.67 33.6509H1137.14L1169.52 91.9401L1161.3 93.1861L1125.9 29.0163H1172.37L1155.36 5.00771H819.053L808.984 23.2573H991.712L991.769 27.8691H380.524L401.871 16.9968H759.106L764.254 9.76384H298.815L282.183 16.6321H314.316L326.931 11.0706L331.57 14.4136L316.183 21.2059H258.347L297.137 5.22044H776.209L764.631 21.563H404.266L400.966 23.2497H800.366L810.492 5.00012H267.757L222.48 22.5583H311.204L235.265 55.9804H375.772L413.072 35.3376H512.922L445.601 79.9738H604.871L638.927 46.772H599.119L565.157 75.6051L558.142 73.2423L594.99 42.0843H653.108L609.453 84.8287H438.303H436.097H394.667L348.391 113.183H152.5L256.254 64.2542H318.031L243.487 102.189L238.283 98.816L296.948 69.0408H258.215L175.393 108.207H345.544L390.217 80.9159L451.239 43.6342L457.217 46.5213L402.606 79.9814H435.079L495.554 40.0025H415.769L378.412 60.7365L303.85 102.121L298.249 98.9072L367.211 60.7441H222.838H211.977H-149.935L-42.2404 28.8188H50.8398L54.3473 27.6715H-70.074L-290.348 90.1091H145.598L145.24 91.0816L195.269 69.056H-160.194L-200.266 80.9767H113.258L122.008 77.3678H-135.566L-133.152 72.5433H146.749L114.559 85.8316H-232.87L-160.212 64.2618H218.614L95.4753 118.623H443.696L470.606 98.5349H540.058L539.115 103.458C539.323 103.435 539.473 103.405 539.511 103.39C537.757 103.967 534.042 107.926 531.704 111.702L523.501 110.524C524.972 108.161 526.839 105.608 529.083 103.466H474.264L454.049 118.615H574.718L598.95 94.4245H431.477L405.001 112.233L398.646 109.354L428.215 89.5316H613.376L579.357 123.645H71.2435H-52.0275L22.0068 94.9944H-307.659L-767.591 225.37H-706.191V225.385ZM209.129 27.1701H197.362H102.415L150.577 10.592H121.31L4.86536 48.7094H189.498L227.59 33.0583H99.6051L75.2601 41.4537H158.403L164.984 38.916H125.063L126.873 34.2587H190.366L159.647 46.149H47.2758L98.7376 28.4313H251.652L190.95 53.4276H-24.4956L7.48657 42.9808H-29.8889L-27.7391 38.3082H21.7994L36.659 33.4533H-42.0142L-117.878 55.9956H222.801L288.424 27.1777H209.129V27.1701ZM136.302 95.0096H92.345L50.293 112.378L46.1631 108.609L79.1825 95.0096H35.6973L-25.1933 118.631H82.69L136.302 95.0096ZM-31.322 16.6853H46.2009L44.2397 21.2667H-47.4828L-53.8189 23.0674H68.4526L106.639 10.592H34.4904L32.9818 11.0403H68.0189L66.0954 15.5988H1.90479L34.1133 6.05618H208.337L206.734 10.5768H215.409L185.878 21.4566L182.106 17.8326L189.442 15.143H151.557L130.022 22.5735H209.261L254.632 5.0153H9.88147L-31.322 16.6853ZM1921.87 5.00771H1164.13L1253.06 129.868H1919.91L1879.95 113.297H1353.23L1314.16 75.248L1321.49 73.1283L1357.77 108.328H1579.69L1548.36 89.2733H1604.16L1470.65 15.105L1476.25 12.1343L1485.68 17.3615H1565.13L1552.74 11.5113H1828.81L1866.06 23.6675L1862.93 27.4664L1845.46 21.7606H1619.85L1618.46 17.1792H1831.47L1828.08 16.0699H1574.22L1586.68 21.9429H1493.94L1635.41 100.313L1629.81 103.534L1612.97 94.1738H1567.37L1590.72 108.336H1937.73L1880.01 86.1203H1714.22L1684.27 72.0494H1855.53L1857.48 76.8739H1706.71L1716.08 81.2654H1881.01L1882.4 81.8048L2192.68 200.959H1890.78L1938.75 225.408H2010.58L1980.56 211.299H2273L1882.44 68.7217L1882.48 68.8052H1638.2L1697.71 98.8388H1850.48L1839.81 94.4397H1728.45L1726.77 89.5392H1841.09L1875.73 103.777H1695.62L1534.99 22.4975H1818.2L1837.17 29.0087H1911.11L1852.06 10.5844H1515.99L1520.89 13.0916L1515.61 16.1991L1504.65 10.5844H1210.51L1243.97 49.2944H1446.63L1487.61 76.5852H1425.6L1424.6 71.7683H1469.88L1443.31 54.0126H1248.04L1256.68 64.0111H1404.78L1400.92 61.1164H1295.9L1295.18 56.3679H1404.61L1421.27 68.7976H1364.99L1399.88 98.5349H1509.91L1490.08 85.2846H1445.06L1452.68 90.9524L1446.01 93.5888L1428.37 80.4297H1537.22L1430.51 15.8799H1261.05L1268.41 23.0597H1359.94L1383.29 40.4812H1323.62L1313.74 32.063L1320.68 29.7989L1327.77 35.8162H1367.16L1356.28 27.6639H1273.22L1288.23 42.3046H1422.77L1392.21 21.7453H1305.57L1304.86 17.164H1395.62L1440.12 47H1283.68L1247.25 11.329H1433.64L1556.28 85.2921H1500.71L1528.02 103.481H1395.83L1355.3 68.8052H1260.86L1303.92 118.631H1855.02L1857.02 123.66H1298.79L1197.64 6.05618H1925.55L1921.87 5.00771Z" fill="url(#paint0_linear_2886_1237)"/>
<defs>
<linearGradient id="paint0_linear_2886_1237" x1="965.875" y1="0.498097" x2="965.875" y2="319.787" gradientUnits="userSpaceOnUse">
<stop stop-color="white" stop-opacity="0.2"/>
<stop offset="0.4147" stop-color="#EBEBEB" stop-opacity="0.5317"/>
<stop offset="1" stop-color="#C8C8C8" stop-opacity="0.47"/>
</linearGradient>
</defs>
</svg>
