<svg width="174" height="174" viewBox="0 0 174 174" fill="none" xmlns="http://www.w3.org/2000/svg">
<circle cx="39.0802" cy="134.92" r="37.0802" stroke="#483EA8" stroke-opacity="0.46" stroke-width="4"/>
<circle cx="39.0802" cy="39.0802" r="37.0802" stroke="#483EA8" stroke-opacity="0.46" stroke-width="4"/>
<path d="M37.2197 98.6313L37.2197 75.8346" stroke="#483EA8" stroke-opacity="0.46" stroke-width="4"/>
<path d="M63.9482 109.172L107.638 67.7212" stroke="#483EA8" stroke-opacity="0.46" stroke-width="4"/>
<circle cx="133.989" cy="39.0802" r="37.0802" stroke="#483EA8" stroke-opacity="0.46" stroke-width="4"/>
<path d="M102.98 146.75C102.98 147.331 102.513 147.802 101.936 147.802C101.36 147.802 100.893 147.331 100.893 146.75V146.597C100.893 146.016 101.36 145.544 101.936 145.544C102.513 145.544 102.98 146.016 102.98 146.597V146.75ZM124.156 132.367C125.482 132.367 126.689 132.913 127.562 133.79C128.437 134.669 128.978 135.886 128.978 137.226C128.978 138.026 128.783 138.787 128.437 139.459C128.185 139.949 127.853 140.39 127.459 140.766L128.334 145.969C128.369 146.18 128.388 146.386 128.388 146.577C128.388 147.443 128.076 148.249 127.551 148.873L127.491 148.939C126.975 149.528 126.26 149.948 125.445 150.087C125.241 150.123 125.037 150.142 124.838 150.142H123.474C123.275 150.142 123.069 150.123 122.868 150.09L122.821 150.082C121.99 149.928 121.272 149.487 120.761 148.876C120.236 148.251 119.924 147.443 119.924 146.577C119.924 146.383 119.94 146.18 119.975 145.966L120.851 140.768C120.457 140.396 120.125 139.955 119.875 139.467C119.527 138.795 119.331 138.036 119.331 137.234C119.331 135.894 119.872 134.677 120.745 133.798L120.81 133.737C121.677 132.893 122.857 132.373 124.153 132.373L124.156 132.367ZM126.089 135.277C125.597 134.779 124.912 134.472 124.156 134.472C123.422 134.472 122.756 134.762 122.27 135.231L122.223 135.28C121.729 135.779 121.421 136.469 121.421 137.228C121.421 137.686 121.533 138.116 121.726 138.494C121.927 138.889 122.223 139.229 122.579 139.483C122.895 139.708 123.074 140.103 123.009 140.514C122.691 142.404 122.155 144.709 122.014 146.572C122.014 146.931 122.142 147.262 122.354 147.514C122.563 147.764 122.857 147.947 123.191 148.01L123.476 148.035H124.841L125.099 148.016C125.431 147.958 125.719 147.794 125.928 147.564L125.964 147.517C126.176 147.265 126.303 146.934 126.303 146.577L126.282 146.314L125.311 140.544C125.235 140.149 125.387 139.73 125.735 139.483C126.094 139.229 126.388 138.892 126.589 138.5C126.782 138.122 126.893 137.689 126.893 137.228C126.893 136.467 126.586 135.779 126.092 135.28L126.089 135.277ZM150.412 128.907C149.841 128.849 149.422 128.337 149.48 127.761C149.537 127.186 150.045 126.764 150.616 126.822L161.696 127.959C162.266 128.016 162.685 128.529 162.628 129.104C162.571 129.679 162.063 130.101 161.492 130.044L150.412 128.907ZM148.637 123.383C148.12 123.635 147.495 123.416 147.245 122.895C146.995 122.374 147.212 121.744 147.729 121.492L158.181 116.42C158.698 116.168 159.323 116.387 159.573 116.908C159.823 117.429 159.605 118.059 159.089 118.311L148.637 123.383ZM150.635 107.331C150.945 106.844 151.592 106.701 152.075 107.014C152.559 107.326 152.701 107.978 152.391 108.466L146.367 117.908C146.057 118.396 145.41 118.538 144.926 118.226C144.443 117.914 144.301 117.261 144.611 116.774L150.635 107.331ZM112.505 123.361V112.576C112.505 108.611 113.696 105.543 115.637 103.405C117.781 101.046 120.81 99.8489 124.156 99.8489C127.532 99.8489 130.59 100.95 132.743 103.321C134.643 105.414 135.806 108.466 135.806 112.579V123.364H139.843V111.754C139.843 110.995 139.791 110.261 139.696 109.557C139.596 108.83 139.443 108.115 139.245 107.417C139.087 106.86 139.408 106.277 139.963 106.118C140.514 105.959 141.093 106.282 141.251 106.841C141.471 107.622 141.645 108.433 141.759 109.269C141.871 110.091 141.931 110.924 141.931 111.757V123.366H142.268C143.687 123.366 144.975 123.95 145.908 124.89L145.967 124.956C146.864 125.893 147.419 127.164 147.419 128.559V153.962C147.419 155.387 146.84 156.686 145.908 157.625C144.97 158.568 143.684 159.154 142.268 159.154H105.196C104.014 159.154 102.934 158.664 102.157 157.878C101.374 157.094 100.89 156.006 100.89 154.811V151.685C100.89 151.104 101.358 150.633 101.934 150.633C102.51 150.633 102.978 151.104 102.978 151.685V154.811C102.978 155.425 103.228 155.984 103.63 156.392C104.03 156.798 104.584 157.05 105.196 157.05H142.268C143.11 157.05 143.877 156.702 144.432 156.146C144.986 155.587 145.329 154.811 145.329 153.965V128.562C145.329 127.737 145.002 126.981 144.475 126.427L144.426 126.383C143.872 125.824 143.105 125.476 142.262 125.476H106.033C105.191 125.476 104.424 125.824 103.872 126.381C103.315 126.942 102.972 127.715 102.972 128.564V141.681C102.972 142.262 102.505 142.733 101.929 142.733C101.352 142.733 100.885 142.262 100.885 141.681V128.564C100.885 127.142 101.464 125.843 102.396 124.901L102.402 124.895C103.334 123.956 104.62 123.375 106.033 123.375H106.373V111.765C106.373 106.863 108.363 102.402 111.57 99.1689L111.576 99.1634C114.783 95.9329 119.206 93.9272 124.069 93.9272C127.152 93.9272 130.06 94.7082 132.602 96.0837C135.222 97.5057 137.454 99.5662 139.072 102.068C139.384 102.553 139.248 103.205 138.767 103.52C138.286 103.835 137.639 103.698 137.326 103.213C135.899 101.01 133.931 99.1908 131.615 97.9359C129.375 96.722 126.804 96.0343 124.069 96.0343C119.774 96.0343 115.871 97.8044 113.044 100.654C110.214 103.506 108.458 107.441 108.458 111.771V123.38H112.497L112.505 123.361ZM133.719 123.361V112.576C133.719 109.025 132.767 106.447 131.21 104.731C129.483 102.832 126.969 101.95 124.155 101.95C121.383 101.95 118.898 102.915 117.172 104.816C115.574 106.578 114.595 109.167 114.595 112.576V123.36H133.721L133.719 123.361Z" fill="#483EA8" fill-opacity="0.46"/>
</svg>
