<svg width="235" height="257" viewBox="0 0 235 257" fill="none" xmlns="http://www.w3.org/2000/svg">
<g opacity="0.08">
<path d="M45.2942 122.646V53.1155C45.2935 52.2375 45.4661 51.368 45.802 50.5568C46.1379 49.7456 46.6306 49.0087 47.2519 48.3882L82.2673 13.3727C83.5177 12.1208 85.2141 11.4166 86.9835 11.415H216.59C218.36 11.415 220.057 12.1182 221.309 13.3698C222.561 14.6214 223.264 16.3189 223.264 18.0889V227.203C223.264 228.973 222.561 230.671 221.309 231.922C220.057 233.174 218.36 233.877 216.59 233.877H123.156M178.771 100.4H89.7866M178.771 55.9074H134.279M178.771 144.892H145.402" stroke="#483EA8" stroke-width="22.25" stroke-linecap="round" stroke-linejoin="round"/>
<path d="M89.7861 11.415V49.2336C89.7861 51.0036 89.083 52.7011 87.8314 53.9527C86.5798 55.2043 84.8823 55.9074 83.1123 55.9074H45.2938M45.3827 157.406L16.9521 164.625C13.9934 165.381 11.9133 168.073 12.0023 171.12C13.9155 235.167 50.8553 245 50.8553 245C50.8553 245 87.7951 235.167 89.7083 171.12C89.7386 169.638 89.2658 168.188 88.3669 167.009C87.4681 165.829 86.1962 164.989 84.7585 164.625L56.3279 157.406C52.7351 156.494 48.9755 156.494 45.3827 157.406Z" stroke="#483EA8" stroke-width="22.25" stroke-linecap="round" stroke-linejoin="round"/>
</g>
</svg>
