<?xml version="1.0" encoding="utf-8"?>
<!-- Generator: Adobe Illustrator 26.0.1, SVG Export Plug-In . SVG Version: 6.00 Build 0)  -->
<svg version="1.1" id="Layer_1" xmlns="http://www.w3.org/2000/svg" xmlns:xlink="http://www.w3.org/1999/xlink" x="0px" y="0px"
	 viewBox="0 0 300 93" style="enable-background:new 0 0 300 93;" xml:space="preserve">
<style type="text/css">
	.st0{fill:none;}
	.st1{fill:url(#SVGID_1_);}
	
		.st2{clip-path:url(#SVGID_00000177485669361745517030000014322738289663794089_);fill:url(#SVGID_00000057861729758847504060000004618692310251785655_);}
	
		.st3{clip-path:url(#SVGID_00000108992592199125156850000009182252778342828709_);fill:url(#SVGID_00000007396782815849758650000002429765687582523311_);}
	
		.st4{opacity:0.55;clip-path:url(#SVGID_00000004518446644024327950000007125376207218894010_);fill:#051D1E;enable-background:new    ;}
	
		.st5{opacity:0.55;clip-path:url(#SVGID_00000124876218057673736850000017112828580660528267_);fill:url(#SVGID_00000152948724232467231270000007101323152876409233_);enable-background:new    ;}
	
		.st6{opacity:0.55;clip-path:url(#SVGID_00000018960012737745760570000013068256765913346734_);fill:url(#SVGID_00000035528140725430391630000016007360570063216032_);enable-background:new    ;}
	
		.st7{opacity:0.55;clip-path:url(#SVGID_00000066491520340666941710000003272373062859541936_);fill:url(#SVGID_00000161610744122432005020000011560370793511530422_);enable-background:new    ;}
	
		.st8{opacity:0.55;clip-path:url(#SVGID_00000142879220037123425400000017605647196744418456_);fill:url(#SVGID_00000119805303841553888800000001527832792169780619_);enable-background:new    ;}
	
		.st9{clip-path:url(#SVGID_00000036944981032180418880000002850998296213124764_);fill:url(#SVGID_00000150081172884797447560000000974830638370312613_);}
	
		.st10{clip-path:url(#SVGID_00000160888512664559956690000017666279785000886442_);fill:url(#SVGID_00000077301350709143559810000003663464448424960130_);}
	
		.st11{clip-path:url(#SVGID_00000160167223225007069840000005872059630650971577_);fill:url(#SVGID_00000049938855255561765470000011124822322285244827_);}
	.st12{clip-path:url(#SVGID_00000070084768267099260670000010301138931280926086_);}
	
		.st13{opacity:0.55;clip-path:url(#SVGID_00000109736184185277135250000002934721555993676722_);fill:url(#SVGID_00000161595207613372313060000011892956620703671203_);enable-background:new    ;}
	
		.st14{clip-path:url(#SVGID_00000147899874248462755850000015440290646343370377_);fill:url(#SVGID_00000024683423077301658340000017991622605146098109_);}
	
		.st15{clip-path:url(#SVGID_00000048487739801800873940000009235674475914015381_);fill:url(#SVGID_00000031184877977626997570000014659207472236657043_);}
	
		.st16{opacity:0.55;clip-path:url(#SVGID_00000020385402461483987330000013369871377105397406_);fill:url(#SVGID_00000142889860534117766960000000166509811307333007_);enable-background:new    ;}
	.st17{fill:url(#SVGID_00000168795832031052184350000000218894808216623550_);}
	.st18{fill:url(#SVGID_00000013880371847307803290000016857760949653941141_);}
	.st19{fill:url(#SVGID_00000044881481851085696410000013889329640646901398_);}
	.st20{fill:url(#SVGID_00000178196167411527589310000006652628486689301911_);}
	.st21{fill:url(#SVGID_00000077282558295116747230000008835035235782906288_);}
	.st22{fill:url(#SVGID_00000129184329194174596940000014293645962840704416_);}
	.st23{fill:url(#SVGID_00000111898224618029414700000011688839248198487940_);}
	.st24{display:none;}
	.st25{display:inline;}
	.st26{font-family:'Questrial-Regular';}
	.st27{font-size:44.9067px;}
	.st28{font-size:14.9689px;}
</style>
<g>
	<g id="Layer_1_00000108272795835715323880000013979359534240445075_">
		<g>
			<rect x="-0.1" y="3.3" class="st0" width="86.4" height="86.4"/>
		</g>
		<g>
			<g>
				
					<linearGradient id="SVGID_1_" gradientUnits="userSpaceOnUse" x1="72.0337" y1="66.4626" x2="20.0494" y2="24.2867" gradientTransform="matrix(1 0 0 -1 0 93)">
					<stop  offset="0" style="stop-color:#810000"/>
					<stop  offset="9.080000e-02" style="stop-color:#8D0000"/>
					<stop  offset="0.2215" style="stop-color:#990000"/>
					<stop  offset="0.5122" style="stop-color:#C50000"/>
					<stop  offset="0.5702" style="stop-color:#CD0000"/>
					<stop  offset="0.6612" style="stop-color:#E40000"/>
					<stop  offset="0.6658" style="stop-color:#E50000"/>
					<stop  offset="0.7846" style="stop-color:#C50000"/>
					<stop  offset="1" style="stop-color:#8B0000"/>
				</linearGradient>
				<path class="st1" d="M54.9,17.7c-3.1-3.1-7-5.8-11.5-8.3c1.4,0.3,2.7,0.6,4.1,1c5.1,1.3,10.1,2.7,14.9,4.9
					c1,0.4,1.7,1.1,2.1,2.1c2.3,5.2,3.6,10.6,2.8,16.4c-0.2,1.3-0.5,2.5-0.8,4c1.9-2.8,3.1-5.7,3.9-8.8c0.8-3,1-6.1,0.7-9.4
					c1.1,0.7,2.1,1.3,3.1,1.9c1.7,1,3.4,2.1,5.1,3.1c0.4,0.2,0.7,0.4,0.4,0.9c-2.2,5.6-4.9,10.9-8.8,15.6c-0.4,0.5-0.8,0.9-1.3,1.4
					c-0.4,0.4-0.9,0.9-1.4,1.3c0,0.1,0.1,0.1,0.1,0.2c1.4-0.8,2.8-1.5,4.1-2.4c1.4-0.9,2.7-2,3.9-3.1c1.2-1.1,2.2-2.3,3.5-3.6
					c-0.2,1.8-0.4,3.6-0.6,5.3c-0.2,1.3-0.5,2.6-0.7,4c-0.1,0.8-0.5,1.2-1.1,1.6c-3.3,2-6.9,3.4-10.6,4.6c-0.4,0.1-0.7,0.3-1.1,0.4
					c4.1-0.2,7.9-1.5,11.9-2.9c-0.1,0.4-0.2,0.7-0.3,1c-0.7,2-1.4,4-2,6c-0.2,0.8-0.7,1.2-1.5,1.3c-2.6,0.3-5.1,0.5-7.7,0.8
					c-0.5,0-1,0-1.5,0c0,0.1,0,0.2,0,0.3c3,0.4,6,0.8,9.2,1.2c-1,1.7-1.9,3.4-2.9,5.1c-0.1,0.2-0.7,0.3-0.9,0.2
					c-2.7-0.7-5.3-1.3-8.2-2.1c2,2.4,4.6,3.5,7.1,5c-1.2,1.5-2.3,3-3.5,4.4c-0.1,0.1-0.6,0.1-0.9,0c-2.3-1.2-4.7-2.5-7.1-3.6
					c1.9,2,3.9,3.9,5.9,6c-1,1-2,2.2-3.1,3.3c-2.5-1.9-4.9-3.8-7.3-5.6c-0.1,0.1-0.1,0.1-0.2,0.2c1.8,2.4,3.7,4.8,5.6,7.2
					c-4.8,4-9.4,7.9-14.8,10.9c-0.7,0.4-1.1,0.3-1.8-0.1c-2.5-1.7-5-3.4-7.6-5c-1.6-1-2.7-2.4-3.4-4c-0.2-0.5-0.5-1.1-0.7-1.7
					c-0.4,0.6-0.7,1.1-1.1,1.7c-1.3-1.4-1.9-3-2.4-4.9c-0.3,0.7-0.5,1.3-0.8,1.9c-1.5-2.1-2-4.4-2.2-7c-0.4,0.7-0.8,1.2-1.2,1.9
					c-0.6-2-0.6-3.9-0.3-5.9c-0.5,0.2-0.8,0.3-1.4,0.5c0.3-2.9,1.6-5.2,3.4-7.4c-0.5,0-0.8,0-1.3,0.1c1.3-2.3,3.2-4.1,5.1-5.9
					c-0.5,0-0.9,0-1.6,0c0.8-0.8,1.3-1.5,2-2.1c1.4-1.3,2.9-2.5,4.3-3.7c0.4-0.4,0.9-0.8,1.1-1.3c0.6-1.3-0.2-2.4-1.6-2.3
					c-1.6,0.1-3.3,1.1-3.1,3.1c0,0.2-0.3,0.5-0.5,0.7c-0.8,0.6-1.7,1-2.5,1.6c-1,0.8-1.5,1.8-1.2,3.2c-1.7-0.7-2.7-2.7-2.3-4.7
					c0.2-0.8,0.2-1.5,0-2.4c-0.5-2.2-0.4-4.3,0.7-6.3c0.6-1.1,1.2-2.1,1.7-3.2c0.9-2,1.7-4,2.6-6c0.3,0.9,0.6,1.9,1,3
					c1.5-1.6,3.2-2.8,5.2-3.6c2-0.8,4.1-1.1,6.6-0.9c-2.5,1.1-4.5,2.3-6.1,4.4c1.4-0.2,2.7-0.4,4-0.5c1.9-0.1,3.9-0.1,5.8-0.2
					c2-0.1,3.9-0.6,5.7-1.7c-0.4,1.1-1.9,2.6-3.6,3.6c-1.5,0.8-3.1,1.5-4.8,2.3c2.3,0.5,4.5,0.9,6.8,1.4c-0.8,1.1-2.1,1.1-3.4,1.5
					c2,1.6,3.5,3.4,3.9,6c-0.9-0.5-1.7-1-2.6-1.5c0.1,1.3,0.3,2.3,0.3,3.4c0,1.9-0.6,3.6-1.3,5.3c-0.9,2.1-1.6,4.2-2.5,6.4
					c-0.1,0.2-0.1,0.4-0.2,0.9c1-1.2,1.7-2.2,2.6-3.2c2.7-2.9,5.4-5.7,8.2-8.5c4.9-4.8,7.7-10.5,7.4-17.4
					C60.1,25.1,58.1,21.1,54.9,17.7L54.9,17.7z M24.8,40.1c-0.4,1.1-0.8,2.2-1.2,3.3C25.4,43.7,25.9,42.6,24.8,40.1z"/>
			</g>
			<g>
				<g>
					<defs>
						<path id="SVGID_00000093883665961600304710000000647339801095824831_" d="M58.3,78.1c-4.8,4-9.4,7.9-14.8,10.9
							c-0.7,0.4-1.1,0.3-1.8-0.1c-2.5-1.7-5-3.4-7.6-5c-1.6-1-2.7-2.4-3.4-4c-0.2-0.5-0.5-1.1-0.7-1.7c-0.4,0.6-0.7,1.1-1.1,1.7
							c-1.3-1.4-1.9-3-2.4-4.9c-0.3,0.7-0.5,1.3-0.8,1.9c-1.5-2.1-2-4.4-2.2-7c-0.4,0.7-0.8,1.2-1.2,1.9c-0.6-2-0.6-3.9-0.3-5.9
							c-0.5,0.2-0.8,0.3-1.4,0.5c0.3-2.9,1.6-5.2,3.4-7.4c-0.5,0-0.8,0-1.3,0.1c1.3-2.3,3.2-4.1,5.1-5.9c-0.5,0-0.9,0-1.6,0
							c0.8-0.8,1.3-1.5,2-2.1c1.4-1.3,2.9-2.5,4.3-3.7c0.4-0.4,0.9-0.8,1.1-1.3c0.6-1.3-0.2-2.4-1.6-2.3c-1.6,0.1-3.3,1.1-3.1,3.1
							c0,0.2-0.3,0.5-0.5,0.7c-0.8,0.6-1.7,1-2.5,1.6c-1,0.8-1.5,1.8-1.2,3.2c-1.7-0.7-2.7-2.7-2.3-4.7c0.2-0.8,0.2-1.5,0-2.4
							c-0.5-2.2-0.4-4.3,0.7-6.3c0.6-1.1,1.2-2.1,1.7-3.2c0.9-2,1.7-4,2.6-6c0.3,0.9,0.6,1.9,1,3c1.5-1.6,3.2-2.8,5.2-3.6
							c2-0.8,4.1-1.1,6.6-0.9c-2.5,1.1-4.5,2.3-6.1,4.4c1.4-0.2,2.7-0.4,4-0.5c1.9-0.1,3.9-0.1,5.8-0.2c2-0.1,3.9-0.6,5.7-1.7
							c-0.4,1.1-1.9,2.6-3.6,3.6c-1.5,0.8-3.1,1.5-4.8,2.3c2.3,0.5,4.5,0.9,6.8,1.4c-0.8,1.1-2.1,1.1-3.4,1.5c2,1.6,3.5,3.4,3.9,6
							c-0.9-0.5-1.7-1-2.6-1.5c0.1,1.3,0.3,2.3,0.3,3.4c0,1.9-0.6,3.6-1.3,5.3c-0.9,2.1-1.6,4.2-2.5,6.4c-0.1,0.2-0.1,0.4-0.2,0.9
							c1-1.2,1.7-2.2,2.6-3.2c2.7-2.9,5.4-5.7,8.2-8.5c4.9-4.8,7.7-10.5,7.4-17.4c-0.2-4.7-2.3-8.6-5.5-12c-3-3.2-6.8-5.6-10.8-7.7
							c-0.3-0.1-0.5-0.3-0.7-0.6c1.4,0.3,2.7,0.6,4.1,1c5.1,1.3,10.1,2.7,14.9,4.9c1,0.4,1.7,1.1,2.1,2.1c2.3,5.2,3.6,10.6,2.8,16.4
							c-0.2,1.3-0.5,2.5-0.8,4c1.9-2.8,3.1-5.7,3.9-8.8c0.8-3,1-6.1,0.7-9.4c1.1,0.7,2.1,1.3,3.1,1.9c1.7,1,3.4,2.1,5.1,3.1
							c0.4,0.2,0.7,0.4,0.4,0.9c-2.2,5.6-4.9,10.9-8.8,15.6c-0.4,0.5-0.8,0.9-1.3,1.4c-0.4,0.4-0.9,0.9-1.4,1.3
							c0,0.1,0.1,0.1,0.1,0.2c1.4-0.8,2.8-1.5,4.1-2.4c1.4-0.9,2.7-2,3.9-3.1c1.2-1.1,2.2-2.3,3.5-3.6c-0.2,1.8-0.4,3.6-0.6,5.3
							c-0.2,1.3-0.5,2.6-0.7,4c-0.1,0.8-0.5,1.2-1.1,1.6c-3.3,2-6.9,3.4-10.6,4.6c-0.4,0.1-0.7,0.3-1.1,0.4
							c4.1-0.2,7.9-1.5,11.9-2.9c-0.1,0.4-0.2,0.7-0.3,1c-0.7,2-1.4,4-2,6c-0.2,0.8-0.7,1.2-1.5,1.3c-2.6,0.3-5.1,0.5-7.7,0.8
							c-0.5,0-1,0-1.5,0c0,0.1,0,0.2,0,0.3c3,0.4,6,0.8,9.2,1.2c-1,1.7-1.9,3.4-2.9,5.1c-0.1,0.2-0.7,0.3-0.9,0.2
							c-2.7-0.7-5.3-1.3-8.2-2.1c2,2.4,4.6,3.5,7.1,5c-1.2,1.5-2.3,3-3.5,4.4c-0.1,0.1-0.6,0.1-0.9,0c-2.3-1.2-4.7-2.5-7.1-3.6
							c1.9,2,3.9,3.9,5.9,6c-1,1-2,2.2-3.1,3.3c-2.5-1.9-4.9-3.8-7.3-5.6c-0.1,0.1-0.1,0.1-0.2,0.2C54.5,73.2,56.3,75.6,58.3,78.1z
							 M24.8,40.1c-0.4,1.1-0.8,2.2-1.2,3.3C25.4,43.7,25.9,42.6,24.8,40.1z"/>
					</defs>
					<clipPath id="SVGID_00000138570889089441244150000009438741040824386733_">
						<use xlink:href="#SVGID_00000093883665961600304710000000647339801095824831_"  style="overflow:visible;"/>
					</clipPath>
					
						<linearGradient id="SVGID_00000129902306545161867570000012764169395760087185_" gradientUnits="userSpaceOnUse" x1="37.8304" y1="5.3436" x2="25.6517" y2="39.4277" gradientTransform="matrix(1 0 0 -1 0 93)">
						<stop  offset="0" style="stop-color:#572327"/>
						<stop  offset="1" style="stop-color:#BB0000"/>
					</linearGradient>
					
						<path style="clip-path:url(#SVGID_00000138570889089441244150000009438741040824386733_);fill:url(#SVGID_00000129902306545161867570000012764169395760087185_);" d="
						M42.6,89.2c-1.5-16.9-29.1-14.1-9-43.6l-10,8.4l-4.5,11.7l2.7,6.1l2.8,4.1l4.2,9.8L42.6,89.2z"/>
				</g>
				<g>
					<defs>
						<path id="SVGID_00000161590308715937491990000007739349125349428382_" d="M58.3,78.1c-4.8,4-9.4,7.9-14.8,10.9
							c-0.7,0.4-1.1,0.3-1.8-0.1c-2.5-1.7-5-3.4-7.6-5c-1.6-1-2.7-2.4-3.4-4c-0.2-0.5-0.5-1.1-0.7-1.7c-0.4,0.6-0.7,1.1-1.1,1.7
							c-1.3-1.4-1.9-3-2.4-4.9c-0.3,0.7-0.5,1.3-0.8,1.9c-1.5-2.1-2-4.4-2.2-7c-0.4,0.7-0.8,1.2-1.2,1.9c-0.6-2-0.6-3.9-0.3-5.9
							c-0.5,0.2-0.8,0.3-1.4,0.5c0.3-2.9,1.6-5.2,3.4-7.4c-0.5,0-0.8,0-1.3,0.1c1.3-2.3,3.2-4.1,5.1-5.9c-0.5,0-0.9,0-1.6,0
							c0.8-0.8,1.3-1.5,2-2.1c1.4-1.3,2.9-2.5,4.3-3.7c0.4-0.4,0.9-0.8,1.1-1.3c0.6-1.3-0.2-2.4-1.6-2.3c-1.6,0.1-3.3,1.1-3.1,3.1
							c0,0.2-0.3,0.5-0.5,0.7c-0.8,0.6-1.7,1-2.5,1.6c-1,0.8-1.5,1.8-1.2,3.2c-1.7-0.7-2.7-2.7-2.3-4.7c0.2-0.8,0.2-1.5,0-2.4
							c-0.5-2.2-0.4-4.3,0.7-6.3c0.6-1.1,1.2-2.1,1.7-3.2c0.9-2,1.7-4,2.6-6c0.3,0.9,0.6,1.9,1,3c1.5-1.6,3.2-2.8,5.2-3.6
							c2-0.8,4.1-1.1,6.6-0.9c-2.5,1.1-4.5,2.3-6.1,4.4c1.4-0.2,2.7-0.4,4-0.5c1.9-0.1,3.9-0.1,5.8-0.2c2-0.1,3.9-0.6,5.7-1.7
							c-0.4,1.1-1.9,2.6-3.6,3.6c-1.5,0.8-3.1,1.5-4.8,2.3c2.3,0.5,4.5,0.9,6.8,1.4c-0.8,1.1-2.1,1.1-3.4,1.5c2,1.6,3.5,3.4,3.9,6
							c-0.9-0.5-1.7-1-2.6-1.5c0.1,1.3,0.3,2.3,0.3,3.4c0,1.9-0.6,3.6-1.3,5.3c-0.9,2.1-1.6,4.2-2.5,6.4c-0.1,0.2-0.1,0.4-0.2,0.9
							c1-1.2,1.7-2.2,2.6-3.2c2.7-2.9,5.4-5.7,8.2-8.5c4.9-4.8,7.7-10.5,7.4-17.4c-0.2-4.7-2.3-8.6-5.5-12c-3-3.2-6.8-5.6-10.8-7.7
							c-0.3-0.1-0.5-0.3-0.7-0.6c1.4,0.3,2.7,0.6,4.1,1c5.1,1.3,10.1,2.7,14.9,4.9c1,0.4,1.7,1.1,2.1,2.1c2.3,5.2,3.6,10.6,2.8,16.4
							c-0.2,1.3-0.5,2.5-0.8,4c1.9-2.8,3.1-5.7,3.9-8.8c0.8-3,1-6.1,0.7-9.4c1.1,0.7,2.1,1.3,3.1,1.9c1.7,1,3.4,2.1,5.1,3.1
							c0.4,0.2,0.7,0.4,0.4,0.9c-2.2,5.6-4.9,10.9-8.8,15.6c-0.4,0.5-0.8,0.9-1.3,1.4c-0.4,0.4-0.9,0.9-1.4,1.3
							c0,0.1,0.1,0.1,0.1,0.2c1.4-0.8,2.8-1.5,4.1-2.4c1.4-0.9,2.7-2,3.9-3.1c1.2-1.1,2.2-2.3,3.5-3.6c-0.2,1.8-0.4,3.6-0.6,5.3
							c-0.2,1.3-0.5,2.6-0.7,4c-0.1,0.8-0.5,1.2-1.1,1.6c-3.3,2-6.9,3.4-10.6,4.6c-0.4,0.1-0.7,0.3-1.1,0.4
							c4.1-0.2,7.9-1.5,11.9-2.9c-0.1,0.4-0.2,0.7-0.3,1c-0.7,2-1.4,4-2,6c-0.2,0.8-0.7,1.2-1.5,1.3c-2.6,0.3-5.1,0.5-7.7,0.8
							c-0.5,0-1,0-1.5,0c0,0.1,0,0.2,0,0.3c3,0.4,6,0.8,9.2,1.2c-1,1.7-1.9,3.4-2.9,5.1c-0.1,0.2-0.7,0.3-0.9,0.2
							c-2.7-0.7-5.3-1.3-8.2-2.1c2,2.4,4.6,3.5,7.1,5c-1.2,1.5-2.3,3-3.5,4.4c-0.1,0.1-0.6,0.1-0.9,0c-2.3-1.2-4.7-2.5-7.1-3.6
							c1.9,2,3.9,3.9,5.9,6c-1,1-2,2.2-3.1,3.3c-2.5-1.9-4.9-3.8-7.3-5.6c-0.1,0.1-0.1,0.1-0.2,0.2C54.5,73.2,56.3,75.6,58.3,78.1z
							 M24.8,40.1c-0.4,1.1-0.8,2.2-1.2,3.3C25.4,43.7,25.9,42.6,24.8,40.1z"/>
					</defs>
					<clipPath id="SVGID_00000114069852089211542920000016606611833444024216_">
						<use xlink:href="#SVGID_00000161590308715937491990000007739349125349428382_"  style="overflow:visible;"/>
					</clipPath>
					
						<linearGradient id="SVGID_00000054239973170461710840000004311756696474616766_" gradientUnits="userSpaceOnUse" x1="52.225" y1="38.3732" x2="50.672" y2="80.7126" gradientTransform="matrix(1 0 0 -1 0 93)">
						<stop  offset="0" style="stop-color:#6D2327"/>
						<stop  offset="1" style="stop-color:#DF231A"/>
					</linearGradient>
					
						<path style="clip-path:url(#SVGID_00000114069852089211542920000016606611833444024216_);fill:url(#SVGID_00000054239973170461710840000004311756696474616766_);" d="
						M43.4,9.4c25.8,11.5,23.3,34.2-1.2,49.4C55,42.8,66.3,23.3,43.4,9.4z"/>
				</g>
				<g>
					<defs>
						<path id="SVGID_00000067218090819343088700000017470616607076894863_" d="M58.3,78.1c-4.8,4-9.4,7.9-14.8,10.9
							c-0.7,0.4-1.1,0.3-1.8-0.1c-2.5-1.7-5-3.4-7.6-5c-1.6-1-2.7-2.4-3.4-4c-0.2-0.5-0.5-1.1-0.7-1.7c-0.4,0.6-0.7,1.1-1.1,1.7
							c-1.3-1.4-1.9-3-2.4-4.9c-0.3,0.7-0.5,1.3-0.8,1.9c-1.5-2.1-2-4.4-2.2-7c-0.4,0.7-0.8,1.2-1.2,1.9c-0.6-2-0.6-3.9-0.3-5.9
							c-0.5,0.2-0.8,0.3-1.4,0.5c0.3-2.9,1.6-5.2,3.4-7.4c-0.5,0-0.8,0-1.3,0.1c1.3-2.3,3.2-4.1,5.1-5.9c-0.5,0-0.9,0-1.6,0
							c0.8-0.8,1.3-1.5,2-2.1c1.4-1.3,2.9-2.5,4.3-3.7c0.4-0.4,0.9-0.8,1.1-1.3c0.6-1.3-0.2-2.4-1.6-2.3c-1.6,0.1-3.3,1.1-3.1,3.1
							c0,0.2-0.3,0.5-0.5,0.7c-0.8,0.6-1.7,1-2.5,1.6c-1,0.8-1.5,1.8-1.2,3.2c-1.7-0.7-2.7-2.7-2.3-4.7c0.2-0.8,0.2-1.5,0-2.4
							c-0.5-2.2-0.4-4.3,0.7-6.3c0.6-1.1,1.2-2.1,1.7-3.2c0.9-2,1.7-4,2.6-6c0.3,0.9,0.6,1.9,1,3c1.5-1.6,3.2-2.8,5.2-3.6
							c2-0.8,4.1-1.1,6.6-0.9c-2.5,1.1-4.5,2.3-6.1,4.4c1.4-0.2,2.7-0.4,4-0.5c1.9-0.1,3.9-0.1,5.8-0.2c2-0.1,3.9-0.6,5.7-1.7
							c-0.4,1.1-1.9,2.6-3.6,3.6c-1.5,0.8-3.1,1.5-4.8,2.3c2.3,0.5,4.5,0.9,6.8,1.4c-0.8,1.1-2.1,1.1-3.4,1.5c2,1.6,3.5,3.4,3.9,6
							c-0.9-0.5-1.7-1-2.6-1.5c0.1,1.3,0.3,2.3,0.3,3.4c0,1.9-0.6,3.6-1.3,5.3c-0.9,2.1-1.6,4.2-2.5,6.4c-0.1,0.2-0.1,0.4-0.2,0.9
							c1-1.2,1.7-2.2,2.6-3.2c2.7-2.9,5.4-5.7,8.2-8.5c4.9-4.8,7.7-10.5,7.4-17.4c-0.2-4.7-2.3-8.6-5.5-12c-3-3.2-6.8-5.6-10.8-7.7
							c-0.3-0.1-0.5-0.3-0.7-0.6c1.4,0.3,2.7,0.6,4.1,1c5.1,1.3,10.1,2.7,14.9,4.9c1,0.4,1.7,1.1,2.1,2.1c2.3,5.2,3.6,10.6,2.8,16.4
							c-0.2,1.3-0.5,2.5-0.8,4c1.9-2.8,3.1-5.7,3.9-8.8c0.8-3,1-6.1,0.7-9.4c1.1,0.7,2.1,1.3,3.1,1.9c1.7,1,3.4,2.1,5.1,3.1
							c0.4,0.2,0.7,0.4,0.4,0.9c-2.2,5.6-4.9,10.9-8.8,15.6c-0.4,0.5-0.8,0.9-1.3,1.4c-0.4,0.4-0.9,0.9-1.4,1.3
							c0,0.1,0.1,0.1,0.1,0.2c1.4-0.8,2.8-1.5,4.1-2.4c1.4-0.9,2.7-2,3.9-3.1c1.2-1.1,2.2-2.3,3.5-3.6c-0.2,1.8-0.4,3.6-0.6,5.3
							c-0.2,1.3-0.5,2.6-0.7,4c-0.1,0.8-0.5,1.2-1.1,1.6c-3.3,2-6.9,3.4-10.6,4.6c-0.4,0.1-0.7,0.3-1.1,0.4
							c4.1-0.2,7.9-1.5,11.9-2.9c-0.1,0.4-0.2,0.7-0.3,1c-0.7,2-1.4,4-2,6c-0.2,0.8-0.7,1.2-1.5,1.3c-2.6,0.3-5.1,0.5-7.7,0.8
							c-0.5,0-1,0-1.5,0c0,0.1,0,0.2,0,0.3c3,0.4,6,0.8,9.2,1.2c-1,1.7-1.9,3.4-2.9,5.1c-0.1,0.2-0.7,0.3-0.9,0.2
							c-2.7-0.7-5.3-1.3-8.2-2.1c2,2.4,4.6,3.5,7.1,5c-1.2,1.5-2.3,3-3.5,4.4c-0.1,0.1-0.6,0.1-0.9,0c-2.3-1.2-4.7-2.5-7.1-3.6
							c1.9,2,3.9,3.9,5.9,6c-1,1-2,2.2-3.1,3.3c-2.5-1.9-4.9-3.8-7.3-5.6c-0.1,0.1-0.1,0.1-0.2,0.2C54.5,73.2,56.3,75.6,58.3,78.1z
							 M24.8,40.1c-0.4,1.1-0.8,2.2-1.2,3.3C25.4,43.7,25.9,42.6,24.8,40.1z"/>
					</defs>
					<clipPath id="SVGID_00000086649526593728432540000005681154956478242236_">
						<use xlink:href="#SVGID_00000067218090819343088700000017470616607076894863_"  style="overflow:visible;"/>
					</clipPath>
					
						<path style="opacity:0.55;clip-path:url(#SVGID_00000086649526593728432540000005681154956478242236_);fill:#051D1E;enable-background:new    ;" d="
						M45.8,42.9c1,0.3,1.9,0.7,2.6,1.5"/>
				</g>
				<g>
					<defs>
						<path id="SVGID_00000098934897474895821400000010739526003584807097_" d="M58.3,78.1c-4.8,4-9.4,7.9-14.8,10.9
							c-0.7,0.4-1.1,0.3-1.8-0.1c-2.5-1.7-5-3.4-7.6-5c-1.6-1-2.7-2.4-3.4-4c-0.2-0.5-0.5-1.1-0.7-1.7c-0.4,0.6-0.7,1.1-1.1,1.7
							c-1.3-1.4-1.9-3-2.4-4.9c-0.3,0.7-0.5,1.3-0.8,1.9c-1.5-2.1-2-4.4-2.2-7c-0.4,0.7-0.8,1.2-1.2,1.9c-0.6-2-0.6-3.9-0.3-5.9
							c-0.5,0.2-0.8,0.3-1.4,0.5c0.3-2.9,1.6-5.2,3.4-7.4c-0.5,0-0.8,0-1.3,0.1c1.3-2.3,3.2-4.1,5.1-5.9c-0.5,0-0.9,0-1.6,0
							c0.8-0.8,1.3-1.5,2-2.1c1.4-1.3,2.9-2.5,4.3-3.7c0.4-0.4,0.9-0.8,1.1-1.3c0.6-1.3-0.2-2.4-1.6-2.3c-1.6,0.1-3.3,1.1-3.1,3.1
							c0,0.2-0.3,0.5-0.5,0.7c-0.8,0.6-1.7,1-2.5,1.6c-1,0.8-1.5,1.8-1.2,3.2c-1.7-0.7-2.7-2.7-2.3-4.7c0.2-0.8,0.2-1.5,0-2.4
							c-0.5-2.2-0.4-4.3,0.7-6.3c0.6-1.1,1.2-2.1,1.7-3.2c0.9-2,1.7-4,2.6-6c0.3,0.9,0.6,1.9,1,3c1.5-1.6,3.2-2.8,5.2-3.6
							c2-0.8,4.1-1.1,6.6-0.9c-2.5,1.1-4.5,2.3-6.1,4.4c1.4-0.2,2.7-0.4,4-0.5c1.9-0.1,3.9-0.1,5.8-0.2c2-0.1,3.9-0.6,5.7-1.7
							c-0.4,1.1-1.9,2.6-3.6,3.6c-1.5,0.8-3.1,1.5-4.8,2.3c2.3,0.5,4.5,0.9,6.8,1.4c-0.8,1.1-2.1,1.1-3.4,1.5c2,1.6,3.5,3.4,3.9,6
							c-0.9-0.5-1.7-1-2.6-1.5c0.1,1.3,0.3,2.3,0.3,3.4c0,1.9-0.6,3.6-1.3,5.3c-0.9,2.1-1.6,4.2-2.5,6.4c-0.1,0.2-0.1,0.4-0.2,0.9
							c1-1.2,1.7-2.2,2.6-3.2c2.7-2.9,5.4-5.7,8.2-8.5c4.9-4.8,7.7-10.5,7.4-17.4c-0.2-4.7-2.3-8.6-5.5-12c-3-3.2-6.8-5.6-10.8-7.7
							c-0.3-0.1-0.5-0.3-0.7-0.6c1.4,0.3,2.7,0.6,4.1,1c5.1,1.3,10.1,2.7,14.9,4.9c1,0.4,1.7,1.1,2.1,2.1c2.3,5.2,3.6,10.6,2.8,16.4
							c-0.2,1.3-0.5,2.5-0.8,4c1.9-2.8,3.1-5.7,3.9-8.8c0.8-3,1-6.1,0.7-9.4c1.1,0.7,2.1,1.3,3.1,1.9c1.7,1,3.4,2.1,5.1,3.1
							c0.4,0.2,0.7,0.4,0.4,0.9c-2.2,5.6-4.9,10.9-8.8,15.6c-0.4,0.5-0.8,0.9-1.3,1.4c-0.4,0.4-0.9,0.9-1.4,1.3
							c0,0.1,0.1,0.1,0.1,0.2c1.4-0.8,2.8-1.5,4.1-2.4c1.4-0.9,2.7-2,3.9-3.1c1.2-1.1,2.2-2.3,3.5-3.6c-0.2,1.8-0.4,3.6-0.6,5.3
							c-0.2,1.3-0.5,2.6-0.7,4c-0.1,0.8-0.5,1.2-1.1,1.6c-3.3,2-6.9,3.4-10.6,4.6c-0.4,0.1-0.7,0.3-1.1,0.4
							c4.1-0.2,7.9-1.5,11.9-2.9c-0.1,0.4-0.2,0.7-0.3,1c-0.7,2-1.4,4-2,6c-0.2,0.8-0.7,1.2-1.5,1.3c-2.6,0.3-5.1,0.5-7.7,0.8
							c-0.5,0-1,0-1.5,0c0,0.1,0,0.2,0,0.3c3,0.4,6,0.8,9.2,1.2c-1,1.7-1.9,3.4-2.9,5.1c-0.1,0.2-0.7,0.3-0.9,0.2
							c-2.7-0.7-5.3-1.3-8.2-2.1c2,2.4,4.6,3.5,7.1,5c-1.2,1.5-2.3,3-3.5,4.4c-0.1,0.1-0.6,0.1-0.9,0c-2.3-1.2-4.7-2.5-7.1-3.6
							c1.9,2,3.9,3.9,5.9,6c-1,1-2,2.2-3.1,3.3c-2.5-1.9-4.9-3.8-7.3-5.6c-0.1,0.1-0.1,0.1-0.2,0.2C54.5,73.2,56.3,75.6,58.3,78.1z
							 M24.8,40.1c-0.4,1.1-0.8,2.2-1.2,3.3C25.4,43.7,25.9,42.6,24.8,40.1z"/>
					</defs>
					<clipPath id="SVGID_00000145746611335201250210000007078725883614688403_">
						<use xlink:href="#SVGID_00000098934897474895821400000010739526003584807097_"  style="overflow:visible;"/>
					</clipPath>
					
						<linearGradient id="SVGID_00000124878970960813935220000016434510385665674631_" gradientUnits="userSpaceOnUse" x1="79.1888" y1="67.3293" x2="71.3013" y2="51.595" gradientTransform="matrix(1 0 0 -1 0 93)">
						<stop  offset="0" style="stop-color:#051D1E"/>
						<stop  offset="0.117" style="stop-color:#0B1C1D"/>
						<stop  offset="0.269" style="stop-color:#1B1A1A"/>
						<stop  offset="0.4405" style="stop-color:#361516"/>
						<stop  offset="0.6262" style="stop-color:#5B0F10"/>
						<stop  offset="0.8211" style="stop-color:#8B0808"/>
						<stop  offset="1" style="stop-color:#BD0000"/>
					</linearGradient>
					
						<path style="opacity:0.55;clip-path:url(#SVGID_00000145746611335201250210000007078725883614688403_);fill:url(#SVGID_00000124878970960813935220000016434510385665674631_);enable-background:new    ;" d="
						M80.2,23.5c-1.1,8.5-4.9,15.3-11.9,20.1C74.5,37.3,76.8,29.9,80.2,23.5z"/>
				</g>
				<g>
					<defs>
						<path id="SVGID_00000014592327417774224240000013331573135344780167_" d="M58.3,78.1c-4.8,4-9.4,7.9-14.8,10.9
							c-0.7,0.4-1.1,0.3-1.8-0.1c-2.5-1.7-5-3.4-7.6-5c-1.6-1-2.7-2.4-3.4-4c-0.2-0.5-0.5-1.1-0.7-1.7c-0.4,0.6-0.7,1.1-1.1,1.7
							c-1.3-1.4-1.9-3-2.4-4.9c-0.3,0.7-0.5,1.3-0.8,1.9c-1.5-2.1-2-4.4-2.2-7c-0.4,0.7-0.8,1.2-1.2,1.9c-0.6-2-0.6-3.9-0.3-5.9
							c-0.5,0.2-0.8,0.3-1.4,0.5c0.3-2.9,1.6-5.2,3.4-7.4c-0.5,0-0.8,0-1.3,0.1c1.3-2.3,3.2-4.1,5.1-5.9c-0.5,0-0.9,0-1.6,0
							c0.8-0.8,1.3-1.5,2-2.1c1.4-1.3,2.9-2.5,4.3-3.7c0.4-0.4,0.9-0.8,1.1-1.3c0.6-1.3-0.2-2.4-1.6-2.3c-1.6,0.1-3.3,1.1-3.1,3.1
							c0,0.2-0.3,0.5-0.5,0.7c-0.8,0.6-1.7,1-2.5,1.6c-1,0.8-1.5,1.8-1.2,3.2c-1.7-0.7-2.7-2.7-2.3-4.7c0.2-0.8,0.2-1.5,0-2.4
							c-0.5-2.2-0.4-4.3,0.7-6.3c0.6-1.1,1.2-2.1,1.7-3.2c0.9-2,1.7-4,2.6-6c0.3,0.9,0.6,1.9,1,3c1.5-1.6,3.2-2.8,5.2-3.6
							c2-0.8,4.1-1.1,6.6-0.9c-2.5,1.1-4.5,2.3-6.1,4.4c1.4-0.2,2.7-0.4,4-0.5c1.9-0.1,3.9-0.1,5.8-0.2c2-0.1,3.9-0.6,5.7-1.7
							c-0.4,1.1-1.9,2.6-3.6,3.6c-1.5,0.8-3.1,1.5-4.8,2.3c2.3,0.5,4.5,0.9,6.8,1.4c-0.8,1.1-2.1,1.1-3.4,1.5c2,1.6,3.5,3.4,3.9,6
							c-0.9-0.5-1.7-1-2.6-1.5c0.1,1.3,0.3,2.3,0.3,3.4c0,1.9-0.6,3.6-1.3,5.3c-0.9,2.1-1.6,4.2-2.5,6.4c-0.1,0.2-0.1,0.4-0.2,0.9
							c1-1.2,1.7-2.2,2.6-3.2c2.7-2.9,5.4-5.7,8.2-8.5c4.9-4.8,7.7-10.5,7.4-17.4c-0.2-4.7-2.3-8.6-5.5-12c-3-3.2-6.8-5.6-10.8-7.7
							c-0.3-0.1-0.5-0.3-0.7-0.6c1.4,0.3,2.7,0.6,4.1,1c5.1,1.3,10.1,2.7,14.9,4.9c1,0.4,1.7,1.1,2.1,2.1c2.3,5.2,3.6,10.6,2.8,16.4
							c-0.2,1.3-0.5,2.5-0.8,4c1.9-2.8,3.1-5.7,3.9-8.8c0.8-3,1-6.1,0.7-9.4c1.1,0.7,2.1,1.3,3.1,1.9c1.7,1,3.4,2.1,5.1,3.1
							c0.4,0.2,0.7,0.4,0.4,0.9c-2.2,5.6-4.9,10.9-8.8,15.6c-0.4,0.5-0.8,0.9-1.3,1.4c-0.4,0.4-0.9,0.9-1.4,1.3
							c0,0.1,0.1,0.1,0.1,0.2c1.4-0.8,2.8-1.5,4.1-2.4c1.4-0.9,2.7-2,3.9-3.1c1.2-1.1,2.2-2.3,3.5-3.6c-0.2,1.8-0.4,3.6-0.6,5.3
							c-0.2,1.3-0.5,2.6-0.7,4c-0.1,0.8-0.5,1.2-1.1,1.6c-3.3,2-6.9,3.4-10.6,4.6c-0.4,0.1-0.7,0.3-1.1,0.4
							c4.1-0.2,7.9-1.5,11.9-2.9c-0.1,0.4-0.2,0.7-0.3,1c-0.7,2-1.4,4-2,6c-0.2,0.8-0.7,1.2-1.5,1.3c-2.6,0.3-5.1,0.5-7.7,0.8
							c-0.5,0-1,0-1.5,0c0,0.1,0,0.2,0,0.3c3,0.4,6,0.8,9.2,1.2c-1,1.7-1.9,3.4-2.9,5.1c-0.1,0.2-0.7,0.3-0.9,0.2
							c-2.7-0.7-5.3-1.3-8.2-2.1c2,2.4,4.6,3.5,7.1,5c-1.2,1.5-2.3,3-3.5,4.4c-0.1,0.1-0.6,0.1-0.9,0c-2.3-1.2-4.7-2.5-7.1-3.6
							c1.9,2,3.9,3.9,5.9,6c-1,1-2,2.2-3.1,3.3c-2.5-1.9-4.9-3.8-7.3-5.6c-0.1,0.1-0.1,0.1-0.2,0.2C54.5,73.2,56.3,75.6,58.3,78.1z
							 M24.8,40.1c-0.4,1.1-0.8,2.2-1.2,3.3C25.4,43.7,25.9,42.6,24.8,40.1z"/>
					</defs>
					<clipPath id="SVGID_00000051375268590311871540000002764400390013875340_">
						<use xlink:href="#SVGID_00000014592327417774224240000013331573135344780167_"  style="overflow:visible;"/>
					</clipPath>
					
						<linearGradient id="SVGID_00000011014629109901335790000014340819047285178510_" gradientUnits="userSpaceOnUse" x1="79.2326" y1="49.1097" x2="68.4843" y2="42.816" gradientTransform="matrix(1 0 0 -1 0 93)">
						<stop  offset="0" style="stop-color:#051D1E"/>
						<stop  offset="0.117" style="stop-color:#0B1C1D"/>
						<stop  offset="0.269" style="stop-color:#1B1A1A"/>
						<stop  offset="0.4405" style="stop-color:#361516"/>
						<stop  offset="0.6262" style="stop-color:#5B0F10"/>
						<stop  offset="0.8211" style="stop-color:#8B0808"/>
						<stop  offset="1" style="stop-color:#BD0000"/>
					</linearGradient>
					
						<path style="opacity:0.55;clip-path:url(#SVGID_00000051375268590311871540000002764400390013875340_);fill:url(#SVGID_00000011014629109901335790000014340819047285178510_);enable-background:new    ;" d="
						M65.7,50.5c6.1-1,11.4-2.9,14.1-7.4C76.3,46.2,71.3,48.6,65.7,50.5z"/>
				</g>
				<g>
					<defs>
						<path id="SVGID_00000163780794549703408720000000938282959401639322_" d="M58.3,78.1c-4.8,4-9.4,7.9-14.8,10.9
							c-0.7,0.4-1.1,0.3-1.8-0.1c-2.5-1.7-5-3.4-7.6-5c-1.6-1-2.7-2.4-3.4-4c-0.2-0.5-0.5-1.1-0.7-1.7c-0.4,0.6-0.7,1.1-1.1,1.7
							c-1.3-1.4-1.9-3-2.4-4.9c-0.3,0.7-0.5,1.3-0.8,1.9c-1.5-2.1-2-4.4-2.2-7c-0.4,0.7-0.8,1.2-1.2,1.9c-0.6-2-0.6-3.9-0.3-5.9
							c-0.5,0.2-0.8,0.3-1.4,0.5c0.3-2.9,1.6-5.2,3.4-7.4c-0.5,0-0.8,0-1.3,0.1c1.3-2.3,3.2-4.1,5.1-5.9c-0.5,0-0.9,0-1.6,0
							c0.8-0.8,1.3-1.5,2-2.1c1.4-1.3,2.9-2.5,4.3-3.7c0.4-0.4,0.9-0.8,1.1-1.3c0.6-1.3-0.2-2.4-1.6-2.3c-1.6,0.1-3.3,1.1-3.1,3.1
							c0,0.2-0.3,0.5-0.5,0.7c-0.8,0.6-1.7,1-2.5,1.6c-1,0.8-1.5,1.8-1.2,3.2c-1.7-0.7-2.7-2.7-2.3-4.7c0.2-0.8,0.2-1.5,0-2.4
							c-0.5-2.2-0.4-4.3,0.7-6.3c0.6-1.1,1.2-2.1,1.7-3.2c0.9-2,1.7-4,2.6-6c0.3,0.9,0.6,1.9,1,3c1.5-1.6,3.2-2.8,5.2-3.6
							c2-0.8,4.1-1.1,6.6-0.9c-2.5,1.1-4.5,2.3-6.1,4.4c1.4-0.2,2.7-0.4,4-0.5c1.9-0.1,3.9-0.1,5.8-0.2c2-0.1,3.9-0.6,5.7-1.7
							c-0.4,1.1-1.9,2.6-3.6,3.6c-1.5,0.8-3.1,1.5-4.8,2.3c2.3,0.5,4.5,0.9,6.8,1.4c-0.8,1.1-2.1,1.1-3.4,1.5c2,1.6,3.5,3.4,3.9,6
							c-0.9-0.5-1.7-1-2.6-1.5c0.1,1.3,0.3,2.3,0.3,3.4c0,1.9-0.6,3.6-1.3,5.3c-0.9,2.1-1.6,4.2-2.5,6.4c-0.1,0.2-0.1,0.4-0.2,0.9
							c1-1.2,1.7-2.2,2.6-3.2c2.7-2.9,5.4-5.7,8.2-8.5c4.9-4.8,7.7-10.5,7.4-17.4c-0.2-4.7-2.3-8.6-5.5-12c-3-3.2-6.8-5.6-10.8-7.7
							c-0.3-0.1-0.5-0.3-0.7-0.6c1.4,0.3,2.7,0.6,4.1,1c5.1,1.3,10.1,2.7,14.9,4.9c1,0.4,1.7,1.1,2.1,2.1c2.3,5.2,3.6,10.6,2.8,16.4
							c-0.2,1.3-0.5,2.5-0.8,4c1.9-2.8,3.1-5.7,3.9-8.8c0.8-3,1-6.1,0.7-9.4c1.1,0.7,2.1,1.3,3.1,1.9c1.7,1,3.4,2.1,5.1,3.1
							c0.4,0.2,0.7,0.4,0.4,0.9c-2.2,5.6-4.9,10.9-8.8,15.6c-0.4,0.5-0.8,0.9-1.3,1.4c-0.4,0.4-0.9,0.9-1.4,1.3
							c0,0.1,0.1,0.1,0.1,0.2c1.4-0.8,2.8-1.5,4.1-2.4c1.4-0.9,2.7-2,3.9-3.1c1.2-1.1,2.2-2.3,3.5-3.6c-0.2,1.8-0.4,3.6-0.6,5.3
							c-0.2,1.3-0.5,2.6-0.7,4c-0.1,0.8-0.5,1.2-1.1,1.6c-3.3,2-6.9,3.4-10.6,4.6c-0.4,0.1-0.7,0.3-1.1,0.4
							c4.1-0.2,7.9-1.5,11.9-2.9c-0.1,0.4-0.2,0.7-0.3,1c-0.7,2-1.4,4-2,6c-0.2,0.8-0.7,1.2-1.5,1.3c-2.6,0.3-5.1,0.5-7.7,0.8
							c-0.5,0-1,0-1.5,0c0,0.1,0,0.2,0,0.3c3,0.4,6,0.8,9.2,1.2c-1,1.7-1.9,3.4-2.9,5.1c-0.1,0.2-0.7,0.3-0.9,0.2
							c-2.7-0.7-5.3-1.3-8.2-2.1c2,2.4,4.6,3.5,7.1,5c-1.2,1.5-2.3,3-3.5,4.4c-0.1,0.1-0.6,0.1-0.9,0c-2.3-1.2-4.7-2.5-7.1-3.6
							c1.9,2,3.9,3.9,5.9,6c-1,1-2,2.2-3.1,3.3c-2.5-1.9-4.9-3.8-7.3-5.6c-0.1,0.1-0.1,0.1-0.2,0.2C54.5,73.2,56.3,75.6,58.3,78.1z
							 M24.8,40.1c-0.4,1.1-0.8,2.2-1.2,3.3C25.4,43.7,25.9,42.6,24.8,40.1z"/>
					</defs>
					<clipPath id="SVGID_00000042004363230911458180000002553120914004205707_">
						<use xlink:href="#SVGID_00000163780794549703408720000000938282959401639322_"  style="overflow:visible;"/>
					</clipPath>
					
						<linearGradient id="SVGID_00000044157645020857622760000002916911030698757050_" gradientUnits="userSpaceOnUse" x1="76.6933" y1="37.2546" x2="65.4137" y2="35.7425" gradientTransform="matrix(1 0 0 -1 0 93)">
						<stop  offset="0" style="stop-color:#051D1E"/>
						<stop  offset="0.117" style="stop-color:#0B1C1D"/>
						<stop  offset="0.269" style="stop-color:#1B1A1A"/>
						<stop  offset="0.4405" style="stop-color:#361516"/>
						<stop  offset="0.6262" style="stop-color:#5B0F10"/>
						<stop  offset="0.8211" style="stop-color:#8B0808"/>
						<stop  offset="1" style="stop-color:#BD0000"/>
					</linearGradient>
					
						<path style="opacity:0.55;clip-path:url(#SVGID_00000042004363230911458180000002553120914004205707_);fill:url(#SVGID_00000044157645020857622760000002916911030698757050_);enable-background:new    ;" d="
						M64.7,56.7c4.6,0.8,9.2,1.3,11.9-1.7C72.1,55.6,69,56.3,64.7,56.7z"/>
				</g>
				<g>
					<defs>
						<path id="SVGID_00000181766843174319923300000006355605766422501035_" d="M58.3,78.1c-4.8,4-9.4,7.9-14.8,10.9
							c-0.7,0.4-1.1,0.3-1.8-0.1c-2.5-1.7-5-3.4-7.6-5c-1.6-1-2.7-2.4-3.4-4c-0.2-0.5-0.5-1.1-0.7-1.7c-0.4,0.6-0.7,1.1-1.1,1.7
							c-1.3-1.4-1.9-3-2.4-4.9c-0.3,0.7-0.5,1.3-0.8,1.9c-1.5-2.1-2-4.4-2.2-7c-0.4,0.7-0.8,1.2-1.2,1.9c-0.6-2-0.6-3.9-0.3-5.9
							c-0.5,0.2-0.8,0.3-1.4,0.5c0.3-2.9,1.6-5.2,3.4-7.4c-0.5,0-0.8,0-1.3,0.1c1.3-2.3,3.2-4.1,5.1-5.9c-0.5,0-0.9,0-1.6,0
							c0.8-0.8,1.3-1.5,2-2.1c1.4-1.3,2.9-2.5,4.3-3.7c0.4-0.4,0.9-0.8,1.1-1.3c0.6-1.3-0.2-2.4-1.6-2.3c-1.6,0.1-3.3,1.1-3.1,3.1
							c0,0.2-0.3,0.5-0.5,0.7c-0.8,0.6-1.7,1-2.5,1.6c-1,0.8-1.5,1.8-1.2,3.2c-1.7-0.7-2.7-2.7-2.3-4.7c0.2-0.8,0.2-1.5,0-2.4
							c-0.5-2.2-0.4-4.3,0.7-6.3c0.6-1.1,1.2-2.1,1.7-3.2c0.9-2,1.7-4,2.6-6c0.3,0.9,0.6,1.9,1,3c1.5-1.6,3.2-2.8,5.2-3.6
							c2-0.8,4.1-1.1,6.6-0.9c-2.5,1.1-4.5,2.3-6.1,4.4c1.4-0.2,2.7-0.4,4-0.5c1.9-0.1,3.9-0.1,5.8-0.2c2-0.1,3.9-0.6,5.7-1.7
							c-0.4,1.1-1.9,2.6-3.6,3.6c-1.5,0.8-3.1,1.5-4.8,2.3c2.3,0.5,4.5,0.9,6.8,1.4c-0.8,1.1-2.1,1.1-3.4,1.5c2,1.6,3.5,3.4,3.9,6
							c-0.9-0.5-1.7-1-2.6-1.5c0.1,1.3,0.3,2.3,0.3,3.4c0,1.9-0.6,3.6-1.3,5.3c-0.9,2.1-1.6,4.2-2.5,6.4c-0.1,0.2-0.1,0.4-0.2,0.9
							c1-1.2,1.7-2.2,2.6-3.2c2.7-2.9,5.4-5.7,8.2-8.5c4.9-4.8,7.7-10.5,7.4-17.4c-0.2-4.7-2.3-8.6-5.5-12c-3-3.2-6.8-5.6-10.8-7.7
							c-0.3-0.1-0.5-0.3-0.7-0.6c1.4,0.3,2.7,0.6,4.1,1c5.1,1.3,10.1,2.7,14.9,4.9c1,0.4,1.7,1.1,2.1,2.1c2.3,5.2,3.6,10.6,2.8,16.4
							c-0.2,1.3-0.5,2.5-0.8,4c1.9-2.8,3.1-5.7,3.9-8.8c0.8-3,1-6.1,0.7-9.4c1.1,0.7,2.1,1.3,3.1,1.9c1.7,1,3.4,2.1,5.1,3.1
							c0.4,0.2,0.7,0.4,0.4,0.9c-2.2,5.6-4.9,10.9-8.8,15.6c-0.4,0.5-0.8,0.9-1.3,1.4c-0.4,0.4-0.9,0.9-1.4,1.3
							c0,0.1,0.1,0.1,0.1,0.2c1.4-0.8,2.8-1.5,4.1-2.4c1.4-0.9,2.7-2,3.9-3.1c1.2-1.1,2.2-2.3,3.5-3.6c-0.2,1.8-0.4,3.6-0.6,5.3
							c-0.2,1.3-0.5,2.6-0.7,4c-0.1,0.8-0.5,1.2-1.1,1.6c-3.3,2-6.9,3.4-10.6,4.6c-0.4,0.1-0.7,0.3-1.1,0.4
							c4.1-0.2,7.9-1.5,11.9-2.9c-0.1,0.4-0.2,0.7-0.3,1c-0.7,2-1.4,4-2,6c-0.2,0.8-0.7,1.2-1.5,1.3c-2.6,0.3-5.1,0.5-7.7,0.8
							c-0.5,0-1,0-1.5,0c0,0.1,0,0.2,0,0.3c3,0.4,6,0.8,9.2,1.2c-1,1.7-1.9,3.4-2.9,5.1c-0.1,0.2-0.7,0.3-0.9,0.2
							c-2.7-0.7-5.3-1.3-8.2-2.1c2,2.4,4.6,3.5,7.1,5c-1.2,1.5-2.3,3-3.5,4.4c-0.1,0.1-0.6,0.1-0.9,0c-2.3-1.2-4.7-2.5-7.1-3.6
							c1.9,2,3.9,3.9,5.9,6c-1,1-2,2.2-3.1,3.3c-2.5-1.9-4.9-3.8-7.3-5.6c-0.1,0.1-0.1,0.1-0.2,0.2C54.5,73.2,56.3,75.6,58.3,78.1z
							 M24.8,40.1c-0.4,1.1-0.8,2.2-1.2,3.3C25.4,43.7,25.9,42.6,24.8,40.1z"/>
					</defs>
					<clipPath id="SVGID_00000011718346325833923450000003897637030738004895_">
						<use xlink:href="#SVGID_00000181766843174319923300000006355605766422501035_"  style="overflow:visible;"/>
					</clipPath>
					
						<linearGradient id="SVGID_00000074436316474561882630000010626893463722391967_" gradientUnits="userSpaceOnUse" x1="72.0523" y1="29.2684" x2="62.5913" y2="31.6797" gradientTransform="matrix(1 0 0 -1 0 93)">
						<stop  offset="0" style="stop-color:#051D1E"/>
						<stop  offset="0.117" style="stop-color:#0B1C1D"/>
						<stop  offset="0.269" style="stop-color:#1B1A1A"/>
						<stop  offset="0.4405" style="stop-color:#361516"/>
						<stop  offset="0.6262" style="stop-color:#5B0F10"/>
						<stop  offset="0.8211" style="stop-color:#8B0808"/>
						<stop  offset="1" style="stop-color:#BD0000"/>
					</linearGradient>
					
						<path style="opacity:0.55;clip-path:url(#SVGID_00000011718346325833923450000003897637030738004895_);fill:url(#SVGID_00000074436316474561882630000010626893463722391967_);enable-background:new    ;" d="
						M61.8,61.4c4.6,1.3,9.2,2.7,10.5,2.1L61.8,61.4z"/>
				</g>
				<g>
					<defs>
						<path id="SVGID_00000121242192838684627260000006796319123550222501_" d="M58.3,78.1c-4.8,4-9.4,7.9-14.8,10.9
							c-0.7,0.4-1.1,0.3-1.8-0.1c-2.5-1.7-5-3.4-7.6-5c-1.6-1-2.7-2.4-3.4-4c-0.2-0.5-0.5-1.1-0.7-1.7c-0.4,0.6-0.7,1.1-1.1,1.7
							c-1.3-1.4-1.9-3-2.4-4.9c-0.3,0.7-0.5,1.3-0.8,1.9c-1.5-2.1-2-4.4-2.2-7c-0.4,0.7-0.8,1.2-1.2,1.9c-0.6-2-0.6-3.9-0.3-5.9
							c-0.5,0.2-0.8,0.3-1.4,0.5c0.3-2.9,1.6-5.2,3.4-7.4c-0.5,0-0.8,0-1.3,0.1c1.3-2.3,3.2-4.1,5.1-5.9c-0.5,0-0.9,0-1.6,0
							c0.8-0.8,1.3-1.5,2-2.1c1.4-1.3,2.9-2.5,4.3-3.7c0.4-0.4,0.9-0.8,1.1-1.3c0.6-1.3-0.2-2.4-1.6-2.3c-1.6,0.1-3.3,1.1-3.1,3.1
							c0,0.2-0.3,0.5-0.5,0.7c-0.8,0.6-1.7,1-2.5,1.6c-1,0.8-1.5,1.8-1.2,3.2c-1.7-0.7-2.7-2.7-2.3-4.7c0.2-0.8,0.2-1.5,0-2.4
							c-0.5-2.2-0.4-4.3,0.7-6.3c0.6-1.1,1.2-2.1,1.7-3.2c0.9-2,1.7-4,2.6-6c0.3,0.9,0.6,1.9,1,3c1.5-1.6,3.2-2.8,5.2-3.6
							c2-0.8,4.1-1.1,6.6-0.9c-2.5,1.1-4.5,2.3-6.1,4.4c1.4-0.2,2.7-0.4,4-0.5c1.9-0.1,3.9-0.1,5.8-0.2c2-0.1,3.9-0.6,5.7-1.7
							c-0.4,1.1-1.9,2.6-3.6,3.6c-1.5,0.8-3.1,1.5-4.8,2.3c2.3,0.5,4.5,0.9,6.8,1.4c-0.8,1.1-2.1,1.1-3.4,1.5c2,1.6,3.5,3.4,3.9,6
							c-0.9-0.5-1.7-1-2.6-1.5c0.1,1.3,0.3,2.3,0.3,3.4c0,1.9-0.6,3.6-1.3,5.3c-0.9,2.1-1.6,4.2-2.5,6.4c-0.1,0.2-0.1,0.4-0.2,0.9
							c1-1.2,1.7-2.2,2.6-3.2c2.7-2.9,5.4-5.7,8.2-8.5c4.9-4.8,7.7-10.5,7.4-17.4c-0.2-4.7-2.3-8.6-5.5-12c-3-3.2-6.8-5.6-10.8-7.7
							c-0.3-0.1-0.5-0.3-0.7-0.6c1.4,0.3,2.7,0.6,4.1,1c5.1,1.3,10.1,2.7,14.9,4.9c1,0.4,1.7,1.1,2.1,2.1c2.3,5.2,3.6,10.6,2.8,16.4
							c-0.2,1.3-0.5,2.5-0.8,4c1.9-2.8,3.1-5.7,3.9-8.8c0.8-3,1-6.1,0.7-9.4c1.1,0.7,2.1,1.3,3.1,1.9c1.7,1,3.4,2.1,5.1,3.1
							c0.4,0.2,0.7,0.4,0.4,0.9c-2.2,5.6-4.9,10.9-8.8,15.6c-0.4,0.5-0.8,0.9-1.3,1.4c-0.4,0.4-0.9,0.9-1.4,1.3
							c0,0.1,0.1,0.1,0.1,0.2c1.4-0.8,2.8-1.5,4.1-2.4c1.4-0.9,2.7-2,3.9-3.1c1.2-1.1,2.2-2.3,3.5-3.6c-0.2,1.8-0.4,3.6-0.6,5.3
							c-0.2,1.3-0.5,2.6-0.7,4c-0.1,0.8-0.5,1.2-1.1,1.6c-3.3,2-6.9,3.4-10.6,4.6c-0.4,0.1-0.7,0.3-1.1,0.4
							c4.1-0.2,7.9-1.5,11.9-2.9c-0.1,0.4-0.2,0.7-0.3,1c-0.7,2-1.4,4-2,6c-0.2,0.8-0.7,1.2-1.5,1.3c-2.6,0.3-5.1,0.5-7.7,0.8
							c-0.5,0-1,0-1.5,0c0,0.1,0,0.2,0,0.3c3,0.4,6,0.8,9.2,1.2c-1,1.7-1.9,3.4-2.9,5.1c-0.1,0.2-0.7,0.3-0.9,0.2
							c-2.7-0.7-5.3-1.3-8.2-2.1c2,2.4,4.6,3.5,7.1,5c-1.2,1.5-2.3,3-3.5,4.4c-0.1,0.1-0.6,0.1-0.9,0c-2.3-1.2-4.7-2.5-7.1-3.6
							c1.9,2,3.9,3.9,5.9,6c-1,1-2,2.2-3.1,3.3c-2.5-1.9-4.9-3.8-7.3-5.6c-0.1,0.1-0.1,0.1-0.2,0.2C54.5,73.2,56.3,75.6,58.3,78.1z
							 M24.8,40.1c-0.4,1.1-0.8,2.2-1.2,3.3C25.4,43.7,25.9,42.6,24.8,40.1z"/>
					</defs>
					<clipPath id="SVGID_00000049184890086521074100000006170767487186629542_">
						<use xlink:href="#SVGID_00000121242192838684627260000006796319123550222501_"  style="overflow:visible;"/>
					</clipPath>
					
						<linearGradient id="SVGID_00000163033162760120180210000004618633104867816846_" gradientUnits="userSpaceOnUse" x1="22.6714" y1="41.4177" x2="22.2627" y2="47.1937" gradientTransform="matrix(1 0 0 -1 0 93)">
						<stop  offset="5.327789e-09" style="stop-color:#4F2327"/>
						<stop  offset="0.1055" style="stop-color:#681C20;stop-opacity:0.9473"/>
						<stop  offset="0.291" style="stop-color:#8E1214;stop-opacity:0.8545"/>
						<stop  offset="0.4759" style="stop-color:#AC0A0B;stop-opacity:0.7621"/>
						<stop  offset="0.6574" style="stop-color:#C10505;stop-opacity:0.6713"/>
						<stop  offset="0.8339" style="stop-color:#CE0101;stop-opacity:0.583"/>
						<stop  offset="1" style="stop-color:#D20000;stop-opacity:0.5"/>
					</linearGradient>
					
						<path style="clip-path:url(#SVGID_00000049184890086521074100000006170767487186629542_);fill:url(#SVGID_00000163033162760120180210000004618633104867816846_);" d="
						M24.7,51.8c0,0-2.2-2.1-0.7-4.9c0,0,0.2-3-2.6-0.6C18.1,50.6,24.7,51.8,24.7,51.8"/>
				</g>
				<g>
					<defs>
						<path id="SVGID_00000059995025344507452390000000820306521416410288_" d="M58.3,78.1c-4.8,4-9.4,7.9-14.8,10.9
							c-0.7,0.4-1.1,0.3-1.8-0.1c-2.5-1.7-5-3.4-7.6-5c-1.6-1-2.7-2.4-3.4-4c-0.2-0.5-0.5-1.1-0.7-1.7c-0.4,0.6-0.7,1.1-1.1,1.7
							c-1.3-1.4-1.9-3-2.4-4.9c-0.3,0.7-0.5,1.3-0.8,1.9c-1.5-2.1-2-4.4-2.2-7c-0.4,0.7-0.8,1.2-1.2,1.9c-0.6-2-0.6-3.9-0.3-5.9
							c-0.5,0.2-0.8,0.3-1.4,0.5c0.3-2.9,1.6-5.2,3.4-7.4c-0.5,0-0.8,0-1.3,0.1c1.3-2.3,3.2-4.1,5.1-5.9c-0.5,0-0.9,0-1.6,0
							c0.8-0.8,1.3-1.5,2-2.1c1.4-1.3,2.9-2.5,4.3-3.7c0.4-0.4,0.9-0.8,1.1-1.3c0.6-1.3-0.2-2.4-1.6-2.3c-1.6,0.1-3.3,1.1-3.1,3.1
							c0,0.2-0.3,0.5-0.5,0.7c-0.8,0.6-1.7,1-2.5,1.6c-1,0.8-1.5,1.8-1.2,3.2c-1.7-0.7-2.7-2.7-2.3-4.7c0.2-0.8,0.2-1.5,0-2.4
							c-0.5-2.2-0.4-4.3,0.7-6.3c0.6-1.1,1.2-2.1,1.7-3.2c0.9-2,1.7-4,2.6-6c0.3,0.9,0.6,1.9,1,3c1.5-1.6,3.2-2.8,5.2-3.6
							c2-0.8,4.1-1.1,6.6-0.9c-2.5,1.1-4.5,2.3-6.1,4.4c1.4-0.2,2.7-0.4,4-0.5c1.9-0.1,3.9-0.1,5.8-0.2c2-0.1,3.9-0.6,5.7-1.7
							c-0.4,1.1-1.9,2.6-3.6,3.6c-1.5,0.8-3.1,1.5-4.8,2.3c2.3,0.5,4.5,0.9,6.8,1.4c-0.8,1.1-2.1,1.1-3.4,1.5c2,1.6,3.5,3.4,3.9,6
							c-0.9-0.5-1.7-1-2.6-1.5c0.1,1.3,0.3,2.3,0.3,3.4c0,1.9-0.6,3.6-1.3,5.3c-0.9,2.1-1.6,4.2-2.5,6.4c-0.1,0.2-0.1,0.4-0.2,0.9
							c1-1.2,1.7-2.2,2.6-3.2c2.7-2.9,5.4-5.7,8.2-8.5c4.9-4.8,7.7-10.5,7.4-17.4c-0.2-4.7-2.3-8.6-5.5-12c-3-3.2-6.8-5.6-10.8-7.7
							c-0.3-0.1-0.5-0.3-0.7-0.6c1.4,0.3,2.7,0.6,4.1,1c5.1,1.3,10.1,2.7,14.9,4.9c1,0.4,1.7,1.1,2.1,2.1c2.3,5.2,3.6,10.6,2.8,16.4
							c-0.2,1.3-0.5,2.5-0.8,4c1.9-2.8,3.1-5.7,3.9-8.8c0.8-3,1-6.1,0.7-9.4c1.1,0.7,2.1,1.3,3.1,1.9c1.7,1,3.4,2.1,5.1,3.1
							c0.4,0.2,0.7,0.4,0.4,0.9c-2.2,5.6-4.9,10.9-8.8,15.6c-0.4,0.5-0.8,0.9-1.3,1.4c-0.4,0.4-0.9,0.9-1.4,1.3
							c0,0.1,0.1,0.1,0.1,0.2c1.4-0.8,2.8-1.5,4.1-2.4c1.4-0.9,2.7-2,3.9-3.1c1.2-1.1,2.2-2.3,3.5-3.6c-0.2,1.8-0.4,3.6-0.6,5.3
							c-0.2,1.3-0.5,2.6-0.7,4c-0.1,0.8-0.5,1.2-1.1,1.6c-3.3,2-6.9,3.4-10.6,4.6c-0.4,0.1-0.7,0.3-1.1,0.4
							c4.1-0.2,7.9-1.5,11.9-2.9c-0.1,0.4-0.2,0.7-0.3,1c-0.7,2-1.4,4-2,6c-0.2,0.8-0.7,1.2-1.5,1.3c-2.6,0.3-5.1,0.5-7.7,0.8
							c-0.5,0-1,0-1.5,0c0,0.1,0,0.2,0,0.3c3,0.4,6,0.8,9.2,1.2c-1,1.7-1.9,3.4-2.9,5.1c-0.1,0.2-0.7,0.3-0.9,0.2
							c-2.7-0.7-5.3-1.3-8.2-2.1c2,2.4,4.6,3.5,7.1,5c-1.2,1.5-2.3,3-3.5,4.4c-0.1,0.1-0.6,0.1-0.9,0c-2.3-1.2-4.7-2.5-7.1-3.6
							c1.9,2,3.9,3.9,5.9,6c-1,1-2,2.2-3.1,3.3c-2.5-1.9-4.9-3.8-7.3-5.6c-0.1,0.1-0.1,0.1-0.2,0.2C54.5,73.2,56.3,75.6,58.3,78.1z
							 M24.8,40.1c-0.4,1.1-0.8,2.2-1.2,3.3C25.4,43.7,25.9,42.6,24.8,40.1z"/>
					</defs>
					<clipPath id="SVGID_00000149348336580929809630000010570218049210002326_">
						<use xlink:href="#SVGID_00000059995025344507452390000000820306521416410288_"  style="overflow:visible;"/>
					</clipPath>
					
						<linearGradient id="SVGID_00000022541028021477764310000012826592337926999709_" gradientUnits="userSpaceOnUse" x1="25.5633" y1="63.7896" x2="23.8672" y2="57.6594" gradientTransform="matrix(1 0 0 -1 0 93)">
						<stop  offset="2.663895e-08" style="stop-color:#632327"/>
						<stop  offset="0.9" style="stop-color:#E10000"/>
					</linearGradient>
					
						<path style="clip-path:url(#SVGID_00000149348336580929809630000010570218049210002326_);fill:url(#SVGID_00000022541028021477764310000012826592337926999709_);" d="
						M27.3,29.2c-1.6,3.9-1.4,8.1-5,9.7C18.4,39.5,27.3,29.2,27.3,29.2z"/>
				</g>
				<g>
					<defs>
						<path id="SVGID_00000171718421468885672000000016309582174776639922_" d="M58.3,78.1c-4.8,4-9.4,7.9-14.8,10.9
							c-0.7,0.4-1.1,0.3-1.8-0.1c-2.5-1.7-5-3.4-7.6-5c-1.6-1-2.7-2.4-3.4-4c-0.2-0.5-0.5-1.1-0.7-1.7c-0.4,0.6-0.7,1.1-1.1,1.7
							c-1.3-1.4-1.9-3-2.4-4.9c-0.3,0.7-0.5,1.3-0.8,1.9c-1.5-2.1-2-4.4-2.2-7c-0.4,0.7-0.8,1.2-1.2,1.9c-0.6-2-0.6-3.9-0.3-5.9
							c-0.5,0.2-0.8,0.3-1.4,0.5c0.3-2.9,1.6-5.2,3.4-7.4c-0.5,0-0.8,0-1.3,0.1c1.3-2.3,3.2-4.1,5.1-5.9c-0.5,0-0.9,0-1.6,0
							c0.8-0.8,1.3-1.5,2-2.1c1.4-1.3,2.9-2.5,4.3-3.7c0.4-0.4,0.9-0.8,1.1-1.3c0.6-1.3-0.2-2.4-1.6-2.3c-1.6,0.1-3.3,1.1-3.1,3.1
							c0,0.2-0.3,0.5-0.5,0.7c-0.8,0.6-1.7,1-2.5,1.6c-1,0.8-1.5,1.8-1.2,3.2c-1.7-0.7-2.7-2.7-2.3-4.7c0.2-0.8,0.2-1.5,0-2.4
							c-0.5-2.2-0.4-4.3,0.7-6.3c0.6-1.1,1.2-2.1,1.7-3.2c0.9-2,1.7-4,2.6-6c0.3,0.9,0.6,1.9,1,3c1.5-1.6,3.2-2.8,5.2-3.6
							c2-0.8,4.1-1.1,6.6-0.9c-2.5,1.1-4.5,2.3-6.1,4.4c1.4-0.2,2.7-0.4,4-0.5c1.9-0.1,3.9-0.1,5.8-0.2c2-0.1,3.9-0.6,5.7-1.7
							c-0.4,1.1-1.9,2.6-3.6,3.6c-1.5,0.8-3.1,1.5-4.8,2.3c2.3,0.5,4.5,0.9,6.8,1.4c-0.8,1.1-2.1,1.1-3.4,1.5c2,1.6,3.5,3.4,3.9,6
							c-0.9-0.5-1.7-1-2.6-1.5c0.1,1.3,0.3,2.3,0.3,3.4c0,1.9-0.6,3.6-1.3,5.3c-0.9,2.1-1.6,4.2-2.5,6.4c-0.1,0.2-0.1,0.4-0.2,0.9
							c1-1.2,1.7-2.2,2.6-3.2c2.7-2.9,5.4-5.7,8.2-8.5c4.9-4.8,7.7-10.5,7.4-17.4c-0.2-4.7-2.3-8.6-5.5-12c-3-3.2-6.8-5.6-10.8-7.7
							c-0.3-0.1-0.5-0.3-0.7-0.6c1.4,0.3,2.7,0.6,4.1,1c5.1,1.3,10.1,2.7,14.9,4.9c1,0.4,1.7,1.1,2.1,2.1c2.3,5.2,3.6,10.6,2.8,16.4
							c-0.2,1.3-0.5,2.5-0.8,4c1.9-2.8,3.1-5.7,3.9-8.8c0.8-3,1-6.1,0.7-9.4c1.1,0.7,2.1,1.3,3.1,1.9c1.7,1,3.4,2.1,5.1,3.1
							c0.4,0.2,0.7,0.4,0.4,0.9c-2.2,5.6-4.9,10.9-8.8,15.6c-0.4,0.5-0.8,0.9-1.3,1.4c-0.4,0.4-0.9,0.9-1.4,1.3
							c0,0.1,0.1,0.1,0.1,0.2c1.4-0.8,2.8-1.5,4.1-2.4c1.4-0.9,2.7-2,3.9-3.1c1.2-1.1,2.2-2.3,3.5-3.6c-0.2,1.8-0.4,3.6-0.6,5.3
							c-0.2,1.3-0.5,2.6-0.7,4c-0.1,0.8-0.5,1.2-1.1,1.6c-3.3,2-6.9,3.4-10.6,4.6c-0.4,0.1-0.7,0.3-1.1,0.4
							c4.1-0.2,7.9-1.5,11.9-2.9c-0.1,0.4-0.2,0.7-0.3,1c-0.7,2-1.4,4-2,6c-0.2,0.8-0.7,1.2-1.5,1.3c-2.6,0.3-5.1,0.5-7.7,0.8
							c-0.5,0-1,0-1.5,0c0,0.1,0,0.2,0,0.3c3,0.4,6,0.8,9.2,1.2c-1,1.7-1.9,3.4-2.9,5.1c-0.1,0.2-0.7,0.3-0.9,0.2
							c-2.7-0.7-5.3-1.3-8.2-2.1c2,2.4,4.6,3.5,7.1,5c-1.2,1.5-2.3,3-3.5,4.4c-0.1,0.1-0.6,0.1-0.9,0c-2.3-1.2-4.7-2.5-7.1-3.6
							c1.9,2,3.9,3.9,5.9,6c-1,1-2,2.2-3.1,3.3c-2.5-1.9-4.9-3.8-7.3-5.6c-0.1,0.1-0.1,0.1-0.2,0.2C54.5,73.2,56.3,75.6,58.3,78.1z
							 M24.8,40.1c-0.4,1.1-0.8,2.2-1.2,3.3C25.4,43.7,25.9,42.6,24.8,40.1z"/>
					</defs>
					<clipPath id="SVGID_00000034052897717870451470000001642816354957982388_">
						<use xlink:href="#SVGID_00000171718421468885672000000016309582174776639922_"  style="overflow:visible;"/>
					</clipPath>
					
						<linearGradient id="SVGID_00000108997448704760179240000000708073060508967568_" gradientUnits="userSpaceOnUse" x1="29.9915" y1="49.5751" x2="31.0449" y2="48.0282" gradientTransform="matrix(1 0 0 -1 0 93)">
						<stop  offset="2.663895e-08" style="stop-color:#632327"/>
						<stop  offset="0.4456" style="stop-color:#D11111"/>
					</linearGradient>
					
						<path style="clip-path:url(#SVGID_00000034052897717870451470000001642816354957982388_);fill:url(#SVGID_00000108997448704760179240000000708073060508967568_);" d="
						M33.4,43.7c-2.2-2-6.5,0.5-4.3,3.3L33.4,43.7z"/>
				</g>
				<g>
					<defs>
						<path id="SVGID_00000016053187911975690870000007629866162643334323_" d="M58.3,78.1c-4.8,4-9.4,7.9-14.8,10.9
							c-0.7,0.4-1.1,0.3-1.8-0.1c-2.5-1.7-5-3.4-7.6-5c-1.6-1-2.7-2.4-3.4-4c-0.2-0.5-0.5-1.1-0.7-1.7c-0.4,0.6-0.7,1.1-1.1,1.7
							c-1.3-1.4-1.9-3-2.4-4.9c-0.3,0.7-0.5,1.3-0.8,1.9c-1.5-2.1-2-4.4-2.2-7c-0.4,0.7-0.8,1.2-1.2,1.9c-0.6-2-0.6-3.9-0.3-5.9
							c-0.5,0.2-0.8,0.3-1.4,0.5c0.3-2.9,1.6-5.2,3.4-7.4c-0.5,0-0.8,0-1.3,0.1c1.3-2.3,3.2-4.1,5.1-5.9c-0.5,0-0.9,0-1.6,0
							c0.8-0.8,1.3-1.5,2-2.1c1.4-1.3,2.9-2.5,4.3-3.7c0.4-0.4,0.9-0.8,1.1-1.3c0.6-1.3-0.2-2.4-1.6-2.3c-1.6,0.1-3.3,1.1-3.1,3.1
							c0,0.2-0.3,0.5-0.5,0.7c-0.8,0.6-1.7,1-2.5,1.6c-1,0.8-1.5,1.8-1.2,3.2c-1.7-0.7-2.7-2.7-2.3-4.7c0.2-0.8,0.2-1.5,0-2.4
							c-0.5-2.2-0.4-4.3,0.7-6.3c0.6-1.1,1.2-2.1,1.7-3.2c0.9-2,1.7-4,2.6-6c0.3,0.9,0.6,1.9,1,3c1.5-1.6,3.2-2.8,5.2-3.6
							c2-0.8,4.1-1.1,6.6-0.9c-2.5,1.1-4.5,2.3-6.1,4.4c1.4-0.2,2.7-0.4,4-0.5c1.9-0.1,3.9-0.1,5.8-0.2c2-0.1,3.9-0.6,5.7-1.7
							c-0.4,1.1-1.9,2.6-3.6,3.6c-1.5,0.8-3.1,1.5-4.8,2.3c2.3,0.5,4.5,0.9,6.8,1.4c-0.8,1.1-2.1,1.1-3.4,1.5c2,1.6,3.5,3.4,3.9,6
							c-0.9-0.5-1.7-1-2.6-1.5c0.1,1.3,0.3,2.3,0.3,3.4c0,1.9-0.6,3.6-1.3,5.3c-0.9,2.1-1.6,4.2-2.5,6.4c-0.1,0.2-0.1,0.4-0.2,0.9
							c1-1.2,1.7-2.2,2.6-3.2c2.7-2.9,5.4-5.7,8.2-8.5c4.9-4.8,7.7-10.5,7.4-17.4c-0.2-4.7-2.3-8.6-5.5-12c-3-3.2-6.8-5.6-10.8-7.7
							c-0.3-0.1-0.5-0.3-0.7-0.6c1.4,0.3,2.7,0.6,4.1,1c5.1,1.3,10.1,2.7,14.9,4.9c1,0.4,1.7,1.1,2.1,2.1c2.3,5.2,3.6,10.6,2.8,16.4
							c-0.2,1.3-0.5,2.5-0.8,4c1.9-2.8,3.1-5.7,3.9-8.8c0.8-3,1-6.1,0.7-9.4c1.1,0.7,2.1,1.3,3.1,1.9c1.7,1,3.4,2.1,5.1,3.1
							c0.4,0.2,0.7,0.4,0.4,0.9c-2.2,5.6-4.9,10.9-8.8,15.6c-0.4,0.5-0.8,0.9-1.3,1.4c-0.4,0.4-0.9,0.9-1.4,1.3
							c0,0.1,0.1,0.1,0.1,0.2c1.4-0.8,2.8-1.5,4.1-2.4c1.4-0.9,2.7-2,3.9-3.1c1.2-1.1,2.2-2.3,3.5-3.6c-0.2,1.8-0.4,3.6-0.6,5.3
							c-0.2,1.3-0.5,2.6-0.7,4c-0.1,0.8-0.5,1.2-1.1,1.6c-3.3,2-6.9,3.4-10.6,4.6c-0.4,0.1-0.7,0.3-1.1,0.4
							c4.1-0.2,7.9-1.5,11.9-2.9c-0.1,0.4-0.2,0.7-0.3,1c-0.7,2-1.4,4-2,6c-0.2,0.8-0.7,1.2-1.5,1.3c-2.6,0.3-5.1,0.5-7.7,0.8
							c-0.5,0-1,0-1.5,0c0,0.1,0,0.2,0,0.3c3,0.4,6,0.8,9.2,1.2c-1,1.7-1.9,3.4-2.9,5.1c-0.1,0.2-0.7,0.3-0.9,0.2
							c-2.7-0.7-5.3-1.3-8.2-2.1c2,2.4,4.6,3.5,7.1,5c-1.2,1.5-2.3,3-3.5,4.4c-0.1,0.1-0.6,0.1-0.9,0c-2.3-1.2-4.7-2.5-7.1-3.6
							c1.9,2,3.9,3.9,5.9,6c-1,1-2,2.2-3.1,3.3c-2.5-1.9-4.9-3.8-7.3-5.6c-0.1,0.1-0.1,0.1-0.2,0.2C54.5,73.2,56.3,75.6,58.3,78.1z
							 M24.8,40.1c-0.4,1.1-0.8,2.2-1.2,3.3C25.4,43.7,25.9,42.6,24.8,40.1z"/>
					</defs>
					<clipPath id="SVGID_00000137814427847178972790000001578163120695718023_">
						<use xlink:href="#SVGID_00000016053187911975690870000007629866162643334323_"  style="overflow:visible;"/>
					</clipPath>
					<g style="clip-path:url(#SVGID_00000137814427847178972790000001578163120695718023_);">
						
							<image style="overflow:visible;enable-background:new    ;" width="142" height="141" xlink:href="E00D97E8.png"  transform="matrix(8.003350e-02 0 0 8.003350e-02 20.535 43.4587)">
						</image>
					</g>
				</g>
				<g>
					<defs>
						<path id="SVGID_00000137853740357434896820000016921716086691659927_" d="M58.3,78.1c-4.8,4-9.4,7.9-14.8,10.9
							c-0.7,0.4-1.1,0.3-1.8-0.1c-2.5-1.7-5-3.4-7.6-5c-1.6-1-2.7-2.4-3.4-4c-0.2-0.5-0.5-1.1-0.7-1.7c-0.4,0.6-0.7,1.1-1.1,1.7
							c-1.3-1.4-1.9-3-2.4-4.9c-0.3,0.7-0.5,1.3-0.8,1.9c-1.5-2.1-2-4.4-2.2-7c-0.4,0.7-0.8,1.2-1.2,1.9c-0.6-2-0.6-3.9-0.3-5.9
							c-0.5,0.2-0.8,0.3-1.4,0.5c0.3-2.9,1.6-5.2,3.4-7.4c-0.5,0-0.8,0-1.3,0.1c1.3-2.3,3.2-4.1,5.1-5.9c-0.5,0-0.9,0-1.6,0
							c0.8-0.8,1.3-1.5,2-2.1c1.4-1.3,2.9-2.5,4.3-3.7c0.4-0.4,0.9-0.8,1.1-1.3c0.6-1.3-0.2-2.4-1.6-2.3c-1.6,0.1-3.3,1.1-3.1,3.1
							c0,0.2-0.3,0.5-0.5,0.7c-0.8,0.6-1.7,1-2.5,1.6c-1,0.8-1.5,1.8-1.2,3.2c-1.7-0.7-2.7-2.7-2.3-4.7c0.2-0.8,0.2-1.5,0-2.4
							c-0.5-2.2-0.4-4.3,0.7-6.3c0.6-1.1,1.2-2.1,1.7-3.2c0.9-2,1.7-4,2.6-6c0.3,0.9,0.6,1.9,1,3c1.5-1.6,3.2-2.8,5.2-3.6
							c2-0.8,4.1-1.1,6.6-0.9c-2.5,1.1-4.5,2.3-6.1,4.4c1.4-0.2,2.7-0.4,4-0.5c1.9-0.1,3.9-0.1,5.8-0.2c2-0.1,3.9-0.6,5.7-1.7
							c-0.4,1.1-1.9,2.6-3.6,3.6c-1.5,0.8-3.1,1.5-4.8,2.3c2.3,0.5,4.5,0.9,6.8,1.4c-0.8,1.1-2.1,1.1-3.4,1.5c2,1.6,3.5,3.4,3.9,6
							c-0.9-0.5-1.7-1-2.6-1.5c0.1,1.3,0.3,2.3,0.3,3.4c0,1.9-0.6,3.6-1.3,5.3c-0.9,2.1-1.6,4.2-2.5,6.4c-0.1,0.2-0.1,0.4-0.2,0.9
							c1-1.2,1.7-2.2,2.6-3.2c2.7-2.9,5.4-5.7,8.2-8.5c4.9-4.8,7.7-10.5,7.4-17.4c-0.2-4.7-2.3-8.6-5.5-12c-3-3.2-6.8-5.6-10.8-7.7
							c-0.3-0.1-0.5-0.3-0.7-0.6c1.4,0.3,2.7,0.6,4.1,1c5.1,1.3,10.1,2.7,14.9,4.9c1,0.4,1.7,1.1,2.1,2.1c2.3,5.2,3.6,10.6,2.8,16.4
							c-0.2,1.3-0.5,2.5-0.8,4c1.9-2.8,3.1-5.7,3.9-8.8c0.8-3,1-6.1,0.7-9.4c1.1,0.7,2.1,1.3,3.1,1.9c1.7,1,3.4,2.1,5.1,3.1
							c0.4,0.2,0.7,0.4,0.4,0.9c-2.2,5.6-4.9,10.9-8.8,15.6c-0.4,0.5-0.8,0.9-1.3,1.4c-0.4,0.4-0.9,0.9-1.4,1.3
							c0,0.1,0.1,0.1,0.1,0.2c1.4-0.8,2.8-1.5,4.1-2.4c1.4-0.9,2.7-2,3.9-3.1c1.2-1.1,2.2-2.3,3.5-3.6c-0.2,1.8-0.4,3.6-0.6,5.3
							c-0.2,1.3-0.5,2.6-0.7,4c-0.1,0.8-0.5,1.2-1.1,1.6c-3.3,2-6.9,3.4-10.6,4.6c-0.4,0.1-0.7,0.3-1.1,0.4
							c4.1-0.2,7.9-1.5,11.9-2.9c-0.1,0.4-0.2,0.7-0.3,1c-0.7,2-1.4,4-2,6c-0.2,0.8-0.7,1.2-1.5,1.3c-2.6,0.3-5.1,0.5-7.7,0.8
							c-0.5,0-1,0-1.5,0c0,0.1,0,0.2,0,0.3c3,0.4,6,0.8,9.2,1.2c-1,1.7-1.9,3.4-2.9,5.1c-0.1,0.2-0.7,0.3-0.9,0.2
							c-2.7-0.7-5.3-1.3-8.2-2.1c2,2.4,4.6,3.5,7.1,5c-1.2,1.5-2.3,3-3.5,4.4c-0.1,0.1-0.6,0.1-0.9,0c-2.3-1.2-4.7-2.5-7.1-3.6
							c1.9,2,3.9,3.9,5.9,6c-1,1-2,2.2-3.1,3.3c-2.5-1.9-4.9-3.8-7.3-5.6c-0.1,0.1-0.1,0.1-0.2,0.2C54.5,73.2,56.3,75.6,58.3,78.1z
							 M24.8,40.1c-0.4,1.1-0.8,2.2-1.2,3.3C25.4,43.7,25.9,42.6,24.8,40.1z"/>
					</defs>
					<clipPath id="SVGID_00000058571718477562592130000010235554257245920676_">
						<use xlink:href="#SVGID_00000137853740357434896820000016921716086691659927_"  style="overflow:visible;"/>
					</clipPath>
					
						<linearGradient id="SVGID_00000039100635913912732600000009913689829946490543_" gradientUnits="userSpaceOnUse" x1="38.5581" y1="65.6517" x2="33.3542" y2="61.3334" gradientTransform="matrix(1 0 0 -1 0 93)">
						<stop  offset="4.469418e-03" style="stop-color:#3D1D1E"/>
						<stop  offset="0.2693" style="stop-color:#651515"/>
						<stop  offset="0.7674" style="stop-color:#AA0606"/>
						<stop  offset="1" style="stop-color:#C60000"/>
					</linearGradient>
					
						<path style="opacity:0.55;clip-path:url(#SVGID_00000058571718477562592130000010235554257245920676_);fill:url(#SVGID_00000039100635913912732600000009913689829946490543_);enable-background:new    ;" d="
						M40.1,27.7c-4,0.5-7.1,2-9.1,4.6l3-0.2C36.1,30.5,38.2,29.1,40.1,27.7z"/>
				</g>
				<g>
					<defs>
						<path id="SVGID_00000057148959155210083420000005080639817518132362_" d="M58.3,78.1c-4.8,4-9.4,7.9-14.8,10.9
							c-0.7,0.4-1.1,0.3-1.8-0.1c-2.5-1.7-5-3.4-7.6-5c-1.6-1-2.7-2.4-3.4-4c-0.2-0.5-0.5-1.1-0.7-1.7c-0.4,0.6-0.7,1.1-1.1,1.7
							c-1.3-1.4-1.9-3-2.4-4.9c-0.3,0.7-0.5,1.3-0.8,1.9c-1.5-2.1-2-4.4-2.2-7c-0.4,0.7-0.8,1.2-1.2,1.9c-0.6-2-0.6-3.9-0.3-5.9
							c-0.5,0.2-0.8,0.3-1.4,0.5c0.3-2.9,1.6-5.2,3.4-7.4c-0.5,0-0.8,0-1.3,0.1c1.3-2.3,3.2-4.1,5.1-5.9c-0.5,0-0.9,0-1.6,0
							c0.8-0.8,1.3-1.5,2-2.1c1.4-1.3,2.9-2.5,4.3-3.7c0.4-0.4,0.9-0.8,1.1-1.3c0.6-1.3-0.2-2.4-1.6-2.3c-1.6,0.1-3.3,1.1-3.1,3.1
							c0,0.2-0.3,0.5-0.5,0.7c-0.8,0.6-1.7,1-2.5,1.6c-1,0.8-1.5,1.8-1.2,3.2c-1.7-0.7-2.7-2.7-2.3-4.7c0.2-0.8,0.2-1.5,0-2.4
							c-0.5-2.2-0.4-4.3,0.7-6.3c0.6-1.1,1.2-2.1,1.7-3.2c0.9-2,1.7-4,2.6-6c0.3,0.9,0.6,1.9,1,3c1.5-1.6,3.2-2.8,5.2-3.6
							c2-0.8,4.1-1.1,6.6-0.9c-2.5,1.1-4.5,2.3-6.1,4.4c1.4-0.2,2.7-0.4,4-0.5c1.9-0.1,3.9-0.1,5.8-0.2c2-0.1,3.9-0.6,5.7-1.7
							c-0.4,1.1-1.9,2.6-3.6,3.6c-1.5,0.8-3.1,1.5-4.8,2.3c2.3,0.5,4.5,0.9,6.8,1.4c-0.8,1.1-2.1,1.1-3.4,1.5c2,1.6,3.5,3.4,3.9,6
							c-0.9-0.5-1.7-1-2.6-1.5c0.1,1.3,0.3,2.3,0.3,3.4c0,1.9-0.6,3.6-1.3,5.3c-0.9,2.1-1.6,4.2-2.5,6.4c-0.1,0.2-0.1,0.4-0.2,0.9
							c1-1.2,1.7-2.2,2.6-3.2c2.7-2.9,5.4-5.7,8.2-8.5c4.9-4.8,7.7-10.5,7.4-17.4c-0.2-4.7-2.3-8.6-5.5-12c-3-3.2-6.8-5.6-10.8-7.7
							c-0.3-0.1-0.5-0.3-0.7-0.6c1.4,0.3,2.7,0.6,4.1,1c5.1,1.3,10.1,2.7,14.9,4.9c1,0.4,1.7,1.1,2.1,2.1c2.3,5.2,3.6,10.6,2.8,16.4
							c-0.2,1.3-0.5,2.5-0.8,4c1.9-2.8,3.1-5.7,3.9-8.8c0.8-3,1-6.1,0.7-9.4c1.1,0.7,2.1,1.3,3.1,1.9c1.7,1,3.4,2.1,5.1,3.1
							c0.4,0.2,0.7,0.4,0.4,0.9c-2.2,5.6-4.9,10.9-8.8,15.6c-0.4,0.5-0.8,0.9-1.3,1.4c-0.4,0.4-0.9,0.9-1.4,1.3
							c0,0.1,0.1,0.1,0.1,0.2c1.4-0.8,2.8-1.5,4.1-2.4c1.4-0.9,2.7-2,3.9-3.1c1.2-1.1,2.2-2.3,3.5-3.6c-0.2,1.8-0.4,3.6-0.6,5.3
							c-0.2,1.3-0.5,2.6-0.7,4c-0.1,0.8-0.5,1.2-1.1,1.6c-3.3,2-6.9,3.4-10.6,4.6c-0.4,0.1-0.7,0.3-1.1,0.4
							c4.1-0.2,7.9-1.5,11.9-2.9c-0.1,0.4-0.2,0.7-0.3,1c-0.7,2-1.4,4-2,6c-0.2,0.8-0.7,1.2-1.5,1.3c-2.6,0.3-5.1,0.5-7.7,0.8
							c-0.5,0-1,0-1.5,0c0,0.1,0,0.2,0,0.3c3,0.4,6,0.8,9.2,1.2c-1,1.7-1.9,3.4-2.9,5.1c-0.1,0.2-0.7,0.3-0.9,0.2
							c-2.7-0.7-5.3-1.3-8.2-2.1c2,2.4,4.6,3.5,7.1,5c-1.2,1.5-2.3,3-3.5,4.4c-0.1,0.1-0.6,0.1-0.9,0c-2.3-1.2-4.7-2.5-7.1-3.6
							c1.9,2,3.9,3.9,5.9,6c-1,1-2,2.2-3.1,3.3c-2.5-1.9-4.9-3.8-7.3-5.6c-0.1,0.1-0.1,0.1-0.2,0.2C54.5,73.2,56.3,75.6,58.3,78.1z
							 M24.8,40.1c-0.4,1.1-0.8,2.2-1.2,3.3C25.4,43.7,25.9,42.6,24.8,40.1z"/>
					</defs>
					<clipPath id="SVGID_00000020373767724641224140000004124028978665513870_">
						<use xlink:href="#SVGID_00000057148959155210083420000005080639817518132362_"  style="overflow:visible;"/>
					</clipPath>
					
						<linearGradient id="SVGID_00000099658923201144276160000000398980288801109172_" gradientUnits="userSpaceOnUse" x1="38.6868" y1="66.7151" x2="29.8457" y2="61.8382" gradientTransform="matrix(1 0 0 -1 0 93)">
						<stop  offset="0" style="stop-color:#E30027"/>
						<stop  offset="1" style="stop-color:#CA0000"/>
					</linearGradient>
					
						<path style="clip-path:url(#SVGID_00000020373767724641224140000004124028978665513870_);fill:url(#SVGID_00000099658923201144276160000000398980288801109172_);" d="
						M31,32.3c2.2-2.6,5.3-4.1,9.1-4.6c-6.7-2-10,0.3-11.8,4.5L31,32.3z"/>
				</g>
				<g>
					<defs>
						<path id="SVGID_00000108990863317175183240000010222247271946083208_" d="M58.3,78.1c-4.8,4-9.4,7.9-14.8,10.9
							c-0.7,0.4-1.1,0.3-1.8-0.1c-2.5-1.7-5-3.4-7.6-5c-1.6-1-2.7-2.4-3.4-4c-0.2-0.5-0.5-1.1-0.7-1.7c-0.4,0.6-0.7,1.1-1.1,1.7
							c-1.3-1.4-1.9-3-2.4-4.9c-0.3,0.7-0.5,1.3-0.8,1.9c-1.5-2.1-2-4.4-2.2-7c-0.4,0.7-0.8,1.2-1.2,1.9c-0.6-2-0.6-3.9-0.3-5.9
							c-0.5,0.2-0.8,0.3-1.4,0.5c0.3-2.9,1.6-5.2,3.4-7.4c-0.5,0-0.8,0-1.3,0.1c1.3-2.3,3.2-4.1,5.1-5.9c-0.5,0-0.9,0-1.6,0
							c0.8-0.8,1.3-1.5,2-2.1c1.4-1.3,2.9-2.5,4.3-3.7c0.4-0.4,0.9-0.8,1.1-1.3c0.6-1.3-0.2-2.4-1.6-2.3c-1.6,0.1-3.3,1.1-3.1,3.1
							c0,0.2-0.3,0.5-0.5,0.7c-0.8,0.6-1.7,1-2.5,1.6c-1,0.8-1.5,1.8-1.2,3.2c-1.7-0.7-2.7-2.7-2.3-4.7c0.2-0.8,0.2-1.5,0-2.4
							c-0.5-2.2-0.4-4.3,0.7-6.3c0.6-1.1,1.2-2.1,1.7-3.2c0.9-2,1.7-4,2.6-6c0.3,0.9,0.6,1.9,1,3c1.5-1.6,3.2-2.8,5.2-3.6
							c2-0.8,4.1-1.1,6.6-0.9c-2.5,1.1-4.5,2.3-6.1,4.4c1.4-0.2,2.7-0.4,4-0.5c1.9-0.1,3.9-0.1,5.8-0.2c2-0.1,3.9-0.6,5.7-1.7
							c-0.4,1.1-1.9,2.6-3.6,3.6c-1.5,0.8-3.1,1.5-4.8,2.3c2.3,0.5,4.5,0.9,6.8,1.4c-0.8,1.1-2.1,1.1-3.4,1.5c2,1.6,3.5,3.4,3.9,6
							c-0.9-0.5-1.7-1-2.6-1.5c0.1,1.3,0.3,2.3,0.3,3.4c0,1.9-0.6,3.6-1.3,5.3c-0.9,2.1-1.6,4.2-2.5,6.4c-0.1,0.2-0.1,0.4-0.2,0.9
							c1-1.2,1.7-2.2,2.6-3.2c2.7-2.9,5.4-5.7,8.2-8.5c4.9-4.8,7.7-10.5,7.4-17.4c-0.2-4.7-2.3-8.6-5.5-12c-3-3.2-6.8-5.6-10.8-7.7
							c-0.3-0.1-0.5-0.3-0.7-0.6c1.4,0.3,2.7,0.6,4.1,1c5.1,1.3,10.1,2.7,14.9,4.9c1,0.4,1.7,1.1,2.1,2.1c2.3,5.2,3.6,10.6,2.8,16.4
							c-0.2,1.3-0.5,2.5-0.8,4c1.9-2.8,3.1-5.7,3.9-8.8c0.8-3,1-6.1,0.7-9.4c1.1,0.7,2.1,1.3,3.1,1.9c1.7,1,3.4,2.1,5.1,3.1
							c0.4,0.2,0.7,0.4,0.4,0.9c-2.2,5.6-4.9,10.9-8.8,15.6c-0.4,0.5-0.8,0.9-1.3,1.4c-0.4,0.4-0.9,0.9-1.4,1.3
							c0,0.1,0.1,0.1,0.1,0.2c1.4-0.8,2.8-1.5,4.1-2.4c1.4-0.9,2.7-2,3.9-3.1c1.2-1.1,2.2-2.3,3.5-3.6c-0.2,1.8-0.4,3.6-0.6,5.3
							c-0.2,1.3-0.5,2.6-0.7,4c-0.1,0.8-0.5,1.2-1.1,1.6c-3.3,2-6.9,3.4-10.6,4.6c-0.4,0.1-0.7,0.3-1.1,0.4
							c4.1-0.2,7.9-1.5,11.9-2.9c-0.1,0.4-0.2,0.7-0.3,1c-0.7,2-1.4,4-2,6c-0.2,0.8-0.7,1.2-1.5,1.3c-2.6,0.3-5.1,0.5-7.7,0.8
							c-0.5,0-1,0-1.5,0c0,0.1,0,0.2,0,0.3c3,0.4,6,0.8,9.2,1.2c-1,1.7-1.9,3.4-2.9,5.1c-0.1,0.2-0.7,0.3-0.9,0.2
							c-2.7-0.7-5.3-1.3-8.2-2.1c2,2.4,4.6,3.5,7.1,5c-1.2,1.5-2.3,3-3.5,4.4c-0.1,0.1-0.6,0.1-0.9,0c-2.3-1.2-4.7-2.5-7.1-3.6
							c1.9,2,3.9,3.9,5.9,6c-1,1-2,2.2-3.1,3.3c-2.5-1.9-4.9-3.8-7.3-5.6c-0.1,0.1-0.1,0.1-0.2,0.2C54.5,73.2,56.3,75.6,58.3,78.1z
							 M24.8,40.1c-0.4,1.1-0.8,2.2-1.2,3.3C25.4,43.7,25.9,42.6,24.8,40.1z"/>
					</defs>
					<clipPath id="SVGID_00000049195231938204604050000014750578118684560544_">
						<use xlink:href="#SVGID_00000108990863317175183240000010222247271946083208_"  style="overflow:visible;"/>
					</clipPath>
					
						<linearGradient id="SVGID_00000169522054930205054790000003262963547620517773_" gradientUnits="userSpaceOnUse" x1="35.1814" y1="59.9315" x2="48.6816" y2="62.2474" gradientTransform="matrix(1 0 0 -1 0 93)">
						<stop  offset="0" style="stop-color:#C20000"/>
						<stop  offset="1" style="stop-color:#CB0000"/>
					</linearGradient>
					
						<path style="clip-path:url(#SVGID_00000049195231938204604050000014750578118684560544_);fill:url(#SVGID_00000169522054930205054790000003262963547620517773_);" d="
						M49.5,29.6c-2.8,3.3-9,3.6-14.3,4.5l-1.2-2.1L49.5,29.6z"/>
				</g>
				<g>
					<defs>
						<path id="SVGID_00000133518372450126202770000007316012476882564764_" d="M58.3,78.1c-4.8,4-9.4,7.9-14.8,10.9
							c-0.7,0.4-1.1,0.3-1.8-0.1c-2.5-1.7-5-3.4-7.6-5c-1.6-1-2.7-2.4-3.4-4c-0.2-0.5-0.5-1.1-0.7-1.7c-0.4,0.6-0.7,1.1-1.1,1.7
							c-1.3-1.4-1.9-3-2.4-4.9c-0.3,0.7-0.5,1.3-0.8,1.9c-1.5-2.1-2-4.4-2.2-7c-0.4,0.7-0.8,1.2-1.2,1.9c-0.6-2-0.6-3.9-0.3-5.9
							c-0.5,0.2-0.8,0.3-1.4,0.5c0.3-2.9,1.6-5.2,3.4-7.4c-0.5,0-0.8,0-1.3,0.1c1.3-2.3,3.2-4.1,5.1-5.9c-0.5,0-0.9,0-1.6,0
							c0.8-0.8,1.3-1.5,2-2.1c1.4-1.3,2.9-2.5,4.3-3.7c0.4-0.4,0.9-0.8,1.1-1.3c0.6-1.3-0.2-2.4-1.6-2.3c-1.6,0.1-3.3,1.1-3.1,3.1
							c0,0.2-0.3,0.5-0.5,0.7c-0.8,0.6-1.7,1-2.5,1.6c-1,0.8-1.5,1.8-1.2,3.2c-1.7-0.7-2.7-2.7-2.3-4.7c0.2-0.8,0.2-1.5,0-2.4
							c-0.5-2.2-0.4-4.3,0.7-6.3c0.6-1.1,1.2-2.1,1.7-3.2c0.9-2,1.7-4,2.6-6c0.3,0.9,0.6,1.9,1,3c1.5-1.6,3.2-2.8,5.2-3.6
							c2-0.8,4.1-1.1,6.6-0.9c-2.5,1.1-4.5,2.3-6.1,4.4c1.4-0.2,2.7-0.4,4-0.5c1.9-0.1,3.9-0.1,5.8-0.2c2-0.1,3.9-0.6,5.7-1.7
							c-0.4,1.1-1.9,2.6-3.6,3.6c-1.5,0.8-3.1,1.5-4.8,2.3c2.3,0.5,4.5,0.9,6.8,1.4c-0.8,1.1-2.1,1.1-3.4,1.5c2,1.6,3.5,3.4,3.9,6
							c-0.9-0.5-1.7-1-2.6-1.5c0.1,1.3,0.3,2.3,0.3,3.4c0,1.9-0.6,3.6-1.3,5.3c-0.9,2.1-1.6,4.2-2.5,6.4c-0.1,0.2-0.1,0.4-0.2,0.9
							c1-1.2,1.7-2.2,2.6-3.2c2.7-2.9,5.4-5.7,8.2-8.5c4.9-4.8,7.7-10.5,7.4-17.4c-0.2-4.7-2.3-8.6-5.5-12c-3-3.2-6.8-5.6-10.8-7.7
							c-0.3-0.1-0.5-0.3-0.7-0.6c1.4,0.3,2.7,0.6,4.1,1c5.1,1.3,10.1,2.7,14.9,4.9c1,0.4,1.7,1.1,2.1,2.1c2.3,5.2,3.6,10.6,2.8,16.4
							c-0.2,1.3-0.5,2.5-0.8,4c1.9-2.8,3.1-5.7,3.9-8.8c0.8-3,1-6.1,0.7-9.4c1.1,0.7,2.1,1.3,3.1,1.9c1.7,1,3.4,2.1,5.1,3.1
							c0.4,0.2,0.7,0.4,0.4,0.9c-2.2,5.6-4.9,10.9-8.8,15.6c-0.4,0.5-0.8,0.9-1.3,1.4c-0.4,0.4-0.9,0.9-1.4,1.3
							c0,0.1,0.1,0.1,0.1,0.2c1.4-0.8,2.8-1.5,4.1-2.4c1.4-0.9,2.7-2,3.9-3.1c1.2-1.1,2.2-2.3,3.5-3.6c-0.2,1.8-0.4,3.6-0.6,5.3
							c-0.2,1.3-0.5,2.6-0.7,4c-0.1,0.8-0.5,1.2-1.1,1.6c-3.3,2-6.9,3.4-10.6,4.6c-0.4,0.1-0.7,0.3-1.1,0.4
							c4.1-0.2,7.9-1.5,11.9-2.9c-0.1,0.4-0.2,0.7-0.3,1c-0.7,2-1.4,4-2,6c-0.2,0.8-0.7,1.2-1.5,1.3c-2.6,0.3-5.1,0.5-7.7,0.8
							c-0.5,0-1,0-1.5,0c0,0.1,0,0.2,0,0.3c3,0.4,6,0.8,9.2,1.2c-1,1.7-1.9,3.4-2.9,5.1c-0.1,0.2-0.7,0.3-0.9,0.2
							c-2.7-0.7-5.3-1.3-8.2-2.1c2,2.4,4.6,3.5,7.1,5c-1.2,1.5-2.3,3-3.5,4.4c-0.1,0.1-0.6,0.1-0.9,0c-2.3-1.2-4.7-2.5-7.1-3.6
							c1.9,2,3.9,3.9,5.9,6c-1,1-2,2.2-3.1,3.3c-2.5-1.9-4.9-3.8-7.3-5.6c-0.1,0.1-0.1,0.1-0.2,0.2C54.5,73.2,56.3,75.6,58.3,78.1z
							 M24.8,40.1c-0.4,1.1-0.8,2.2-1.2,3.3C25.4,43.7,25.9,42.6,24.8,40.1z"/>
					</defs>
					<clipPath id="SVGID_00000158742407485830933160000000854621177284355484_">
						<use xlink:href="#SVGID_00000133518372450126202770000007316012476882564764_"  style="overflow:visible;"/>
					</clipPath>
					
						<linearGradient id="SVGID_00000001659626872790111400000007466952346062061193_" gradientUnits="userSpaceOnUse" x1="46.4156" y1="64.6734" x2="41.4024" y2="59.3197" gradientTransform="matrix(1 0 0 -1 0 93)">
						<stop  offset="4.469418e-03" style="stop-color:#3D1D1E"/>
						<stop  offset="0.1501" style="stop-color:#431C1D"/>
						<stop  offset="0.3395" style="stop-color:#531819"/>
						<stop  offset="0.5529" style="stop-color:#6E1213"/>
						<stop  offset="0.7823" style="stop-color:#930A0A"/>
						<stop  offset="1" style="stop-color:#BD0000"/>
					</linearGradient>
					
						<path style="opacity:0.55;clip-path:url(#SVGID_00000158742407485830933160000000854621177284355484_);fill:url(#SVGID_00000001659626872790111400000007466952346062061193_);enable-background:new    ;" d="
						M41.1,35.6l-5.8-1.4c4.1-1.4,10.7-0.6,14.3-4.5C49.5,32.4,46.5,34.3,41.1,35.6z"/>
				</g>
			</g>
		</g>
		
			<linearGradient id="SVGID_00000115516676547627408250000018273575957473099689_" gradientUnits="userSpaceOnUse" x1="25.3393" y1="51.7592" x2="22.4036" y2="48.7009" gradientTransform="matrix(1 0 0 -1 0 93)">
			<stop  offset="2.663895e-08" style="stop-color:#632327"/>
			<stop  offset="0.4456" style="stop-color:#D11111"/>
		</linearGradient>
		<path style="fill:url(#SVGID_00000115516676547627408250000018273575957473099689_);" d="M24.8,40.1c1,2.2,0.8,3.6-1.2,3.3
			C25.3,43.6,25.6,42.5,24.8,40.1z"/>
	</g>
	<g id="Layer_2_00000156556609272343773870000000896799483777755317_">
		<g>
			
				<linearGradient id="SVGID_00000108996638407739698850000004360664694230121101_" gradientUnits="userSpaceOnUse" x1="3.5469" y1="57.4273" x2="32.1715" y2="50.7093" gradientTransform="matrix(1 0 0 -1 0 93)">
				<stop  offset="0" style="stop-color:#670909"/>
				<stop  offset="1" style="stop-color:#FF1111"/>
			</linearGradient>
			<path style="fill:url(#SVGID_00000108996638407739698850000004360664694230121101_);" d="M23.2,74.3C11.8,62.2,6.8,45.5,7,26.5
				c0-0.5,0.3-1,0.7-1.3C17,18.7,27.8,13.7,39.8,9.9c-12.6,3.2-23.9,7.9-33.6,14.6C3.3,42.6,9,59.2,23.2,74.3z"/>
			
				<linearGradient id="SVGID_00000149349200693142158620000004128496321830321286_" gradientUnits="userSpaceOnUse" x1="2.797208e-02" y1="53.825" x2="10.3267" y2="52.8442" gradientTransform="matrix(1 0 0 -1 0 93)">
				<stop  offset="2.770450e-07" style="stop-color:#751D1E"/>
				<stop  offset="0.4698" style="stop-color:#ED251E"/>
				<stop  offset="1" style="stop-color:#E1201A"/>
			</linearGradient>
			<path style="fill:url(#SVGID_00000149349200693142158620000004128496321830321286_);" d="M39.8,9.9c-2.1,0.7-4.2,1.3-6.3,2
				C24.1,15.1,15.2,19.2,7.2,25c-0.3,0.2-0.7,0.7-0.7,1.1c-0.2,9.7,0.9,19.2,4.3,28.4c2.6,6.9,6.6,12.8,11.3,18.4
				c0.4,0.5,0.8,0.9,1.2,1.4c-0.1,0.1-0.1,0.1-0.2,0.2c-0.2-0.2-0.4-0.4-0.6-0.6c-9.9-9.2-15.8-20.6-17.7-34C4,35,3.6,30.1,4,25.1
				C4,24.4,4.2,24,4.8,23.6c7-4.5,14.5-7.8,22.4-10.4c3.9-1.3,8-2.2,12-3.3c0.2,0,0.4-0.1,0.5-0.1C39.7,9.9,39.8,9.9,39.8,9.9z"/>
		</g>
	</g>
	<g id="Layer_5">
		<g>
			
				<linearGradient id="SVGID_00000150089195808525246870000006512999134543346839_" gradientUnits="userSpaceOnUse" x1="46.8528" y1="71.9245" x2="45.3816" y2="69.4724" gradientTransform="matrix(1 0 0 -1 0 93)">
				<stop  offset="0" style="stop-color:#670909"/>
				<stop  offset="1" style="stop-color:#FF1111"/>
			</linearGradient>
			<path style="fill:url(#SVGID_00000150089195808525246870000006512999134543346839_);" d="M29.7,16.7c15.6-1.1,24.9,5.1,29.4,16.7
				C52.4,24,42.6,18.3,29.7,16.7z"/>
			
				<linearGradient id="SVGID_00000082365818202735948430000003402415980055532729_" gradientUnits="userSpaceOnUse" x1="29.7317" y1="69.7627" x2="59.2186" y2="69.7627" gradientTransform="matrix(1 0 0 -1 0 93)">
				<stop  offset="2.770450e-07" style="stop-color:#751D1E"/>
				<stop  offset="0.4698" style="stop-color:#ED251E"/>
				<stop  offset="1" style="stop-color:#E1201A"/>
			</linearGradient>
			<path style="fill:url(#SVGID_00000082365818202735948430000003402415980055532729_);" d="M36.5,13.7c2.1-1,3.4-0.9,5.3-0.1
				c5.4,2.3,10.2,5.2,13.7,10c2,2.8,3.2,5.9,3.7,9.3c0,0.1,0,0.2,0,0.4c0,0,0,0.1-0.1,0.2C52.6,22.4,42.2,18,29.7,16.7"/>
		</g>
	</g>
	<g id="Layer_4">
		<g>
			
				<linearGradient id="SVGID_00000163060550038987702120000017549554765332433555_" gradientUnits="userSpaceOnUse" x1="10.5422" y1="53.9463" x2="26.1998" y2="53.9463" gradientTransform="matrix(1 0 0 -1 0 93)">
				<stop  offset="0" style="stop-color:#670909"/>
				<stop  offset="1" style="stop-color:#FF1111"/>
			</linearGradient>
			<path style="fill:url(#SVGID_00000163060550038987702120000017549554765332433555_);" d="M17.5,59.2c-5.2-11.4-6.3-21.2-5.8-30.4
				c0-0.5,0.3-0.9,0.7-1.1c4.7-3.4,9.6-6.5,13.9-8.8C21,20.5,16,23.6,11.3,27.4C9.2,38.5,11.7,49.1,17.5,59.2z"/>
			
				<linearGradient id="SVGID_00000021805044105518493480000017986240155994549163_" gradientUnits="userSpaceOnUse" x1="14.1569" y1="35.7773" x2="17.1644" y2="66.1934" gradientTransform="matrix(1 0 0 -1 0 93)">
				<stop  offset="2.770450e-07" style="stop-color:#751D1E"/>
				<stop  offset="0.4698" style="stop-color:#ED251E"/>
				<stop  offset="1" style="stop-color:#E1201A"/>
			</linearGradient>
			<path style="fill:url(#SVGID_00000021805044105518493480000017986240155994549163_);" d="M26.2,18.9c-1.9,1-3.9,1.9-5.7,3.1
				c-2.9,1.8-5.7,3.7-8.5,5.6c-0.3,0.2-0.6,0.7-0.6,1c-0.6,9.6,0.6,18.9,4.8,27.7c0.5,0.9,1,1.9,1.3,2.9c-0.2-0.2-0.4-0.5-0.5-0.7
				C13.3,53,11.2,46.9,10,40.5c-0.8-4.3-1.2-8.6-1.1-12.9c0-0.7,0.2-1.2,0.9-1.6c5-3,10.3-5.3,15.8-7c0.1,0,0.3-0.1,0.4-0.1
				C26.1,18.8,26.1,18.9,26.2,18.9z"/>
		</g>
		<g class="st24">
			<path class="st25" d="M297.8,19.4c0.7,0.4,1.3,1,1.7,1.8c0.4,0.8,0.6,1.6,0.6,2.5s-0.2,1.8-0.6,2.5c-0.4,0.7-1,1.3-1.7,1.8
				c-0.7,0.4-1.6,0.6-2.5,0.6s-1.8-0.2-2.5-0.6c-0.7-0.4-1.3-1-1.7-1.8c-0.4-0.7-0.6-1.6-0.6-2.5s0.2-1.8,0.6-2.5
				c0.4-0.8,1-1.3,1.7-1.8c0.7-0.4,1.6-0.6,2.5-0.6C296.2,18.8,297,19,297.8,19.4z M298.1,26.7c0.7-0.8,1.1-1.7,1.1-2.9
				c0-1.2-0.4-2.2-1.1-2.9c-0.7-0.8-1.7-1.2-2.9-1.2c-1.2,0-2.2,0.4-2.9,1.2c-0.7,0.8-1.1,1.7-1.1,2.9c0,1.2,0.4,2.2,1.1,2.9
				c0.7,0.8,1.7,1.2,2.9,1.2C296.5,27.8,297.4,27.4,298.1,26.7z M297.1,23.7c-0.2,0.3-0.5,0.4-1,0.5l1.5,2.1l-1.3,0l-1.3-2.1h-0.6
				v2.1h-1.1v-5.3h2.3c0.5,0,1,0.1,1.3,0.4c0.3,0.3,0.5,0.7,0.5,1.2C297.4,23.1,297.3,23.4,297.1,23.7z M294.4,23.4h1.2
				c0.2,0,0.4-0.1,0.6-0.2c0.1-0.1,0.2-0.3,0.2-0.5s-0.1-0.4-0.2-0.5s-0.3-0.2-0.6-0.2h-1.2V23.4z"/>
		</g>
		<g class="st24">
			<text transform="matrix(1 0 0 1 91.6861 54.8186)" class="st25 st26 st27">Rothcrest</text>
			<text transform="matrix(1 0 0 1 91.6851 78.4201)" class="st25 st26 st28">Your Cybersecurity Partner</text>
		</g>
		<g>
			<g>
				<path d="M95.3,54.8V25.1h14.2c3.1,0,5.5,0.8,7.3,2.5c1.8,1.7,2.7,3.9,2.7,6.8c0,1.9-0.4,3.4-1.1,4.6c-0.7,1.1-1.7,2-2.8,2.6
					c-1.1,0.6-2.2,1-3.3,1.3l7.8,12h-4L109,43.4H98.7v11.4L95.3,54.8L95.3,54.8z M98.7,40.2H109c1.1,0,2.2-0.2,3.3-0.5
					c1.1-0.3,2-0.9,2.8-1.8s1.1-2,1.1-3.6c0-1.9-0.6-3.4-1.9-4.5c-1.3-1.1-3-1.6-5.1-1.6H98.7V40.2z"/>
				<path d="M133.9,55.2c-2.3,0-4.3-0.5-5.9-1.5c-1.7-1-3-2.4-3.9-4.2c-0.9-1.8-1.3-3.7-1.3-5.8c0-2.2,0.4-4.1,1.3-5.9
					c0.9-1.8,2.2-3.1,3.9-4.2c1.7-1,3.7-1.5,5.9-1.5c2.3,0,4.3,0.5,6,1.5c1.7,1,2.9,2.4,3.8,4.2c0.9,1.8,1.3,3.7,1.3,5.9
					c0,2.1-0.4,4.1-1.3,5.8c-0.9,1.8-2.2,3.2-3.8,4.2C138.1,54.7,136.2,55.2,133.9,55.2z M133.9,52.1c1.7,0,3.1-0.4,4.2-1.2
					c1.2-0.8,2-1.8,2.6-3.1c0.6-1.3,0.9-2.7,0.9-4.2c0-1.6-0.3-3-0.9-4.3c-0.6-1.3-1.5-2.3-2.6-3.1c-1.2-0.8-2.6-1.2-4.2-1.2
					c-1.6,0-3.1,0.4-4.2,1.2c-1.2,0.8-2.1,1.8-2.6,3.1c-0.6,1.3-0.9,2.7-0.9,4.3c0,1.5,0.3,2.9,0.9,4.2c0.6,1.3,1.5,2.3,2.6,3.1
					C130.8,51.7,132.2,52.1,133.9,52.1z"/>
				<path d="M151.9,54.8V35.3h-4.6v-3h4.6v-8h3.4v8h5.2v3h-5.2v19.5H151.9z"/>
				<path d="M164.1,54.8V23.4h3.4v12.5c0.8-1.1,1.8-2,3-2.7c1.2-0.7,2.7-1.1,4.5-1.1c1.6,0,3,0.4,4.4,1.1c1.4,0.7,2.5,1.8,3.3,3.3
					c0.9,1.5,1.3,3.2,1.3,5.4v13.1h-3.4v-13c0-2-0.6-3.7-1.8-4.9c-1.2-1.2-2.7-1.9-4.5-1.9c-1.3,0-2.4,0.3-3.4,0.9
					c-1,0.6-1.8,1.4-2.4,2.4c-0.6,1-0.9,2.2-0.9,3.6v12.9L164.1,54.8L164.1,54.8z"/>
				<path d="M199.1,55.2c-2.2,0-4.2-0.5-5.8-1.5c-1.6-1-2.9-2.4-3.8-4.2c-0.9-1.8-1.4-3.7-1.4-5.8c0-2.2,0.5-4.1,1.4-5.9
					c0.9-1.8,2.2-3.1,3.8-4.2c1.6-1,3.6-1.5,5.8-1.5c2.7,0,4.9,0.7,6.8,2.1c1.9,1.4,3.1,3.2,3.8,5.3h-3.6c-0.5-1.3-1.3-2.3-2.4-3.1
					c-1.1-0.8-2.5-1.2-4.1-1.2c-1.6,0-3.1,0.4-4.3,1.2c-1.2,0.8-2.2,1.8-2.8,3.1c-0.7,1.3-1,2.7-1,4.3c0,1.5,0.3,2.9,1,4.2
					c0.7,1.3,1.6,2.3,2.8,3.1c1.2,0.8,2.7,1.2,4.3,1.2c1.6,0,2.9-0.4,4.1-1.2c1.1-0.8,1.9-1.9,2.4-3.1h3.6c-0.7,2.2-1.9,4-3.8,5.3
					C204.1,54.5,201.8,55.2,199.1,55.2z"/>
				<path d="M213.9,54.8V32.4h3.4v5.5c0.1-0.4,0.4-0.9,0.7-1.5c0.3-0.6,0.8-1.3,1.5-2c0.7-0.7,1.5-1.2,2.5-1.7
					c1-0.5,2.2-0.7,3.6-0.7h0.2v3.4h-0.4c-1.7,0-3.1,0.5-4.3,1.4c-1.2,0.9-2.1,2.1-2.8,3.5c-0.6,1.5-1,3-1,4.6v9.9L213.9,54.8
					L213.9,54.8z"/>
				<path d="M238.8,55.2c-2.3,0-4.3-0.5-6-1.5s-3-2.4-4-4.2c-0.9-1.8-1.4-3.7-1.4-5.8c0-2.2,0.4-4.1,1.3-5.9
					c0.9-1.8,2.2-3.1,3.9-4.2c1.7-1,3.7-1.5,5.9-1.5c2.3,0,4.3,0.5,6,1.5c1.7,1,2.9,2.4,3.8,4.2c0.9,1.8,1.3,3.7,1.3,5.9v1.3h-18.8
					c0.2,1.3,0.6,2.5,1.3,3.6c0.7,1.1,1.6,2,2.7,2.6c1.1,0.6,2.5,1,4,1c1.6,0,2.9-0.4,4-1.1c1.1-0.7,1.9-1.6,2.5-2.7h3.7
					c-0.8,2-2,3.6-3.7,4.9C243.6,54.5,241.5,55.2,238.8,55.2z M230.9,41.8h15.3c-0.3-1.9-1.1-3.5-2.4-4.8c-1.3-1.3-3.1-1.9-5.2-1.9
					c-2.2,0-3.9,0.6-5.2,1.9C232.1,38.3,231.3,39.9,230.9,41.8z"/>
				<path d="M262,55.2c-2.1,0-3.8-0.3-5.2-1c-1.4-0.7-2.5-1.6-3.3-2.7c-0.7-1.1-1.2-2.3-1.3-3.7h3.5c0.1,0.7,0.4,1.5,0.8,2.2
					c0.4,0.7,1.1,1.3,2,1.7c0.9,0.4,2.1,0.7,3.5,0.7c0.4,0,1,0,1.7-0.1c0.7-0.1,1.3-0.3,1.9-0.5c0.6-0.2,1.1-0.6,1.5-1.1
					c0.4-0.5,0.6-1.1,0.6-1.8c0-0.9-0.4-1.6-1.1-2.2s-1.6-0.9-2.8-1.2c-1.1-0.3-2.3-0.6-3.6-0.8c-1.3-0.3-2.5-0.6-3.6-1.1
					c-1.1-0.4-2.1-1-2.8-1.8c-0.7-0.8-1.1-1.9-1.1-3.3c0-2,0.7-3.6,2.2-4.7c1.5-1.1,3.7-1.7,6.6-1.7c2,0,3.6,0.3,4.8,0.9
					c1.2,0.6,2.2,1.4,2.8,2.4c0.6,1,1,2,1.1,3.1H267c-0.1-1-0.6-1.8-1.4-2.5c-0.8-0.7-2.2-1-4.1-1c-3.6,0-5.3,1.1-5.3,3.2
					c0,0.9,0.4,1.6,1.1,2.1c0.7,0.5,1.6,0.9,2.8,1.1c1.1,0.3,2.3,0.6,3.6,0.8c1.3,0.3,2.5,0.6,3.6,1.1c1.1,0.4,2.1,1.1,2.8,1.9
					c0.7,0.8,1.1,1.9,1.1,3.3c0,2.2-0.8,3.9-2.5,5C267,54.6,264.8,55.2,262,55.2z"/>
				<path d="M277.9,54.8V35.3h-4.6v-3h4.6v-8h3.4v8h5.2v3h-5.2v19.5H277.9z"/>
			</g>
			<g>
				<path d="M95.9,78.4v-3.9l-4.2-6h1.4l3.4,4.8l3.4-4.8h1.4l-4.1,6v3.9L95.9,78.4L95.9,78.4z"/>
				<path d="M104.2,78.5c-0.8,0-1.4-0.2-2-0.5c-0.6-0.3-1-0.8-1.3-1.4c-0.3-0.6-0.4-1.2-0.4-1.9c0-0.7,0.1-1.4,0.4-2
					c0.3-0.6,0.7-1,1.3-1.4c0.6-0.3,1.2-0.5,2-0.5c0.8,0,1.4,0.2,2,0.5c0.6,0.3,1,0.8,1.3,1.4c0.3,0.6,0.4,1.2,0.4,2
					c0,0.7-0.1,1.4-0.4,1.9c-0.3,0.6-0.7,1.1-1.3,1.4C105.6,78.4,105,78.5,104.2,78.5z M104.2,77.5c0.6,0,1-0.1,1.4-0.4
					s0.7-0.6,0.9-1c0.2-0.4,0.3-0.9,0.3-1.4c0-0.5-0.1-1-0.3-1.4c-0.2-0.4-0.5-0.8-0.9-1c-0.4-0.3-0.9-0.4-1.4-0.4
					c-0.5,0-1,0.1-1.4,0.4s-0.7,0.6-0.9,1c-0.2,0.4-0.3,0.9-0.3,1.4c0,0.5,0.1,1,0.3,1.4c0.2,0.4,0.5,0.8,0.9,1
					C103.2,77.4,103.6,77.5,104.2,77.5z"/>
				<path d="M112.3,78.5c-0.5,0-1-0.1-1.5-0.4c-0.5-0.2-0.8-0.6-1.1-1.1c-0.3-0.5-0.4-1.1-0.4-1.8v-4.4h1.1v4.3
					c0,0.7,0.2,1.2,0.6,1.6c0.4,0.4,0.9,0.6,1.5,0.6c0.4,0,0.8-0.1,1.1-0.3c0.3-0.2,0.6-0.5,0.8-0.8c0.2-0.3,0.3-0.7,0.3-1.2v-4.3
					h1.1v7.5h-1.1v-1.2c-0.3,0.4-0.6,0.7-1,0.9C113.4,78.4,112.9,78.5,112.3,78.5z"/>
				<path d="M117.9,78.4v-7.5h1.1v1.8c0-0.1,0.1-0.3,0.2-0.5c0.1-0.2,0.3-0.4,0.5-0.7c0.2-0.2,0.5-0.4,0.8-0.6s0.7-0.2,1.2-0.2h0.1
					v1.1h-0.1c-0.6,0-1,0.2-1.4,0.5c-0.4,0.3-0.7,0.7-0.9,1.2c-0.2,0.5-0.3,1-0.3,1.5v3.3L117.9,78.4L117.9,78.4z"/>
				<path d="M130.6,78.5c-1,0-1.8-0.2-2.6-0.7c-0.7-0.5-1.3-1.1-1.7-1.8c-0.4-0.8-0.6-1.6-0.6-2.6c0-0.9,0.2-1.8,0.6-2.6
					c0.4-0.8,0.9-1.4,1.7-1.8c0.7-0.5,1.6-0.7,2.6-0.7c0.7,0,1.4,0.1,2,0.4c0.6,0.3,1.1,0.6,1.5,1.1c0.4,0.5,0.7,1,0.9,1.6h-1.2
					c-0.2-0.6-0.6-1.1-1.2-1.5c-0.5-0.4-1.2-0.5-2-0.5c-0.8,0-1.5,0.2-2,0.5c-0.6,0.4-1,0.8-1.3,1.4c-0.3,0.6-0.4,1.3-0.4,2
					c0,0.7,0.1,1.4,0.4,2c0.3,0.6,0.7,1.1,1.3,1.4c0.6,0.4,1.2,0.5,2,0.5c0.8,0,1.5-0.2,2-0.5c0.5-0.4,0.9-0.8,1.2-1.5h1.2
					c-0.2,0.6-0.5,1.1-0.9,1.6c-0.4,0.5-0.9,0.8-1.5,1.1C132,78.4,131.4,78.5,130.6,78.5z"/>
				<path d="M137.3,81.4l1.4-3.1l-3.1-7.4h1.2l2.4,6.1l2.5-6.1h1.2l-4.4,10.4L137.3,81.4L137.3,81.4z"/>
				<path d="M147.8,78.5c-0.6,0-1.2-0.1-1.6-0.4c-0.4-0.2-0.8-0.6-1.1-1v1.2H144V67.9h1.1v4.2c0.3-0.4,0.6-0.7,1.1-1
					c0.4-0.2,1-0.4,1.6-0.4c0.7,0,1.4,0.2,1.9,0.5c0.5,0.3,1,0.8,1.3,1.4c0.3,0.6,0.4,1.2,0.4,2c0,0.7-0.1,1.4-0.4,1.9
					c-0.3,0.6-0.7,1.1-1.3,1.4C149.2,78.4,148.5,78.5,147.8,78.5z M147.6,77.5c0.6,0,1-0.1,1.4-0.4c0.4-0.3,0.7-0.6,0.9-1
					c0.2-0.4,0.3-0.9,0.3-1.4c0-0.5-0.1-1-0.3-1.4c-0.2-0.4-0.5-0.8-0.9-1c-0.4-0.3-0.9-0.4-1.4-0.4c-0.5,0-1,0.1-1.4,0.4
					s-0.7,0.6-0.9,1c-0.2,0.4-0.3,0.9-0.3,1.4c0,0.5,0.1,1,0.3,1.4c0.2,0.4,0.5,0.8,0.9,1C146.6,77.4,147.1,77.5,147.6,77.5z"/>
				<path d="M156.2,78.5c-0.8,0-1.4-0.2-2-0.5c-0.6-0.3-1-0.8-1.3-1.4c-0.3-0.6-0.5-1.2-0.5-1.9c0-0.7,0.1-1.4,0.4-2
					c0.3-0.6,0.7-1,1.3-1.4c0.6-0.3,1.2-0.5,2-0.5c0.8,0,1.4,0.2,2,0.5c0.6,0.3,1,0.8,1.3,1.4c0.3,0.6,0.4,1.2,0.4,2v0.4h-6.3
					c0.1,0.4,0.2,0.8,0.4,1.2c0.2,0.4,0.5,0.7,0.9,0.9c0.4,0.2,0.8,0.3,1.3,0.3c0.5,0,1-0.1,1.3-0.4c0.4-0.2,0.6-0.5,0.8-0.9h1.2
					c-0.3,0.7-0.7,1.2-1.2,1.6C157.8,78.3,157.1,78.5,156.2,78.5z M153.6,74.1h5.1c-0.1-0.6-0.4-1.2-0.8-1.6c-0.4-0.4-1-0.6-1.7-0.6
					c-0.7,0-1.3,0.2-1.7,0.6C154,72.9,153.7,73.4,153.6,74.1z"/>
				<path d="M161.2,78.4v-7.5h1.1v1.8c0-0.1,0.1-0.3,0.2-0.5c0.1-0.2,0.3-0.4,0.5-0.7c0.2-0.2,0.5-0.4,0.8-0.6s0.7-0.2,1.2-0.2h0.1
					v1.1H165c-0.6,0-1,0.2-1.4,0.5c-0.4,0.3-0.7,0.7-0.9,1.2c-0.2,0.5-0.3,1-0.3,1.5v3.3L161.2,78.4L161.2,78.4z"/>
				<path d="M169.1,78.5c-0.7,0-1.3-0.1-1.7-0.3s-0.8-0.5-1.1-0.9c-0.2-0.4-0.4-0.8-0.4-1.2h1.2c0,0.2,0.1,0.5,0.3,0.7
					c0.1,0.2,0.4,0.4,0.7,0.6c0.3,0.1,0.7,0.2,1.2,0.2c0.1,0,0.3,0,0.6,0c0.2,0,0.4-0.1,0.6-0.2c0.2-0.1,0.4-0.2,0.5-0.4
					c0.1-0.2,0.2-0.4,0.2-0.6c0-0.3-0.1-0.5-0.4-0.7c-0.2-0.2-0.5-0.3-0.9-0.4c-0.4-0.1-0.8-0.2-1.2-0.3c-0.4-0.1-0.8-0.2-1.2-0.4
					c-0.4-0.1-0.7-0.3-0.9-0.6c-0.2-0.3-0.4-0.6-0.4-1.1c0-0.7,0.2-1.2,0.7-1.6s1.2-0.6,2.2-0.6c0.7,0,1.2,0.1,1.6,0.3
					c0.4,0.2,0.7,0.5,0.9,0.8c0.2,0.3,0.3,0.7,0.4,1h-1.1c0-0.3-0.2-0.6-0.5-0.8c-0.3-0.2-0.7-0.3-1.4-0.3c-1.2,0-1.8,0.4-1.8,1.1
					c0,0.3,0.1,0.5,0.4,0.7c0.2,0.2,0.5,0.3,0.9,0.4c0.4,0.1,0.8,0.2,1.2,0.3c0.4,0.1,0.8,0.2,1.2,0.4c0.4,0.1,0.7,0.4,0.9,0.6
					c0.2,0.3,0.4,0.6,0.4,1.1c0,0.7-0.3,1.3-0.8,1.7C170.8,78.3,170,78.5,169.1,78.5z"/>
				<path d="M176.9,78.5c-0.8,0-1.4-0.2-2-0.5c-0.6-0.3-1-0.8-1.3-1.4c-0.3-0.6-0.5-1.2-0.5-1.9c0-0.7,0.1-1.4,0.4-2
					c0.3-0.6,0.7-1,1.3-1.4c0.6-0.3,1.2-0.5,2-0.5c0.8,0,1.4,0.2,2,0.5c0.6,0.3,1,0.8,1.3,1.4c0.3,0.6,0.4,1.2,0.4,2v0.4h-6.3
					c0.1,0.4,0.2,0.8,0.4,1.2c0.2,0.4,0.5,0.7,0.9,0.9c0.4,0.2,0.8,0.3,1.3,0.3c0.5,0,1-0.1,1.3-0.4c0.4-0.2,0.6-0.5,0.8-0.9h1.2
					c-0.3,0.7-0.7,1.2-1.2,1.6C178.5,78.3,177.8,78.5,176.9,78.5z M174.3,74.1h5.1c-0.1-0.6-0.4-1.2-0.8-1.6c-0.4-0.4-1-0.6-1.7-0.6
					c-0.7,0-1.3,0.2-1.7,0.6C174.7,72.9,174.4,73.4,174.3,74.1z"/>
				<path d="M185.2,78.5c-0.7,0-1.4-0.2-1.9-0.5c-0.5-0.3-1-0.8-1.3-1.4c-0.3-0.6-0.5-1.2-0.5-1.9c0-0.7,0.2-1.4,0.5-2
					c0.3-0.6,0.7-1,1.3-1.4c0.5-0.3,1.2-0.5,1.9-0.5c0.9,0,1.6,0.2,2.3,0.7c0.6,0.5,1,1.1,1.3,1.8h-1.2c-0.2-0.4-0.4-0.8-0.8-1
					c-0.4-0.3-0.8-0.4-1.4-0.4c-0.5,0-1,0.1-1.4,0.4c-0.4,0.3-0.7,0.6-0.9,1c-0.2,0.4-0.3,0.9-0.3,1.4c0,0.5,0.1,1,0.3,1.4
					c0.2,0.4,0.5,0.8,0.9,1s0.9,0.4,1.4,0.4c0.5,0,1-0.1,1.4-0.4c0.4-0.3,0.6-0.6,0.8-1h1.2c-0.2,0.7-0.6,1.3-1.3,1.8
					C186.8,78.3,186.1,78.5,185.2,78.5z"/>
				<path d="M193,78.5c-0.5,0-1-0.1-1.5-0.4c-0.5-0.2-0.8-0.6-1.1-1.1c-0.3-0.5-0.4-1.1-0.4-1.8v-4.4h1.1v4.3c0,0.7,0.2,1.2,0.6,1.6
					c0.4,0.4,0.9,0.6,1.5,0.6c0.4,0,0.8-0.1,1.1-0.3c0.3-0.2,0.6-0.5,0.8-0.8s0.3-0.7,0.3-1.2v-4.3h1.1v7.5h-1.1v-1.2
					c-0.3,0.4-0.6,0.7-1,0.9C194.1,78.4,193.6,78.5,193,78.5z"/>
				<path d="M198.6,78.4v-7.5h1.1v1.8c0-0.1,0.1-0.3,0.2-0.5c0.1-0.2,0.3-0.4,0.5-0.7c0.2-0.2,0.5-0.4,0.8-0.6s0.7-0.2,1.2-0.2h0.1
					v1.1h-0.1c-0.6,0-1,0.2-1.4,0.5c-0.4,0.3-0.7,0.7-0.9,1.2c-0.2,0.5-0.3,1-0.3,1.5v3.3L198.6,78.4L198.6,78.4z"/>
				<path d="M203.7,69.7v-1.5h1.2v1.5H203.7z M203.7,78.4v-7.5h1.1v7.5H203.7z"/>
				<path d="M207.6,78.4v-6.5h-1.5v-1h1.5v-2.7h1.1v2.7h1.7v1h-1.7v6.5H207.6z"/>
				<path d="M212.5,81.4l1.4-3.1l-3.1-7.4h1.2l2.4,6.1l2.5-6.1h1.2l-4.4,10.4L212.5,81.4L212.5,81.4z"/>
				<path d="M222.5,78.4v-9.9h4.5c1.1,0,1.9,0.3,2.5,0.9c0.6,0.6,0.9,1.4,0.9,2.3c0,1-0.3,1.8-0.9,2.3c-0.6,0.6-1.4,0.9-2.5,0.9
					h-3.3v3.5L222.5,78.4L222.5,78.4z M223.7,73.8h3.3c0.8,0,1.4-0.2,1.8-0.6c0.4-0.4,0.6-0.9,0.6-1.6c0-0.7-0.2-1.2-0.6-1.6
					c-0.4-0.4-1-0.6-1.8-0.6h-3.3V73.8z"/>
				<path d="M234.9,78.5c-0.7,0-1.4-0.2-1.9-0.5c-0.5-0.3-1-0.8-1.3-1.4c-0.3-0.6-0.4-1.2-0.4-1.9c0-0.7,0.1-1.4,0.4-2
					c0.3-0.6,0.7-1,1.3-1.4c0.5-0.3,1.2-0.5,1.9-0.5c0.6,0,1.2,0.1,1.6,0.4c0.4,0.2,0.8,0.6,1.1,1v-1.2h1.1v7.5h-1.1v-1.2
					c-0.3,0.4-0.6,0.7-1.1,1C236,78.4,235.5,78.5,234.9,78.5z M235,77.5c0.6,0,1-0.1,1.4-0.4c0.4-0.3,0.7-0.6,0.9-1
					c0.2-0.4,0.3-0.9,0.3-1.4c0-0.5-0.1-1-0.3-1.4c-0.2-0.4-0.5-0.8-0.9-1c-0.4-0.3-0.9-0.4-1.4-0.4c-0.5,0-1,0.1-1.4,0.4
					s-0.7,0.6-0.9,1s-0.3,0.9-0.3,1.4c0,0.5,0.1,1,0.3,1.4c0.2,0.4,0.5,0.8,0.9,1S234.5,77.5,235,77.5z"/>
				<path d="M240.6,78.4v-7.5h1.1v1.8c0-0.1,0.1-0.3,0.2-0.5c0.1-0.2,0.3-0.4,0.5-0.7c0.2-0.2,0.5-0.4,0.8-0.6s0.7-0.2,1.2-0.2h0.1
					v1.1h-0.1c-0.6,0-1,0.2-1.4,0.5c-0.4,0.3-0.7,0.7-0.9,1.2c-0.2,0.5-0.3,1-0.3,1.5v3.3L240.6,78.4L240.6,78.4z"/>
				<path d="M246.6,78.4v-6.5h-1.5v-1h1.5v-2.7h1.1v2.7h1.7v1h-1.7v6.5H246.6z"/>
				<path d="M250.7,78.4v-7.5h1.1v1.2c0.3-0.4,0.6-0.7,1-0.9c0.4-0.2,0.9-0.4,1.5-0.4c0.5,0,1,0.1,1.5,0.4c0.5,0.2,0.8,0.6,1.1,1.1
					c0.3,0.5,0.4,1.1,0.4,1.8v4.4h-1.1v-4.3c0-0.7-0.2-1.2-0.6-1.6c-0.4-0.4-0.9-0.6-1.5-0.6c-0.4,0-0.8,0.1-1.1,0.3
					c-0.3,0.2-0.6,0.5-0.8,0.8c-0.2,0.3-0.3,0.7-0.3,1.2v4.3L250.7,78.4L250.7,78.4z"/>
				<path d="M262.4,78.5c-0.8,0-1.4-0.2-2-0.5c-0.6-0.3-1-0.8-1.3-1.4c-0.3-0.6-0.5-1.2-0.5-1.9c0-0.7,0.1-1.4,0.4-2
					c0.3-0.6,0.7-1,1.3-1.4c0.6-0.3,1.2-0.5,2-0.5c0.8,0,1.4,0.2,2,0.5c0.6,0.3,1,0.8,1.3,1.4c0.3,0.6,0.4,1.2,0.4,2v0.4h-6.3
					c0.1,0.4,0.2,0.8,0.4,1.2c0.2,0.4,0.5,0.7,0.9,0.9c0.4,0.2,0.8,0.3,1.3,0.3c0.5,0,1-0.1,1.3-0.4c0.4-0.2,0.6-0.5,0.8-0.9h1.2
					c-0.3,0.7-0.7,1.2-1.2,1.6C264.1,78.3,263.3,78.5,262.4,78.5z M259.8,74.1h5.1c-0.1-0.6-0.4-1.2-0.8-1.6s-1-0.6-1.7-0.6
					s-1.3,0.2-1.7,0.6C260.2,72.9,259.9,73.4,259.8,74.1z"/>
				<path d="M267.5,78.4v-7.5h1.1v1.8c0-0.1,0.1-0.3,0.2-0.5c0.1-0.2,0.3-0.4,0.5-0.7c0.2-0.2,0.5-0.4,0.8-0.6s0.7-0.2,1.2-0.2h0.1
					v1.1h-0.1c-0.6,0-1,0.2-1.4,0.5c-0.4,0.3-0.7,0.7-0.9,1.2c-0.2,0.5-0.3,1-0.3,1.5v3.3L267.5,78.4L267.5,78.4z"/>
			</g>
		</g>
	</g>
</g>
</svg>
