<svg width="96" height="96" viewBox="0 0 96 96" fill="none" xmlns="http://www.w3.org/2000/svg">
<ellipse cx="47.7043" cy="48" rx="47.3383" ry="48" fill="black"/>
<path d="M36.9282 56.9342L35.2688 57.4793V55.7098C35.2688 55.2734 34.9202 54.9199 34.4898 54.9199C34.0594 54.9199 33.7108 55.2734 33.7108 55.7098V57.4793L32.0514 56.9323C31.6405 56.798 31.2023 57.0251 31.0698 57.4398C30.9374 57.8545 31.1614 58.3008 31.5704 58.4351L33.2297 58.9821L32.2033 60.4138C31.9501 60.7673 32.028 61.2611 32.3747 61.5178C32.513 61.6205 32.6727 61.6679 32.8324 61.6679C33.0739 61.6679 33.3115 61.5553 33.4634 61.342L34.4898 59.9103L35.5161 61.342C35.6681 61.5553 35.9057 61.6679 36.1471 61.6679C36.3068 61.6679 36.4665 61.6185 36.6048 61.5178C36.9535 61.261 37.0294 60.7673 36.7762 60.4138L35.7498 58.9821L37.4092 58.4391C37.8182 58.3048 38.0441 57.8585 37.9116 57.4437C37.7792 57.029 37.3391 56.8019 36.93 56.9342H36.9282Z" fill="white"/>
<path d="M46.1967 56.9342L44.5374 57.4793V55.7098C44.5374 55.2734 44.1888 54.9199 43.7584 54.9199C43.3279 54.9199 42.9793 55.2734 42.9793 55.7098V57.4793L41.32 56.9323C40.909 56.798 40.4709 57.0251 40.3384 57.4398C40.2059 57.8545 40.4299 58.3008 40.8389 58.4351L42.4982 58.9821L41.4719 60.4138C41.2187 60.7673 41.2966 61.2611 41.6432 61.5178C41.7815 61.6205 41.9412 61.6679 42.1009 61.6679C42.3424 61.6679 42.58 61.5553 42.7319 61.342L43.7583 59.9103L44.7847 61.342C44.9366 61.5553 45.1742 61.6679 45.4157 61.6679C45.5754 61.6679 45.7351 61.6185 45.8734 61.5178C46.222 61.261 46.298 60.7673 46.0448 60.4138L45.0184 58.9821L46.6777 58.4391C47.0867 58.3048 47.3126 57.8585 47.1802 57.4437C47.0478 57.029 46.6096 56.8019 46.1986 56.9342H46.1967Z" fill="white"/>
<path d="M55.4653 56.9342L53.8059 57.4793V55.7098C53.8059 55.2734 53.4573 54.9199 53.0269 54.9199C52.5965 54.9199 52.2479 55.2734 52.2479 55.7098V57.4793L50.5885 56.9323C50.1776 56.798 49.7394 57.0251 49.6069 57.4398C49.4745 57.8545 49.6985 58.3008 50.1075 58.4351L51.7668 58.9821L50.7404 60.4138C50.4872 60.7673 50.5651 61.2611 50.9118 61.5178C51.0501 61.6205 51.2098 61.6679 51.3695 61.6679C51.611 61.6679 51.8486 61.5553 52.0005 61.342L53.0269 59.9103L54.0513 61.342C54.2032 61.5553 54.4408 61.6679 54.6823 61.6679C54.842 61.6679 55.0017 61.6185 55.14 61.5178C55.4886 61.261 55.5646 60.7673 55.3114 60.4138L54.285 58.9821L55.9443 58.4391C56.3533 58.3048 56.5792 57.8585 56.4468 57.4437C56.3144 57.029 55.8763 56.8019 55.4653 56.9342Z" fill="white"/>
<path d="M64.7333 56.9342L63.074 57.4793V55.7098C63.074 55.2734 62.7254 54.9199 62.295 54.9199C61.8646 54.9199 61.5159 55.2734 61.5159 55.7098V57.4793L59.8566 56.9323C59.4476 56.798 59.0075 57.0251 58.875 57.4398C58.7426 57.8545 58.9665 58.3008 59.3755 58.4351L61.0349 58.9821L60.0085 60.4138C59.7553 60.7673 59.8332 61.2611 60.1799 61.5178C60.3181 61.6205 60.4778 61.6679 60.6375 61.6679C60.8791 61.6679 61.1167 61.5553 61.2686 61.342L62.2949 59.9103L63.3194 61.342C63.4713 61.5553 63.7089 61.6679 63.9504 61.6679C64.1101 61.6679 64.2698 61.6185 64.4081 61.5178C64.7567 61.261 64.8326 60.7673 64.5795 60.4138L63.5531 58.9821L65.2124 58.4391C65.6214 58.3048 65.8473 57.8585 65.7149 57.4437C65.5825 57.029 65.1443 56.8019 64.7333 56.9342Z" fill="white"/>
<path d="M67.9084 49.5883H57.156C57.2631 49.3099 57.3274 49.0117 57.3274 48.6957V39.3056C57.3274 37.943 56.2328 36.8331 54.889 36.8331H54.6611V34.3548C54.6611 30.8515 51.8488 28 48.394 28C44.9389 28 42.1268 30.8516 42.1268 34.3548V36.8331H41.8989C40.5551 36.8331 39.4606 37.943 39.4606 39.3056V48.6957C39.4606 49.0117 39.5248 49.3119 39.6319 49.5883H28.8755C26.7488 49.5883 25.0212 51.342 25.0212 53.4965V63.0918C25.0212 65.2483 26.7507 67 28.8755 67H67.909C70.0358 67 71.7633 65.2463 71.7633 63.0918V53.4965C71.7633 51.34 70.0338 49.5883 67.909 49.5883H67.9084ZM43.6823 34.3525C43.6823 31.7201 45.7955 29.5774 48.3916 29.5774C50.9877 29.5774 53.1008 31.7201 53.1008 34.3525V36.8309H43.6821L43.6823 34.3525ZM41.016 48.6955V39.3054C41.016 38.8117 41.4114 38.4128 41.8963 38.4128H54.8869C55.3718 38.4128 55.7672 38.8137 55.7672 39.3054V48.6955C55.7672 49.1872 55.3718 49.5881 54.8869 49.5881H41.8963C41.4114 49.5881 41.016 49.1872 41.016 48.6955ZM70.2045 63.0921C70.2045 64.3757 69.1743 65.4204 67.9083 65.4204H28.8748C27.6089 65.4204 26.5786 64.3757 26.5786 63.0921V53.4967C26.5786 52.2131 27.6089 51.1684 28.8748 51.1684H67.9083C69.1743 51.1684 70.2045 52.2131 70.2045 53.4967V63.0921Z" fill="white"/>
<path d="M48.3914 40.7979C47.2229 40.7979 46.2744 41.7615 46.2744 42.9445C46.2744 43.849 46.8314 44.6211 47.6124 44.9371V46.1121C47.6124 46.5485 47.961 46.902 48.3914 46.902C48.8219 46.902 49.1705 46.5485 49.1705 46.1121V44.9371C49.9534 44.6211 50.5085 43.849 50.5085 42.9445C50.5085 41.7596 49.5581 40.7979 48.3914 40.7979ZM48.3914 42.3777C48.6992 42.3777 48.9504 42.6325 48.9504 42.9445C48.9504 43.2565 48.6992 43.5112 48.3914 43.5112C48.0837 43.5112 47.8325 43.2565 47.8325 42.9445C47.8325 42.6325 48.0837 42.3777 48.3914 42.3777Z" fill="white"/>
</svg>
