<?xml version="1.0" encoding="utf-8"?>
<!-- Generator: Adobe Illustrator 26.0.1, SVG Export Plug-In . SVG Version: 6.00 Build 0)  -->
<svg version="1.1" id="Layer_1" xmlns="http://www.w3.org/2000/svg" xmlns:xlink="http://www.w3.org/1999/xlink" x="0px" y="0px"
	 viewBox="0 0 500 500" enable-background="new 0 0 500 500" xml:space="preserve">
<g>
	<g display="none">
		<text transform="matrix(1 0 0 1 140.9926 296.3367)" display="inline" font-family="'Campton-Medium'" font-size="28.3057px">Share Docs </text>
		<g display="inline">
			<text transform="matrix(1 0 0 1 325.6234 295.5222)" fill="#746CBD" font-family="'Campton-Medium'" font-size="28.3057px">Gain Leads </text>
		</g>
		
			<text transform="matrix(1.0062 0 0 1 137.9887 249.4783)" display="inline" font-family="'InstrumentSans-Medium'" font-size="61.3366px" letter-spacing="0.99">SharePaper</text>
	</g>
	<g>
		<g>
			<path d="M158.15,282.67h-3c-0.34-2.04-1.73-3.28-4.53-3.28c-2.46,0-4.08,1.05-4.08,2.92c0,1.53,1.13,2.32,3.2,2.72l2.69,0.54
				c3.59,0.71,5.66,2.24,5.66,5.21c0,3.59-2.94,5.92-7.36,5.92c-4.7,0-7.84-2.46-8.21-6.6h3.03c0.37,2.43,2.29,3.88,5.35,3.88
				c2.52,0,4.08-1.05,4.08-2.83c0-1.16-0.76-2.21-3.03-2.6l-3.37-0.65c-3.59-0.68-5.27-2.52-5.27-5.35c0-3.51,2.83-5.77,7.1-5.77
				C153.96,276.75,157.69,278.22,158.15,282.67z"/>
			<path d="M174.65,288.92v7.42h-2.94v-7.25c0-2.43-1.3-3.74-3.45-3.74c-1.27,0-2.66,0.71-3.71,2.01v8.97h-2.94v-20.1h2.94v7.98
				c1.16-0.99,2.6-1.53,4.3-1.53C172.3,282.69,174.65,285.07,174.65,288.92z"/>
			<path d="M191.63,283.03v13.3h-2.92v-1.05c-1.13,0.88-2.58,1.39-4.27,1.39c-3.74,0-6.74-3.11-6.74-6.99s3-6.99,6.74-6.99
				c1.7,0,3.14,0.51,4.27,1.39v-1.05H191.63z M188.72,292.09v-4.81c-0.99-1.42-2.38-1.92-3.85-1.92c-2.43,0-4.22,1.95-4.22,4.33
				c0,2.38,1.78,4.33,4.22,4.33C186.34,294.02,187.72,293.51,188.72,292.09z"/>
			<path d="M203.58,282.75v2.77c-2.12,0.08-3.74,0.88-4.92,2.43v8.38h-2.94v-13.3h2.94v1.81
				C199.87,283.51,201.54,282.75,203.58,282.75z"/>
			<path d="M218.66,290.56h-10.44c0.28,2.01,1.56,3.54,4.05,3.54c1.3,0,2.29-0.4,2.83-1.25h3.23c-0.85,2.41-3.2,3.82-6.09,3.82
				c-4.19,0-7.02-3.03-7.02-6.99c0-3.93,2.8-6.99,6.85-6.99C216.48,282.69,219.23,286.06,218.66,290.56z M208.27,288.52h7.47
				c-0.17-2.18-1.58-3.34-3.65-3.34C209.89,285.18,208.61,286.66,208.27,288.52z"/>
			<path d="M247.22,286.6c0,5.63-4.3,9.74-10.22,9.74h-7.1v-19.25h7.1C242.92,277.09,247.22,281.11,247.22,286.6z M244.14,286.6
				c0-3.82-3.08-6.71-7.13-6.71h-4.05v13.62H237C241.05,293.51,244.14,290.56,244.14,286.6z"/>
			<path d="M263.87,289.69c0,4.08-2.94,6.99-7.08,6.99c-4.13,0-7.08-2.92-7.08-6.99c0-4.08,2.94-6.99,7.08-6.99
				C260.92,282.69,263.87,285.61,263.87,289.69z M260.92,289.69c0-2.52-1.73-4.33-4.13-4.33c-2.41,0-4.13,1.81-4.13,4.33
				c0,2.49,1.73,4.33,4.13,4.33C259.2,294.02,260.92,292.18,260.92,289.69z"/>
			<path d="M277.14,291.5h3c-0.48,3.06-3.14,5.18-6.48,5.18c-3.99,0-7.02-3.03-7.02-6.99c0-3.93,3.03-6.99,7.02-6.99
				c3.34,0,6,2.12,6.48,5.18h-3c-0.37-1.5-1.7-2.52-3.48-2.52c-2.46,0-4.08,1.92-4.08,4.33c0,2.41,1.61,4.33,4.08,4.33
				C275.44,294.02,276.77,293,277.14,291.5z"/>
			<path d="M288.69,294.27c1.73,0,2.92-0.57,2.92-1.61c0-0.79-0.65-1.36-1.78-1.56l-2.94-0.51c-2.04-0.34-3.93-1.36-3.93-3.76
				c0-2.58,2.24-4.16,5.55-4.16c2.58,0,5.55,0.88,5.83,4.36h-2.72c-0.14-1.44-1.42-2.01-3.11-2.01s-2.63,0.62-2.63,1.56
				c0,0.71,0.51,1.39,2.07,1.64l2.49,0.4c2.01,0.37,3.99,1.25,3.99,3.82c0,2.8-2.46,4.25-5.8,4.25c-3.14,0-5.83-1.25-6.17-4.76
				l2.72,0.03C285.46,293.59,286.68,294.27,288.69,294.27z"/>
		</g>
		<g>
			<g>
				<path fill="#746CBD" d="M346.82,285.08v10.44h-2.41l-0.23-3.31c-1.36,2.24-3.65,3.65-6.93,3.65c-5.75,0-9.96-4.42-9.96-9.77
					c0-5.97,4.5-10.16,10.1-10.16c4.16,0,8.12,2.29,9.26,6.88h-3.25c-0.99-2.97-3.68-4.05-5.94-4.05c-4.05,0-7.08,2.97-7.08,7.33
					c0,3.71,2.77,6.91,6.88,6.91c3.4,0,5.58-2.15,6.25-5.09h-6.48v-2.83H346.82z"/>
				<path fill="#746CBD" d="M364.23,282.22v13.3h-2.92v-1.05c-1.13,0.88-2.58,1.39-4.27,1.39c-3.74,0-6.74-3.11-6.74-6.99
					s3-6.99,6.74-6.99c1.7,0,3.14,0.51,4.27,1.39v-1.05H364.23z M361.32,291.28v-4.81c-0.99-1.42-2.38-1.92-3.85-1.92
					c-2.43,0-4.22,1.95-4.22,4.33c0,2.38,1.78,4.33,4.22,4.33C358.94,293.2,360.33,292.69,361.32,291.28z"/>
				<path fill="#746CBD" d="M368.31,277.32c0-1.05,0.82-1.81,1.87-1.81c1.02,0,1.87,0.76,1.87,1.81s-0.85,1.81-1.87,1.81
					C369.13,279.13,368.31,278.37,368.31,277.32z M371.65,282.22v13.3h-2.92v-13.3H371.65z"/>
				<path fill="#746CBD" d="M389.17,288.11v7.42h-2.94v-7.25c0-2.43-1.3-3.74-3.45-3.74c-1.27,0-2.66,0.71-3.71,2.01v8.97h-2.94
					v-13.3h2.94v1.19c1.16-0.99,2.6-1.53,4.3-1.53C386.82,281.88,389.17,284.26,389.17,288.11z"/>
				<path fill="#746CBD" d="M413.96,292.69v2.83h-13.33v-19.25h3.06v16.42H413.96z"/>
				<path fill="#746CBD" d="M429.56,289.75h-10.44c0.28,2.01,1.56,3.54,4.05,3.54c1.3,0,2.29-0.4,2.83-1.25h3.23
					c-0.85,2.41-3.2,3.82-6.09,3.82c-4.19,0-7.02-3.03-7.02-6.99c0-3.93,2.8-6.99,6.85-6.99
					C427.38,281.88,430.13,285.25,429.56,289.75z M419.17,287.71h7.47c-0.17-2.18-1.58-3.34-3.65-3.34
					C420.79,284.37,419.51,285.84,419.17,287.71z"/>
				<path fill="#746CBD" d="M446.32,282.22v13.3h-2.92v-1.05c-1.13,0.88-2.58,1.39-4.27,1.39c-3.74,0-6.74-3.11-6.74-6.99
					s3-6.99,6.74-6.99c1.7,0,3.14,0.51,4.27,1.39v-1.05H446.32z M443.4,291.28v-4.81c-0.99-1.42-2.38-1.92-3.85-1.92
					c-2.43,0-4.22,1.95-4.22,4.33c0,2.38,1.78,4.33,4.22,4.33C441.02,293.2,442.41,292.69,443.4,291.28z"/>
				<path fill="#746CBD" d="M463.44,275.43v20.1h-2.92v-1.08c-1.13,0.91-2.58,1.42-4.27,1.42c-3.74,0-6.74-3.11-6.74-7.02
					c0-3.85,3-6.96,6.74-6.96c1.7,0,3.14,0.51,4.27,1.39v-7.84H463.44z M460.53,291.25v-4.78c-0.99-1.42-2.38-1.92-3.85-1.92
					c-2.43,0-4.22,1.95-4.22,4.3c0,2.38,1.78,4.36,4.22,4.36C458.15,293.2,459.54,292.69,460.53,291.25z"/>
				<path fill="#746CBD" d="M472.87,293.46c1.73,0,2.92-0.57,2.92-1.61c0-0.79-0.65-1.36-1.78-1.56l-2.94-0.51
					c-2.04-0.34-3.93-1.36-3.93-3.76c0-2.58,2.24-4.16,5.55-4.16c2.58,0,5.55,0.88,5.83,4.36h-2.72c-0.14-1.44-1.42-2.01-3.11-2.01
					s-2.63,0.62-2.63,1.56c0,0.71,0.51,1.39,2.07,1.64l2.49,0.4c2.01,0.37,3.99,1.25,3.99,3.82c0,2.8-2.46,4.25-5.8,4.25
					c-3.14,0-5.83-1.25-6.17-4.76l2.72,0.03C469.64,292.78,470.86,293.46,472.87,293.46z"/>
			</g>
		</g>
		<g>
			<path d="M158.66,250.03c-5.35,0-9.63-1.27-12.84-3.8c-3.21-2.54-5.08-6.15-5.62-10.86h6.36c0.37,3.07,1.6,5.4,3.7,6.99
				c2.1,1.59,4.94,2.39,8.52,2.39c3,0,5.28-0.55,6.82-1.66c1.54-1.1,2.31-2.68,2.31-4.72c0-1.84-0.52-3.3-1.54-4.39
				c-1.03-1.08-2.65-1.97-4.88-2.67l-7.71-2.45c-3.95-1.27-6.85-2.86-8.7-4.78c-1.85-1.92-2.78-4.35-2.78-7.3
				c0-2.49,0.63-4.64,1.88-6.44c1.25-1.8,3.02-3.2,5.31-4.2c2.28-1,4.95-1.5,7.99-1.5c4.69,0,8.44,1.18,11.26,3.53
				c2.82,2.35,4.43,5.61,4.85,9.78h-6.36c-0.49-2.78-1.56-4.81-3.21-6.1c-1.65-1.29-3.91-1.93-6.79-1.93
				c-2.72,0-4.84,0.53-6.36,1.59c-1.52,1.06-2.28,2.56-2.28,4.48c0,1.55,0.5,2.85,1.51,3.9c1.01,1.04,2.68,1.93,5.03,2.67l8.09,2.58
				c3.74,1.19,6.51,2.8,8.3,4.85c1.79,2.04,2.69,4.62,2.69,7.73c0,3.92-1.36,6.96-4.07,9.11
				C167.43,248.96,163.6,250.03,158.66,250.03z"/>
			<path d="M182.36,249.48v-44.16h6.42v44.16H182.36z M204.71,249.48v-20.12c0-2.17-0.55-3.78-1.64-4.85
				c-1.09-1.06-2.71-1.59-4.84-1.59c-1.85,0-3.49,0.41-4.91,1.23c-1.42,0.82-2.53,1.94-3.33,3.37c-0.8,1.43-1.2,3.13-1.2,5.09
				l-0.8-7.48c1.03-2.33,2.61-4.17,4.75-5.52c2.14-1.35,4.63-2.02,7.47-2.02c3.37,0,6.03,0.94,7.96,2.82
				c1.93,1.88,2.9,4.38,2.9,7.48v21.59H204.71z"/>
			<path d="M229.45,250.09c-3.21,0-5.76-0.79-7.65-2.36c-1.89-1.57-2.84-3.71-2.84-6.41c0-2.78,1-4.98,2.99-6.59
				c2-1.61,4.86-2.71,8.61-3.28l10.37-1.66v4.48l-9.38,1.47c-2.1,0.33-3.67,0.88-4.72,1.66c-1.05,0.78-1.57,1.9-1.57,3.37
				c0,1.43,0.48,2.51,1.45,3.22c0.97,0.72,2.38,1.07,4.23,1.07c2.47,0,4.52-0.59,6.14-1.78c1.63-1.19,2.44-2.68,2.44-4.48l0.8,4.54
				c-0.74,2.17-2.06,3.83-3.95,5C234.47,249.51,232.17,250.09,229.45,250.09z M240.32,249.48c-0.21-0.78-0.34-1.63-0.4-2.58
				c-0.06-0.94-0.09-2.08-0.09-3.43h-0.31v-14.91c0-2-0.5-3.51-1.51-4.51c-1.01-1-2.6-1.5-4.78-1.5c-2.1,0-3.78,0.41-5.03,1.23
				c-1.26,0.82-1.99,1.98-2.19,3.5h-6.11c0.29-2.94,1.62-5.29,4.01-7.05c2.39-1.76,5.58-2.64,9.57-2.64c4.11,0,7.2,0.95,9.26,2.85
				c2.06,1.9,3.09,4.69,3.09,8.37v14.66c0,0.94,0.06,1.9,0.19,2.88s0.31,2.02,0.55,3.13H240.32z"/>
			<path d="M255.93,249.48V218.2h6.11v7.79h0.31v23.49H255.93z M262.35,233.16l-0.8-7.42c0.74-2.66,2.02-4.68,3.83-6.07
				c1.81-1.39,3.97-2.09,6.48-2.09c0.95,0,1.6,0.08,1.98,0.25v6.01c-0.21-0.08-0.49-0.13-0.86-0.15s-0.82-0.03-1.36-0.03
				c-3.09,0-5.4,0.8-6.94,2.39S262.35,230.01,262.35,233.16z"/>
			<path d="M293.64,250.09c-3.17,0-5.96-0.69-8.36-2.08c-2.41-1.39-4.29-3.31-5.65-5.77c-1.36-2.45-2.04-5.28-2.04-8.46
				c0-3.23,0.67-6.06,2.01-8.5c1.34-2.43,3.22-4.32,5.65-5.67s5.21-2.02,8.33-2.02c3.04,0,5.69,0.64,7.93,1.93
				c2.24,1.29,3.97,3.08,5.18,5.37c1.21,2.29,1.82,5.01,1.82,8.16c0,0.49-0.01,0.95-0.03,1.38c-0.02,0.43-0.07,0.87-0.15,1.32
				h-26.42v-4.78h21.91l-1.61,1.9c0-3.35-0.76-5.91-2.28-7.67c-1.52-1.76-3.64-2.64-6.36-2.64c-2.92,0-5.24,0.99-6.94,2.97
				s-2.56,4.73-2.56,8.25c0,3.56,0.85,6.34,2.56,8.34c1.71,2,4.08,3.01,7.13,3.01c1.85,0,3.46-0.38,4.81-1.13
				c1.36-0.76,2.37-1.87,3.02-3.34h6.05c-1.03,2.94-2.77,5.25-5.21,6.93C299.99,249.25,297.05,250.09,293.64,250.09z"/>
			<path d="M316.54,249.48v-44.16h18.82c3.21,0,5.95,0.53,8.21,1.59s4,2.58,5.22,4.54c1.21,1.96,1.82,4.29,1.82,6.99
				c0,2.74-0.61,5.1-1.82,7.08c-1.21,1.98-2.96,3.53-5.25,4.63c-2.28,1.1-5.01,1.66-8.18,1.66h-13.83v-5.4h13.52
				c2.92,0,5.15-0.7,6.7-2.09c1.54-1.39,2.31-3.33,2.31-5.83c0-2.53-0.76-4.48-2.28-5.83c-1.52-1.35-3.77-2.02-6.73-2.02h-11.97
				v38.83H316.54z"/>
			<path d="M365.48,250.09c-3.21,0-5.76-0.79-7.65-2.36c-1.89-1.57-2.84-3.71-2.84-6.41c0-2.78,1-4.98,2.99-6.59
				c2-1.61,4.87-2.71,8.61-3.28l10.37-1.66v4.48l-9.38,1.47c-2.1,0.33-3.67,0.88-4.72,1.66c-1.05,0.78-1.57,1.9-1.57,3.37
				c0,1.43,0.48,2.51,1.45,3.22c0.97,0.72,2.38,1.07,4.23,1.07c2.47,0,4.52-0.59,6.14-1.78c1.62-1.19,2.44-2.68,2.44-4.48l0.8,4.54
				c-0.74,2.17-2.06,3.83-3.95,5C370.5,249.51,368.2,250.09,365.48,250.09z M376.34,249.48c-0.21-0.78-0.34-1.63-0.4-2.58
				c-0.06-0.94-0.09-2.08-0.09-3.43h-0.31v-14.91c0-2-0.5-3.51-1.51-4.51c-1.01-1-2.6-1.5-4.78-1.5c-2.1,0-3.78,0.41-5.03,1.23
				c-1.26,0.82-1.99,1.98-2.19,3.5h-6.11c0.29-2.94,1.62-5.29,4.01-7.05c2.39-1.76,5.57-2.64,9.57-2.64c4.11,0,7.2,0.95,9.26,2.85
				c2.06,1.9,3.09,4.69,3.09,8.37v14.66c0,0.94,0.06,1.9,0.18,2.88c0.12,0.98,0.31,2.02,0.56,3.13H376.34z"/>
			<path d="M408.74,250.03c-2.96,0-5.42-0.71-7.38-2.12c-1.96-1.41-3.24-3.38-3.86-5.92l0.86-0.12v20.18h-6.42V218.2h6.11v7.18
				l-0.62-0.18c0.66-2.37,2.06-4.23,4.2-5.58c2.14-1.35,4.65-2.02,7.53-2.02c2.84,0,5.3,0.67,7.38,2.02
				c2.08,1.35,3.68,3.23,4.81,5.64c1.13,2.41,1.7,5.24,1.7,8.46c0,3.27-0.6,6.13-1.79,8.59c-1.19,2.45-2.86,4.36-5,5.71
				C414.13,249.36,411.62,250.03,408.74,250.03z M407.39,244.76c2.8,0,5.02-0.98,6.67-2.94s2.47-4.66,2.47-8.1
				c0-3.39-0.82-6.04-2.47-7.94s-3.89-2.85-6.73-2.85c-2.8,0-5.03,0.97-6.7,2.91c-1.67,1.94-2.5,4.63-2.5,8.07
				c0,3.35,0.83,6,2.5,7.94C402.29,243.79,404.55,244.76,407.39,244.76z"/>
			<path d="M444.97,250.09c-3.17,0-5.96-0.69-8.36-2.08c-2.41-1.39-4.29-3.31-5.65-5.77c-1.36-2.45-2.04-5.28-2.04-8.46
				c0-3.23,0.67-6.06,2.01-8.5c1.34-2.43,3.22-4.32,5.65-5.67s5.21-2.02,8.33-2.02c3.04,0,5.69,0.64,7.93,1.93
				c2.24,1.29,3.97,3.08,5.18,5.37c1.21,2.29,1.82,5.01,1.82,8.16c0,0.49-0.01,0.95-0.03,1.38c-0.02,0.43-0.07,0.87-0.15,1.32
				h-26.42v-4.78h21.91l-1.61,1.9c0-3.35-0.76-5.91-2.28-7.67c-1.52-1.76-3.64-2.64-6.36-2.64c-2.92,0-5.24,0.99-6.94,2.97
				s-2.56,4.73-2.56,8.25c0,3.56,0.85,6.34,2.56,8.34c1.71,2,4.08,3.01,7.13,3.01c1.85,0,3.46-0.38,4.81-1.13
				c1.36-0.76,2.37-1.87,3.02-3.34h6.05c-1.03,2.94-2.77,5.25-5.21,6.93C451.32,249.25,448.39,250.09,444.97,250.09z"/>
			<path d="M467.81,249.48V218.2h6.11v7.79h0.31v23.49H467.81z M474.23,233.16l-0.8-7.42c0.74-2.66,2.02-4.68,3.83-6.07
				c1.81-1.39,3.97-2.09,6.48-2.09c0.95,0,1.6,0.08,1.98,0.25v6.01c-0.21-0.08-0.49-0.13-0.86-0.15s-0.82-0.03-1.36-0.03
				c-3.09,0-5.4,0.8-6.94,2.39S474.23,230.01,474.23,233.16z"/>
		</g>
	</g>
	<linearGradient id="SVGID_1_" gradientUnits="userSpaceOnUse" x1="51.1609" y1="209.4113" x2="62.502" y2="296.8997">
		<stop  offset="7.458905e-08" style="stop-color:#2548B7"/>
		<stop  offset="1" style="stop-color:#CE34BF"/>
	</linearGradient>
	<path fill="url(#SVGID_1_)" d="M93.68,266.36c-5.82-0.97-11.15,1.24-14.61,5.16l-24.11-6.89c0.2-1.19,0.31-2.41,0.31-3.65
		c0-5.87-2.32-11.19-6.09-15.11l16.04-16.56c2.76,1.73,6.22,2.44,9.88,1.54c4.57-1.13,8.22-4.87,9.21-9.47
		c1.99-9.21-6.04-17.22-15.26-15.2c-4.7,1.03-8.48,4.84-9.51,9.54c-0.85,3.9,0.11,7.56,2.17,10.36l-19.55,14.92
		c-2.53-1.1-5.3-1.74-8.22-1.81c-11.82-0.26-22,9.42-22.3,21.24c-0.31,12.3,9.57,22.38,21.81,22.38c8.81,0,16.4-5.23,19.84-12.76
		l21.89,10.3c-0.28,2.72,0.07,5.63,1.72,8.71c2.79,5.23,8.18,8.83,14.1,8.81c9.58-0.03,17.16-8.54,15.62-18.42
		C105.59,272.83,100.27,267.46,93.68,266.36z"/>
</g>
</svg>
