<?xml version="1.0" encoding="utf-8"?>
<!-- Generator: Adobe Illustrator 26.0.1, SVG Export Plug-In . SVG Version: 6.00 Build 0)  -->
<svg version="1.1" xmlns="http://www.w3.org/2000/svg" xmlns:xlink="http://www.w3.org/1999/xlink" x="0px" y="0px"
	 viewBox="0 0 512 279" enable-background="new 0 0 512 279" xml:space="preserve">
<g id="Icon">
</g>
<g id="SDGL">
</g>
<g id="S">
</g>
<g id="H">
</g>
<g id="A">
</g>
<g id="R">
</g>
<g id="E">
</g>
<g id="P">
</g>
<g id="A_00000005986475214652617210000000147950799811505572_">
</g>
<g id="P_00000134955521215693843360000017930063167645476025_">
</g>
<g id="E_00000160186876034503313360000009737147022647365265_">
</g>
<g id="R_00000116217078566497795900000016427461785025946794_">
	<g>
		<linearGradient id="SVGID_1_" gradientUnits="userSpaceOnUse" x1="69.7882" y1="169.9652" x2="40.9781" y2="81.9491">
			<stop  offset="0" style="stop-color:#B93C82"/>
			<stop  offset="1" style="stop-color:#1B3D8F"/>
		</linearGradient>
		<path fill="url(#SVGID_1_)" d="M88.21,128.16c-4.59,0-8.7,2.03-11.5,5.24l-22.66-6.94c0.16-1.04,0.24-2.11,0.24-3.19
			c0-5.38-2.03-10.28-5.36-13.98L65.45,94c1.76,1.05,3.82,1.65,6.02,1.65c6.52,0,11.81-5.29,11.81-11.81s-5.29-11.81-11.81-11.81
			s-11.81,5.29-11.81,11.81c0,2.27,0.64,4.39,1.75,6.19l-20.29,13.81c-2.4-0.96-5.02-1.49-7.76-1.49
			c-11.56,0-20.92,9.37-20.92,20.92c0,11.56,9.37,20.92,20.92,20.92c8.34,0,15.53-4.88,18.9-11.93l20.78,9.68
			c-0.05,0.48-0.07,0.97-0.07,1.46c0,8.42,6.82,15.24,15.24,15.24s15.24-6.82,15.24-15.24C103.45,134.99,96.63,128.16,88.21,128.16z
			"/>
		<g>
			<path d="M88.9,195.56h-3.51c-0.4-2.39-2.02-3.84-5.3-3.84c-2.88,0-4.77,1.23-4.77,3.41c0,1.79,1.33,2.72,3.74,3.18l3.15,0.63
				c4.21,0.83,6.62,2.62,6.62,6.1c0,4.21-3.45,6.92-8.61,6.92c-5.5,0-9.18-2.88-9.61-7.72h3.54c0.43,2.85,2.68,4.54,6.26,4.54
				c2.95,0,4.77-1.23,4.77-3.31c0-1.36-0.89-2.58-3.54-3.05l-3.94-0.76c-4.21-0.79-6.16-2.95-6.16-6.26c0-4.11,3.31-6.76,8.31-6.76
				C83.99,188.64,88.37,190.36,88.9,195.56z"/>
			<path d="M108.21,202.88v8.68h-3.44v-8.48c0-2.85-1.52-4.37-4.04-4.37c-1.49,0-3.11,0.83-4.34,2.35v10.5h-3.44v-23.52h3.44v9.34
				c1.36-1.16,3.05-1.79,5.04-1.79C105.46,195.6,108.21,198.38,108.21,202.88z"/>
			<path d="M128.08,195.99v15.57h-3.41v-1.23c-1.33,1.03-3.01,1.62-5,1.62c-4.37,0-7.88-3.64-7.88-8.18c0-4.54,3.51-8.18,7.88-8.18
				c1.99,0,3.68,0.6,5,1.62v-1.23H128.08z M124.67,206.59v-5.63c-1.16-1.66-2.78-2.25-4.51-2.25c-2.85,0-4.94,2.29-4.94,5.07
				s2.09,5.07,4.94,5.07C121.89,208.84,123.51,208.25,124.67,206.59z"/>
			<path d="M142.06,195.66v3.25c-2.48,0.1-4.37,1.03-5.76,2.85v9.8h-3.45v-15.57h3.45v2.12
				C137.72,196.56,139.67,195.66,142.06,195.66z"/>
			<path d="M159.71,204.8h-12.22c0.33,2.35,1.82,4.14,4.74,4.14c1.52,0,2.68-0.46,3.31-1.46h3.78c-0.99,2.82-3.74,4.47-7.12,4.47
				c-4.9,0-8.21-3.54-8.21-8.18c0-4.6,3.28-8.18,8.02-8.18C157.16,195.6,160.37,199.54,159.71,204.8z M147.56,202.42h8.74
				c-0.2-2.55-1.85-3.91-4.27-3.91C149.44,198.51,147.95,200.23,147.56,202.42z"/>
			<path d="M193.13,200.17c0,6.59-5.03,11.39-11.96,11.39h-8.31v-22.52h8.31C188.1,189.04,193.13,193.74,193.13,200.17z
				 M189.52,200.17c0-4.47-3.61-7.85-8.35-7.85h-4.74v15.93h4.74C185.91,208.25,189.52,204.8,189.52,200.17z"/>
			<path d="M212.61,203.78c0,4.77-3.45,8.18-8.28,8.18c-4.84,0-8.28-3.41-8.28-8.18s3.45-8.18,8.28-8.18
				C209.16,195.6,212.61,199.01,212.61,203.78z M209.16,203.78c0-2.95-2.02-5.07-4.84-5.07c-2.82,0-4.84,2.12-4.84,5.07
				c0,2.91,2.02,5.07,4.84,5.07C207.14,208.84,209.16,206.69,209.16,203.78z"/>
			<path d="M228.14,205.9h3.51c-0.56,3.58-3.68,6.06-7.59,6.06c-4.67,0-8.21-3.54-8.21-8.18c0-4.6,3.54-8.18,8.21-8.18
				c3.91,0,7.02,2.48,7.59,6.06h-3.51c-0.43-1.76-1.99-2.95-4.07-2.95c-2.88,0-4.77,2.25-4.77,5.07s1.89,5.07,4.77,5.07
				C226.16,208.84,227.71,207.65,228.14,205.9z"/>
			<path d="M241.66,209.14c2.02,0,3.41-0.66,3.41-1.89c0-0.93-0.76-1.59-2.09-1.82l-3.45-0.6c-2.39-0.4-4.6-1.59-4.6-4.41
				c0-3.01,2.62-4.87,6.49-4.87c3.01,0,6.49,1.03,6.82,5.1h-3.18c-0.17-1.69-1.66-2.35-3.64-2.35c-1.99,0-3.08,0.73-3.08,1.82
				c0,0.83,0.6,1.62,2.42,1.92l2.91,0.46c2.35,0.43,4.67,1.46,4.67,4.47c0,3.28-2.88,4.97-6.79,4.97c-3.68,0-6.82-1.46-7.22-5.57
				l3.18,0.03C237.88,208.35,239.31,209.14,241.66,209.14z"/>
		</g>
		<g>
			<g>
				<path fill="#6E288C" d="M298.48,198.49v12.22h-2.82l-0.26-3.88c-1.59,2.62-4.27,4.27-8.12,4.27c-6.72,0-11.66-5.17-11.66-11.43
					c0-6.99,5.27-11.89,11.83-11.89c4.87,0,9.51,2.68,10.83,8.05h-3.81c-1.16-3.48-4.31-4.74-6.96-4.74c-4.74,0-8.28,3.48-8.28,8.58
					c0,4.34,3.25,8.08,8.05,8.08c3.98,0,6.53-2.52,7.32-5.96h-7.59v-3.31H298.48z"/>
				<path fill="#6E288C" d="M318.85,195.14v15.57h-3.41v-1.23c-1.33,1.03-3.01,1.62-5,1.62c-4.37,0-7.88-3.64-7.88-8.18
					c0-4.54,3.51-8.18,7.88-8.18c1.99,0,3.68,0.6,5,1.62v-1.23H318.85z M315.44,205.74v-5.63c-1.16-1.66-2.78-2.25-4.5-2.25
					c-2.85,0-4.94,2.29-4.94,5.07s2.09,5.07,4.94,5.07C312.66,208,314.28,207.4,315.44,205.74z"/>
				<path fill="#6E288C" d="M323.62,189.41c0-1.23,0.96-2.12,2.19-2.12c1.19,0,2.19,0.89,2.19,2.12c0,1.23-0.99,2.12-2.19,2.12
					C324.58,191.53,323.62,190.64,323.62,189.41z M327.53,195.14v15.57h-3.41v-15.57H327.53z"/>
				<path fill="#6E288C" d="M348.03,202.03v8.68h-3.45v-8.48c0-2.85-1.52-4.37-4.04-4.37c-1.49,0-3.11,0.83-4.34,2.35v10.5h-3.45
					v-15.57h3.45v1.39c1.36-1.16,3.05-1.79,5.03-1.79C345.28,194.75,348.03,197.53,348.03,202.03z"/>
				<path fill="#6E288C" d="M377.05,207.4v3.31h-15.6v-22.52h3.58v19.21H377.05z"/>
				<path fill="#6E288C" d="M395.3,203.95h-12.22c0.33,2.35,1.82,4.14,4.74,4.14c1.52,0,2.68-0.46,3.31-1.46h3.78
					c-0.99,2.82-3.74,4.47-7.12,4.47c-4.9,0-8.21-3.54-8.21-8.18c0-4.6,3.28-8.18,8.02-8.18
					C392.75,194.75,395.96,198.69,395.3,203.95z M383.14,201.57h8.74c-0.2-2.55-1.86-3.91-4.27-3.91
					C385.03,197.66,383.54,199.38,383.14,201.57z"/>
				<path fill="#6E288C" d="M414.91,195.14v15.57h-3.41v-1.23c-1.33,1.03-3.01,1.62-5,1.62c-4.37,0-7.88-3.64-7.88-8.18
					c0-4.54,3.51-8.18,7.88-8.18c1.99,0,3.68,0.6,5,1.62v-1.23H414.91z M411.49,205.74v-5.63c-1.16-1.66-2.78-2.25-4.5-2.25
					c-2.85,0-4.94,2.29-4.94,5.07s2.09,5.07,4.94,5.07C408.71,208,410.34,207.4,411.49,205.74z"/>
				<path fill="#6E288C" d="M434.95,187.19v23.52h-3.41v-1.26c-1.33,1.06-3.01,1.66-5,1.66c-4.37,0-7.88-3.64-7.88-8.22
					c0-4.5,3.51-8.15,7.88-8.15c1.99,0,3.68,0.6,5,1.62v-9.18H434.95z M431.53,205.71v-5.6c-1.16-1.66-2.78-2.25-4.5-2.25
					c-2.85,0-4.94,2.29-4.94,5.03c0,2.78,2.09,5.1,4.94,5.1C428.75,208,430.37,207.4,431.53,205.71z"/>
				<path fill="#6E288C" d="M445.97,208.29c2.02,0,3.41-0.66,3.41-1.89c0-0.93-0.76-1.59-2.09-1.82l-3.45-0.6
					c-2.38-0.4-4.6-1.59-4.6-4.41c0-3.01,2.62-4.87,6.49-4.87c3.01,0,6.49,1.03,6.82,5.1h-3.18c-0.17-1.69-1.66-2.35-3.64-2.35
					c-1.99,0-3.08,0.73-3.08,1.82c0,0.83,0.6,1.62,2.42,1.92l2.92,0.46c2.35,0.43,4.67,1.46,4.67,4.47c0,3.28-2.88,4.97-6.79,4.97
					c-3.68,0-6.82-1.46-7.22-5.57l3.18,0.03C442.2,207.5,443.62,208.29,445.97,208.29z"/>
			</g>
		</g>
		<path d="M122.82,129.34c1,0.54,2.16,1.04,3.48,1.49c1.14,0.36,2.53,0.69,4.16,0.98c1.64,0.29,3.5,0.44,5.6,0.44
			c3.46,0,6.01-0.55,7.65-1.66c1.64-1.11,2.46-2.75,2.46-4.92c0-1.22-0.25-2.24-0.75-3.05c-0.5-0.81-1.16-1.5-1.98-2.07
			c-0.82-0.57-1.78-1.03-2.87-1.39c-1.09-0.36-2.25-0.72-3.48-1.09c-1.77-0.54-3.63-1.15-5.56-1.83c-1.94-0.68-3.71-1.59-5.33-2.75
			c-1.62-1.15-2.96-2.58-4.03-4.27c-1.07-1.7-1.6-3.83-1.6-6.41c0-2.17,0.43-4.08,1.3-5.73c0.86-1.65,2.08-3.03,3.65-4.14
			c1.57-1.11,3.44-1.93,5.6-2.48c2.16-0.54,4.56-0.81,7.2-0.81c2.41,0,4.52,0.17,6.32,0.51c1.8,0.34,3.31,0.69,4.54,1.05
			c1.46,0.45,2.71,0.95,3.75,1.49l-2.32,6.11c-0.96-0.45-2.03-0.86-3.21-1.22c-1.05-0.32-2.32-0.6-3.82-0.85
			c-1.5-0.25-3.21-0.37-5.12-0.37c-6.42,0-9.63,2.04-9.63,6.11c0,1.09,0.22,1.98,0.65,2.68c0.43,0.7,1.1,1.33,2.01,1.9
			c0.91,0.57,2.06,1.1,3.45,1.59c1.39,0.5,3.04,1.04,4.95,1.63c1.87,0.59,3.68,1.24,5.43,1.97c1.75,0.72,3.3,1.63,4.64,2.71
			c1.34,1.09,2.42,2.42,3.24,4c0.82,1.58,1.23,3.55,1.23,5.9c0,4.66-1.63,8.18-4.88,10.55c-3.25,2.37-7.7,3.56-13.35,3.56
			c-2.55,0-4.77-0.17-6.66-0.51c-1.89-0.34-3.49-0.71-4.81-1.12c-1.5-0.5-2.82-1.06-3.96-1.7L122.82,129.34z"/>
		<path d="M172.73,88.7v13.64l-0.14,4.07c0.14-0.14,0.5-0.45,1.09-0.95c0.59-0.5,1.39-1.02,2.39-1.56c1-0.54,2.2-1.02,3.58-1.42
			c1.39-0.41,2.97-0.61,4.74-0.61c4,0,7.03,1.18,9.08,3.53c2.05,2.35,3.07,5.54,3.07,9.57v23.34h-8.26v-22.73
			c0-2.26-0.5-4.01-1.5-5.26c-1-1.24-2.64-1.87-4.92-1.87c-1.32,0-2.54,0.19-3.65,0.58c-1.12,0.38-2.08,0.83-2.9,1.32
			c-0.96,0.54-1.82,1.15-2.59,1.83v26.12h-8.19V88.7H172.73z"/>
		<path d="M206.36,116.54c0,0-4.95,16.57,5.05,20.77s18.57-4.94,18.57-4.94l0.45,5.57l6.7-0.23c-0.55-11.58-0.66-22.49,0-32.26
			C212.49,95.23,206.36,116.54,206.36,116.54z M229.64,124.42c0,0-6.99,10.34-13.53,6.93c-1.22-0.64-2.04-1.84-2.48-3.14
			c-0.85-2.48-1.93-7.73,1.36-13.3c1.44-2.43,3.41-4.46,6.1-5.6c5.67-2.41,8.21,0.69,8.21,0.69L229.64,124.42z"/>
		<path d="M253.9,102.54l0.96,4.21c1.18-1.31,2.76-2.45,4.74-3.43c1.98-0.97,4.54-1.46,7.68-1.46l-0.27,7.19h-0.41
			c-0.14,0-0.3-0.01-0.48-0.03c-0.18-0.02-0.39-0.03-0.61-0.03c-2.73,0-4.93,0.41-6.59,1.22c-1.66,0.81-2.81,1.65-3.45,2.51v25.58
			h-8.19v-35.76H253.9z"/>
		<path d="M303.6,136.53c-1.05,0.45-2.21,0.86-3.48,1.22c-1.14,0.32-2.47,0.6-3.99,0.85c-1.53,0.25-3.24,0.37-5.15,0.37
			c-3.19,0-5.89-0.44-8.12-1.32c-2.23-0.88-4.05-2.11-5.46-3.7c-1.41-1.58-2.45-3.49-3.11-5.73c-0.66-2.24-0.99-4.69-0.99-7.36
			c0-2.89,0.36-5.51,1.09-7.84c0.73-2.33,1.81-4.32,3.24-5.97c1.43-1.65,3.21-2.93,5.33-3.83c2.12-0.9,4.54-1.36,7.27-1.36
			c2.55,0,4.77,0.37,6.66,1.12c1.89,0.75,3.45,1.79,4.68,3.12c1.23,1.33,2.15,2.92,2.76,4.75c0.61,1.83,0.92,3.81,0.92,5.94
			c0,0.77-0.02,1.48-0.07,2.14c-0.05,0.66-0.11,1.26-0.2,1.8c-0.09,0.63-0.18,1.22-0.27,1.76h-23.14c0.14,3.76,1.16,6.39,3.07,7.9
			c1.91,1.52,4.48,2.27,7.71,2.27c1.46,0,2.8-0.11,4.03-0.34c1.23-0.23,2.3-0.47,3.21-0.75c1.05-0.32,1.98-0.68,2.8-1.09
			L303.6,136.53z M297.25,116.18c0-2.62-0.61-4.65-1.84-6.07c-1.23-1.42-3.07-2.14-5.53-2.14c-2.32,0-4.22,0.7-5.7,2.1
			c-1.48,1.4-2.33,3.66-2.56,6.78h15.63V116.18z"/>
		<path d="M315.76,138.29V90.33h18.71c3.46,0,6.34,0.41,8.64,1.22c2.3,0.81,4.14,1.92,5.53,3.32c1.39,1.4,2.37,3.05,2.94,4.95
			c0.57,1.9,0.85,3.94,0.85,6.11c0,2.13-0.28,4.15-0.85,6.07c-0.57,1.92-1.55,3.62-2.94,5.09c-1.39,1.47-3.23,2.64-5.53,3.49
			c-2.3,0.86-5.18,1.29-8.64,1.29h-10.38v16.42H315.76z M334.19,114.89c1.96,0,3.56-0.23,4.81-0.68c1.25-0.45,2.25-1.07,3-1.87
			c0.75-0.79,1.27-1.73,1.57-2.82c0.3-1.09,0.44-2.26,0.44-3.53c0-1.27-0.15-2.43-0.44-3.49c-0.3-1.06-0.82-1.98-1.57-2.75
			c-0.75-0.77-1.75-1.37-3-1.8c-1.25-0.43-2.86-0.64-4.81-0.64h-10.1v17.57H334.19z"/>
		<path d="M356.47,116.54c0,0-4.95,16.57,5.05,20.77s18.57-4.94,18.57-4.94l0.45,5.57l6.7-0.23c-0.55-11.58-0.66-22.49,0-32.26
			C362.6,95.23,356.47,116.54,356.47,116.54z M379.75,124.42c0,0-6.99,10.34-13.53,6.93c-1.22-0.64-2.04-1.84-2.48-3.14
			c-0.85-2.48-1.93-7.73,1.36-13.3c1.44-2.43,3.41-4.46,6.1-5.6c5.67-2.41,8.21,0.69,8.21,0.69L379.75,124.42z"/>
		<path d="M403.43,102.54l0.89,4.21c0.77-0.9,1.73-1.72,2.87-2.44c0.96-0.63,2.13-1.2,3.52-1.7c1.39-0.5,2.99-0.75,4.81-0.75
			c2.09,0,4,0.4,5.73,1.19c1.73,0.79,3.21,1.93,4.44,3.43c1.23,1.49,2.18,3.35,2.87,5.56c0.68,2.22,1.02,4.75,1.02,7.6
			c0,3.26-0.44,6.1-1.33,8.52c-0.89,2.42-2.12,4.43-3.69,6.04c-1.57,1.61-3.46,2.81-5.67,3.6c-2.21,0.79-4.61,1.19-7.2,1.19
			c-1.96,0-3.55-0.17-4.78-0.51c-1.23-0.34-1.91-0.53-2.05-0.58l0.07,2.1v12.48h-8.19v-49.94H403.43z M404.93,131.44
			c0.55,0.18,1.14,0.36,1.78,0.54c0.55,0.14,1.18,0.26,1.91,0.37c0.73,0.11,1.55,0.17,2.46,0.17c6.83,0,10.24-4.07,10.24-12.21
			c0-3.84-0.72-6.77-2.15-8.79c-1.43-2.01-3.45-3.02-6.04-3.02c-1.18,0-2.28,0.19-3.28,0.58c-1,0.38-1.87,0.83-2.59,1.32
			c-0.82,0.54-1.59,1.15-2.32,1.83V131.44z"/>
		<path d="M467.88,136.53c-1.05,0.45-2.21,0.86-3.48,1.22c-1.14,0.32-2.47,0.6-3.99,0.85c-1.53,0.25-3.24,0.37-5.15,0.37
			c-3.19,0-5.89-0.44-8.12-1.32c-2.23-0.88-4.05-2.11-5.46-3.7c-1.41-1.58-2.45-3.49-3.11-5.73c-0.66-2.24-0.99-4.69-0.99-7.36
			c0-2.89,0.36-5.51,1.09-7.84c0.73-2.33,1.81-4.32,3.24-5.97c1.43-1.65,3.21-2.93,5.33-3.83c2.12-0.9,4.54-1.36,7.27-1.36
			c2.55,0,4.77,0.37,6.66,1.12c1.89,0.75,3.45,1.79,4.68,3.12c1.23,1.33,2.15,2.92,2.76,4.75c0.61,1.83,0.92,3.81,0.92,5.94
			c0,0.77-0.02,1.48-0.07,2.14c-0.05,0.66-0.11,1.26-0.2,1.8c-0.09,0.63-0.18,1.22-0.27,1.76h-23.14c0.14,3.76,1.16,6.39,3.07,7.9
			c1.91,1.52,4.48,2.27,7.71,2.27c1.46,0,2.8-0.11,4.03-0.34c1.23-0.23,2.3-0.47,3.21-0.75c1.05-0.32,1.98-0.68,2.8-1.09
			L467.88,136.53z M461.53,116.18c0-2.62-0.61-4.65-1.84-6.07c-1.23-1.42-3.07-2.14-5.53-2.14c-2.32,0-4.22,0.7-5.7,2.1
			c-1.48,1.4-2.33,3.66-2.56,6.78h15.63V116.18z"/>
		<g>
			<path d="M486.18,102.54l0.96,4.21c1.18-1.31,2.76-2.45,4.74-3.43c1.98-0.97,4.54-1.46,7.68-1.46l-0.27,7.19h-0.41
				c-0.14,0-0.3-0.01-0.48-0.03c-0.18-0.02-0.39-0.03-0.61-0.03c-2.73,0-4.93,0.41-6.59,1.22c-1.66,0.81-2.81,1.65-3.45,2.51v25.58
				h-8.19v-35.76H486.18z"/>
		</g>
	</g>
</g>
</svg>
