<?xml version="1.0" encoding="utf-8"?>
<!-- Generator: Adobe Illustrator 26.0.1, SVG Export Plug-In . SVG Version: 6.00 Build 0)  -->
<svg version="1.1" id="Layer_1" xmlns="http://www.w3.org/2000/svg" xmlns:xlink="http://www.w3.org/1999/xlink" x="0px" y="0px"
	 viewBox="0 0 275 150" enable-background="new 0 0 275 150" xml:space="preserve">
<g>
	<g display="none">
		<text transform="matrix(1 0 0 1 77.8198 100.3696)" display="inline" font-family="'Campton-Medium'" font-size="15.4972px">Share Docs </text>
		<g display="inline">
			<text transform="matrix(1 0 0 1 178.9033 99.9233)" fill="#746CBD" font-family="'Campton-Medium'" font-size="15.4972px">Gain Leads </text>
		</g>
		
			<text transform="matrix(1.0062 0 0 1 76.1743 74.7134)" display="inline" font-family="'InstrumentSans-Medium'" font-size="33.5814px">SharePaper</text>
	</g>
	<g>
		<g>
			<path d="M87.21,92.88h-1.64c-0.19-1.12-0.95-1.8-2.48-1.8c-1.35,0-2.23,0.57-2.23,1.6c0,0.84,0.62,1.27,1.75,1.49l1.47,0.29
				c1.97,0.39,3.1,1.22,3.1,2.85c0,1.97-1.61,3.24-4.03,3.24c-2.57,0-4.29-1.35-4.49-3.61h1.66c0.2,1.33,1.26,2.12,2.93,2.12
				c1.38,0,2.23-0.57,2.23-1.55c0-0.64-0.42-1.21-1.66-1.43l-1.84-0.36c-1.97-0.37-2.88-1.38-2.88-2.93c0-1.92,1.55-3.16,3.89-3.16
				C84.92,89.65,86.96,90.45,87.21,92.88z"/>
			<path d="M96.25,96.31v4.06h-1.61V96.4c0-1.33-0.71-2.05-1.89-2.05c-0.7,0-1.46,0.39-2.03,1.1v4.91H89.1v-11h1.61v4.37
				c0.64-0.54,1.43-0.84,2.36-0.84C94.96,92.9,96.25,94.2,96.25,96.31z"/>
			<path d="M105.54,93.09v7.28h-1.6V99.8c-0.62,0.48-1.41,0.76-2.34,0.76c-2.05,0-3.69-1.7-3.69-3.83s1.64-3.83,3.69-3.83
				c0.93,0,1.72,0.28,2.34,0.76v-0.57H105.54z M103.95,98.04v-2.63c-0.54-0.77-1.3-1.05-2.11-1.05c-1.33,0-2.31,1.07-2.31,2.37
				c0,1.3,0.98,2.37,2.31,2.37C102.65,99.1,103.4,98.82,103.95,98.04z"/>
			<path d="M112.08,92.93v1.52c-1.16,0.05-2.05,0.48-2.7,1.33v4.59h-1.61v-7.28h1.61v0.99C110.05,93.35,110.97,92.93,112.08,92.93z"
				/>
			<path d="M120.34,97.21h-5.72c0.16,1.1,0.85,1.94,2.22,1.94c0.71,0,1.26-0.22,1.55-0.68h1.77c-0.46,1.32-1.75,2.09-3.33,2.09
				c-2.29,0-3.84-1.66-3.84-3.83c0-2.15,1.53-3.83,3.75-3.83C119.15,92.9,120.65,94.74,120.34,97.21z M114.66,96.09h4.09
				c-0.09-1.19-0.87-1.83-2-1.83C115.54,94.26,114.84,95.07,114.66,96.09z"/>
			<path d="M135.98,95.04c0,3.08-2.36,5.33-5.59,5.33h-3.89V89.83h3.89C133.62,89.83,135.98,92.03,135.98,95.04z M134.29,95.04
				c0-2.09-1.69-3.67-3.91-3.67h-2.22v7.45h2.22C132.6,98.82,134.29,97.21,134.29,95.04z"/>
			<path d="M145.09,96.73c0,2.23-1.61,3.83-3.87,3.83c-2.26,0-3.87-1.6-3.87-3.83c0-2.23,1.61-3.83,3.87-3.83
				C143.48,92.9,145.09,94.5,145.09,96.73z M143.48,96.73c0-1.38-0.95-2.37-2.26-2.37c-1.32,0-2.26,0.99-2.26,2.37
				c0,1.36,0.95,2.37,2.26,2.37C142.53,99.1,143.48,98.09,143.48,96.73z"/>
			<path d="M152.36,97.72H154c-0.26,1.67-1.72,2.84-3.55,2.84c-2.18,0-3.84-1.66-3.84-3.83c0-2.15,1.66-3.83,3.84-3.83
				c1.83,0,3.29,1.16,3.55,2.84h-1.64c-0.2-0.82-0.93-1.38-1.91-1.38c-1.35,0-2.23,1.05-2.23,2.37c0,1.32,0.88,2.37,2.23,2.37
				C151.43,99.1,152.16,98.54,152.36,97.72z"/>
			<path d="M158.68,99.24c0.95,0,1.6-0.31,1.6-0.88c0-0.43-0.36-0.74-0.98-0.85l-1.61-0.28c-1.12-0.19-2.15-0.74-2.15-2.06
				c0-1.41,1.22-2.28,3.04-2.28c1.41,0,3.04,0.48,3.19,2.39h-1.49c-0.08-0.79-0.77-1.1-1.7-1.1c-0.93,0-1.44,0.34-1.44,0.85
				c0,0.39,0.28,0.76,1.13,0.9l1.36,0.22c1.1,0.2,2.19,0.68,2.19,2.09c0,1.53-1.35,2.32-3.18,2.32c-1.72,0-3.19-0.68-3.38-2.6
				l1.49,0.02C156.92,98.87,157.58,99.24,158.68,99.24z"/>
		</g>
		<g>
			<g>
				<path fill="#746CBD" d="M190.51,94.21v5.72h-1.32l-0.12-1.81c-0.74,1.22-2,2-3.8,2c-3.15,0-5.46-2.42-5.46-5.35
					c0-3.27,2.46-5.56,5.53-5.56c2.28,0,4.45,1.26,5.07,3.77h-1.78c-0.54-1.63-2.01-2.22-3.25-2.22c-2.22,0-3.87,1.63-3.87,4.01
					c0,2.03,1.52,3.78,3.77,3.78c1.86,0,3.05-1.18,3.42-2.79h-3.55v-1.55H190.51z"/>
				<path fill="#746CBD" d="M200.04,92.64v7.28h-1.6v-0.57c-0.62,0.48-1.41,0.76-2.34,0.76c-2.05,0-3.69-1.7-3.69-3.83
					s1.64-3.83,3.69-3.83c0.93,0,1.72,0.28,2.34,0.76v-0.57H200.04z M198.45,97.6v-2.63c-0.54-0.77-1.3-1.05-2.11-1.05
					c-1.33,0-2.31,1.07-2.31,2.37c0,1.3,0.98,2.37,2.31,2.37C197.14,98.65,197.9,98.37,198.45,97.6z"/>
				<path fill="#746CBD" d="M202.27,89.96c0-0.57,0.45-0.99,1.02-0.99c0.56,0,1.02,0.42,1.02,0.99s-0.47,0.99-1.02,0.99
					C202.72,90.95,202.27,90.53,202.27,89.96z M204.1,92.64v7.28h-1.6v-7.28H204.1z"/>
				<path fill="#746CBD" d="M213.69,95.86v4.06h-1.61v-3.97c0-1.33-0.71-2.05-1.89-2.05c-0.7,0-1.46,0.39-2.03,1.1v4.91h-1.61v-7.28
					h1.61v0.65c0.64-0.54,1.43-0.84,2.36-0.84C212.41,92.45,213.69,93.76,213.69,95.86z"/>
				<path fill="#746CBD" d="M227.27,98.37v1.55h-7.3V89.39h1.67v8.99H227.27z"/>
				<path fill="#746CBD" d="M235.81,96.76h-5.72c0.15,1.1,0.85,1.94,2.22,1.94c0.71,0,1.26-0.22,1.55-0.68h1.77
					c-0.47,1.32-1.75,2.09-3.33,2.09c-2.29,0-3.84-1.66-3.84-3.83c0-2.15,1.53-3.83,3.75-3.83
					C234.62,92.45,236.12,94.3,235.81,96.76z M230.12,95.65h4.09c-0.09-1.19-0.87-1.83-2-1.83C231,93.82,230.31,94.62,230.12,95.65z
					"/>
				<path fill="#746CBD" d="M244.98,92.64v7.28h-1.6v-0.57c-0.62,0.48-1.41,0.76-2.34,0.76c-2.05,0-3.69-1.7-3.69-3.83
					s1.64-3.83,3.69-3.83c0.93,0,1.72,0.28,2.34,0.76v-0.57H244.98z M243.39,97.6v-2.63c-0.54-0.77-1.3-1.05-2.11-1.05
					c-1.33,0-2.31,1.07-2.31,2.37c0,1.3,0.98,2.37,2.31,2.37C242.08,98.65,242.84,98.37,243.39,97.6z"/>
				<path fill="#746CBD" d="M254.36,88.92v11h-1.6v-0.59c-0.62,0.5-1.41,0.77-2.34,0.77c-2.05,0-3.69-1.7-3.69-3.84
					c0-2.11,1.64-3.81,3.69-3.81c0.93,0,1.72,0.28,2.34,0.76v-4.29H254.36z M252.76,97.58v-2.62c-0.54-0.77-1.3-1.05-2.11-1.05
					c-1.33,0-2.31,1.07-2.31,2.36c0,1.3,0.98,2.39,2.31,2.39C251.46,98.65,252.22,98.37,252.76,97.58z"/>
				<path fill="#746CBD" d="M259.52,98.79c0.95,0,1.6-0.31,1.6-0.88c0-0.43-0.36-0.74-0.98-0.85l-1.61-0.28
					c-1.12-0.19-2.15-0.74-2.15-2.06c0-1.41,1.22-2.28,3.04-2.28c1.41,0,3.04,0.48,3.19,2.39h-1.49c-0.08-0.79-0.77-1.1-1.7-1.1
					s-1.44,0.34-1.44,0.85c0,0.39,0.28,0.76,1.13,0.9l1.36,0.22c1.1,0.2,2.19,0.68,2.19,2.09c0,1.53-1.35,2.32-3.18,2.32
					c-1.72,0-3.19-0.68-3.38-2.6l1.49,0.02C257.75,98.42,258.42,98.79,259.52,98.79z"/>
			</g>
		</g>
		<g>
			<path d="M87.49,75.02c-2.93,0-5.27-0.69-7.03-2.08c-1.76-1.39-2.78-3.37-3.08-5.94h3.48c0.2,1.68,0.88,2.96,2.03,3.83
				c1.15,0.87,2.7,1.31,4.66,1.31c1.64,0,2.89-0.3,3.73-0.91c0.84-0.6,1.27-1.47,1.27-2.59c0-1.01-0.28-1.81-0.84-2.4
				c-0.56-0.59-1.45-1.08-2.67-1.46l-4.22-1.34c-2.16-0.69-3.75-1.57-4.76-2.62c-1.01-1.05-1.52-2.38-1.52-4
				c0-1.37,0.34-2.54,1.03-3.53c0.69-0.98,1.66-1.75,2.91-2.3c1.25-0.55,2.71-0.82,4.38-0.82c2.57,0,4.62,0.64,6.17,1.93
				c1.54,1.29,2.43,3.07,2.65,5.36h-3.48c-0.27-1.52-0.86-2.64-1.76-3.34c-0.9-0.71-2.14-1.06-3.72-1.06
				c-1.49,0-2.65,0.29-3.48,0.87c-0.83,0.58-1.25,1.4-1.25,2.45c0,0.85,0.28,1.56,0.83,2.13c0.55,0.57,1.47,1.06,2.75,1.46L90,61.38
				c2.05,0.65,3.56,1.53,4.54,2.65c0.98,1.12,1.47,2.53,1.47,4.23c0,2.15-0.74,3.81-2.23,4.99C92.29,74.43,90.2,75.02,87.49,75.02z"
				/>
			<path d="M100.47,74.71V50.54h3.51v24.18H100.47z M112.7,74.71V63.7c0-1.19-0.3-2.07-0.9-2.65c-0.6-0.58-1.48-0.87-2.65-0.87
				c-1.01,0-1.91,0.22-2.69,0.67c-0.78,0.45-1.39,1.06-1.82,1.85c-0.44,0.78-0.66,1.71-0.66,2.79l-0.44-4.1
				c0.56-1.28,1.43-2.28,2.6-3.02c1.17-0.74,2.53-1.11,4.09-1.11c1.85,0,3.3,0.52,4.36,1.54c1.06,1.03,1.59,2.4,1.59,4.1v11.82
				H112.7z"/>
			<path d="M126.25,75.05c-1.76,0-3.15-0.43-4.19-1.29c-1.04-0.86-1.55-2.03-1.55-3.51c0-1.52,0.55-2.73,1.64-3.61
				c1.09-0.88,2.66-1.48,4.71-1.8l5.68-0.91v2.45l-5.14,0.81c-1.15,0.18-2.01,0.48-2.59,0.91c-0.57,0.43-0.86,1.04-0.86,1.85
				c0,0.78,0.26,1.37,0.79,1.76c0.53,0.39,1.3,0.59,2.31,0.59c1.35,0,2.47-0.32,3.36-0.97c0.89-0.65,1.33-1.47,1.33-2.45l0.44,2.49
				c-0.41,1.19-1.13,2.1-2.16,2.74C129,74.73,127.74,75.05,126.25,75.05z M132.2,74.71c-0.11-0.43-0.19-0.9-0.22-1.41
				c-0.03-0.51-0.05-1.14-0.05-1.88h-0.17v-8.16c0-1.1-0.28-1.92-0.83-2.47c-0.55-0.55-1.43-0.82-2.62-0.82
				c-1.15,0-2.07,0.22-2.75,0.67c-0.69,0.45-1.09,1.09-1.2,1.91h-3.35c0.16-1.61,0.89-2.9,2.2-3.86c1.31-0.96,3.05-1.44,5.24-1.44
				c2.25,0,3.94,0.52,5.07,1.56c1.13,1.04,1.69,2.57,1.69,4.58v8.03c0,0.51,0.03,1.04,0.1,1.58c0.07,0.54,0.17,1.11,0.3,1.71H132.2z
				"/>
			<path d="M140.75,74.71V57.59h3.34v4.26h0.17v12.86H140.75z M144.26,65.78l-0.44-4.06c0.41-1.46,1.1-2.56,2.09-3.32
				c0.99-0.76,2.17-1.14,3.55-1.14c0.52,0,0.88,0.05,1.08,0.13v3.29c-0.11-0.04-0.27-0.07-0.47-0.08s-0.45-0.02-0.74-0.02
				c-1.69,0-2.96,0.44-3.8,1.31C144.68,62.76,144.26,64.06,144.26,65.78z"/>
			<path d="M161.39,75.05c-1.73,0-3.26-0.38-4.58-1.14c-1.32-0.76-2.35-1.81-3.09-3.16c-0.74-1.34-1.11-2.89-1.11-4.63
				c0-1.77,0.37-3.32,1.1-4.65c0.73-1.33,1.76-2.37,3.09-3.11c1.33-0.74,2.85-1.11,4.56-1.11c1.67,0,3.11,0.35,4.34,1.06
				c1.23,0.71,2.17,1.68,2.84,2.94c0.66,1.25,1,2.74,1,4.47c0,0.27-0.01,0.52-0.02,0.76c-0.01,0.24-0.04,0.48-0.08,0.72h-14.46
				v-2.62h12l-0.88,1.04c0-1.84-0.42-3.24-1.25-4.2c-0.83-0.96-1.99-1.44-3.48-1.44c-1.6,0-2.87,0.54-3.8,1.63
				c-0.93,1.09-1.4,2.59-1.4,4.52c0,1.95,0.47,3.47,1.4,4.57c0.93,1.1,2.24,1.65,3.9,1.65c1.01,0,1.89-0.21,2.64-0.62
				c0.74-0.41,1.29-1.02,1.66-1.83h3.31c-0.56,1.61-1.52,2.88-2.86,3.79C164.87,74.59,163.26,75.05,161.39,75.05z"/>
			<path d="M173.93,74.71V50.54h10.31c1.76,0,3.26,0.29,4.49,0.87c1.24,0.58,2.19,1.41,2.86,2.48c0.66,1.07,1,2.35,1,3.83
				c0,1.5-0.33,2.79-1,3.88c-0.66,1.09-1.62,1.93-2.87,2.54c-1.25,0.6-2.74,0.91-4.48,0.91h-7.57v-2.96h7.4
				c1.6,0,2.82-0.38,3.67-1.14c0.84-0.76,1.27-1.82,1.27-3.19c0-1.39-0.42-2.45-1.25-3.19c-0.83-0.74-2.06-1.11-3.68-1.11h-6.56
				v21.26H173.93z"/>
			<path d="M200.73,75.05c-1.76,0-3.15-0.43-4.19-1.29c-1.04-0.86-1.55-2.03-1.55-3.51c0-1.52,0.55-2.73,1.64-3.61
				c1.09-0.88,2.66-1.48,4.71-1.8l5.68-0.91v2.45l-5.14,0.81c-1.15,0.18-2.01,0.48-2.58,0.91c-0.57,0.43-0.86,1.04-0.86,1.85
				c0,0.78,0.26,1.37,0.79,1.76c0.53,0.39,1.3,0.59,2.31,0.59c1.35,0,2.47-0.32,3.36-0.97c0.89-0.65,1.33-1.47,1.33-2.45l0.44,2.49
				c-0.41,1.19-1.13,2.1-2.16,2.74C203.47,74.73,202.21,75.05,200.73,75.05z M206.67,74.71c-0.11-0.43-0.19-0.9-0.22-1.41
				c-0.03-0.51-0.05-1.14-0.05-1.88h-0.17v-8.16c0-1.1-0.28-1.92-0.83-2.47c-0.55-0.55-1.42-0.82-2.62-0.82
				c-1.15,0-2.07,0.22-2.75,0.67c-0.69,0.45-1.09,1.09-1.2,1.91h-3.34c0.16-1.61,0.89-2.9,2.2-3.86c1.31-0.96,3.05-1.44,5.24-1.44
				c2.25,0,3.94,0.52,5.07,1.56c1.13,1.04,1.69,2.57,1.69,4.58v8.03c0,0.51,0.03,1.04,0.1,1.58c0.07,0.54,0.17,1.11,0.3,1.71H206.67
				z"/>
			<path d="M224.41,75.02c-1.62,0-2.97-0.39-4.04-1.16c-1.07-0.77-1.77-1.85-2.11-3.24l0.47-0.07V81.6h-3.51V57.59h3.34v3.93
				l-0.34-0.1c0.36-1.3,1.13-2.32,2.3-3.06c1.17-0.74,2.55-1.11,4.12-1.11c1.55,0,2.9,0.37,4.04,1.11c1.14,0.74,2.02,1.77,2.64,3.09
				c0.62,1.32,0.93,2.87,0.93,4.63c0,1.79-0.33,3.36-0.98,4.7c-0.65,1.34-1.57,2.38-2.74,3.12
				C227.36,74.65,225.99,75.02,224.41,75.02z M223.67,72.13c1.53,0,2.75-0.54,3.65-1.61c0.9-1.07,1.35-2.55,1.35-4.43
				c0-1.86-0.45-3.31-1.35-4.35c-0.9-1.04-2.13-1.56-3.68-1.56c-1.53,0-2.75,0.53-3.67,1.59c-0.91,1.06-1.37,2.54-1.37,4.42
				c0,1.84,0.46,3.29,1.37,4.35C220.88,71.6,222.11,72.13,223.67,72.13z"/>
			<path d="M244.25,75.05c-1.73,0-3.26-0.38-4.58-1.14c-1.32-0.76-2.35-1.81-3.09-3.16c-0.74-1.34-1.11-2.89-1.11-4.63
				c0-1.77,0.37-3.32,1.1-4.65c0.73-1.33,1.76-2.37,3.09-3.11c1.33-0.74,2.85-1.11,4.56-1.11c1.67,0,3.11,0.35,4.34,1.06
				c1.23,0.71,2.17,1.68,2.84,2.94c0.66,1.25,1,2.74,1,4.47c0,0.27-0.01,0.52-0.02,0.76c-0.01,0.24-0.04,0.48-0.08,0.72h-14.46
				v-2.62h12l-0.88,1.04c0-1.84-0.42-3.24-1.25-4.2c-0.83-0.96-1.99-1.44-3.48-1.44c-1.6,0-2.87,0.54-3.8,1.63s-1.4,2.59-1.4,4.52
				c0,1.95,0.47,3.47,1.4,4.57c0.93,1.1,2.24,1.65,3.9,1.65c1.01,0,1.89-0.21,2.64-0.62c0.74-0.41,1.29-1.02,1.66-1.83h3.31
				c-0.56,1.61-1.52,2.88-2.86,3.79C247.72,74.59,246.12,75.05,244.25,75.05z"/>
			<path d="M256.75,74.71V57.59h3.34v4.26h0.17v12.86H256.75z M260.26,65.78l-0.44-4.06c0.41-1.46,1.1-2.56,2.09-3.32
				c0.99-0.76,2.17-1.14,3.55-1.14c0.52,0,0.88,0.05,1.08,0.13v3.29c-0.11-0.04-0.27-0.07-0.47-0.08s-0.45-0.02-0.74-0.02
				c-1.69,0-2.96,0.44-3.8,1.31C260.68,62.76,260.26,64.06,260.26,65.78z"/>
		</g>
	</g>
	<linearGradient id="SVGID_1_" gradientUnits="userSpaceOnUse" x1="28.6373" y1="52.7782" x2="34.8465" y2="100.6775">
		<stop  offset="7.458905e-08" style="stop-color:#2548B7"/>
		<stop  offset="1" style="stop-color:#CE34BF"/>
	</linearGradient>
	<path fill="url(#SVGID_1_)" d="M51.92,83.96c-3.19-0.53-6.11,0.68-8,2.82l-13.2-3.77c0.11-0.65,0.17-1.32,0.17-2
		c0-3.21-1.27-6.13-3.34-8.27l8.78-9.07c1.51,0.94,3.41,1.34,5.41,0.84c2.5-0.62,4.5-2.67,5.04-5.19c1.09-5.05-3.3-9.43-8.35-8.32
		c-2.57,0.56-4.64,2.65-5.21,5.22c-0.47,2.14,0.06,4.14,1.19,5.67l-10.7,8.17c-1.38-0.6-2.9-0.96-4.5-0.99
		C12.74,68.93,7.17,74.23,7,80.7c-0.17,6.74,5.24,12.25,11.94,12.25c4.83,0,8.98-2.86,10.86-6.98l11.98,5.64
		c-0.16,1.49,0.04,3.08,0.94,4.77c1.53,2.86,4.48,4.83,7.72,4.82c5.24-0.01,9.4-4.68,8.55-10.09C58.44,87.5,55.52,84.56,51.92,83.96
		z"/>
</g>
</svg>
