<svg width="233" height="52" viewBox="0 0 233 52" fill="none" xmlns="http://www.w3.org/2000/svg">
<path d="M59.8379 26.3555C59.8379 25.8633 59.7617 25.4238 59.6094 25.0371C59.4688 24.6387 59.2051 24.2812 58.8184 23.9648C58.4434 23.6367 57.9102 23.3203 57.2188 23.0156C56.5391 22.6992 55.6602 22.3711 54.582 22.0312C53.3867 21.6562 52.2734 21.2344 51.2422 20.7656C50.2109 20.2969 49.3027 19.752 48.5176 19.1309C47.7441 18.5098 47.1406 17.7949 46.707 16.9863C46.2734 16.166 46.0566 15.2168 46.0566 14.1387C46.0566 13.084 46.2793 12.123 46.7246 11.2559C47.1816 10.3887 47.8262 9.64453 48.6582 9.02344C49.4902 8.39062 50.4688 7.9043 51.5938 7.56445C52.7305 7.22461 53.9844 7.05469 55.3555 7.05469C57.2539 7.05469 58.8945 7.40039 60.2773 8.0918C61.6719 8.7832 62.75 9.7207 63.5117 10.9043C64.2734 12.0879 64.6543 13.418 64.6543 14.8945H59.8379C59.8379 14.0977 59.668 13.3945 59.3281 12.7852C59 12.1758 58.4961 11.6953 57.8164 11.3438C57.1484 10.9922 56.3047 10.8164 55.2852 10.8164C54.3008 10.8164 53.4805 10.9629 52.8242 11.2559C52.1797 11.5488 51.6934 11.9473 51.3652 12.4512C51.0488 12.9551 50.8906 13.5176 50.8906 14.1387C50.8906 14.6074 51.002 15.0293 51.2246 15.4043C51.4473 15.7676 51.7812 16.1133 52.2266 16.4414C52.6719 16.7578 53.2227 17.0566 53.8789 17.3379C54.5469 17.6074 55.3203 17.877 56.1992 18.1465C57.6055 18.5684 58.8359 19.0371 59.8906 19.5527C60.957 20.0684 61.8418 20.6543 62.5449 21.3105C63.2598 21.9668 63.793 22.7051 64.1445 23.5254C64.5078 24.3457 64.6895 25.2773 64.6895 26.3203C64.6895 27.4219 64.4727 28.4062 64.0391 29.2734C63.6055 30.1406 62.9844 30.8789 62.1758 31.4883C61.3672 32.0977 60.3945 32.5605 59.2578 32.877C58.1328 33.1934 56.873 33.3516 55.4785 33.3516C54.2363 33.3516 53.0059 33.1875 51.7871 32.8594C50.5801 32.5195 49.4844 32.0156 48.5 31.3477C47.5156 30.668 46.7305 29.8125 46.1445 28.7812C45.5586 27.7383 45.2656 26.5195 45.2656 25.125H50.1172C50.1172 25.9336 50.2461 26.625 50.5039 27.1992C50.7734 27.7617 51.1484 28.2246 51.6289 28.5879C52.1211 28.9395 52.6953 29.1973 53.3516 29.3613C54.0078 29.5254 54.7168 29.6074 55.4785 29.6074C56.4629 29.6074 57.2715 29.4727 57.9043 29.2031C58.5488 28.9219 59.0293 28.5352 59.3457 28.043C59.6738 27.5508 59.8379 26.9883 59.8379 26.3555ZM72.6172 6V33H67.959V6H72.6172ZM71.8789 22.8047H70.5078C70.5078 21.4805 70.6836 20.2617 71.0352 19.1484C71.3867 18.0352 71.8848 17.0684 72.5293 16.248C73.1738 15.416 73.9414 14.7715 74.832 14.3145C75.7344 13.8574 76.7305 13.6289 77.8203 13.6289C78.7578 13.6289 79.6074 13.7637 80.3691 14.0332C81.1426 14.291 81.8047 14.707 82.3555 15.2812C82.9062 15.8555 83.3281 16.6055 83.6211 17.5312C83.9258 18.4453 84.0781 19.5586 84.0781 20.8711V33H79.4023V20.8359C79.4023 19.957 79.2734 19.2656 79.0156 18.7617C78.7578 18.2461 78.3887 17.877 77.9082 17.6543C77.4395 17.4316 76.8594 17.3203 76.168 17.3203C75.418 17.3203 74.7734 17.4668 74.2344 17.7598C73.6953 18.041 73.25 18.4336 72.8984 18.9375C72.5586 19.4414 72.3008 20.0215 72.125 20.6777C71.9609 21.334 71.8789 22.043 71.8789 22.8047ZM98.6504 28.957V20.1855C98.6504 19.541 98.5391 18.9844 98.3164 18.5156C98.0938 18.0469 97.7539 17.6836 97.2969 17.4258C96.8398 17.168 96.2598 17.0391 95.5566 17.0391C94.9355 17.0391 94.3906 17.1445 93.9219 17.3555C93.4648 17.5664 93.1133 17.8652 92.8672 18.252C92.6211 18.627 92.498 19.0605 92.498 19.5527H87.8398C87.8398 18.7676 88.0273 18.0234 88.4023 17.3203C88.7773 16.6055 89.3105 15.9727 90.002 15.4219C90.7051 14.8594 91.543 14.4199 92.5156 14.1035C93.5 13.7871 94.6016 13.6289 95.8203 13.6289C97.2617 13.6289 98.5449 13.875 99.6699 14.3672C100.807 14.8477 101.697 15.5742 102.342 16.5469C102.998 17.5195 103.326 18.7441 103.326 20.2207V28.5176C103.326 29.4668 103.385 30.2812 103.502 30.9609C103.631 31.6289 103.818 32.209 104.064 32.7012V33H99.3359C99.1133 32.5195 98.9434 31.9102 98.8262 31.1719C98.709 30.4219 98.6504 29.6836 98.6504 28.957ZM99.3008 21.416L99.3359 24.1758H96.4004C95.6738 24.1758 95.0352 24.252 94.4844 24.4043C93.9336 24.5449 93.4824 24.7559 93.1309 25.0371C92.7793 25.3066 92.5156 25.6348 92.3398 26.0215C92.1641 26.3965 92.0762 26.8242 92.0762 27.3047C92.0762 27.7734 92.1816 28.1953 92.3926 28.5703C92.6152 28.9453 92.9316 29.2441 93.3418 29.4668C93.7637 29.6777 94.2559 29.7832 94.8184 29.7832C95.6387 29.7832 96.3535 29.6191 96.9629 29.291C97.5723 28.9512 98.0469 28.541 98.3867 28.0605C98.7266 27.5801 98.9082 27.123 98.9316 26.6895L100.268 28.6934C100.104 29.1738 99.8574 29.6836 99.5293 30.2227C99.2012 30.7617 98.7793 31.2656 98.2637 31.7344C97.748 32.2031 97.127 32.5898 96.4004 32.8945C95.6738 33.1992 94.8301 33.3516 93.8691 33.3516C92.6387 33.3516 91.5371 33.1055 90.5645 32.6133C89.5918 32.1211 88.8242 31.4473 88.2617 30.5918C87.6992 29.7363 87.418 28.7637 87.418 27.6738C87.418 26.666 87.6055 25.7754 87.9805 25.002C88.3555 24.2285 88.9121 23.5781 89.6504 23.0508C90.3887 22.5117 91.3027 22.1074 92.3926 21.8379C93.4941 21.5566 94.7539 21.416 96.1719 21.416H99.3008ZM112.15 17.8652V33H107.51V13.9805H111.904L112.15 17.8652ZM117.934 13.8574L117.863 18.1816C117.605 18.1348 117.312 18.0996 116.984 18.0762C116.668 18.0527 116.369 18.041 116.088 18.041C115.373 18.041 114.746 18.1406 114.207 18.3398C113.668 18.5273 113.217 18.8027 112.854 19.166C112.502 19.5293 112.232 19.9746 112.045 20.502C111.857 21.0176 111.752 21.6035 111.729 22.2598L110.727 22.1367C110.727 20.9297 110.85 19.8105 111.096 18.7793C111.342 17.748 111.699 16.8457 112.168 16.0723C112.637 15.2988 113.223 14.7012 113.926 14.2793C114.641 13.8457 115.461 13.6289 116.387 13.6289C116.645 13.6289 116.92 13.6523 117.213 13.6992C117.518 13.7344 117.758 13.7871 117.934 13.8574ZM128.674 33.3516C127.232 33.3516 125.938 33.1172 124.789 32.6484C123.641 32.1797 122.662 31.5293 121.854 30.6973C121.057 29.8535 120.441 28.875 120.008 27.7617C119.586 26.6367 119.375 25.4297 119.375 24.1406V23.4375C119.375 21.9727 119.586 20.6426 120.008 19.4473C120.43 18.2402 121.027 17.2031 121.801 16.3359C122.574 15.4688 123.5 14.8008 124.578 14.332C125.656 13.8633 126.846 13.6289 128.146 13.6289C129.494 13.6289 130.684 13.8574 131.715 14.3145C132.746 14.7598 133.607 15.3926 134.299 16.2129C134.99 17.0332 135.512 18.0176 135.863 19.166C136.215 20.3027 136.391 21.5625 136.391 22.9453V24.8965H121.484V21.6973H131.82V21.3457C131.797 20.6074 131.656 19.9336 131.398 19.3242C131.141 18.7031 130.742 18.2109 130.203 17.8477C129.664 17.4727 128.967 17.2852 128.111 17.2852C127.42 17.2852 126.816 17.4375 126.301 17.7422C125.797 18.0352 125.375 18.457 125.035 19.0078C124.707 19.5469 124.461 20.1914 124.297 20.9414C124.133 21.6914 124.051 22.5234 124.051 23.4375V24.1406C124.051 24.9375 124.156 25.6758 124.367 26.3555C124.59 27.0352 124.912 27.627 125.334 28.1309C125.768 28.623 126.283 29.0098 126.881 29.291C127.49 29.5605 128.182 29.6953 128.955 29.6953C129.928 29.6953 130.807 29.5078 131.592 29.1328C132.389 28.7461 133.08 28.1777 133.666 27.4277L136.004 29.8535C135.605 30.4395 135.066 31.002 134.387 31.541C133.719 32.0801 132.91 32.5195 131.961 32.8594C131.012 33.1875 129.916 33.3516 128.674 33.3516ZM149.697 23.666H143.105V19.8691H149.697C150.775 19.8691 151.648 19.6934 152.316 19.3418C152.996 18.9785 153.494 18.4863 153.811 17.8652C154.127 17.2324 154.285 16.5117 154.285 15.7031C154.285 14.918 154.127 14.1855 153.811 13.5059C153.494 12.8262 152.996 12.2754 152.316 11.8535C151.648 11.4316 150.775 11.2207 149.697 11.2207H144.688V33H139.854V7.40625H149.697C151.689 7.40625 153.389 7.76367 154.795 8.47852C156.213 9.18164 157.291 10.1602 158.029 11.4141C158.779 12.6563 159.154 14.0742 159.154 15.668C159.154 17.3203 158.779 18.7441 158.029 19.9395C157.291 21.1348 156.213 22.0547 154.795 22.6992C153.389 23.3438 151.689 23.666 149.697 23.666ZM172.865 28.957V20.1855C172.865 19.541 172.754 18.9844 172.531 18.5156C172.309 18.0469 171.969 17.6836 171.512 17.4258C171.055 17.168 170.475 17.0391 169.771 17.0391C169.15 17.0391 168.605 17.1445 168.137 17.3555C167.68 17.5664 167.328 17.8652 167.082 18.252C166.836 18.627 166.713 19.0605 166.713 19.5527H162.055C162.055 18.7676 162.242 18.0234 162.617 17.3203C162.992 16.6055 163.525 15.9727 164.217 15.4219C164.92 14.8594 165.758 14.4199 166.73 14.1035C167.715 13.7871 168.816 13.6289 170.035 13.6289C171.477 13.6289 172.76 13.875 173.885 14.3672C175.021 14.8477 175.912 15.5742 176.557 16.5469C177.213 17.5195 177.541 18.7441 177.541 20.2207V28.5176C177.541 29.4668 177.6 30.2812 177.717 30.9609C177.846 31.6289 178.033 32.209 178.279 32.7012V33H173.551C173.328 32.5195 173.158 31.9102 173.041 31.1719C172.924 30.4219 172.865 29.6836 172.865 28.957ZM173.516 21.416L173.551 24.1758H170.615C169.889 24.1758 169.25 24.252 168.699 24.4043C168.148 24.5449 167.697 24.7559 167.346 25.0371C166.994 25.3066 166.73 25.6348 166.555 26.0215C166.379 26.3965 166.291 26.8242 166.291 27.3047C166.291 27.7734 166.396 28.1953 166.607 28.5703C166.83 28.9453 167.146 29.2441 167.557 29.4668C167.979 29.6777 168.471 29.7832 169.033 29.7832C169.854 29.7832 170.568 29.6191 171.178 29.291C171.787 28.9512 172.262 28.541 172.602 28.0605C172.941 27.5801 173.123 27.123 173.146 26.6895L174.482 28.6934C174.318 29.1738 174.072 29.6836 173.744 30.2227C173.416 30.7617 172.994 31.2656 172.479 31.7344C171.963 32.2031 171.342 32.5898 170.615 32.8945C169.889 33.1992 169.045 33.3516 168.084 33.3516C166.854 33.3516 165.752 33.1055 164.779 32.6133C163.807 32.1211 163.039 31.4473 162.477 30.5918C161.914 29.7363 161.633 28.7637 161.633 27.6738C161.633 26.666 161.82 25.7754 162.195 25.002C162.57 24.2285 163.127 23.5781 163.865 23.0508C164.604 22.5117 165.518 22.1074 166.607 21.8379C167.709 21.5566 168.969 21.416 170.387 21.416H173.516ZM186.365 17.6367V40.3125H181.707V13.9805H186.014L186.365 17.6367ZM198.582 23.2969V23.666C198.582 25.0488 198.418 26.332 198.09 27.5156C197.773 28.6875 197.305 29.7129 196.684 30.5918C196.062 31.459 195.289 32.1387 194.363 32.6309C193.449 33.1113 192.395 33.3516 191.199 33.3516C190.027 33.3516 189.008 33.1289 188.141 32.6836C187.273 32.2266 186.541 31.582 185.943 30.75C185.346 29.918 184.865 28.9512 184.502 27.8496C184.15 26.7363 183.887 25.5234 183.711 24.2109V23.0332C183.887 21.6387 184.15 20.373 184.502 19.2363C184.865 18.0879 185.346 17.0977 185.943 16.2656C186.541 15.4219 187.268 14.7715 188.123 14.3145C188.99 13.8574 190.004 13.6289 191.164 13.6289C192.371 13.6289 193.432 13.8574 194.346 14.3145C195.271 14.7715 196.051 15.4277 196.684 16.2832C197.316 17.1387 197.791 18.1582 198.107 19.3418C198.424 20.5254 198.582 21.8438 198.582 23.2969ZM193.924 23.666V23.2969C193.924 22.4531 193.848 21.6738 193.695 20.959C193.543 20.2324 193.309 19.5996 192.992 19.0605C192.676 18.5098 192.266 18.082 191.762 17.7773C191.258 17.4727 190.648 17.3203 189.934 17.3203C189.219 17.3203 188.604 17.4375 188.088 17.6719C187.572 17.9062 187.15 18.2402 186.822 18.6738C186.494 19.1074 186.236 19.623 186.049 20.2207C185.873 20.8066 185.756 21.457 185.697 22.1719V25.0898C185.803 25.957 186.008 26.7363 186.312 27.4277C186.617 28.1191 187.062 28.6699 187.648 29.0801C188.246 29.4902 189.02 29.6953 189.969 29.6953C190.684 29.6953 191.293 29.5371 191.797 29.2207C192.301 28.9043 192.711 28.4707 193.027 27.9199C193.344 27.3574 193.572 26.7129 193.713 25.9863C193.854 25.2598 193.924 24.4863 193.924 23.666ZM210.518 33.3516C209.076 33.3516 207.781 33.1172 206.633 32.6484C205.484 32.1797 204.506 31.5293 203.697 30.6973C202.9 29.8535 202.285 28.875 201.852 27.7617C201.43 26.6367 201.219 25.4297 201.219 24.1406V23.4375C201.219 21.9727 201.43 20.6426 201.852 19.4473C202.273 18.2402 202.871 17.2031 203.645 16.3359C204.418 15.4688 205.344 14.8008 206.422 14.332C207.5 13.8633 208.689 13.6289 209.99 13.6289C211.338 13.6289 212.527 13.8574 213.559 14.3145C214.59 14.7598 215.451 15.3926 216.143 16.2129C216.834 17.0332 217.355 18.0176 217.707 19.166C218.059 20.3027 218.234 21.5625 218.234 22.9453V24.8965H203.328V21.6973H213.664V21.3457C213.641 20.6074 213.5 19.9336 213.242 19.3242C212.984 18.7031 212.586 18.2109 212.047 17.8477C211.508 17.4727 210.811 17.2852 209.955 17.2852C209.264 17.2852 208.66 17.4375 208.145 17.7422C207.641 18.0352 207.219 18.457 206.879 19.0078C206.551 19.5469 206.305 20.1914 206.141 20.9414C205.977 21.6914 205.895 22.5234 205.895 23.4375V24.1406C205.895 24.9375 206 25.6758 206.211 26.3555C206.434 27.0352 206.756 27.627 207.178 28.1309C207.611 28.623 208.127 29.0098 208.725 29.291C209.334 29.5605 210.025 29.6953 210.799 29.6953C211.771 29.6953 212.65 29.5078 213.436 29.1328C214.232 28.7461 214.924 28.1777 215.51 27.4277L217.848 29.8535C217.449 30.4395 216.91 31.002 216.23 31.541C215.562 32.0801 214.754 32.5195 213.805 32.8594C212.855 33.1875 211.76 33.3516 210.518 33.3516ZM225.986 17.8652V33H221.346V13.9805H225.74L225.986 17.8652ZM231.77 13.8574L231.699 18.1816C231.441 18.1348 231.148 18.0996 230.82 18.0762C230.504 18.0527 230.205 18.041 229.924 18.041C229.209 18.041 228.582 18.1406 228.043 18.3398C227.504 18.5273 227.053 18.8027 226.689 19.166C226.338 19.5293 226.068 19.9746 225.881 20.502C225.693 21.0176 225.588 21.6035 225.564 22.2598L224.562 22.1367C224.562 20.9297 224.686 19.8105 224.932 18.7793C225.178 17.748 225.535 16.8457 226.004 16.0723C226.473 15.2988 227.059 14.7012 227.762 14.2793C228.477 13.8457 229.297 13.6289 230.223 13.6289C230.48 13.6289 230.756 13.6523 231.049 13.6992C231.354 13.7344 231.594 13.7871 231.77 13.8574Z" fill="#212529"/>
<path d="M31 2C27.1518 2 24 5.15178 24 9C24 9.58577 24.1985 10.1095 24.3359 10.6543L12.3457 16.6523C11.0591 15.0739 9.1815 14 7 14C3.15177 14 0 17.1518 0 21C0 24.8482 3.15177 28 7 28C9.1815 28 11.0591 26.9261 12.3457 25.3477L24.3359 31.3457C24.1985 31.8905 24 32.4142 24 33C24 36.8482 27.1518 40 31 40C34.8482 40 38 36.8482 38 33C38 29.1518 34.8482 26 31 26C28.8185 26 26.9409 27.0739 25.6543 28.6523L13.6641 22.6543C13.8015 22.1095 14 21.5858 14 21C14 20.4142 13.8015 19.8905 13.6641 19.3457L25.6543 13.3477C26.9409 14.9261 28.8185 16 31 16C34.8482 16 38 12.8482 38 9C38 5.15178 34.8482 2 31 2ZM31 5C33.2269 5 35 6.77309 35 9C35 11.2269 33.2269 13 31 13C28.7731 13 27 11.2269 27 9C27 6.77309 28.7731 5 31 5ZM7 17C9.22691 17 11 18.7731 11 21C11 23.2269 9.22691 25 7 25C4.77309 25 3 23.2269 3 21C3 18.7731 4.77309 17 7 17ZM31 29C33.2269 29 35 30.7731 35 33C35 35.2269 33.2269 37 31 37C28.7731 37 27 35.2269 27 33C27 30.7731 28.7731 29 31 29Z" fill="url(#paint0_linear_1876_1969)"/>
<path d="M204.689 44.2148H201.887L201.873 43.5039H204.286C204.778 43.5039 205.198 43.4333 205.544 43.292C205.89 43.1507 206.152 42.9411 206.33 42.6631C206.512 42.3805 206.604 42.0342 206.604 41.624C206.604 41.2048 206.515 40.8584 206.337 40.585C206.159 40.307 205.893 40.1019 205.537 39.9697C205.182 39.8376 204.735 39.7715 204.197 39.7715H202.105V49H201.265V39.0469H204.197C204.703 39.0469 205.157 39.097 205.558 39.1973C205.959 39.2975 206.3 39.4548 206.583 39.6689C206.866 39.8831 207.08 40.1543 207.226 40.4824C207.376 40.806 207.451 41.1934 207.451 41.6445C207.451 42.0547 207.36 42.4261 207.178 42.7588C206.995 43.0869 206.738 43.3558 206.405 43.5654C206.077 43.7705 205.683 43.8981 205.223 43.9482L204.689 44.2148ZM204.628 49H201.62L202.051 48.2822H204.628C205.12 48.2822 205.539 48.2002 205.886 48.0361C206.237 47.8675 206.506 47.6283 206.692 47.3184C206.879 47.0085 206.973 46.6393 206.973 46.2109C206.973 45.8327 206.891 45.4932 206.727 45.1924C206.562 44.8916 206.312 44.6546 205.975 44.4814C205.637 44.3037 205.209 44.2148 204.689 44.2148H202.946L202.96 43.5039H205.428L205.578 43.7568C206.025 43.8024 206.414 43.9414 206.747 44.1738C207.084 44.4017 207.344 44.6911 207.526 45.042C207.713 45.3929 207.807 45.778 207.807 46.1973C207.807 46.7988 207.672 47.3092 207.403 47.7285C207.139 48.1432 206.768 48.46 206.289 48.6787C205.815 48.8929 205.261 49 204.628 49ZM212.517 49.1367C212.034 49.1367 211.589 49.0479 211.184 48.8701C210.783 48.6924 210.432 48.4417 210.131 48.1182C209.835 47.7946 209.604 47.4118 209.44 46.9697C209.281 46.5231 209.201 46.0355 209.201 45.5068V45.2129C209.201 44.6432 209.285 44.1283 209.454 43.668C209.623 43.2077 209.855 42.8135 210.151 42.4854C210.448 42.1572 210.785 41.9066 211.163 41.7334C211.546 41.5557 211.947 41.4668 212.366 41.4668C212.836 41.4668 213.253 41.5511 213.617 41.7197C213.982 41.8838 214.287 42.1185 214.533 42.4238C214.784 42.7246 214.973 43.0824 215.101 43.4971C215.228 43.9072 215.292 44.3607 215.292 44.8574V45.3564H209.693V44.6592H214.479V44.5635C214.469 44.1488 214.385 43.7614 214.226 43.4014C214.071 43.0368 213.838 42.7406 213.528 42.5127C213.218 42.2848 212.831 42.1709 212.366 42.1709C212.02 42.1709 211.701 42.2438 211.409 42.3896C211.122 42.5355 210.874 42.7451 210.664 43.0186C210.459 43.2874 210.299 43.6087 210.186 43.9824C210.076 44.3516 210.021 44.7617 210.021 45.2129V45.5068C210.021 45.917 210.081 46.2998 210.199 46.6553C210.322 47.0062 210.495 47.3161 210.719 47.585C210.947 47.8538 211.215 48.0635 211.525 48.2139C211.835 48.3643 212.177 48.4395 212.551 48.4395C212.988 48.4395 213.376 48.3597 213.713 48.2002C214.05 48.0361 214.353 47.7786 214.622 47.4277L215.135 47.8242C214.975 48.0612 214.775 48.2799 214.533 48.4805C214.296 48.681 214.011 48.8405 213.679 48.959C213.346 49.0775 212.959 49.1367 212.517 49.1367ZM219.701 41.6035V42.2734H215.996V41.6035H219.701ZM217.356 39.7031H218.17V47.2021C218.17 47.5439 218.215 47.8014 218.307 47.9746C218.398 48.1478 218.516 48.264 218.662 48.3232C218.808 48.3825 218.965 48.4121 219.134 48.4121C219.257 48.4121 219.375 48.4053 219.489 48.3916C219.603 48.3734 219.706 48.3551 219.797 48.3369L219.831 49.0273C219.731 49.0592 219.601 49.0843 219.441 49.1025C219.282 49.1253 219.122 49.1367 218.963 49.1367C218.648 49.1367 218.37 49.0798 218.129 48.9658C217.887 48.8473 217.698 48.6468 217.562 48.3643C217.425 48.0771 217.356 47.6875 217.356 47.1953V39.7031ZM225.915 47.6738V43.8594C225.915 43.5085 225.842 43.2054 225.696 42.9502C225.55 42.695 225.336 42.499 225.054 42.3623C224.771 42.2256 224.423 42.1572 224.008 42.1572C223.625 42.1572 223.283 42.2256 222.982 42.3623C222.686 42.4945 222.451 42.6745 222.278 42.9023C222.11 43.1257 222.025 43.374 222.025 43.6475L221.205 43.6406C221.205 43.3626 221.273 43.0938 221.41 42.834C221.547 42.5742 221.741 42.3418 221.991 42.1367C222.242 41.9316 222.54 41.7699 222.887 41.6514C223.238 41.5283 223.623 41.4668 224.042 41.4668C224.571 41.4668 225.035 41.5557 225.437 41.7334C225.842 41.9111 226.159 42.1777 226.387 42.5332C226.615 42.8887 226.729 43.3353 226.729 43.873V47.4482C226.729 47.7035 226.747 47.9678 226.783 48.2412C226.824 48.5146 226.881 48.7402 226.954 48.918V49H226.086C226.031 48.8359 225.988 48.6309 225.956 48.3848C225.929 48.1341 225.915 47.8971 225.915 47.6738ZM226.106 44.6934L226.12 45.3223H224.514C224.094 45.3223 223.718 45.361 223.386 45.4385C223.058 45.5114 222.78 45.6208 222.552 45.7666C222.324 45.9079 222.148 46.0788 222.025 46.2793C221.907 46.4798 221.848 46.7077 221.848 46.9629C221.848 47.2272 221.914 47.4688 222.046 47.6875C222.183 47.9062 222.374 48.0817 222.62 48.2139C222.871 48.3415 223.167 48.4053 223.509 48.4053C223.965 48.4053 224.366 48.321 224.712 48.1523C225.063 47.9837 225.352 47.7627 225.58 47.4893C225.808 47.2158 225.961 46.9173 226.038 46.5938L226.394 47.0654C226.334 47.2933 226.225 47.528 226.065 47.7695C225.91 48.0065 225.708 48.2298 225.457 48.4395C225.206 48.6445 224.91 48.8132 224.568 48.9453C224.231 49.0729 223.848 49.1367 223.42 49.1367C222.937 49.1367 222.515 49.0456 222.155 48.8633C221.8 48.681 221.522 48.4326 221.321 48.1182C221.125 47.7992 221.027 47.4391 221.027 47.0381C221.027 46.6735 221.105 46.3477 221.26 46.0605C221.415 45.7689 221.638 45.5228 221.93 45.3223C222.226 45.1172 222.581 44.9622 222.996 44.8574C223.415 44.748 223.885 44.6934 224.404 44.6934H226.106Z" fill="black"/>
<defs>
<linearGradient id="paint0_linear_1876_1969" x1="19" y1="2" x2="19" y2="40" gradientUnits="userSpaceOnUse">
<stop stop-color="#042B87"/>
<stop offset="1" stop-color="#AD59B4"/>
</linearGradient>
</defs>
</svg>
