<svg width="95" height="96" viewBox="0 0 95 96" fill="none" xmlns="http://www.w3.org/2000/svg">
<ellipse cx="47.5066" cy="48" rx="47.3383" ry="48" fill="white"/>
<path d="M55.9311 41.9998L51 37V40.7484C51.0015 41.4384 51.5539 41.9984 52.2343 42L55.9311 41.9998Z" fill="#7D78B1"/>
<path d="M50.4928 40.7544V37H40.0821C38.9331 37.0014 38.0013 38.0243 38 39.2857V62.7143C38.0013 63.9757 38.9331 64.9986 40.0821 65H53.9179C55.0669 64.9986 55.9987 63.9757 56 62.7143V43.0398H52.575C51.4259 43.0384 50.4941 42.0159 50.4928 40.7544ZM40.6025 43.2859H46.9998C47.2874 43.2859 47.5204 43.5416 47.5204 43.8573C47.5204 44.1731 47.2874 44.4288 46.9998 44.4288H40.6025C40.3149 44.4288 40.082 44.1731 40.082 43.8573C40.082 43.5416 40.3149 43.2859 40.6025 43.2859ZM53.3972 61.5717H40.6025C40.3149 61.5717 40.082 61.316 40.082 61.0003C40.082 60.6846 40.3149 60.4289 40.6025 60.4289H53.3972C53.6848 60.4289 53.9177 60.6846 53.9177 61.0003C53.9177 61.316 53.6848 61.5717 53.3972 61.5717ZM53.3972 58.7146H40.6025C40.3149 58.7146 40.082 58.4589 40.082 58.1431C40.082 57.8274 40.3149 57.5717 40.6025 57.5717H53.3972C53.6848 57.5717 53.9177 57.8274 53.9177 58.1431C53.9177 58.4589 53.6848 58.7146 53.3972 58.7146ZM53.3972 55.8574H40.6025C40.3149 55.8574 40.082 55.6017 40.082 55.286C40.082 54.9703 40.3149 54.7145 40.6025 54.7145H53.3972C53.6848 54.7145 53.9177 54.9703 53.9177 55.286C53.9177 55.6017 53.6848 55.8574 53.3972 55.8574ZM53.3972 53.0003H40.6025C40.3149 53.0003 40.082 52.7445 40.082 52.4288C40.082 52.1131 40.3149 51.8574 40.6025 51.8574H53.3972C53.6848 51.8574 53.9177 52.1131 53.9177 52.4288C53.9177 52.7445 53.6848 53.0003 53.3972 53.0003ZM53.3972 50.1431H40.6025C40.3149 50.1431 40.082 49.8874 40.082 49.5717C40.082 49.2559 40.3149 49.0002 40.6025 49.0002H53.3972C53.6848 49.0002 53.9177 49.2559 53.9177 49.5717C53.9177 49.8874 53.6848 50.1431 53.3972 50.1431ZM53.9177 46.7145C53.9164 47.0302 53.6848 47.2845 53.3972 47.2859H40.6025C40.3149 47.2859 40.082 47.0302 40.082 46.7145C40.082 46.3988 40.3149 46.1431 40.6025 46.1431H53.3972C53.6848 46.1445 53.9164 46.3988 53.9177 46.7145Z" fill="url(#paint0_linear_2886_1215)" fill-opacity="0.66"/>
<path d="M58.1097 34.0002H42.8204C42.2328 34.0002 41.6688 34.2308 41.2516 34.6425C40.8358 35.0557 40.603 35.6143 40.603 36.1962V36.7453H51.136C51.5684 36.7453 51.9827 36.9113 52.2945 37.2064L57.0622 41.9334C57.3768 42.2409 57.5542 42.6595 57.5555 43.0973V62H58.1099C58.6975 62 59.2616 61.7694 59.6774 61.3563C60.0945 60.9445 60.3273 60.3859 60.3273 59.8039V36.1961C60.3273 35.6141 60.0945 35.0555 59.6787 34.6423C59.2616 34.2306 58.6973 34.0002 58.1097 34.0002Z" fill="url(#paint1_linear_2886_1215)"/>
<defs>
<linearGradient id="paint0_linear_2886_1215" x1="38.8218" y1="37" x2="57.0002" y2="63.7439" gradientUnits="userSpaceOnUse">
<stop stop-color="#483EA8"/>
<stop offset="1" stop-color="#1C1842"/>
</linearGradient>
<linearGradient id="paint1_linear_2886_1215" x1="50.4652" y1="34" x2="50.4652" y2="62" gradientUnits="userSpaceOnUse">
<stop stop-color="#827CBC"/>
<stop offset="1" stop-color="#3B3956"/>
</linearGradient>
</defs>
</svg>
