<svg width="95" height="96" viewBox="0 0 95 96" fill="none" xmlns="http://www.w3.org/2000/svg">
<ellipse cx="47.5066" cy="48" rx="47.3383" ry="48" fill="black"/>
<path d="M56.3825 42.9998L51.4514 38V41.7484C51.453 42.4384 52.0053 42.9984 52.6858 43L56.3825 42.9998Z" fill="white"/>
<path d="M50.6496 41.6204V38H39.812C38.6159 38.0014 37.6459 38.9877 37.6445 40.2041V62.7959C37.6459 64.0123 38.6159 64.9986 39.812 65H54.2151C55.4113 64.9986 56.3813 64.0123 56.3826 62.7959V43.8241H52.8171C51.6209 43.8227 50.651 42.8367 50.6496 41.6204ZM40.3538 44.0614H47.0134C47.3128 44.0614 47.5553 44.308 47.5553 44.6124C47.5553 44.9169 47.3128 45.1635 47.0134 45.1635H40.3538C40.0544 45.1635 39.8119 44.9169 39.8119 44.6124C39.8119 44.308 40.0544 44.0614 40.3538 44.0614ZM53.673 61.6942H40.3538C40.0544 61.6942 39.8119 61.4476 39.8119 61.1431C39.8119 60.8387 40.0544 60.5921 40.3538 60.5921H53.673C53.9724 60.5921 54.2149 60.8387 54.2149 61.1431C54.2149 61.4476 53.9724 61.6942 53.673 61.6942ZM53.673 58.9391H40.3538C40.0544 58.9391 39.8119 58.6925 39.8119 58.388C39.8119 58.0836 40.0544 57.837 40.3538 57.837H53.673C53.9724 57.837 54.2149 58.0836 54.2149 58.388C54.2149 58.6925 53.9724 58.9391 53.673 58.9391ZM53.673 56.1839H40.3538C40.0544 56.1839 39.8119 55.9374 39.8119 55.6329C39.8119 55.3285 40.0544 55.0819 40.3538 55.0819H53.673C53.9724 55.0819 54.2149 55.3285 54.2149 55.6329C54.2149 55.9374 53.9724 56.1839 53.673 56.1839ZM53.673 53.4288H40.3538C40.0544 53.4288 39.8119 53.1822 39.8119 52.8778C39.8119 52.5733 40.0544 52.3268 40.3538 52.3268H53.673C53.9724 52.3268 54.2149 52.5733 54.2149 52.8778C54.2149 53.1822 53.9724 53.4288 53.673 53.4288ZM53.673 50.6737H40.3538C40.0544 50.6737 39.8119 50.4271 39.8119 50.1227C39.8119 49.8182 40.0544 49.5716 40.3538 49.5716H53.673C53.9724 49.5716 54.2149 49.8182 54.2149 50.1227C54.2149 50.4271 53.9724 50.6737 53.673 50.6737ZM54.2149 47.3675C54.2136 47.672 53.9724 47.9172 53.673 47.9186H40.3538C40.0544 47.9186 39.8119 47.672 39.8119 47.3675C39.8119 47.0631 40.0544 46.8165 40.3538 46.8165H53.673C53.9724 46.8179 54.2136 47.0631 54.2149 47.3675Z" fill="white"/>
<path d="M58.1097 34.0002H42.8204C42.2328 34.0002 41.6688 34.2308 41.2516 34.6425C40.8358 35.0557 40.603 35.6143 40.603 36.1962V36.7453H51.136C51.5684 36.7453 51.9827 36.9113 52.2945 37.2064L57.0622 41.9334C57.3768 42.2409 57.5542 42.6595 57.5555 43.0973V62H58.1099C58.6975 62 59.2616 61.7694 59.6774 61.3563C60.0945 60.9445 60.3273 60.3859 60.3273 59.8039V36.1961C60.3273 35.6141 60.0945 35.0555 59.6787 34.6423C59.2616 34.2306 58.6973 34.0002 58.1097 34.0002Z" fill="white"/>
</svg>
